<svg width="50" height="50" viewBox="0 0 50 50" fill="none" xmlns="http://www.w3.org/2000/svg">
<g clip-path="url(#clip0_1277_321)">
<rect width="50" height="50" fill="white"/>
<circle cx="25" cy="25" r="24.5" fill="#EBE2FF" stroke="#E6EAF4"/>
<path d="M16.0635 22.6718C16.2895 22.6718 16.4736 22.4909 16.4736 22.2689V18.2694L26.573 23.4822C26.6328 23.5128 26.6985 23.528 26.7631 23.528C26.8289 23.528 26.8946 23.5128 26.9532 23.4822L37.055 18.2694V27.074C37.055 27.296 37.2392 27.4768 37.4652 27.4768C37.6912 27.4768 37.8753 27.296 37.8753 27.074L37.8765 17.6798C37.8765 16.3948 36.8122 15.3483 35.5053 15.3483H32.9918V13.8436C32.9918 12.2756 31.6944 11 30.0993 11H23.4318C21.8366 11 20.5392 12.2756 20.5392 13.8436V15.3483H18.0257C16.7176 15.3483 15.6545 16.3936 15.6545 17.6798V22.2689C15.6533 22.4909 15.8375 22.6718 16.0635 22.6718ZM21.3584 13.8438C21.3584 12.7197 22.2875 11.8059 23.4306 11.8059L30.0993 11.8071C31.2425 11.8071 32.1716 12.7209 32.1716 13.845V15.3496H31.429L31.4302 13.8438C31.4302 13.1226 30.8335 12.5353 30.0993 12.5353L23.4318 12.5365C22.6988 12.5365 22.1009 13.1238 22.1009 13.845V15.3496H21.3583L21.3584 13.8438ZM30.6089 15.3484H22.9214V13.8438C22.9214 13.5666 23.1498 13.3411 23.4308 13.3411L30.0995 13.3423C30.3805 13.3423 30.6089 13.5678 30.6089 13.845L30.6089 15.3484ZM18.0248 16.1542H35.5055C36.254 16.1542 36.8818 16.6792 37.0253 17.3746L26.7643 22.6695L16.5045 17.3746C16.6492 16.6792 17.2758 16.1542 18.0243 16.1542H18.0248ZM38.3921 33.4145C37.0971 34.0311 35.9576 34.589 34.952 35.08C31.0145 37.0063 28.984 38 26.9046 38C26.846 38 26.7874 37.9988 26.7288 37.9977C24.5919 37.9401 22.4744 36.8372 18.2555 34.6371C17.4185 34.2014 16.4738 33.7081 15.4347 33.176H10.4101C10.1841 33.176 10 32.9951 10 32.7731C10 32.5511 10.1841 32.3702 10.4101 32.3702H15.5351C15.6009 32.3702 15.6667 32.3855 15.7252 32.416C16.8014 32.9681 17.7784 33.4767 18.6393 33.9253C22.7455 36.0654 24.806 37.14 26.7501 37.1917C28.6885 37.2446 30.6592 36.2791 34.5861 34.3587C35.5929 33.8665 36.7337 33.3074 38.0336 32.6896C39.0404 32.2092 39.4637 31.0135 38.9758 30.0233C38.4879 29.0355 37.2695 28.6209 36.2614 29.1001L29.3919 32.3725C29.3321 32.4712 29.2687 32.5675 29.1958 32.6591C28.7306 33.2511 28.0586 33.6281 27.3017 33.7245C27.1773 33.7409 27.0518 33.7479 26.9286 33.7479C26.302 33.7479 25.6982 33.5471 25.1959 33.1665L20.5935 29.6779C20.4141 29.5417 20.3806 29.2891 20.5193 29.113C20.658 28.9368 20.9151 28.9039 21.0945 29.0401L25.6982 32.5296C26.125 32.8538 26.6584 32.9936 27.1976 32.9255C27.7369 32.8573 28.2164 32.5884 28.5465 32.1679C28.6612 32.0199 28.7557 31.859 28.8239 31.6886C28.8263 31.6839 28.8287 31.6792 28.831 31.6745C29.1551 30.857 28.9004 29.9186 28.1794 29.3712C27.0972 28.5513 26.015 27.7315 24.933 26.9116C23.8508 26.0918 22.7687 25.2719 21.6866 24.4509C21.3805 24.2183 21.0577 24.1103 20.6703 24.1103H10.4105C10.1845 24.1103 10.0004 23.9294 10.0004 23.7074C10.0004 23.4854 10.1845 23.3045 10.4105 23.3045H20.6703C21.2406 23.3045 21.7369 23.4713 22.1889 23.8131C23.271 24.633 24.3532 25.4528 25.4352 26.2739C26.5174 27.0937 27.5995 27.9136 28.6816 28.7346C29.5007 29.356 29.8917 30.3391 29.7697 31.2999L35.9064 28.3763C37.321 27.7045 39.0297 28.2859 39.716 29.6742C40.4 31.0614 39.8055 32.74 38.3921 33.4145Z" fill="#6524EB"/>
</g>
<defs>
<clipPath id="clip0_1277_321">
<rect width="50" height="50" fill="white"/>
</clipPath>
</defs>
</svg>
