<svg width="44" height="44" viewBox="0 0 44 44" fill="none" xmlns="http://www.w3.org/2000/svg">
<rect width="44" height="44" rx="22" fill="#5F33E1"/>
<path d="M21.9974 11.9141C22.6935 11.9141 23.2578 12.4784 23.2578 13.1745V20.737H30.8203C31.5164 20.737 32.0807 21.3013 32.0807 21.9974C32.0807 22.6935 31.5164 23.2578 30.8203 23.2578H23.2578V30.8203C23.2578 31.5164 22.6935 32.0807 21.9974 32.0807C21.3013 32.0807 20.737 31.5164 20.737 30.8203V23.2578H13.1745C12.4784 23.2578 11.9141 22.6935 11.9141 21.9974C11.9141 21.3013 12.4784 20.737 13.1745 20.737H20.737V13.1745C20.737 12.4784 21.3013 11.9141 21.9974 11.9141Z" fill="white"/>
</svg>
