<svg width="39" height="39" viewBox="0 0 39 39" fill="none" xmlns="http://www.w3.org/2000/svg">
<rect width="39" height="39" rx="19.5" fill="#5F33E1"/>
<path d="M19.5 10.5625C20.117 10.5625 20.6172 11.0627 20.6172 11.6797V18.3828H27.3203C27.9373 18.3828 28.4375 18.883 28.4375 19.5C28.4375 20.117 27.9373 20.6172 27.3203 20.6172H20.6172V27.3203C20.6172 27.9373 20.117 28.4375 19.5 28.4375C18.883 28.4375 18.3828 27.9373 18.3828 27.3203V20.6172H11.6797C11.0627 20.6172 10.5625 20.117 10.5625 19.5C10.5625 18.883 11.0627 18.3828 11.6797 18.3828H18.3828V11.6797C18.3828 11.0627 18.883 10.5625 19.5 10.5625Z" fill="white"/>
</svg>
