<svg width="50" height="50" viewBox="0 0 50 50" fill="none" xmlns="http://www.w3.org/2000/svg">
<g clip-path="url(#clip0_450_682)">
<rect width="50" height="50" fill="white"/>
<circle cx="25" cy="25" r="24.5" fill="#EBE2FF" stroke="#E0E5F2"/>
<path d="M39.9691 28.1836C39.9784 28.1341 39.9864 28.0833 39.9904 28.0325C39.993 28.0104 39.9983 27.9896 39.9997 27.9687C40.001 27.9427 39.9983 27.9153 39.9943 27.8906C39.9864 27.6146 39.8921 27.3372 39.7156 27.1002C39.4527 26.7734 39.0465 26.5781 38.6283 26.5781C38.469 26.5781 38.327 26.6771 38.2752 26.8255L37.6725 28.5377L31.4383 28.5364C30.5834 26.7005 28.839 25.3346 26.7151 24.8581C26.0287 24.7122 25.3079 24.5951 24.5751 24.5065C24.5087 24.4974 24.4423 24.5078 24.3812 24.5338C22.5745 25.2969 20.4981 25.2969 18.686 24.5338C18.625 24.5078 18.5599 24.4987 18.4935 24.5065C17.7329 24.5963 17.0014 24.7174 16.3164 24.8659C13.7118 25.4713 11.7563 27.3555 11.2132 29.7799L10.0967 34.6263C9.81663 35.8268 10.1498 36.9766 11.0313 37.8672C11.7176 38.5534 12.6098 38.918 13.555 38.918C13.7913 38.918 14.0315 38.8958 14.2732 38.8477H18.6688C18.7657 39.4974 19.3326 40 20.0216 40H35.6971C36.4366 40 37.0406 39.4245 37.0685 38.7057L39.9493 28.272C39.9506 28.2681 39.9506 28.2642 39.9519 28.2603C39.9586 28.2355 39.9638 28.2096 39.9691 28.1836ZM38.8752 27.3633C38.9695 27.4036 39.0544 27.4674 39.1181 27.5443C39.2363 27.7018 39.2775 27.901 39.227 28.0794C39.1527 28.3438 38.9097 28.5365 38.619 28.5365H38.461L38.8752 27.3633ZM14.1311 38.1277C13.1646 38.3178 12.2553 38.0417 11.5663 37.3542C10.868 36.6498 10.6052 35.7396 10.8255 34.7891L11.942 29.9414C12.4252 27.7904 14.167 26.1197 16.4834 25.5807C17.1113 25.4453 17.7844 25.3333 18.4853 25.2461C20.4328 26.0352 22.643 26.0365 24.5839 25.2461C25.261 25.3307 25.9247 25.4414 26.554 25.5729C28.3262 25.97 29.8012 27.0612 30.6043 28.5352H23.9507L24.3543 27.0378C24.3849 26.9284 24.3596 26.8099 24.2893 26.72C24.2189 26.6302 24.1087 26.5768 23.9932 26.5768H22.9511C22.3803 26.5768 21.8612 26.9271 21.6607 27.4479C21.6554 27.4596 21.6528 27.4714 21.6488 27.4831L20.1487 33.0458L15.3126 33.7307L15.5462 32.8479C15.598 32.6513 15.4772 32.4507 15.2781 32.3999C15.079 32.3505 14.8745 32.4677 14.8214 32.663L14.447 34.0809C14.4152 34.1994 14.447 34.3257 14.5306 34.4182C14.6143 34.5106 14.7391 34.5536 14.8639 34.5367L24.8442 33.1239C25.2916 33.146 25.6912 33.3674 25.9395 33.7163L14.1311 38.1277ZM23.1769 28.5353H22.9512C22.6021 28.5353 22.3246 28.2644 22.3193 27.9181C22.3193 27.9064 22.3166 27.8959 22.3153 27.8842L22.3671 27.6928C22.4627 27.4636 22.695 27.3113 22.9512 27.3113H23.5074L23.1769 28.5353ZM19.063 37.0717L18.7802 38.1146H16.2712L19.063 37.0717ZM36.3342 38.5586C36.3262 38.5899 36.3209 38.6211 36.3209 38.6537C36.3209 38.9922 36.0408 39.267 35.6969 39.267H20.0214C19.6922 39.267 19.4213 39.0144 19.3988 38.6967L19.9258 36.7487L26.594 34.2578H26.5953C26.6352 34.2422 26.671 34.2213 26.7015 34.1953H26.7029V34.194C26.744 34.1588 26.7772 34.1172 26.7985 34.0716V34.0703C26.8223 34.0208 26.8343 33.9661 26.8343 33.9114V33.9101V33.9088V33.9075C26.8343 33.8672 26.8263 33.8255 26.8117 33.7851C26.5037 32.9609 25.7285 32.4127 24.835 32.3867C24.8138 32.3867 24.7925 32.388 24.77 32.3906L20.9545 32.931L22.0351 28.9243C22.278 29.1365 22.5953 29.268 22.9511 29.268H31.1911H31.1924H38.6198C38.7181 29.268 38.8137 29.2563 38.9079 29.2368L36.3342 38.5586ZM15.4188 18.6485H16.583C16.7224 19.1719 16.9335 19.6693 17.2123 20.1355L16.3892 20.9376C16.3189 21.0066 16.279 21.099 16.279 21.198C16.2777 21.2956 16.3175 21.3894 16.3879 21.4584L17.9876 23.0287C18.0579 23.0964 18.1522 23.1355 18.2518 23.1355H18.2531C18.3526 23.1355 18.4482 23.0964 18.5173 23.0274L19.335 22.2201C19.8089 22.4935 20.3187 22.6993 20.859 22.8373V23.9792C20.859 24.1811 21.0263 24.3464 21.2334 24.3464H23.4876C23.6947 24.3464 23.8619 24.1824 23.8619 23.9792V22.836C24.4049 22.698 24.9134 22.4923 25.3807 22.2201L26.2051 23.0287C26.2754 23.0964 26.371 23.1355 26.4692 23.1355H26.4706C26.5701 23.1355 26.6644 23.0964 26.7347 23.0274L28.3278 21.4571C28.4738 21.3139 28.4738 21.0808 28.3265 20.9375L27.5087 20.1355C27.7875 19.6706 27.9986 19.1719 28.138 18.6485H29.2956C29.5027 18.6485 29.67 18.4844 29.67 18.28V16.0625C29.67 15.8607 29.5027 15.6953 29.2956 15.6953H28.138C27.9986 15.1719 27.7875 14.6732 27.5087 14.2071L28.3265 13.405C28.4725 13.2618 28.4725 13.03 28.3278 12.8868L26.7347 11.3164C26.6644 11.2474 26.5701 11.2084 26.4706 11.2084H26.4692C26.3697 11.2084 26.2754 11.2461 26.2051 11.3151L25.382 12.1224C24.9067 11.8438 24.3983 11.6381 23.8633 11.5039L23.8619 10.3672C23.8606 10.1641 23.6933 10 23.4876 10H21.2334C21.0263 10 20.859 10.1641 20.859 10.3672V11.5052C20.3254 11.6368 19.8169 11.8451 19.3403 12.1237L18.5172 11.3164C18.3765 11.1797 18.1283 11.1797 17.9875 11.3164L16.3879 12.8868C16.3175 12.9558 16.2777 13.0482 16.279 13.1472C16.279 13.2435 16.3188 13.3373 16.3892 13.4063L17.2123 14.2084C16.9348 14.6732 16.7237 15.1719 16.583 15.6953H15.4187C15.2116 15.6953 15.0444 15.8594 15.0444 16.0625V18.28C15.043 18.4844 15.2103 18.6485 15.4188 18.6485ZM15.7918 16.4298H16.8791C17.0556 16.4298 17.2096 16.3087 17.2455 16.1368C17.3809 15.4974 17.6358 14.8985 17.9995 14.3555C18.0964 14.2097 18.0765 14.0157 17.9504 13.8933L17.1818 13.1446L18.2518 12.0951L19.0231 12.8516C19.1492 12.9753 19.347 12.9948 19.497 12.8972C20.0506 12.5326 20.6599 12.2839 21.3064 12.1602C21.4816 12.1263 21.6091 11.9753 21.6091 11.7995L21.6064 10.7344H23.1119V11.7995C23.1119 11.9753 23.238 12.1264 23.4132 12.1602C24.0624 12.2865 24.6717 12.5339 25.2226 12.8985C25.3713 12.9948 25.5691 12.9766 25.6966 12.8529L26.4665 12.0964L27.5312 13.1459L26.7679 13.8946C26.6431 14.017 26.6218 14.2097 26.7201 14.3568C27.0838 14.8998 27.3374 15.4987 27.4741 16.1381C27.51 16.3087 27.664 16.4311 27.8405 16.4311H28.9198V17.9141L27.8405 17.9128C27.664 17.9128 27.51 18.0352 27.4741 18.2058C27.3387 18.8451 27.0852 19.4454 26.7201 19.9884C26.6218 20.1342 26.6418 20.3269 26.7679 20.4506L27.5312 21.1993L26.4665 22.2475L25.6966 21.4923C25.5704 21.3686 25.3713 21.3491 25.2226 21.4467C24.6863 21.7996 24.0743 22.0483 23.4092 22.185C23.2353 22.2201 23.1119 22.3712 23.1119 22.5444V23.6095H21.6064V22.5444C21.6064 22.3712 21.4816 22.2201 21.3077 22.185C20.648 22.0522 20.0346 21.8035 19.4863 21.4454C19.3377 21.349 19.1399 21.3686 19.0137 21.4936L18.2504 22.2475L17.1818 21.1993L17.9504 20.4506C18.0765 20.3282 18.0977 20.1342 17.9995 19.9884C17.6358 19.4454 17.3809 18.8451 17.2455 18.2058C17.2096 18.0352 17.0556 17.9128 16.8791 17.9128H15.7918L15.7918 16.4298ZM22.3564 20.5575C24.2601 20.5575 25.8065 19.0392 25.8065 17.1734C25.8065 15.3075 24.2586 13.7894 22.3564 13.7894C20.458 13.7894 18.9127 15.3076 18.9127 17.1734C18.9127 19.038 20.4579 20.5575 22.3564 20.5575ZM22.3564 14.5224C23.8459 14.5224 25.0579 15.7112 25.0579 17.1722C25.0579 18.6344 23.8459 19.8219 22.3564 19.8219C20.8709 19.8219 19.6615 18.6331 19.6615 17.1722C19.6615 15.7112 20.8709 14.5224 22.3564 14.5224Z" fill="#6524EB"/>
</g>
<defs>
<clipPath id="clip0_450_682">
<rect width="50" height="50" fill="white"/>
</clipPath>
</defs>
</svg>
