<svg width="146" height="38" viewBox="0 0 146 38" fill="none" xmlns="http://www.w3.org/2000/svg">
<path d="M0 15.0073C0 7.45503 5.9851 1.26719 13.5344 1.05473C28.9763 0.620162 54.5064 -0.00604486 73.2205 4.40691e-05C91.7552 0.00607462 117.095 0.626689 132.464 1.05715C140.014 1.26864 146 7.45716 146 15.0109V22.9891C146 30.5428 140.014 36.7313 132.464 36.9428C117.095 37.3733 91.7552 37.9939 73.2205 38C54.5064 38.006 28.9762 37.3798 13.5344 36.9452C5.98508 36.7328 0 30.5449 0 22.9926V15.0073Z" fill="white"/>
<path d="M15.5817 24H14.1044L18.3771 12.3636H19.8317L24.1044 24H22.6271L19.1499 14.2045H19.0589L15.5817 24ZM16.1271 19.4545H22.0817V20.7045H16.1271V19.4545ZM31.9169 17.2273L30.7124 17.5682C30.6366 17.3674 30.5249 17.1723 30.3771 16.983C30.2332 16.7898 30.0362 16.6307 29.7862 16.5057C29.5362 16.3807 29.2161 16.3182 28.826 16.3182C28.2919 16.3182 27.8468 16.4413 27.4908 16.6875C27.1385 16.9299 26.9624 17.2386 26.9624 17.6136C26.9624 17.947 27.0836 18.2102 27.326 18.4034C27.5684 18.5966 27.9472 18.7576 28.4624 18.8864L29.7578 19.2045C30.5381 19.3939 31.1196 19.6837 31.5021 20.0739C31.8847 20.4602 32.076 20.9583 32.076 21.5682C32.076 22.0682 31.9321 22.5152 31.6442 22.9091C31.3601 23.303 30.9624 23.6136 30.451 23.8409C29.9396 24.0682 29.3449 24.1818 28.6669 24.1818C27.7768 24.1818 27.04 23.9886 26.4567 23.6023C25.8733 23.2159 25.504 22.6515 25.3487 21.9091L26.6214 21.5909C26.7427 22.0606 26.9718 22.4129 27.3089 22.6477C27.6499 22.8826 28.0949 23 28.6442 23C29.2692 23 29.7654 22.8674 30.1328 22.6023C30.504 22.3333 30.6896 22.0114 30.6896 21.6364C30.6896 21.3333 30.5836 21.0795 30.3714 20.875C30.1593 20.6667 29.8336 20.5114 29.3942 20.4091L27.9396 20.0682C27.1404 19.8788 26.5533 19.5852 26.1783 19.1875C25.8071 18.786 25.6214 18.2841 25.6214 17.6818C25.6214 17.1894 25.7597 16.7538 26.0362 16.375C26.3165 15.9962 26.6972 15.6989 27.1783 15.483C27.6631 15.267 28.2124 15.1591 28.826 15.1591C29.6896 15.1591 30.3677 15.3485 30.8601 15.7273C31.3563 16.1061 31.7086 16.6061 31.9169 17.2273ZM40.2763 17.2273L39.0717 17.5682C38.996 17.3674 38.8842 17.1723 38.7365 16.983C38.5926 16.7898 38.3956 16.6307 38.1456 16.5057C37.8956 16.3807 37.5755 16.3182 37.1854 16.3182C36.6513 16.3182 36.2062 16.4413 35.8501 16.6875C35.4979 16.9299 35.3217 17.2386 35.3217 17.6136C35.3217 17.947 35.4429 18.2102 35.6854 18.4034C35.9278 18.5966 36.3066 18.7576 36.8217 18.8864L38.1172 19.2045C38.8975 19.3939 39.4789 19.6837 39.8615 20.0739C40.2441 20.4602 40.4354 20.9583 40.4354 21.5682C40.4354 22.0682 40.2914 22.5152 40.0036 22.9091C39.7195 23.303 39.3217 23.6136 38.8104 23.8409C38.299 24.0682 37.7043 24.1818 37.0263 24.1818C36.1361 24.1818 35.3994 23.9886 34.8161 23.6023C34.2327 23.2159 33.8634 22.6515 33.7081 21.9091L34.9808 21.5909C35.102 22.0606 35.3312 22.4129 35.6683 22.6477C36.0092 22.8826 36.4543 23 37.0036 23C37.6286 23 38.1248 22.8674 38.4922 22.6023C38.8634 22.3333 39.049 22.0114 39.049 21.6364C39.049 21.3333 38.9429 21.0795 38.7308 20.875C38.5187 20.6667 38.1929 20.5114 37.7536 20.4091L36.299 20.0682C35.4998 19.8788 34.9126 19.5852 34.5376 19.1875C34.1664 18.786 33.9808 18.2841 33.9808 17.6818C33.9808 17.1894 34.1191 16.7538 34.3956 16.375C34.6759 15.9962 35.0566 15.6989 35.5376 15.483C36.0225 15.267 36.5717 15.1591 37.1854 15.1591C38.049 15.1591 38.727 15.3485 39.2195 15.7273C39.7157 16.1061 40.0679 16.6061 40.2763 17.2273ZM42.4538 24V15.2727H43.7947V24H42.4538ZM43.1357 13.8182C42.8743 13.8182 42.6489 13.7292 42.4595 13.5511C42.2739 13.3731 42.1811 13.1591 42.1811 12.9091C42.1811 12.6591 42.2739 12.4451 42.4595 12.267C42.6489 12.089 42.8743 12 43.1357 12C43.397 12 43.6205 12.089 43.8061 12.267C43.9955 12.4451 44.0902 12.6591 44.0902 12.9091C44.0902 13.1591 43.9955 13.3731 43.8061 13.5511C43.6205 13.7292 43.397 13.8182 43.1357 13.8182ZM49.7734 27.4545C49.1257 27.4545 48.5689 27.3712 48.103 27.2045C47.6371 27.0417 47.2488 26.8258 46.9382 26.5568C46.6314 26.2917 46.3871 26.0076 46.2053 25.7045L47.2734 24.9545C47.3946 25.1136 47.5481 25.2955 47.7337 25.5C47.9193 25.7083 48.1731 25.8883 48.495 26.0398C48.8208 26.1951 49.2469 26.2727 49.7734 26.2727C50.478 26.2727 51.0594 26.1023 51.5178 25.7614C51.9761 25.4205 52.2053 24.8864 52.2053 24.1591V22.3864H52.0916C51.9931 22.5455 51.853 22.7424 51.6712 22.9773C51.4931 23.2083 51.2356 23.4148 50.8984 23.5966C50.5651 23.7746 50.1143 23.8636 49.5462 23.8636C48.8416 23.8636 48.209 23.697 47.6484 23.3636C47.0916 23.0303 46.6503 22.5455 46.3246 21.9091C46.0026 21.2727 45.8416 20.5 45.8416 19.5909C45.8416 18.697 45.9988 17.9186 46.3132 17.2557C46.6276 16.589 47.0651 16.0739 47.6257 15.7102C48.1863 15.3428 48.834 15.1591 49.5689 15.1591C50.1371 15.1591 50.5878 15.2538 50.9212 15.4432C51.2583 15.6288 51.5159 15.8409 51.6939 16.0795C51.8757 16.3144 52.0159 16.5076 52.1143 16.6591H52.2507V15.2727H53.5462V24.25C53.5462 25 53.3757 25.6098 53.0348 26.0795C52.6977 26.553 52.2431 26.8996 51.6712 27.1193C51.103 27.3428 50.4704 27.4545 49.7734 27.4545ZM49.728 22.6591C50.2659 22.6591 50.7204 22.536 51.0916 22.2898C51.4628 22.0436 51.745 21.6894 51.9382 21.2273C52.1314 20.7652 52.228 20.2121 52.228 19.5682C52.228 18.9394 52.1333 18.3845 51.9439 17.9034C51.7545 17.4223 51.4742 17.0455 51.103 16.7727C50.7318 16.5 50.2734 16.3636 49.728 16.3636C49.1598 16.3636 48.6863 16.5076 48.3075 16.7955C47.9325 17.0833 47.6503 17.4697 47.4609 17.9545C47.2753 18.4394 47.1825 18.9773 47.1825 19.5682C47.1825 20.1742 47.2772 20.7102 47.4666 21.1761C47.6598 21.6383 47.9439 22.0019 48.3189 22.267C48.6977 22.5284 49.1674 22.6591 49.728 22.6591ZM57.3416 18.75V24H56.0007V15.2727H57.2962V16.6364H57.4098C57.6143 16.1932 57.925 15.8371 58.3416 15.5682C58.7583 15.2955 59.2962 15.1591 59.9553 15.1591C60.5462 15.1591 61.0632 15.2803 61.5064 15.5227C61.9496 15.7614 62.2943 16.125 62.5405 16.6136C62.7867 17.0985 62.9098 17.7121 62.9098 18.4545V24H61.5689V18.5455C61.5689 17.8598 61.3909 17.3258 61.0348 16.9432C60.6787 16.5568 60.1901 16.3636 59.5689 16.3636C59.1409 16.3636 58.7583 16.4564 58.4212 16.642C58.0878 16.8277 57.8246 17.0985 57.6314 17.4545C57.4382 17.8106 57.3416 18.2424 57.3416 18.75ZM79.2692 12.3636V24H77.9055L71.5646 14.8636H71.451V24H70.0419V12.3636H71.4055L77.7692 21.5227H77.8828V12.3636H79.2692ZM87.407 20.4318V15.2727H88.7479V24H87.407V22.5227H87.3161C87.1115 22.9659 86.7933 23.3428 86.3615 23.6534C85.9297 23.9602 85.3842 24.1136 84.7251 24.1136C84.1797 24.1136 83.6948 23.9943 83.2706 23.7557C82.8464 23.5133 82.513 23.1496 82.2706 22.6648C82.0282 22.1761 81.907 21.5606 81.907 20.8182V15.2727H83.2479V20.7273C83.2479 21.3636 83.4259 21.8712 83.782 22.25C84.1418 22.6288 84.6001 22.8182 85.157 22.8182C85.4903 22.8182 85.8293 22.733 86.174 22.5625C86.5225 22.392 86.8142 22.1307 87.049 21.7784C87.2876 21.4261 87.407 20.9773 87.407 20.4318ZM91.2038 24V15.2727H92.4993V16.6364H92.6129C92.7947 16.1705 93.0883 15.8087 93.4936 15.5511C93.8989 15.2898 94.3857 15.1591 94.9538 15.1591C95.5296 15.1591 96.0088 15.2898 96.3913 15.5511C96.7777 15.8087 97.0788 16.1705 97.2947 16.6364H97.3857C97.6091 16.1856 97.9444 15.8277 98.3913 15.5625C98.8383 15.2936 99.3743 15.1591 99.9993 15.1591C100.78 15.1591 101.418 15.4034 101.914 15.892C102.41 16.3769 102.658 17.1326 102.658 18.1591V24H101.317V18.1591C101.317 17.5152 101.141 17.0549 100.789 16.7784C100.437 16.5019 100.022 16.3636 99.5447 16.3636C98.9311 16.3636 98.4557 16.5492 98.1186 16.9205C97.7815 17.2879 97.6129 17.7538 97.6129 18.3182V24H96.2493V18.0227C96.2493 17.5265 96.0883 17.1269 95.7663 16.8239C95.4444 16.517 95.0296 16.3636 94.522 16.3636C94.1735 16.3636 93.8478 16.4564 93.5447 16.642C93.2455 16.8277 93.0031 17.0852 92.8175 17.4148C92.6357 17.7405 92.5447 18.1174 92.5447 18.5455V24H91.2038ZM105.292 24V12.3636H106.633V16.6591H106.746C106.845 16.5076 106.981 16.3144 107.156 16.0795C107.334 15.8409 107.587 15.6288 107.917 15.4432C108.25 15.2538 108.701 15.1591 109.269 15.1591C110.004 15.1591 110.652 15.3428 111.212 15.7102C111.773 16.0777 112.21 16.5985 112.525 17.2727C112.839 17.947 112.996 18.7424 112.996 19.6591C112.996 20.5833 112.839 21.3845 112.525 22.0625C112.21 22.7367 111.775 23.2595 111.218 23.6307C110.661 23.9981 110.019 24.1818 109.292 24.1818C108.731 24.1818 108.282 24.089 107.945 23.9034C107.608 23.714 107.349 23.5 107.167 23.2614C106.985 23.0189 106.845 22.8182 106.746 22.6591H106.587V24H105.292ZM106.61 19.6364C106.61 20.2955 106.707 20.8769 106.9 21.3807C107.093 21.8807 107.375 22.2727 107.746 22.5568C108.118 22.8371 108.572 22.9773 109.11 22.9773C109.671 22.9773 110.138 22.8295 110.513 22.5341C110.892 22.2348 111.176 21.8333 111.366 21.3295C111.559 20.822 111.656 20.2576 111.656 19.6364C111.656 19.0227 111.561 18.4697 111.371 17.9773C111.186 17.4811 110.904 17.089 110.525 16.8011C110.15 16.5095 109.678 16.3636 109.11 16.3636C108.565 16.3636 108.106 16.5019 107.735 16.7784C107.364 17.0511 107.084 17.4337 106.894 17.9261C106.705 18.4148 106.61 18.9848 106.61 19.6364ZM118.707 24.1818C117.866 24.1818 117.14 23.9962 116.531 23.625C115.924 23.25 115.457 22.7273 115.127 22.0568C114.801 21.3826 114.638 20.5985 114.638 19.7045C114.638 18.8106 114.801 18.0227 115.127 17.3409C115.457 16.6553 115.915 16.1212 116.502 15.7386C117.093 15.3523 117.782 15.1591 118.57 15.1591C119.025 15.1591 119.474 15.2348 119.917 15.3864C120.36 15.5379 120.763 15.7841 121.127 16.125C121.491 16.4621 121.781 16.9091 121.996 17.4659C122.212 18.0227 122.32 18.7083 122.32 19.5227V20.0909H115.593V18.9318H120.957C120.957 18.4394 120.858 18 120.661 17.6136C120.468 17.2273 120.192 16.9223 119.832 16.6989C119.476 16.4754 119.055 16.3636 118.57 16.3636C118.036 16.3636 117.574 16.4962 117.184 16.7614C116.798 17.0227 116.5 17.3636 116.292 17.7841C116.084 18.2045 115.979 18.6553 115.979 19.1364V19.9091C115.979 20.5682 116.093 21.1269 116.32 21.5852C116.551 22.0398 116.871 22.3864 117.281 22.625C117.69 22.8598 118.165 22.9773 118.707 22.9773C119.059 22.9773 119.377 22.928 119.661 22.8295C119.949 22.7273 120.197 22.5758 120.406 22.375C120.614 22.1705 120.775 21.9167 120.888 21.6136L122.184 21.9773C122.048 22.4167 121.818 22.803 121.496 23.1364C121.174 23.4659 120.777 23.7235 120.303 23.9091C119.83 24.0909 119.298 24.1818 118.707 24.1818ZM124.36 24V15.2727H125.656V16.5909H125.746C125.906 16.1591 126.193 15.8087 126.61 15.5398C127.027 15.2708 127.496 15.1364 128.019 15.1364C128.118 15.1364 128.241 15.1383 128.388 15.142C128.536 15.1458 128.648 15.1515 128.724 15.1591V16.5227C128.678 16.5114 128.574 16.4943 128.411 16.4716C128.252 16.4451 128.084 16.4318 127.906 16.4318C127.481 16.4318 127.103 16.5208 126.769 16.6989C126.44 16.8731 126.178 17.1155 125.985 17.4261C125.796 17.733 125.701 18.0833 125.701 18.4773V24H124.36Z" fill="#24252C"/>
</svg>
