<svg width="50" height="50" viewBox="0 0 50 50" fill="none" xmlns="http://www.w3.org/2000/svg">
<g clip-path="url(#clip0_1310_341)">
<rect width="50" height="50" fill="white"/>
<circle cx="25" cy="25" r="24.5" fill="#EBE2FF" stroke="#E6EAF4"/>
<path d="M15.564 39.0001H34.434C35.374 39.0001 36.129 38.5001 36.229 37.8251L36.869 34.3251C36.8929 34.1925 36.8631 34.0558 36.7862 33.9452C36.7093 33.8345 36.5916 33.7589 36.459 33.7351C36.3264 33.7112 36.1897 33.741 36.0791 33.8179C35.9684 33.8948 35.8929 34.0125 35.869 34.1451L35.224 37.6451C35.224 37.7601 34.904 37.9851 34.414 37.9851H15.564C15.064 37.9851 14.769 37.7601 14.749 37.6301L14.109 34.1301C14.0847 34.0003 14.0101 33.8855 13.9014 33.8106C13.7928 33.7356 13.6589 33.7067 13.529 33.7301C13.3993 33.7544 13.2844 33.829 13.2095 33.9377C13.1346 34.0463 13.1056 34.1802 13.129 34.3101L13.764 37.7801C13.869 38.5001 14.624 39.0001 15.564 39.0001Z" fill="#6524EB"/>
<path d="M25 18.8251C17.28 18.8251 11 23.5001 11 29.1951C11 31.0901 11.685 32.3301 13.09 32.9951C14.795 33.8001 17.42 33.6551 20.465 33.4951C21.915 33.4201 23.41 33.3351 25 33.3351C26.59 33.3351 28.085 33.4201 29.535 33.4951C30.755 33.5651 31.905 33.6251 32.96 33.6251C34.535 33.6251 35.89 33.4851 36.91 33.0051C38.315 32.3401 39 31.1001 39 29.2051C39 23.5001 32.72 18.8251 25 18.8251ZM36.5 32.0901C35 32.7851 32.5 32.6501 29.59 32.5001C28.125 32.4201 26.59 32.3351 25 32.3351C23.41 32.3351 21.875 32.4201 20.41 32.5001C17.5 32.6451 15 32.7851 13.5 32.0901C12.45 31.5901 12 30.7051 12 29.1951C12 24.0301 17.83 19.8251 25 19.8251C32.17 19.8251 38 24.0301 38 29.1951C38 30.7051 37.53 31.5951 36.5 32.0901Z" fill="#6524EB"/>
<path d="M24.6752 14.955C24.4844 15.0828 24.3268 15.2543 24.2155 15.4551C24.1042 15.656 24.0424 15.8805 24.0352 16.11C24.0352 16.2426 24.0878 16.3698 24.1816 16.4636C24.2754 16.5573 24.4025 16.61 24.5352 16.61C24.6678 16.61 24.7949 16.5573 24.8887 16.4636C24.9825 16.3698 25.0352 16.2426 25.0352 16.11C25.0352 15.975 25.0902 15.91 25.3152 15.725C25.5059 15.5972 25.6635 15.4257 25.7748 15.2249C25.8861 15.024 25.9479 14.7995 25.9552 14.57C25.948 14.3412 25.8861 14.1174 25.7748 13.9173C25.6634 13.7172 25.5058 13.5467 25.3152 13.42C25.0902 13.23 25.0352 13.17 25.0352 13.035C25.0352 12.9 25.0902 12.84 25.3152 12.65C25.5064 12.5239 25.6645 12.3535 25.7759 12.1533C25.8873 11.9531 25.9488 11.729 25.9552 11.5C25.9552 11.3674 25.9025 11.2402 25.8087 11.1464C25.7149 11.0527 25.5878 11 25.4552 11C25.3225 11 25.1954 11.0527 25.1016 11.1464C25.0078 11.2402 24.9552 11.3674 24.9552 11.5C24.9552 11.635 24.9002 11.695 24.6752 11.885C24.4839 12.0111 24.3259 12.1815 24.2144 12.3817C24.103 12.5819 24.0415 12.806 24.0352 13.035C24.0415 13.264 24.103 13.4881 24.2144 13.6883C24.3259 13.8885 24.4839 14.0589 24.6752 14.185C24.9002 14.375 24.9552 14.435 24.9552 14.57C24.9552 14.705 24.9002 14.77 24.6752 14.955Z" fill="#6524EB"/>
<path d="M16.6869 17.9399C16.4956 18.066 16.3376 18.2364 16.2262 18.4366C16.1147 18.6368 16.0532 18.8609 16.0469 19.0899C16.0469 19.2225 16.0996 19.3497 16.1933 19.4434C16.2871 19.5372 16.4143 19.5899 16.5469 19.5899C16.6795 19.5899 16.8067 19.5372 16.9004 19.4434C16.9942 19.3497 17.0469 19.2225 17.0469 19.0899C17.0469 18.9549 17.1069 18.8899 17.3319 18.7049C17.5272 18.581 17.6897 18.4117 17.8055 18.2115C17.9212 18.0112 17.9869 17.786 17.9969 17.5549C17.9896 17.3254 17.9278 17.1009 17.8165 16.9C17.7052 16.6991 17.5477 16.5277 17.3569 16.3999C17.1319 16.2149 17.0719 16.1499 17.0719 16.0149C17.0719 15.8799 17.1319 15.8199 17.3519 15.6349C17.5409 15.5096 17.6978 15.3415 17.8099 15.1444C17.9219 14.9472 17.986 14.7264 17.9969 14.4999C17.9969 14.3673 17.9442 14.2401 17.8504 14.1463C17.7567 14.0526 17.6295 13.9999 17.4969 13.9999C17.3643 13.9999 17.2371 14.0526 17.1433 14.1463C17.0496 14.2401 16.9969 14.3673 16.9969 14.4999C16.9969 14.6349 16.9369 14.6999 16.7119 14.8849C16.5215 15.0057 16.3621 15.1695 16.2466 15.3632C16.1311 15.5569 16.0627 15.7749 16.0469 15.9999C16.0541 16.2294 16.1159 16.4539 16.2272 16.6548C16.3385 16.8556 16.4961 17.0271 16.6869 17.1549C16.9119 17.3399 16.9719 17.3999 16.9719 17.5399C16.9719 17.6799 16.9119 17.7499 16.6869 17.9399Z" fill="#6524EB"/>
<path d="M32.6634 18.525C32.4727 18.6528 32.3151 18.8242 32.2038 19.0251C32.0925 19.2259 32.0307 19.4504 32.0234 19.68C32.0234 19.8126 32.0761 19.9397 32.1699 20.0335C32.2637 20.1273 32.3908 20.18 32.5234 20.18C32.656 20.18 32.7832 20.1273 32.877 20.0335C32.9708 19.9397 33.0234 19.8126 33.0234 19.68C33.0234 19.545 33.0834 19.48 33.3084 19.295C33.4992 19.1671 33.6568 18.9957 33.7681 18.7948C33.8794 18.594 33.9412 18.3695 33.9484 18.14C33.9393 17.9129 33.8765 17.6913 33.7653 17.4931C33.654 17.295 33.4975 17.126 33.3084 17C33.0834 16.815 33.0234 16.75 33.0234 16.615C33.0234 16.48 33.0834 16.42 33.3084 16.235C33.4992 16.1071 33.6568 15.9357 33.7681 15.7348C33.8794 15.534 33.9412 15.3095 33.9484 15.08C33.9484 14.9473 33.8958 14.8202 33.802 14.7264C33.7082 14.6326 33.581 14.58 33.4484 14.58C33.3158 14.58 33.1887 14.6326 33.0949 14.7264C33.0011 14.8202 32.9484 14.9473 32.9484 15.08C32.9484 15.215 32.8884 15.28 32.6684 15.465C32.4765 15.5908 32.3177 15.761 32.2055 15.9612C32.0932 16.1613 32.0308 16.3856 32.0234 16.615C32.0307 16.8445 32.0925 17.069 32.2038 17.2698C32.3151 17.4707 32.4727 17.6421 32.6634 17.77C32.8884 17.955 32.9484 18.015 32.9484 18.15C32.9484 18.285 32.8884 18.34 32.6634 18.525Z" fill="#6524EB"/>
</g>
<defs>
<clipPath id="clip0_1310_341">
<rect width="50" height="50" fill="white"/>
</clipPath>
</defs>
</svg>
