<svg width="50" height="50" viewBox="0 0 50 50" fill="none" xmlns="http://www.w3.org/2000/svg">
<g clip-path="url(#clip0_1310_333)">
<rect width="50" height="50" fill="white"/>
<circle cx="25" cy="25" r="24.5" fill="#EBE2FF" stroke="#E6EAF4"/>
<path fill-rule="evenodd" clip-rule="evenodd" d="M14.0971 18.9765C15.1402 19.2276 16.0624 19.8634 16.6701 20.7396L18.2347 19.8186C17.7622 18.8602 17.6537 17.752 17.9404 16.7305C18.1761 15.8923 18.0569 14.9798 17.6137 14.2272C17.1645 13.4639 16.4421 12.9327 15.5796 12.7303C14.7179 12.5284 13.8337 12.6844 13.0899 13.1704C11.719 14.0649 11.2429 15.9001 12.0061 17.3483C12.4371 18.1669 13.1993 18.7601 14.0971 18.9765ZM16.5665 21.4966C16.4584 21.4966 16.3529 21.4424 16.2921 21.344L16.289 21.3384C16.2878 21.3367 16.2867 21.3351 16.2856 21.3328C15.7762 20.4689 14.9236 19.8383 13.9462 19.6028C13.9463 19.6028 13.9463 19.6028 13.9462 19.6028C12.8685 19.3428 11.9535 18.631 11.4363 17.6486C10.5197 15.9096 11.0914 13.7055 12.7379 12.6308C13.6304 12.0481 14.6919 11.8608 15.7266 12.1035C16.7621 12.3462 17.6294 12.9842 18.1688 13.9001C18.7006 14.8036 18.8434 15.8985 18.5606 16.9044C18.2922 17.8605 18.4316 18.9073 18.9428 19.7756C19.0331 19.9288 18.9819 20.1262 18.8287 20.2168L16.7296 21.4525C16.6783 21.4821 16.6221 21.4967 16.5665 21.4966Z" fill="#6524EB"/>
<path fill-rule="evenodd" clip-rule="evenodd" d="M26.914 38.1965C26.8018 38.1965 26.6953 38.1378 26.6365 38.0377L16.6735 21.1166C16.5832 20.9635 16.6343 20.7655 16.7876 20.6755C16.9409 20.5855 17.1383 20.6364 17.2286 20.7896L26.6497 36.7907L26.7481 34.959C26.7797 33.6964 26.4575 32.4535 25.8164 31.3648L21.1433 23.4181L19.698 23.0055C19.6187 22.9825 19.551 22.9306 19.509 22.859L18.0147 20.3266C17.9243 20.1734 17.9751 19.976 18.1283 19.8854C18.2815 19.7954 18.479 19.8463 18.5694 19.9995L19.9985 22.4212L21.444 22.8338C21.5236 22.8567 21.5913 22.9093 21.6333 22.9803L26.3716 31.0377C27.0745 32.232 27.4274 33.5952 27.3919 34.9797C27.3919 34.9831 27.3917 34.9859 27.3916 34.9892L27.2356 37.8918C27.228 38.0332 27.1283 38.1534 26.9903 38.187C26.9649 38.1931 26.9393 38.1965 26.914 38.1965Z" fill="#6524EB"/>
<path fill-rule="evenodd" clip-rule="evenodd" d="M20.0565 24.1731C20.0352 24.1731 20.014 24.1715 19.9933 24.167C19.9731 24.1631 19.9524 24.1569 19.9334 24.1485C19.9138 24.1407 19.8949 24.1307 19.8775 24.1189C19.8602 24.1072 19.8434 24.0938 19.8283 24.0792C19.7685 24.0188 19.7344 23.9361 19.7344 23.8516C19.7344 23.8304 19.7366 23.8091 19.7405 23.7885C19.7444 23.7677 19.7511 23.7476 19.759 23.7281C19.7668 23.709 19.7769 23.69 19.7886 23.6727C19.8004 23.6548 19.8138 23.6386 19.8283 23.6235C19.8434 23.609 19.8602 23.5955 19.8775 23.5838C19.8949 23.572 19.9138 23.562 19.9334 23.5542C19.9525 23.5457 19.9731 23.5396 19.9933 23.5357C20.0352 23.5273 20.0777 23.5273 20.1191 23.5357C20.1398 23.5396 20.1599 23.5458 20.1795 23.5542C20.199 23.562 20.2175 23.5721 20.2354 23.5838C20.2527 23.5955 20.2695 23.609 20.284 23.6235C20.2992 23.6386 20.3125 23.6548 20.3243 23.6727C20.336 23.69 20.3455 23.7091 20.3539 23.7281C20.3618 23.7476 20.3679 23.7678 20.3724 23.7885C20.3763 23.8091 20.3785 23.8304 20.3785 23.8516C20.3785 23.8723 20.3763 23.8936 20.3724 23.9143C20.3679 23.9349 20.3617 23.9551 20.3539 23.9747C20.3456 23.9942 20.336 24.0127 20.3243 24.03C20.3125 24.0478 20.2992 24.0641 20.284 24.0792C20.2695 24.0937 20.2527 24.1072 20.2354 24.1189C20.2176 24.1306 20.199 24.1407 20.1795 24.1485C20.1599 24.1569 20.1397 24.1631 20.1191 24.167C20.0984 24.1715 20.0771 24.1731 20.0565 24.1731Z" fill="#6524EB"/>
<path fill-rule="evenodd" clip-rule="evenodd" d="M14.8552 14.0977C13.8859 14.0977 13.0973 14.8867 13.0973 15.8557C13.0973 16.8253 13.8858 17.6137 14.8551 17.6137C15.8244 17.6137 16.613 16.8253 16.613 15.8557C16.613 14.8867 15.8244 14.0978 14.8552 14.0977ZM14.8552 18.2578C13.5307 18.2578 12.4531 17.1804 12.4531 15.8557C12.4531 14.5311 13.5307 13.4536 14.8551 13.4536C16.1796 13.4536 17.2571 14.5311 17.2571 15.8557C17.2571 17.1803 16.1796 18.2578 14.8552 18.2578Z" fill="#6524EB"/>
<path fill-rule="evenodd" clip-rule="evenodd" d="M21.866 19.8187L23.4306 20.7396C24.0383 19.8634 24.9605 19.2277 26.0036 18.9766C26.9014 18.7602 27.6635 18.167 28.0946 17.3489C28.8578 15.9002 28.3817 14.065 27.0108 13.1704C26.267 12.6845 25.3828 12.5285 24.521 12.7303C23.6587 12.9327 22.9363 13.4639 22.487 14.2272C22.0438 14.9797 21.9247 15.8923 22.1603 16.7299C22.4471 17.7521 22.3385 18.8603 21.866 19.8187ZM23.5342 21.4967C23.4786 21.4967 23.4224 21.4822 23.3711 21.4525L21.272 20.2168C21.1188 20.1262 21.0676 19.9288 21.1578 19.7757C21.6691 18.9073 21.8085 17.8605 21.5401 16.9044C21.2574 15.8985 21.4001 14.8031 21.9319 13.9001C22.4713 12.9842 23.3386 12.3462 24.3741 12.1035C25.4089 11.8608 26.4703 12.0482 27.3628 12.6308C29.0093 13.7055 29.581 15.9097 28.6644 17.6486C28.1472 18.631 27.2324 19.3428 26.1546 19.6029C26.1546 19.6029 26.1545 19.6028 26.1546 19.6029C25.1773 19.8382 24.3245 20.469 23.8151 21.3329C23.8139 21.3351 23.8124 21.3373 23.8111 21.3396L23.8079 21.3446C23.747 21.443 23.6419 21.4967 23.5342 21.4967Z" fill="#6524EB"/>
<path fill-rule="evenodd" clip-rule="evenodd" d="M21.5953 23.8998C21.5397 23.8998 21.4834 23.8858 21.4321 23.8556C21.2789 23.765 21.2278 23.5677 21.3181 23.4145L22.8642 20.7886C22.9545 20.6355 23.1518 20.584 23.3052 20.6746C23.4585 20.7646 23.5095 20.962 23.4193 21.1158L21.8731 23.7415C21.8131 23.8433 21.7056 23.8998 21.5953 23.8998Z" fill="#6524EB"/>
<path fill-rule="evenodd" clip-rule="evenodd" d="M20.2359 23.1484C20.1803 23.1484 20.1238 23.1339 20.0724 23.1037C19.9193 23.0131 19.8684 22.8157 19.9588 22.6625L21.5306 19.9998C21.621 19.8466 21.8185 19.7957 21.9717 19.8863C22.1249 19.9764 22.1757 20.1743 22.0853 20.3269L20.5136 22.9902C20.4535 23.0919 20.3461 23.1484 20.2359 23.1484Z" fill="#6524EB"/>
<path fill-rule="evenodd" clip-rule="evenodd" d="M13.1829 38.1967C13.1576 38.1967 13.132 38.1939 13.1065 38.1872C12.9685 38.1536 12.8688 38.0334 12.8612 37.892L12.7059 34.9894C12.7058 34.986 12.7057 34.9833 12.7056 34.9805C12.6701 33.5954 13.023 32.2322 13.7261 31.0379L18.2086 23.4144C18.2987 23.2612 18.4961 23.2103 18.6495 23.3004C18.8028 23.3903 18.854 23.5877 18.7638 23.7409L14.2812 31.3644C13.6401 32.4536 13.3179 33.6967 13.3494 34.9592L13.4474 36.7904L19.7664 26.0586C19.8567 25.9054 20.0541 25.8546 20.2073 25.9446C20.3606 26.0352 20.4117 26.2326 20.3214 26.3858L13.4604 38.0379C13.4016 38.138 13.2951 38.1967 13.1829 38.1967Z" fill="#6524EB"/>
<path fill-rule="evenodd" clip-rule="evenodd" d="M25.2535 14.0977C24.2842 14.0977 23.4957 14.8867 23.4957 15.8557C23.4957 16.8253 24.2842 17.6137 25.2535 17.6137C26.2228 17.6137 27.0114 16.8253 27.0114 15.8557C27.0114 14.8867 26.2228 14.0978 25.2535 14.0977ZM25.2535 18.2578C23.9291 18.2578 22.8516 17.1804 22.8516 15.8557C22.8516 14.5311 23.9291 13.4536 25.2535 13.4536C26.578 13.4536 27.6555 14.5311 27.6555 15.8557C27.6555 17.1803 26.578 18.2578 25.2535 18.2578Z" fill="#6524EB"/>
<path fill-rule="evenodd" clip-rule="evenodd" d="M32.659 12.6833C32.1257 12.8187 31.73 13.3029 31.73 13.8777L31.73 37.0981C31.73 37.3492 31.9342 37.5533 32.1852 37.5533L32.2037 37.5533C32.4547 37.5533 32.6589 37.3492 32.6589 37.0982L32.659 12.6833ZM32.2037 38.1974H32.1852C31.5791 38.1974 31.0859 37.7043 31.0859 37.0982V13.8777C31.0859 12.8433 31.9275 12.0018 32.9618 12.0018L32.981 12.0017C33.1589 12.0017 33.3031 12.146 33.3031 12.3238L33.3031 37.0981C33.3031 37.7043 32.8099 38.1975 32.2037 38.1974Z" fill="#6524EB"/>
<path fill-rule="evenodd" clip-rule="evenodd" d="M38.8066 12.6459H32.9861C32.8082 12.6459 32.6641 12.5016 32.6641 12.3238C32.6641 12.146 32.8082 12.0018 32.9861 12.0018L38.8066 12.0017C38.9844 12.0017 39.1287 12.146 39.1287 12.3238C39.1287 12.5016 38.9844 12.6459 38.8066 12.6459Z" fill="#6524EB"/>
<path fill-rule="evenodd" clip-rule="evenodd" d="M38.8066 14.615H32.9861C32.8082 14.615 32.6641 14.4707 32.6641 14.2929C32.6641 14.1151 32.8082 13.9708 32.9861 13.9708L38.8066 13.9708C38.9844 13.9708 39.1287 14.1151 39.1287 14.2929C39.1287 14.4707 38.9844 14.615 38.8066 14.615Z" fill="#6524EB"/>
<path fill-rule="evenodd" clip-rule="evenodd" d="M38.8066 16.5848H32.9861C32.8082 16.5848 32.6641 16.4406 32.6641 16.2627C32.6641 16.0849 32.8082 15.9407 32.9861 15.9407H38.8066C38.9844 15.9407 39.1287 16.0849 39.1287 16.2627C39.1287 16.4405 38.9844 16.5848 38.8066 16.5848Z" fill="#6524EB"/>
<path fill-rule="evenodd" clip-rule="evenodd" d="M38.8066 18.5539H32.9861C32.8082 18.5539 32.6641 18.4097 32.6641 18.2319C32.6641 18.0541 32.8082 17.9098 32.9861 17.9098L38.8066 17.9098C38.9844 17.9098 39.1287 18.0541 39.1287 18.2319C39.1287 18.4097 38.9844 18.554 38.8066 18.5539Z" fill="#6524EB"/>
<path fill-rule="evenodd" clip-rule="evenodd" d="M38.8066 20.5232H32.9861C32.8082 20.5232 32.6641 20.3789 32.6641 20.2011C32.6641 20.0233 32.8082 19.8791 32.9861 19.8791L38.8066 19.879C38.9844 19.879 39.1287 20.0233 39.1287 20.2011C39.1287 20.3789 38.9844 20.5232 38.8066 20.5232Z" fill="#6524EB"/>
<path fill-rule="evenodd" clip-rule="evenodd" d="M38.8066 22.4924H32.9861C32.8082 22.4924 32.6641 22.3482 32.6641 22.1703C32.6641 21.9925 32.8082 21.8483 32.9861 21.8483H38.8066C38.9844 21.8483 39.1287 21.9925 39.1287 22.1703C39.1287 22.3481 38.9844 22.4924 38.8066 22.4924Z" fill="#6524EB"/>
<path fill-rule="evenodd" clip-rule="evenodd" d="M38.8066 24.4615H32.9861C32.8082 24.4615 32.6641 24.3173 32.6641 24.1395C32.6641 23.9617 32.8082 23.8174 32.9861 23.8174L38.8066 23.8174C38.9844 23.8174 39.1287 23.9617 39.1287 24.1395C39.1287 24.3173 38.9844 24.4616 38.8066 24.4615Z" fill="#6524EB"/>
<path fill-rule="evenodd" clip-rule="evenodd" d="M38.8066 26.4319H32.9861C32.8082 26.4319 32.6641 26.2876 32.6641 26.1098C32.6641 25.932 32.8082 25.7877 32.9861 25.7877L38.8066 25.7877C38.9844 25.7877 39.1287 25.932 39.1287 26.1098C39.1287 26.2876 38.9844 26.4319 38.8066 26.4319Z" fill="#6524EB"/>
</g>
<defs>
<clipPath id="clip0_1310_333">
<rect width="50" height="50" fill="white"/>
</clipPath>
</defs>
</svg>
