<svg width="50" height="50" viewBox="0 0 50 50" fill="none" xmlns="http://www.w3.org/2000/svg">
<g clip-path="url(#clip0_1310_321)">
<rect width="50" height="50" fill="white"/>
<circle cx="25" cy="25" r="24.5" fill="#EBE2FF" stroke="#E6EAF4"/>
<path d="M18.7498 10.4944C18.3599 10.2321 17.8684 10.1815 17.4331 10.3583L16.0928 10.9035C15.2833 11.2326 14.7602 12.0103 14.7602 12.8843V18.0715H14.3326C14.1286 18.0715 13.9637 18.2368 13.9637 18.4405V28.001H13.3689C13.1649 28.001 13 28.1663 13 28.3699V39.3996C13 39.6032 13.1649 39.7685 13.3689 39.7685H20.7635C20.9675 39.7685 21.1324 39.6032 21.1324 39.3996V28.3699C21.1324 28.1663 20.9675 28.001 20.7635 28.001H20.1687V18.4405C20.1687 18.2368 20.0038 18.0715 19.7998 18.0715H19.3722V11.6628C19.3718 11.1932 19.1394 10.7567 18.7498 10.4944ZM15.498 12.8843C15.498 12.3118 15.8408 11.8026 16.3709 11.5872L17.7113 11.0419C17.9212 10.9567 18.1496 10.9803 18.3377 11.1068C18.5262 11.2334 18.634 11.4359 18.634 11.6628V18.0715H15.498V12.8843ZM20.3942 39.0306H13.7379V28.7389H20.3945L20.3942 39.0306ZM19.4305 28.001H14.7015V18.8094H19.4305V28.001Z" fill="#6524EB"/>
<path d="M26.7256 24.9183C24.2095 26.3524 22.7692 29.0393 22.9673 31.931C23.151 34.6069 24.8433 37.0345 27.303 38.1811V39.4137C27.303 39.6174 27.4679 39.7826 27.6719 39.7826H33.1679C33.372 39.7826 33.5369 39.6174 33.5369 39.4137V38.1877C36.1895 36.9688 37.8903 34.3331 37.8903 31.4053C37.8903 28.7209 36.4352 26.2306 34.0925 24.9058C33.5077 24.5752 33.1344 23.9458 33.0871 23.2408H33.3565C33.5605 23.2408 33.7254 23.0755 33.7254 22.8719V14.2982C33.7254 13.4493 33.0348 12.7583 32.1855 12.7583H28.6537C27.8044 12.7583 27.1137 13.4493 27.1137 14.2982V22.8719C27.1137 23.0755 27.2787 23.2408 27.4827 23.2408H27.7516C27.7044 23.9436 27.3233 24.5778 26.7256 24.9183ZM33.0252 37.607C32.8883 37.6646 32.7994 37.7989 32.7994 37.9472V39.0451H28.0409V37.942C28.0409 37.7945 27.9527 37.6605 27.8169 37.6026C25.4886 36.6094 23.8738 34.3634 23.7041 31.8808C23.6971 31.7812 23.6967 31.6823 23.6941 31.5831H30.0512V34.7954C30.0512 34.9991 30.2161 35.1643 30.4201 35.1643C30.6241 35.1643 30.7891 34.9991 30.7891 34.7954V31.5831H37.1461C37.0768 34.2232 35.4775 36.5751 33.0252 37.607ZM33.7295 25.5481C35.6767 26.6494 36.941 28.6442 37.1262 30.8449H30.7891V23.2408H32.35C32.3987 24.2118 32.9145 25.0873 33.7295 25.5481ZM27.8524 14.2982C27.8524 13.8559 28.2124 13.4962 28.6544 13.4962H32.1862C32.6282 13.4962 32.9883 13.8559 32.9883 14.2982V22.5029H27.8524V14.2982ZM28.4899 23.2408H30.0508V30.8452H23.7122C23.8922 28.6457 25.1267 26.6785 27.0909 25.5595C27.918 25.088 28.4408 24.2085 28.4899 23.2408Z" fill="#6524EB"/>
</g>
<defs>
<clipPath id="clip0_1310_321">
<rect width="50" height="50" fill="white"/>
</clipPath>
</defs>
</svg>
