<svg width="50" height="50" viewBox="0 0 50 50" fill="none" xmlns="http://www.w3.org/2000/svg">
<g clip-path="url(#clip0_873_511)">
<rect width="50" height="50" fill="white"/>
<circle cx="25" cy="25" r="24.5" fill="#EBE2FF" stroke="#E0E5F2"/>
<path d="M41.0761 29.6879C40.7947 28.973 40.0259 28.596 39.2894 28.8047L38.934 28.9043C38.8976 28.7428 38.829 28.5852 38.7361 28.4452L37.9525 27.286C37.8057 27.0719 37.7855 26.8107 37.8892 26.5859C37.9781 26.3879 38.0723 26.1739 38.1558 25.9436C38.2393 25.7134 38.448 25.541 38.6943 25.4939L40.0677 25.2273C40.7045 25.1075 41.169 24.5434 41.169 23.8957V21.5463C41.169 20.8987 40.7045 20.3345 40.0677 20.2093L38.6943 19.9427C38.4439 19.8902 38.2406 19.7179 38.1558 19.489C38.0777 19.2749 37.9888 19.0555 37.8892 18.8414C37.7842 18.6219 37.8111 18.35 37.9525 18.1413L38.7361 16.982C39.1023 16.4394 39.0282 15.7178 38.5691 15.2587L36.909 13.5985C36.4499 13.1394 35.7242 13.0654 35.1856 13.437L34.021 14.2206C33.8123 14.3619 33.5511 14.3875 33.3209 14.2785C33.0907 14.1788 32.882 14.09 32.6787 14.0173C32.443 13.9284 32.2761 13.7305 32.229 13.4747L31.9624 12.1013C31.8425 11.4645 31.2784 11 30.6254 11H28.28C27.6324 11 27.0682 11.4591 26.943 12.1013L26.6764 13.4801C26.6293 13.7305 26.457 13.9338 26.2267 14.0186C26.0234 14.0913 25.8147 14.1802 25.5791 14.2852C25.3543 14.3902 25.0931 14.3687 24.879 14.2219L23.7198 13.4383C23.1812 13.0721 22.4555 13.1408 21.9964 13.5999L20.3363 15.26C19.8772 15.7191 19.8031 16.4408 20.1693 16.9834L20.9529 18.1426C21.0943 18.3513 21.1199 18.6179 21.0162 18.8427C20.9166 19.0568 20.8277 19.2709 20.7496 19.4904C20.6661 19.726 20.4628 19.8929 20.211 19.9441L18.8323 20.2107C18.1955 20.3359 17.731 20.8947 17.731 21.5476V23.8971C17.731 24.5501 18.1955 25.1088 18.8323 25.2287L20.211 25.4953C20.4561 25.5424 20.6648 25.7147 20.7496 25.949C20.8331 26.1792 20.9219 26.3933 21.0162 26.5912C21.1212 26.8161 21.0943 27.0773 20.9529 27.2913L20.9367 27.3169C20.8735 27.3115 20.8169 27.3115 20.7536 27.3115H18.3517C18.2789 26.7111 17.8871 26.3193 17.3176 26.3193C17.1453 26.3193 17.0039 26.4606 17.0039 26.633C17.0039 26.8053 17.1453 26.9467 17.3176 26.9467C17.6623 26.9467 17.735 27.2496 17.735 27.5001V27.6145V27.6199V27.6253V36.206V36.2114V36.2168V36.89C17.735 37.1714 17.5842 37.4595 17.2436 37.4595C17.0712 37.4595 16.9298 37.5955 16.9298 37.7678C16.9245 37.9401 17.0604 38.0815 17.2274 38.0909L17.3055 38.0963H17.3216C17.358 38.0963 17.3943 38.0909 17.4267 38.0802C17.9746 37.9913 18.3665 37.5106 18.3665 36.8953V36.5291H19.8233C20.3349 36.5291 20.8465 36.6543 21.3016 36.89C22.9617 37.7463 25.1565 38.7601 26.2939 38.7601H26.3774C29.6734 38.6093 37.3709 33.6113 40.5253 31.464C41.107 31.0614 41.3319 30.3355 41.0761 29.6879ZM21.6018 26.3193C21.5184 26.1362 21.4349 25.9328 21.3568 25.7241C21.1952 25.2852 20.8088 24.9567 20.3483 24.8678L18.9696 24.6012C18.6304 24.538 18.3799 24.235 18.3799 23.8863V21.5369C18.3799 21.1868 18.6304 20.8893 18.9696 20.8219L20.3483 20.5553C20.8182 20.4611 21.1939 20.1434 21.3568 19.7044C21.4295 19.5065 21.513 19.3018 21.6018 19.1039C21.7957 18.6811 21.7526 18.1789 21.4874 17.7885L20.7038 16.6292C20.5099 16.3371 20.5476 15.9506 20.7927 15.7043L22.4528 14.0442C22.6978 13.7991 23.0842 13.7628 23.3724 13.9553L24.5316 14.7389C24.918 15.0001 25.4243 15.0472 25.843 14.8533C26.0571 14.7591 26.255 14.6756 26.4489 14.6083C26.8932 14.4413 27.2056 14.0657 27.2998 13.5958L27.5664 12.2225C27.6337 11.8832 27.9367 11.6328 28.2813 11.6328H30.6268C30.9768 11.6328 31.2798 11.8778 31.3417 12.2225L31.6083 13.5958C31.6971 14.0657 32.0162 14.4413 32.4592 14.6083C32.6477 14.6756 32.8456 14.7591 33.0597 14.8533C33.4825 15.0472 33.9847 15.0041 34.3751 14.7443L35.5398 13.9607C35.8266 13.7628 36.213 13.8045 36.4647 14.0495L38.1249 15.7096C38.3699 15.9547 38.4062 16.3411 38.2137 16.6346L37.4301 17.7939C37.1635 18.1857 37.1218 18.6865 37.3157 19.1093C37.4045 19.3072 37.488 19.5119 37.5607 19.7098C37.7169 20.1433 38.1033 20.4718 38.5692 20.5661L39.9425 20.8327C40.2818 20.9 40.5322 21.2029 40.5322 21.5476V23.8971C40.5322 24.2471 40.2872 24.5447 39.9425 24.612L38.5692 24.8786C38.1047 24.9675 37.7182 25.296 37.5607 25.7295C37.4826 25.9436 37.3992 26.1469 37.3103 26.33C37.1124 26.7582 37.1541 27.2496 37.4247 27.6455L38.2083 28.8047C38.2662 28.8936 38.3026 28.9878 38.3174 29.0861L30.3481 31.3682C30.4424 31.1434 30.4989 30.8983 30.4989 30.6371C30.4989 29.9895 30.1704 29.42 29.6682 29.0861C30.1071 29.0699 30.5406 29.0134 30.9634 28.9084C33.8258 28.2136 35.8199 25.6649 35.8199 22.7204C35.8199 19.2064 32.9628 16.3494 29.4489 16.3494C25.9349 16.3494 23.0779 19.2065 23.0779 22.7204C23.0779 25.494 24.8538 27.9161 27.4536 28.7684H24.8012C24.4309 28.7684 24.0701 28.6634 23.7564 28.4709L22.8731 27.9175C22.4813 27.6725 22.0478 27.5001 21.6035 27.4005C21.7583 27.0504 21.758 26.6639 21.6018 26.3193ZM28.3379 28.3402V24.627C28.3379 24.215 28.1399 23.8178 27.8047 23.5714C27.1153 23.0598 26.6926 22.2506 26.6656 21.4091C26.6441 20.6888 26.9013 20.0049 27.3657 19.4771V20.402C27.3657 20.6834 27.491 20.9446 27.7158 21.1223L28.9006 22.0419C29.2345 22.2977 29.695 22.2977 30.0235 22.0419L31.2137 21.117C31.4386 20.9392 31.5638 20.678 31.5638 20.3967V19.4717C32.0081 19.9779 32.2639 20.6309 32.2639 21.3203C32.2639 22.2183 31.8519 23.0383 31.1248 23.5714C30.7855 23.8219 30.5863 24.2137 30.5863 24.631V28.3336C29.8417 28.487 29.0743 28.487 28.3379 28.3402ZM31.2111 24.6377C31.2111 24.4182 31.3161 24.2149 31.4925 24.0843C32.3649 23.4367 32.8873 22.408 32.8873 21.3269C32.8873 20.2094 32.3394 19.1592 31.4251 18.517C31.3309 18.4497 31.2003 18.4443 31.102 18.4954C30.997 18.548 30.9351 18.657 30.9351 18.7768V20.4006C30.9351 20.4894 30.8933 20.5729 30.826 20.6254L29.6331 21.5464C29.5335 21.6245 29.3934 21.6245 29.2884 21.5464L28.1076 20.6322C28.0403 20.5743 27.9986 20.4908 27.9986 20.402V18.7782C27.9986 18.6638 27.9353 18.5534 27.8316 18.4968C27.7266 18.4443 27.6014 18.4497 27.5085 18.5184C26.5579 19.1821 26.0099 20.2673 26.0463 21.4266C26.0773 22.4606 26.5943 23.4475 27.4412 24.079C27.6189 24.2096 27.7226 24.4129 27.7226 24.6269V28.1733C25.3569 27.4166 23.7374 25.2274 23.7374 22.7109C23.7374 19.5455 26.3117 16.9713 29.477 16.9713C32.6423 16.9713 35.2165 19.5456 35.2165 22.7109C35.2165 25.2286 33.5982 27.4164 31.2272 28.1733L31.2259 24.6376L31.2111 24.6377ZM40.1768 30.9308C37.7479 32.5815 29.5807 37.9712 26.3587 38.1166C25.6114 38.153 23.8733 37.4946 21.6004 36.3206C21.0578 36.0392 20.4466 35.8924 19.8353 35.8924H18.3785V27.9338H20.7657C21.3971 27.9338 22.0191 28.1115 22.5523 28.4454L23.4356 28.9988C23.8476 29.26 24.3282 29.396 24.8143 29.396H28.6419C29.3259 29.396 29.8792 29.9494 29.8792 30.6333C29.8792 31.1396 29.5709 31.5785 29.132 31.767C29.1158 31.7724 29.101 31.7778 29.0848 31.7831C29.0323 31.8047 28.9798 31.8195 28.9287 31.8303C28.9071 31.8357 28.8815 31.841 28.856 31.8464C28.7927 31.8572 28.7307 31.8626 28.6621 31.868H28.6405H25.2301C25.1413 31.868 25.0632 31.9043 25.0053 31.9622C24.9474 32.0201 24.911 32.0982 24.911 32.1871C24.911 32.3594 25.0524 32.5008 25.2247 32.5008H28.6352C28.7186 32.5008 28.7967 32.4954 28.8748 32.4846C28.891 32.4846 28.9058 32.4792 28.9165 32.4792C28.9839 32.4685 29.0579 32.4536 29.1199 32.4375C29.1306 32.4321 29.1414 32.4321 29.1508 32.4267C29.2289 32.4052 29.3016 32.3742 29.3757 32.3432C29.3864 32.3379 29.3972 32.3325 29.4012 32.3271C29.4591 32.3015 29.5103 32.2746 29.5628 32.2436L39.444 29.4135C39.8668 29.2937 40.3057 29.5078 40.4673 29.9198C40.6369 30.2887 40.5063 30.706 40.1765 30.9309L40.1768 30.9308Z" fill="#6524EB"/>
<path d="M14.4292 24.977H8.59105C8.41872 24.977 8.27734 25.1183 8.27734 25.2907V39.0884C8.27734 39.2608 8.41872 39.4022 8.59105 39.4022H14.4251C15.0888 39.4022 15.626 38.8636 15.626 38.2012L15.6247 26.1778C15.6301 25.5154 15.0876 24.977 14.4292 24.977ZM14.9987 38.2053C14.9987 38.519 14.7429 38.7748 14.4292 38.7748H8.90885V25.6099H14.4292C14.7429 25.6099 14.9987 25.8657 14.9987 26.1794V38.2053Z" fill="#6524EB"/>
<path d="M12.2781 34.8108C11.4796 34.8108 10.832 35.4584 10.832 36.2568C10.832 37.0552 11.4796 37.7028 12.2781 37.7028C13.0765 37.7028 13.7241 37.0552 13.7241 36.2568C13.7241 35.4584 13.0765 34.8108 12.2781 34.8108ZM12.2781 37.0768C11.8284 37.0768 11.4581 36.7105 11.4581 36.2568C11.4581 35.8071 11.8243 35.4369 12.2781 35.4369C12.7278 35.4369 13.098 35.8031 13.098 36.2568C13.098 36.7065 12.7278 37.0768 12.2781 37.0768Z" fill="#6524EB"/>
</g>
<defs>
<clipPath id="clip0_873_511">
<rect width="50" height="50" fill="white"/>
</clipPath>
</defs>
</svg>
