<svg width="357" height="57" viewBox="0 0 357 57" fill="none" xmlns="http://www.w3.org/2000/svg">
<path d="M0 15.8809C0 8.25752 6.07777 2.03752 13.6999 1.89818C45.1625 1.32299 124.097 -0.0107212 179.02 6.50351e-05C233.456 0.0107557 311.9 1.33021 343.255 1.89985C350.878 2.03834 356.961 8.25885 356.961 15.8831V40.1954C356.961 47.8196 350.878 54.0401 343.255 54.1786C311.9 54.7483 233.456 56.0678 179.02 56.0785C124.097 56.0893 45.1625 54.7555 13.6998 54.1803C6.07776 54.041 0 47.8209 0 40.1976V15.8809Z" fill="#6524EB"/>
<path d="M154.268 25.0781C154.205 24.4889 153.94 24.0301 153.472 23.7017C153.009 23.3733 152.406 23.2092 151.664 23.2092C151.142 23.2092 150.695 23.2879 150.321 23.4453C149.948 23.6027 149.662 23.8164 149.464 24.0863C149.266 24.3562 149.165 24.6643 149.161 25.0107C149.161 25.2985 149.226 25.5482 149.356 25.7596C149.491 25.971 149.674 26.1509 149.903 26.2994C150.132 26.4433 150.387 26.5647 150.665 26.6637C150.944 26.7627 151.225 26.8459 151.509 26.9134L152.804 27.2372C153.326 27.3587 153.828 27.5228 154.309 27.7298C154.795 27.9367 155.229 28.1976 155.611 28.5124C155.998 28.8273 156.304 29.2074 156.529 29.6527C156.754 30.098 156.866 30.6198 156.866 31.218C156.866 32.0277 156.659 32.7406 156.245 33.3569C155.831 33.9686 155.233 34.4477 154.451 34.794C153.672 35.1359 152.73 35.3068 151.623 35.3068C150.548 35.3068 149.615 35.1404 148.823 34.8075C148.036 34.4747 147.42 33.9889 146.975 33.3501C146.534 32.7114 146.295 31.9332 146.26 31.0156H148.722C148.758 31.4969 148.907 31.8973 149.168 32.2166C149.428 32.536 149.768 32.7744 150.186 32.9318C150.609 33.0893 151.081 33.168 151.603 33.168C152.148 33.168 152.624 33.087 153.034 32.9251C153.447 32.7586 153.771 32.5292 154.005 32.2369C154.239 31.94 154.358 31.5936 154.363 31.1978C154.358 30.8379 154.253 30.5411 154.046 30.3072C153.839 30.0688 153.549 29.8709 153.175 29.7134C152.807 29.5515 152.375 29.4076 151.88 29.2816L150.308 28.8768C149.17 28.5844 148.27 28.1413 147.609 27.5476C146.952 26.9493 146.624 26.1554 146.624 25.1658C146.624 24.3517 146.844 23.6387 147.285 23.027C147.73 22.4152 148.335 21.9407 149.1 21.6033C149.865 21.2615 150.731 21.0906 151.698 21.0906C152.678 21.0906 153.537 21.2615 154.275 21.6033C155.017 21.9407 155.6 22.4107 156.023 23.0135C156.445 23.6117 156.664 24.3 156.677 25.0781H154.268ZM165.595 30.739V24.734H168.038V35.0977H165.669V33.2557H165.561C165.328 33.8359 164.943 34.3105 164.408 34.6793C163.877 35.0482 163.222 35.2326 162.444 35.2326C161.765 35.2326 161.165 35.0819 160.643 34.7805C160.125 34.4747 159.721 34.0316 159.428 33.4513C159.136 32.8666 158.99 32.1604 158.99 31.3327V24.734H161.432V30.9549C161.432 31.6116 161.612 32.1334 161.972 32.5202C162.332 32.9071 162.804 33.1005 163.389 33.1005C163.749 33.1005 164.097 33.0128 164.435 32.8374C164.772 32.6619 165.049 32.401 165.265 32.0547C165.485 31.7038 165.595 31.2653 165.595 30.739ZM170.657 35.0977V21.2795H173.1V26.4478H173.201C173.327 26.1959 173.505 25.9283 173.734 25.6449C173.963 25.357 174.274 25.1119 174.665 24.9094C175.056 24.7025 175.556 24.5991 176.163 24.5991C176.964 24.5991 177.686 24.8037 178.329 25.2131C178.976 25.6179 179.489 26.2184 179.867 27.0146C180.249 27.8062 180.441 28.7778 180.441 29.9293C180.441 31.0674 180.254 32.0344 179.881 32.8306C179.507 33.6268 178.999 34.234 178.356 34.6523C177.713 35.0707 176.984 35.2798 176.17 35.2798C175.576 35.2798 175.083 35.1809 174.692 34.983C174.301 34.785 173.986 34.5466 173.747 34.2678C173.514 33.9844 173.331 33.7167 173.201 33.4648H173.059V35.0977H170.657ZM173.052 29.9158C173.052 30.5861 173.147 31.1731 173.336 31.6768C173.529 32.1806 173.806 32.5742 174.166 32.8576C174.53 33.1365 174.971 33.2759 175.488 33.2759C176.028 33.2759 176.48 33.132 176.844 32.8441C177.209 32.5517 177.483 32.1536 177.668 31.6499C177.856 31.1416 177.951 30.5636 177.951 29.9158C177.951 29.2726 177.859 28.7013 177.674 28.2021C177.49 27.7028 177.215 27.3114 176.851 27.0281C176.487 26.7447 176.032 26.603 175.488 26.603C174.966 26.603 174.523 26.7402 174.159 27.0146C173.795 27.2889 173.518 27.6735 173.329 28.1683C173.145 28.6631 173.052 29.2456 173.052 29.9158ZM182.517 35.0977V24.734H184.852V26.495H184.973C185.189 25.9013 185.547 25.438 186.046 25.1051C186.545 24.7678 187.141 24.5991 187.834 24.5991C188.536 24.5991 189.127 24.77 189.608 25.1119C190.094 25.4492 190.436 25.9103 190.634 26.495H190.742C190.971 25.9193 191.358 25.4605 191.902 25.1186C192.451 24.7723 193.101 24.5991 193.852 24.5991C194.806 24.5991 195.584 24.9004 196.187 25.5032C196.79 26.1059 197.091 26.9853 197.091 28.1413V35.0977H194.642V28.5192C194.642 27.8759 194.471 27.4059 194.129 27.109C193.787 26.8076 193.369 26.657 192.874 26.657C192.285 26.657 191.824 26.8414 191.491 27.2102C191.162 27.5746 190.998 28.0491 190.998 28.6339V35.0977H188.603V28.418C188.603 27.8827 188.441 27.4554 188.117 27.136C187.798 26.8166 187.38 26.657 186.862 26.657C186.511 26.657 186.192 26.7469 185.904 26.9268C185.616 27.1023 185.387 27.3519 185.216 27.6758C185.045 27.9951 184.96 28.3685 184.96 28.7958V35.0977H182.517ZM199.569 35.0977V24.734H202.011V35.0977H199.569ZM200.797 23.2631C200.41 23.2631 200.077 23.1349 199.798 22.8786C199.519 22.6177 199.38 22.305 199.38 21.9407C199.38 21.5719 199.519 21.2592 199.798 21.0028C200.077 20.742 200.41 20.6115 200.797 20.6115C201.188 20.6115 201.521 20.742 201.795 21.0028C202.074 21.2592 202.214 21.5719 202.214 21.9407C202.214 22.305 202.074 22.6177 201.795 22.8786C201.521 23.1349 201.188 23.2631 200.797 23.2631ZM209.698 24.734V26.6232H203.74V24.734H209.698ZM205.211 22.2511H207.654V31.9805C207.654 32.3088 207.703 32.5607 207.802 32.7362C207.905 32.9071 208.04 33.024 208.207 33.087C208.373 33.15 208.558 33.1815 208.76 33.1815C208.913 33.1815 209.053 33.1702 209.178 33.1477C209.309 33.1252 209.408 33.105 209.475 33.087L209.887 34.9964C209.756 35.0414 209.57 35.0909 209.327 35.1449C209.088 35.1989 208.796 35.2304 208.45 35.2393C207.838 35.2573 207.287 35.1651 206.797 34.9627C206.306 34.7558 205.917 34.4364 205.629 34.0046C205.346 33.5728 205.207 33.033 205.211 32.3853V22.2511Z" fill="white"/>
</svg>
