<svg width="50" height="50" viewBox="0 0 50 50" fill="none" xmlns="http://www.w3.org/2000/svg">
<g clip-path="url(#clip0_2287_288)">
<rect width="50" height="50" fill="white"/>
<circle cx="25" cy="25" r="24.5" fill="#EBE2FF" stroke="#E6EAF4"/>
<path d="M18.1718 18.7603C14.7272 18.7603 14.3672 18.7603 14.3672 21.1648V23.8789C14.3672 26.2831 14.7272 26.2831 18.1718 26.2831C21.6164 26.2831 21.9767 26.2831 21.9767 23.8789V21.1648C21.9767 18.7603 21.6167 18.7603 18.1718 18.7603ZM21.3275 23.8789C21.3275 24.8574 21.3168 25.2609 21.0506 25.4199C20.6925 25.6339 19.7972 25.6339 18.1718 25.6339C16.5467 25.6339 15.6514 25.6339 15.2933 25.4199C15.0272 25.2609 15.0164 24.8574 15.0164 23.8789V21.1648C15.0164 20.186 15.0272 19.7825 15.2933 19.6234C15.6514 19.4095 16.5467 19.4095 18.1718 19.4095C19.7969 19.4095 20.6925 19.4095 21.0506 19.6234C21.3168 19.7825 21.3275 20.186 21.3275 21.1648V23.8789Z" fill="#6524EB"/>
<path d="M27.8245 18.7603C24.3799 18.7603 24.0195 18.7603 24.0195 21.1648V23.8789C24.0195 26.2831 24.3795 26.2831 27.8245 26.2831C31.2694 26.2831 31.6294 26.2831 31.6294 23.8789V21.1648C31.6294 18.7603 31.2691 18.7603 27.8245 18.7603ZM30.9801 23.8789C30.9801 24.8574 30.9698 25.2609 30.7029 25.4199C30.3448 25.6339 29.4499 25.6339 27.8245 25.6339C26.1991 25.6339 25.3037 25.6339 24.9457 25.4199C24.6795 25.2609 24.6688 24.8574 24.6688 23.8789V21.1648C24.6688 20.186 24.6795 19.7825 24.9457 19.6234C25.3037 19.4095 26.1991 19.4095 27.8245 19.4095C29.4499 19.4095 30.3452 19.4095 30.7029 19.6234C30.9694 19.7825 30.9801 20.186 30.9801 21.1648V23.8789Z" fill="#6524EB"/>
<path d="M14.6893 30.6875C13.8872 30.6875 13.2344 31.3406 13.2344 32.1431C13.2344 32.9453 13.8872 33.5978 14.6893 33.5978C15.4918 33.5978 16.1446 32.9449 16.1446 32.1431C16.1446 31.3406 15.4915 30.6875 14.6893 30.6875ZM14.6893 32.9488C14.2449 32.9488 13.8836 32.5875 13.8836 32.1434C13.8836 31.6987 14.2449 31.3371 14.6893 31.3371C15.1338 31.3371 15.4954 31.6987 15.4954 32.1434C15.4954 32.5875 15.1338 32.9488 14.6893 32.9488Z" fill="#6524EB"/>
<path d="M33.5328 30.6877C32.7306 30.6877 32.0781 31.3409 32.0781 32.1434C32.0781 32.9455 32.7309 33.598 33.5328 33.598C34.3356 33.598 34.9884 32.9452 34.9884 32.1434C34.9887 31.3409 34.3356 30.6877 33.5328 30.6877ZM33.5328 32.9491C33.0887 32.9491 32.7274 32.5878 32.7274 32.1437C32.7274 31.699 33.0887 31.3373 33.5328 31.3373C33.9775 31.3373 34.3391 31.699 34.3391 32.1437C34.3395 32.5878 33.9775 32.9491 33.5328 32.9491Z" fill="#6524EB"/>
<path d="M40.4756 25.8959C40.4717 25.8761 40.4724 25.856 40.4646 25.8365L40.463 25.8323C40.463 25.8323 40.4627 25.8319 40.4627 25.8316L37.2872 18.0026C37.2872 18.0023 37.2869 18.0023 37.2865 18.002C36.3717 15.6202 35.2278 15.6199 33.4972 15.6199H31.8302C31.7939 14.0562 31.4287 14 29.2027 14H28.3376C26.112 14 25.7464 14.0562 25.7101 15.6199H19.1614C19.1251 14.0562 18.7595 14 16.5336 14H15.6684C13.4428 14 13.0773 14.0562 13.0409 15.6199H10.9445C9.54505 15.6199 9 16.3224 9 18.125V29.9618C9 29.9618 9 29.9621 9 29.9625C9 31.7651 9.54537 32.4676 10.9445 32.4676L11.7035 32.4679C11.8658 33.9729 13.1432 35.1487 14.691 35.1487C16.2388 35.1487 17.5162 33.9726 17.6785 32.4676H30.545C30.7074 33.9729 31.9854 35.149 33.5329 35.149C35.0804 35.149 36.3578 33.9732 36.5201 32.4682L37.9832 32.4676C39.7861 32.4676 40.4886 31.9222 40.4886 30.5231V25.9589C40.4883 25.9365 40.4802 25.9173 40.4756 25.8959ZM36.7908 25.6342C36.0614 25.6342 35.6212 25.6342 35.2674 24.601C35.267 24.6003 35.2664 24.5997 35.2661 24.5987C35.2657 24.598 35.2661 24.5974 35.2657 24.5967L34.0081 21.0814C33.8056 20.4941 33.8065 19.9514 34.0111 19.6644C34.1334 19.4927 34.3315 19.4092 34.6171 19.4092H37.1567L39.6816 25.6339L36.7908 25.6342ZM26.5064 14.7927C26.7106 14.6492 27.3579 14.6493 28.3379 14.6493H29.203C30.1831 14.6493 30.8304 14.6492 31.0346 14.7927C31.154 14.8768 31.1784 15.132 31.1833 15.6199H26.3577C26.3622 15.132 26.3869 14.8765 26.5064 14.7927ZM13.8372 14.7927C14.0414 14.6492 14.6891 14.6493 15.6688 14.6493H16.5339C17.5139 14.6493 18.1612 14.6492 18.3658 14.7927C18.4852 14.8768 18.5096 15.132 18.5144 15.6199H13.6882C13.6934 15.132 13.7178 14.8765 13.8372 14.7927ZM9.64893 19.4099C10.6322 19.4115 11.2383 19.4281 11.4603 19.6011C11.6691 19.7634 11.6691 20.2909 11.6691 21.1648V23.879C11.6691 24.7526 11.6691 25.2801 11.4603 25.4424C11.2386 25.6154 10.6325 25.632 9.64893 25.6336V19.4099ZM14.6907 34.4991C13.3915 34.4991 12.3342 33.4421 12.3342 32.143C12.3342 30.8432 13.3912 29.7859 14.6907 29.7859C15.9902 29.7859 17.0471 30.8432 17.0471 32.143C17.0471 33.4421 15.9902 34.4991 14.6907 34.4991ZM33.5326 34.4994C32.2458 34.4994 31.1982 33.4626 31.1777 32.1803C31.1794 32.1673 31.1852 32.156 31.1852 32.1426C31.1852 32.1293 31.179 32.118 31.1777 32.105C31.1982 30.823 32.2461 29.7862 33.5326 29.7862C34.832 29.7862 35.889 30.8435 35.889 32.1433C35.889 33.4424 34.832 34.4994 33.5326 34.4994ZM37.9828 31.818L36.5198 31.8187C36.3575 30.3131 35.0801 29.1369 33.5326 29.1369C31.9851 29.1369 30.7077 30.3127 30.545 31.818H17.6779C17.5156 30.3127 16.2382 29.1366 14.6907 29.1366C13.1429 29.1366 11.8658 30.3127 11.7032 31.8183L10.9445 31.818C10.1388 31.818 9.64925 31.693 9.64893 29.9628C9.64893 29.9625 9.64893 29.9625 9.64893 29.9621V26.2825C12.0791 26.2737 12.318 26.1189 12.318 23.8793V21.1651C12.318 18.9252 12.0791 18.7707 9.64893 18.7616V18.1253C9.64893 16.3944 10.1381 16.2695 10.9442 16.2695H33.4969C35.2154 16.2695 35.927 16.2695 36.6827 18.2416C36.6831 18.2425 36.684 18.2435 36.6843 18.2445C36.6847 18.2454 36.6847 18.2464 36.685 18.2474L36.8934 18.7606H34.6168C33.9896 18.7606 33.6536 19.0473 33.4822 19.2881C33.1482 19.7569 33.1161 20.488 33.3943 21.2937C33.3946 21.2943 33.3952 21.295 33.3952 21.2956C33.3956 21.2963 33.3952 21.2966 33.3956 21.2972L34.6528 24.8116C35.1573 26.2835 36.0254 26.2838 36.7908 26.2838H39.8391V30.5234C39.8391 31.3288 39.7141 31.818 37.9828 31.818Z" fill="#6524EB"/>
</g>
<defs>
<clipPath id="clip0_2287_288">
<rect width="50" height="50" fill="white"/>
</clipPath>
</defs>
</svg>
