<svg width="50" height="50" viewBox="0 0 50 50" fill="none" xmlns="http://www.w3.org/2000/svg">
<g clip-path="url(#clip0_873_492)">
<rect width="50" height="50" fill="white"/>
<circle cx="25" cy="25" r="24.5" fill="#EBE2FF" stroke="#E0E5F2"/>
<mask id="path-2-inside-1_873_492" fill="white">
<path d="M10 21.6831C10 21.7832 10.0341 21.8792 10.0947 21.95C10.1553 22.0208 10.2375 22.0605 10.3233 22.0605H14.676C14.7211 22.0605 14.7657 22.0495 14.807 22.0283C14.8482 22.007 14.8852 21.9759 14.9156 21.9369C14.9459 21.898 14.969 21.8521 14.9833 21.8021C14.9976 21.7522 15.0028 21.6993 14.9986 21.6469C14.7821 19.0545 14.0829 17.1817 12.9117 16.0771C11.6597 14.8976 10.3413 15.0661 10.2858 15.072C10.2436 15.0779 10.2028 15.0933 10.1658 15.1175C10.1287 15.1417 10.0961 15.1742 10.0698 15.2131C10.0167 15.2917 9.99248 15.3918 10.0025 15.4912C10.0126 15.5906 10.056 15.6813 10.1234 15.7433C10.1907 15.8053 10.2764 15.8336 10.3615 15.8219C10.3724 15.8219 11.4634 15.6837 12.5054 16.6644C13.476 17.5776 14.0836 19.1379 14.3152 21.304H10.3233C10.2807 21.3041 10.2386 21.314 10.1993 21.3331C10.1601 21.3522 10.1244 21.3802 10.0944 21.4154C10.0644 21.4506 10.0406 21.4923 10.0244 21.5383C10.0082 21.5842 9.99991 21.6334 10 21.6831Z"/>
</mask>
<path d="M10 21.6831C10 21.7832 10.0341 21.8792 10.0947 21.95C10.1553 22.0208 10.2375 22.0605 10.3233 22.0605H14.676C14.7211 22.0605 14.7657 22.0495 14.807 22.0283C14.8482 22.007 14.8852 21.9759 14.9156 21.9369C14.9459 21.898 14.969 21.8521 14.9833 21.8021C14.9976 21.7522 15.0028 21.6993 14.9986 21.6469C14.7821 19.0545 14.0829 17.1817 12.9117 16.0771C11.6597 14.8976 10.3413 15.0661 10.2858 15.072C10.2436 15.0779 10.2028 15.0933 10.1658 15.1175C10.1287 15.1417 10.0961 15.1742 10.0698 15.2131C10.0167 15.2917 9.99248 15.3918 10.0025 15.4912C10.0126 15.5906 10.056 15.6813 10.1234 15.7433C10.1907 15.8053 10.2764 15.8336 10.3615 15.8219C10.3724 15.8219 11.4634 15.6837 12.5054 16.6644C13.476 17.5776 14.0836 19.1379 14.3152 21.304H10.3233C10.2807 21.3041 10.2386 21.314 10.1993 21.3331C10.1601 21.3522 10.1244 21.3802 10.0944 21.4154C10.0644 21.4506 10.0406 21.4923 10.0244 21.5383C10.0082 21.5842 9.99991 21.6334 10 21.6831Z" fill="#6524EB"/>
<path d="M10 21.6831H11.6L11.6 21.6801L10 21.6831ZM14.676 22.0605V23.6605H14.6762L14.676 22.0605ZM14.9986 21.6469L16.5934 21.5185L16.593 21.5137L14.9986 21.6469ZM12.9117 16.0771L14.0095 14.9131L14.0088 14.9126L12.9117 16.0771ZM10.2858 15.072L10.1169 13.481L10.0921 13.4836L10.0674 13.487L10.2858 15.072ZM10.0698 15.2131L11.3955 16.109L10.0698 15.2131ZM10.3615 15.8219V14.2219H10.2519L10.1432 14.2368L10.3615 15.8219ZM12.5054 16.6644L11.4089 17.8295L11.409 17.8296L12.5054 16.6644ZM14.3152 21.304V22.904H16.0954L15.9061 21.1339L14.3152 21.304ZM10.3233 21.304V19.704L10.3191 19.704L10.3233 21.304ZM10 21.6831H8.4C8.4 22.1344 8.55135 22.6077 8.8795 22.9908L10.0947 21.95L11.3099 20.9092C11.5168 21.1507 11.6 21.432 11.6 21.6831H10ZM10.0947 21.95L8.8795 22.9908C9.2142 23.3816 9.72617 23.6605 10.3233 23.6605V22.0605V20.4605C10.7489 20.4605 11.0964 20.66 11.3099 20.9092L10.0947 21.95ZM10.3233 22.0605V23.6605H14.676V22.0605V20.4605H10.3233V22.0605ZM14.676 22.0605L14.6762 23.6605C14.9841 23.6605 15.2795 23.5849 15.5407 23.4501L14.807 22.0283L14.0733 20.6064C14.252 20.5142 14.4581 20.4606 14.6759 20.4605L14.676 22.0605ZM14.807 22.0283L15.5407 23.4501C15.8005 23.316 16.0139 23.1303 16.1773 22.9208L14.9156 21.9369L13.6538 20.9531C13.7565 20.8214 13.896 20.6979 14.0733 20.6064L14.807 22.0283ZM14.9156 21.9369L16.1773 22.9208C16.3404 22.7117 16.4538 22.4791 16.5216 22.2423L14.9833 21.8021L13.445 21.362C13.4842 21.2251 13.5515 21.0843 13.6538 20.9531L14.9156 21.9369ZM14.9833 21.8021L16.5216 22.2423C16.5893 22.0055 16.6128 21.7599 16.5934 21.5185L14.9986 21.6469L13.4037 21.7752C13.3928 21.6387 13.4059 21.4989 13.445 21.362L14.9833 21.8021ZM14.9986 21.6469L16.593 21.5137C16.363 18.7592 15.6004 16.4135 14.0094 14.9131L12.9117 16.0771L11.8139 17.2412C12.5653 17.9498 13.2012 19.3499 13.4041 21.78L14.9986 21.6469ZM12.9117 16.0771L14.0088 14.9126C13.1391 14.0932 12.2185 13.7211 11.482 13.5649C11.1182 13.4877 10.8028 13.4637 10.5626 13.4609C10.442 13.4594 10.3397 13.4633 10.2587 13.4686C10.1757 13.474 10.1131 13.4814 10.1169 13.481L10.2858 15.072L10.4546 16.6631C10.4723 16.6612 10.4631 16.662 10.4677 16.6617C10.4743 16.6613 10.4939 16.6603 10.5243 16.6606C10.586 16.6614 10.6889 16.6679 10.8181 16.6953C11.0677 16.7482 11.4323 16.8816 11.8145 17.2417L12.9117 16.0771ZM10.2858 15.072L10.0674 13.487C9.7815 13.5264 9.51772 13.6297 9.2907 13.778L10.1658 15.1175L11.0408 16.457C10.8879 16.5569 10.7057 16.6293 10.5041 16.6571L10.2858 15.072ZM10.1658 15.1175L9.2907 13.778C9.06464 13.9257 8.88218 14.1129 8.74409 14.3173L10.0698 15.2131L11.3955 16.109C11.31 16.2355 11.1928 16.3578 11.0408 16.457L10.1658 15.1175ZM10.0698 15.2131L8.74409 14.3173C8.46951 14.7236 8.36512 15.2016 8.41063 15.652L10.0025 15.4912L11.5944 15.3303C11.6198 15.5819 11.5638 15.8598 11.3955 16.109L10.0698 15.2131ZM10.0025 15.4912L8.41063 15.652C8.45612 16.1022 8.65683 16.5678 9.03937 16.9202L10.1234 15.7433L11.2074 14.5665C11.4553 14.7948 11.569 15.079 11.5944 15.3303L10.0025 15.4912ZM10.1234 15.7433L9.03937 16.9202C9.43204 17.2819 9.98741 17.4885 10.5799 17.4069L10.3615 15.8219L10.1432 14.2368C10.5653 14.1787 10.9493 14.3288 11.2074 14.5665L10.1234 15.7433ZM10.3615 15.8219V17.4219C10.4056 17.4219 10.44 17.42 10.4497 17.4194C10.4644 17.4186 10.476 17.4178 10.4822 17.4173C10.4945 17.4164 10.5042 17.4155 10.5071 17.4153C10.5111 17.4149 10.5143 17.4146 10.5155 17.4145C10.5168 17.4143 10.5183 17.4142 10.5184 17.4142C10.5196 17.4141 10.5177 17.4143 10.5152 17.4145C10.5101 17.4149 10.5065 17.4152 10.5044 17.4153C10.5008 17.4155 10.5075 17.415 10.523 17.4153C10.5549 17.4159 10.62 17.4199 10.7064 17.4387C10.8712 17.4746 11.1296 17.5667 11.4089 17.8295L12.5054 16.6644L13.602 15.4992C12.8392 14.7813 12.0311 14.4522 11.3872 14.312C10.7623 14.1759 10.2177 14.2219 10.3615 14.2219V15.8219ZM12.5054 16.6644L11.409 17.8296C11.9711 18.3585 12.5091 19.4619 12.7243 21.4741L14.3152 21.304L15.9061 21.1339C15.6581 18.814 14.9809 16.7967 13.6019 15.4991L12.5054 16.6644ZM14.3152 21.304V19.704H10.3233V21.304V22.904H14.3152V21.304ZM10.3233 21.304L10.3191 19.704C10.0289 19.7047 9.7494 19.7727 9.49921 19.8944L10.1993 21.3331L10.8995 22.7718C10.7278 22.8553 10.5326 22.9034 10.3274 22.904L10.3233 21.304ZM10.1993 21.3331L9.49921 19.8944C9.25014 20.0156 9.04133 20.1844 8.87691 20.3772L10.0944 21.4154L11.3119 22.4535C11.2075 22.5759 11.07 22.6888 10.8995 22.7718L10.1993 21.3331ZM10.0944 21.4154L8.87691 20.3772C8.71285 20.5696 8.5934 20.7851 8.51542 21.0063L10.0244 21.5383L11.5334 22.0703C11.4878 22.1996 11.4159 22.3315 11.3119 22.4535L10.0944 21.4154ZM10.0244 21.5383L8.51542 21.0063C8.43742 21.2275 8.39957 21.4579 8.4 21.6862L10 21.6831L11.6 21.6801C11.6002 21.8089 11.579 21.9409 11.5334 22.0703L10.0244 21.5383Z" fill="#6524EB" mask="url(#path-2-inside-1_873_492)"/>
<mask id="path-4-inside-2_873_492" fill="white">
<path d="M20.5 30C20.0055 30 19.5222 30.1466 19.1111 30.4213C18.7 30.696 18.3795 31.0865 18.1903 31.5433C18.0011 32.0001 17.9516 32.5028 18.048 32.9877C18.1445 33.4727 18.3826 33.9181 18.7322 34.2678C19.0819 34.6174 19.5273 34.8555 20.0123 34.952C20.4972 35.0484 20.9999 34.9989 21.4567 34.8097C21.9135 34.6205 22.304 34.3 22.5787 33.8889C22.8534 33.4778 23 32.9945 23 32.5C22.9992 31.8372 22.7355 31.2018 22.2669 30.7331C21.7982 30.2645 21.1628 30.0008 20.5 30ZM20.5 34.3164C20.1407 34.3166 19.7894 34.2102 19.4906 34.0107C19.1918 33.8112 18.9589 33.5276 18.8213 33.1957C18.6837 32.8638 18.6476 32.4985 18.7176 32.1461C18.7876 31.7937 18.9605 31.47 19.2145 31.2158C19.4686 30.9617 19.7922 30.7887 20.1446 30.7185C20.497 30.6484 20.8622 30.6843 21.1942 30.8217C21.5261 30.9592 21.8099 31.192 22.0095 31.4908C22.2091 31.7895 22.3157 32.1407 22.3157 32.5C22.3153 32.9815 22.1239 33.4432 21.7835 33.7837C21.4431 34.1242 20.9815 34.3158 20.5 34.3164Z"/>
</mask>
<path d="M20.5 30C20.0055 30 19.5222 30.1466 19.1111 30.4213C18.7 30.696 18.3795 31.0865 18.1903 31.5433C18.0011 32.0001 17.9516 32.5028 18.048 32.9877C18.1445 33.4727 18.3826 33.9181 18.7322 34.2678C19.0819 34.6174 19.5273 34.8555 20.0123 34.952C20.4972 35.0484 20.9999 34.9989 21.4567 34.8097C21.9135 34.6205 22.304 34.3 22.5787 33.8889C22.8534 33.4778 23 32.9945 23 32.5C22.9992 31.8372 22.7355 31.2018 22.2669 30.7331C21.7982 30.2645 21.1628 30.0008 20.5 30ZM20.5 34.3164C20.1407 34.3166 19.7894 34.2102 19.4906 34.0107C19.1918 33.8112 18.9589 33.5276 18.8213 33.1957C18.6837 32.8638 18.6476 32.4985 18.7176 32.1461C18.7876 31.7937 18.9605 31.47 19.2145 31.2158C19.4686 30.9617 19.7922 30.7887 20.1446 30.7185C20.497 30.6484 20.8622 30.6843 21.1942 30.8217C21.5261 30.9592 21.8099 31.192 22.0095 31.4908C22.2091 31.7895 22.3157 32.1407 22.3157 32.5C22.3153 32.9815 22.1239 33.4432 21.7835 33.7837C21.4431 34.1242 20.9815 34.3158 20.5 34.3164Z" fill="#6524EB"/>
<path d="M20.5 30L20.502 28.4H20.5V30ZM23 32.5H24.6L24.6 32.4981L23 32.5ZM20.5 34.3164L20.5007 35.9164L20.502 35.9164L20.5 34.3164ZM22.3157 32.5L23.9157 32.5013V32.5H22.3157ZM20.5 30V28.4C19.6891 28.4 18.8964 28.6405 18.2222 29.091L19.1111 30.4213L20 31.7517C20.148 31.6528 20.322 31.6 20.5 31.6V30ZM19.1111 30.4213L18.2222 29.091C17.5479 29.5415 17.0224 30.1818 16.7121 30.931L18.1903 31.5433L19.6685 32.1556C19.7366 31.9911 19.852 31.8506 20 31.7517L19.1111 30.4213ZM18.1903 31.5433L16.7121 30.931C16.4018 31.6802 16.3206 32.5045 16.4788 33.2999L18.048 32.9877L19.6173 32.6756C19.5826 32.501 19.6004 32.32 19.6685 32.1556L18.1903 31.5433ZM18.048 32.9877L16.4788 33.2999C16.637 34.0952 17.0275 34.8257 17.6009 35.3991L18.7322 34.2678L19.8636 33.1364C19.7377 33.0105 19.652 32.8502 19.6173 32.6756L18.048 32.9877ZM18.7322 34.2678L17.6009 35.3991C18.1743 35.9725 18.9048 36.363 19.7001 36.5212L20.0123 34.952L20.3244 33.3827C20.1498 33.348 19.9895 33.2623 19.8636 33.1364L18.7322 34.2678ZM20.0123 34.952L19.7001 36.5212C20.4955 36.6794 21.3198 36.5982 22.069 36.2879L21.4567 34.8097L20.8444 33.3315C20.68 33.3996 20.499 33.4174 20.3244 33.3827L20.0123 34.952ZM21.4567 34.8097L22.069 36.2879C22.8182 35.9776 23.4585 35.4521 23.909 34.7778L22.5787 33.8889L21.2483 33C21.1494 33.148 21.0089 33.2634 20.8444 33.3315L21.4567 34.8097ZM22.5787 33.8889L23.909 34.7778C24.3595 34.1036 24.6 33.3109 24.6 32.5H23H21.4C21.4 32.678 21.3472 32.852 21.2483 33L22.5787 33.8889ZM23 32.5L24.6 32.4981C24.5987 31.4116 24.1665 30.37 23.3982 29.6018L22.2669 30.7331L21.1355 31.8645C21.3046 32.0336 21.3997 32.2628 21.4 32.502L23 32.5ZM22.2669 30.7331L23.3982 29.6018C22.63 28.8335 21.5884 28.4013 20.502 28.4L20.5 30L20.4981 31.6C20.7372 31.6003 20.9664 31.6954 21.1355 31.8645L22.2669 30.7331ZM20.5 34.3164L20.4993 32.7164C20.4565 32.7165 20.4147 32.7038 20.3791 32.68L19.4906 34.0107L18.6022 35.3414C19.1642 35.7166 19.8249 35.9167 20.5007 35.9164L20.5 34.3164ZM19.4906 34.0107L20.3791 32.68C20.3434 32.6562 20.3157 32.6224 20.2993 32.5829L18.8213 33.1957L17.3433 33.8084C17.6021 34.4327 18.0402 34.9661 18.6022 35.3414L19.4906 34.0107ZM18.8213 33.1957L20.2993 32.5829C20.2829 32.5433 20.2786 32.4998 20.2869 32.4578L18.7176 32.1461L17.1483 31.8344C17.0166 32.4972 17.0845 33.1842 17.3433 33.8084L18.8213 33.1957ZM18.7176 32.1461L20.2869 32.4578C20.2953 32.4158 20.3159 32.3773 20.3462 32.347L19.2145 31.2158L18.0829 30.0847C17.6052 30.5627 17.2799 31.1715 17.1483 31.8344L18.7176 32.1461ZM19.2145 31.2158L20.3462 32.347C20.3764 32.3167 20.415 32.2961 20.457 32.2877L20.1446 30.7185L19.8322 29.1493C19.1694 29.2812 18.5607 29.6068 18.0829 30.0847L19.2145 31.2158ZM20.1446 30.7185L20.457 32.2877C20.499 32.2794 20.5425 32.2836 20.582 32.3L21.1942 30.8217L21.8063 29.3435C21.182 29.0849 20.495 29.0174 19.8322 29.1493L20.1446 30.7185ZM21.1942 30.8217L20.582 32.3C20.6216 32.3164 20.6554 32.3441 20.6792 32.3797L22.0095 31.4908L23.3398 30.6018C22.9643 30.0399 22.4307 29.602 21.8063 29.3435L21.1942 30.8217ZM22.0095 31.4908L20.6792 32.3797C20.703 32.4153 20.7157 32.4572 20.7157 32.5L22.3157 32.5H23.9157C23.9157 31.8242 23.7153 31.1636 23.3398 30.6018L22.0095 31.4908ZM22.3157 32.5L20.7157 32.4987C20.7156 32.5564 20.6927 32.6117 20.6519 32.6526L21.7835 33.7837L22.9151 34.9148C23.5551 34.2746 23.9149 33.4066 23.9157 32.5013L22.3157 32.5ZM21.7835 33.7837L20.6519 32.6526C20.6111 32.6934 20.5557 32.7164 20.498 32.7164L20.5 34.3164L20.502 35.9164C21.4073 35.9153 22.2751 35.5551 22.9151 34.9148L21.7835 33.7837Z" fill="#6524EB" mask="url(#path-4-inside-2_873_492)"/>
<mask id="path-6-inside-3_873_492" fill="white">
<path d="M38.5343 18.4442H38.4408C38.9026 18.0697 39.2357 17.5633 39.3943 16.9944C39.5529 16.4256 39.5293 15.8222 39.3266 15.2672C39.1239 14.7121 38.7522 14.2326 38.2624 13.8944C37.7726 13.5562 37.1888 13.3759 36.5911 13.3783C35.9933 13.3807 35.411 13.5656 34.924 13.9077C34.437 14.2497 34.0691 14.7322 33.871 15.2888C33.6729 15.8455 33.6542 16.449 33.8174 17.0166C33.9806 17.5841 34.3178 18.0879 34.7827 18.4588C33.6369 18.5444 32.5528 19.0046 31.7018 19.7667L28.5046 21.996C28.4833 22.0106 28.4619 22.0265 28.4413 22.0425L26.9373 20.558C27.1007 20.2686 27.1604 19.9332 27.1066 19.6061C27.0306 19.136 26.8025 18.7026 26.4566 18.3709C26.3947 18.3098 26.3107 18.2754 26.2232 18.2754C26.1357 18.2754 26.0517 18.3098 25.9898 18.3709C25.9279 18.4319 25.8932 18.5148 25.8932 18.6012C25.8932 18.6876 25.9279 18.7705 25.9898 18.8315C26.2346 19.0633 26.397 19.3668 26.4529 19.697C26.4904 19.9694 26.4249 20.2056 26.2681 20.3604C26.1113 20.5152 25.872 20.5784 25.596 20.5428C25.2613 20.488 24.9537 20.3277 24.7192 20.0857C24.6573 20.0246 24.5734 19.9903 24.4858 19.9903C24.3983 19.9903 24.3143 20.0246 24.2525 20.0857C24.1906 20.1468 24.1558 20.2297 24.1558 20.3161C24.1558 20.4024 24.1906 20.4853 24.2525 20.5464C24.5883 20.8883 25.0274 21.1134 25.504 21.188C25.5842 21.1992 25.6651 21.2048 25.7462 21.2047C25.999 21.2076 26.248 21.1439 26.4676 21.0202L28.0092 22.5425C27.9215 22.7011 27.8611 22.873 27.8303 23.0511C27.7676 23.4064 27.8272 23.7722 27.9996 24.0902C27.4701 23.6942 26.903 23.3496 26.3064 23.0613C25.4078 22.6336 24.438 22.3704 23.4441 22.2845C22.0815 22.1581 21.0884 21.757 20.378 21.2817L27.672 14.1077L28.5738 14.9382C28.6055 14.9674 28.6426 14.9902 28.6832 15.0052C28.7238 15.0202 28.767 15.0272 28.8103 15.0258C28.8536 15.0243 28.8962 15.0145 28.9356 14.9968C28.9751 14.9791 29.0106 14.9539 29.0402 14.9226C29.0698 14.8914 29.0928 14.8547 29.108 14.8146C29.1232 14.7746 29.1303 14.732 29.1288 14.6892C29.1274 14.6465 29.1174 14.6044 29.0995 14.5655C29.0815 14.5266 29.056 14.4915 29.0243 14.4623L27.8899 13.4196C27.8274 13.3621 27.7447 13.3309 27.6593 13.3323C27.5739 13.3338 27.4924 13.368 27.432 13.4276L19.8494 20.8821C18.9247 20.069 18.6553 19.2021 18.6317 19.1244C16.3864 13.259 10.3991 13.0621 10.3387 13.0606C10.2509 13.0587 10.1658 13.0913 10.1023 13.1513C10.0388 13.2112 10.002 13.2936 10.0001 13.3803C9.99813 13.4671 10.0312 13.551 10.0919 13.6137C10.1527 13.6764 10.2361 13.7127 10.324 13.7146C10.5522 13.7197 15.9322 13.9108 18.0089 19.3286C18.0458 19.4586 18.9741 22.5257 23.383 22.9363C24.2976 23.0138 25.1904 23.2546 26.0178 23.6469C27.9444 24.577 30.4547 26.5716 31.4464 30.7861C31.4878 30.9621 31.4882 31.1451 31.4477 31.3213C31.4071 31.4975 31.3266 31.6623 31.2123 31.8034C31.0973 31.947 30.9509 32.063 30.784 32.1427C30.6171 32.2223 30.434 32.2636 30.2486 32.2633H24.8061C24.7317 31.1402 24.2272 30.0871 23.395 29.3177C22.5628 28.5483 21.4652 28.1201 20.325 28.1201C19.1847 28.1201 18.0871 28.5483 17.2549 29.3177C16.4227 30.0871 15.9183 31.1402 15.8438 32.2633H10.3314C10.2435 32.2633 10.1592 32.2978 10.0971 32.3591C10.035 32.4204 10.0001 32.5036 10.0001 32.5903C10.0001 32.677 10.035 32.7602 10.0971 32.8215C10.1592 32.8829 10.2435 32.9173 10.3314 32.9173H15.8438C15.9183 34.0404 16.4227 35.0935 17.2549 35.8629C18.0871 36.6324 19.1847 37.0605 20.325 37.0605C21.4652 37.0605 22.5628 36.6324 23.395 35.8629C24.2272 35.0935 24.7317 34.0404 24.8061 32.9173H30.2486C30.5323 32.9173 30.8124 32.8541 31.068 32.7325C31.3236 32.611 31.5482 32.4341 31.725 32.2151C31.9018 31.9961 32.0264 31.7406 32.0894 31.4675C32.1525 31.1944 32.1523 30.9109 32.089 30.6379C31.4559 27.9493 30.2346 26.1102 28.9139 24.8553C29.1608 24.9411 29.4249 24.9671 29.684 24.9312C29.9432 24.8953 30.1898 24.7985 30.4032 24.649L33.9008 22.2118V23.2589L32.4549 24.306C32.1694 24.5049 31.9554 24.7885 31.8441 25.1155C31.7327 25.4425 31.7298 25.7961 31.8357 26.1248C31.9416 26.4536 32.1508 26.7406 32.433 26.9441C32.7152 27.1477 33.0558 27.2572 33.4053 27.2568C33.5733 27.258 33.7404 27.2335 33.9008 27.1842V35.2992C33.9008 36.254 34.6532 37.0308 35.6036 37.0308C35.8687 37.0289 36.1294 36.9641 36.3638 36.8418C36.5981 36.7195 36.7992 36.5433 36.95 36.3281C37.1053 36.5454 37.3112 36.7227 37.5504 36.845C37.7896 36.9673 38.0551 37.031 38.3245 37.0308C39.2484 37.0308 40 36.254 40 35.2992V19.8866C39.9988 19.5037 39.8439 19.1368 39.5691 18.8664C39.2944 18.5961 38.9222 18.4442 38.5343 18.4442ZM20.325 36.3812C19.5665 36.3812 18.8251 36.1592 18.1945 35.7433C17.5639 35.3274 17.0724 34.7362 16.7821 34.0446C16.4919 33.353 16.4159 32.5919 16.5639 31.8577C16.7119 31.1235 17.0771 30.4491 17.6134 29.9197C18.1497 29.3904 18.833 29.0299 19.5768 28.8838C20.3207 28.7378 21.0917 28.8128 21.7924 29.0992C22.4932 29.3857 23.0921 29.8708 23.5134 30.4933C23.9348 31.1157 24.1597 31.8475 24.1597 32.5961C24.1585 33.5996 23.7541 34.5617 23.0352 35.2713C22.3163 35.9809 21.3416 36.38 20.325 36.3812ZM34.3675 16.2382C34.3675 15.8019 34.4986 15.3754 34.7442 15.0126C34.9898 14.6498 35.3388 14.367 35.7472 14.2001C36.1556 14.0331 36.605 13.9894 37.0386 14.0745C37.4721 14.1596 37.8704 14.3698 38.183 14.6783C38.4955 14.9868 38.7084 15.3799 38.7946 15.8078C38.8809 16.2357 38.8366 16.6793 38.6674 17.0824C38.4983 17.4855 38.2118 17.8301 37.8443 18.0725C37.4767 18.3149 37.0446 18.4442 36.6025 18.4442C36.01 18.4437 35.4418 18.2111 35.0228 17.7975C34.6038 17.3839 34.3681 16.8231 34.3675 16.2382ZM32.6007 26.1931C32.5261 26.0882 32.4731 25.97 32.4448 25.8449C32.4165 25.7199 32.4135 25.5906 32.4358 25.4644C32.4582 25.3382 32.5055 25.2176 32.5751 25.1095C32.6447 25.0014 32.7352 24.9079 32.8414 24.8343L37.3424 21.5768C37.4092 21.5243 37.4528 21.4484 37.4641 21.3649C37.4754 21.2814 37.4536 21.1968 37.4032 21.1288C37.3528 21.0609 37.2777 21.0148 37.1936 21.0002C37.1096 20.9856 37.0231 21.0037 36.9522 21.0507L34.5626 22.7808V21.5804C34.5626 21.5804 34.5626 21.576 34.5626 21.5739C34.5619 21.5548 34.5597 21.5359 34.556 21.5172C34.5563 21.5157 34.5563 21.5143 34.556 21.5128C34.5517 21.4934 34.5456 21.4744 34.5376 21.4561C34.5289 21.4376 34.5185 21.4198 34.5067 21.4031C34.4948 21.3872 34.4815 21.3723 34.4669 21.3588L34.461 21.3537C34.4472 21.3409 34.4321 21.3295 34.4161 21.3195H34.4102C34.3937 21.3098 34.3765 21.3013 34.3587 21.2941H34.3535C34.3353 21.2876 34.3166 21.2825 34.2976 21.2788H34.2917C34.2744 21.2759 34.2569 21.2745 34.2394 21.2745H34.2276C34.2081 21.2751 34.1886 21.2775 34.1695 21.2817C34.1493 21.2861 34.1295 21.2924 34.1106 21.3006C34.0906 21.3093 34.0716 21.32 34.0539 21.3326L30.0366 24.1331C29.8177 24.2774 29.5505 24.332 29.2915 24.2854C29.0325 24.2387 28.802 24.0945 28.6489 23.8831C28.4985 23.6723 28.439 23.4113 28.4833 23.1573C28.5276 22.9033 28.6721 22.6769 28.8852 22.5279L32.1045 20.2834C32.1205 20.2722 32.1355 20.2598 32.1494 20.2463C32.9787 19.5104 34.0526 19.1002 35.1677 19.0931H38.5365C38.7491 19.0941 38.9527 19.1781 39.1028 19.3268C39.2529 19.4755 39.3372 19.6767 39.3374 19.8866V22.5199L33.9729 26.427C33.7575 26.5693 33.495 26.6247 33.2394 26.5817C32.9839 26.5387 32.7548 26.4007 32.5992 26.196L32.6007 26.1931ZM38.295 36.3812C37.7348 36.3812 37.2791 35.8965 37.2791 35.3014V28.1586C37.2791 28.0719 37.2442 27.9887 37.1821 27.9274C37.1199 27.8661 37.0357 27.8316 36.9478 27.8316C36.8599 27.8316 36.7757 27.8661 36.7136 27.9274C36.6514 27.9887 36.6165 28.0719 36.6165 28.1586V35.3014C36.6165 35.8965 36.1608 36.3812 35.5734 36.3812C35.0139 36.3812 34.5582 35.8965 34.5582 35.3014V26.8107L39.3345 23.3323V35.2992C39.3374 35.8943 38.8825 36.3812 38.295 36.3812Z"/>
</mask>
<path d="M38.5343 18.4442H38.4408C38.9026 18.0697 39.2357 17.5633 39.3943 16.9944C39.5529 16.4256 39.5293 15.8222 39.3266 15.2672C39.1239 14.7121 38.7522 14.2326 38.2624 13.8944C37.7726 13.5562 37.1888 13.3759 36.5911 13.3783C35.9933 13.3807 35.411 13.5656 34.924 13.9077C34.437 14.2497 34.0691 14.7322 33.871 15.2888C33.6729 15.8455 33.6542 16.449 33.8174 17.0166C33.9806 17.5841 34.3178 18.0879 34.7827 18.4588C33.6369 18.5444 32.5528 19.0046 31.7018 19.7667L28.5046 21.996C28.4833 22.0106 28.4619 22.0265 28.4413 22.0425L26.9373 20.558C27.1007 20.2686 27.1604 19.9332 27.1066 19.6061C27.0306 19.136 26.8025 18.7026 26.4566 18.3709C26.3947 18.3098 26.3107 18.2754 26.2232 18.2754C26.1357 18.2754 26.0517 18.3098 25.9898 18.3709C25.9279 18.4319 25.8932 18.5148 25.8932 18.6012C25.8932 18.6876 25.9279 18.7705 25.9898 18.8315C26.2346 19.0633 26.397 19.3668 26.4529 19.697C26.4904 19.9694 26.4249 20.2056 26.2681 20.3604C26.1113 20.5152 25.872 20.5784 25.596 20.5428C25.2613 20.488 24.9537 20.3277 24.7192 20.0857C24.6573 20.0246 24.5734 19.9903 24.4858 19.9903C24.3983 19.9903 24.3143 20.0246 24.2525 20.0857C24.1906 20.1468 24.1558 20.2297 24.1558 20.3161C24.1558 20.4024 24.1906 20.4853 24.2525 20.5464C24.5883 20.8883 25.0274 21.1134 25.504 21.188C25.5842 21.1992 25.6651 21.2048 25.7462 21.2047C25.999 21.2076 26.248 21.1439 26.4676 21.0202L28.0092 22.5425C27.9215 22.7011 27.8611 22.873 27.8303 23.0511C27.7676 23.4064 27.8272 23.7722 27.9996 24.0902C27.4701 23.6942 26.903 23.3496 26.3064 23.0613C25.4078 22.6336 24.438 22.3704 23.4441 22.2845C22.0815 22.1581 21.0884 21.757 20.378 21.2817L27.672 14.1077L28.5738 14.9382C28.6055 14.9674 28.6426 14.9902 28.6832 15.0052C28.7238 15.0202 28.767 15.0272 28.8103 15.0258C28.8536 15.0243 28.8962 15.0145 28.9356 14.9968C28.9751 14.9791 29.0106 14.9539 29.0402 14.9226C29.0698 14.8914 29.0928 14.8547 29.108 14.8146C29.1232 14.7746 29.1303 14.732 29.1288 14.6892C29.1274 14.6465 29.1174 14.6044 29.0995 14.5655C29.0815 14.5266 29.056 14.4915 29.0243 14.4623L27.8899 13.4196C27.8274 13.3621 27.7447 13.3309 27.6593 13.3323C27.5739 13.3338 27.4924 13.368 27.432 13.4276L19.8494 20.8821C18.9247 20.069 18.6553 19.2021 18.6317 19.1244C16.3864 13.259 10.3991 13.0621 10.3387 13.0606C10.2509 13.0587 10.1658 13.0913 10.1023 13.1513C10.0388 13.2112 10.002 13.2936 10.0001 13.3803C9.99813 13.4671 10.0312 13.551 10.0919 13.6137C10.1527 13.6764 10.2361 13.7127 10.324 13.7146C10.5522 13.7197 15.9322 13.9108 18.0089 19.3286C18.0458 19.4586 18.9741 22.5257 23.383 22.9363C24.2976 23.0138 25.1904 23.2546 26.0178 23.6469C27.9444 24.577 30.4547 26.5716 31.4464 30.7861C31.4878 30.9621 31.4882 31.1451 31.4477 31.3213C31.4071 31.4975 31.3266 31.6623 31.2123 31.8034C31.0973 31.947 30.9509 32.063 30.784 32.1427C30.6171 32.2223 30.434 32.2636 30.2486 32.2633H24.8061C24.7317 31.1402 24.2272 30.0871 23.395 29.3177C22.5628 28.5483 21.4652 28.1201 20.325 28.1201C19.1847 28.1201 18.0871 28.5483 17.2549 29.3177C16.4227 30.0871 15.9183 31.1402 15.8438 32.2633H10.3314C10.2435 32.2633 10.1592 32.2978 10.0971 32.3591C10.035 32.4204 10.0001 32.5036 10.0001 32.5903C10.0001 32.677 10.035 32.7602 10.0971 32.8215C10.1592 32.8829 10.2435 32.9173 10.3314 32.9173H15.8438C15.9183 34.0404 16.4227 35.0935 17.2549 35.8629C18.0871 36.6324 19.1847 37.0605 20.325 37.0605C21.4652 37.0605 22.5628 36.6324 23.395 35.8629C24.2272 35.0935 24.7317 34.0404 24.8061 32.9173H30.2486C30.5323 32.9173 30.8124 32.8541 31.068 32.7325C31.3236 32.611 31.5482 32.4341 31.725 32.2151C31.9018 31.9961 32.0264 31.7406 32.0894 31.4675C32.1525 31.1944 32.1523 30.9109 32.089 30.6379C31.4559 27.9493 30.2346 26.1102 28.9139 24.8553C29.1608 24.9411 29.4249 24.9671 29.684 24.9312C29.9432 24.8953 30.1898 24.7985 30.4032 24.649L33.9008 22.2118V23.2589L32.4549 24.306C32.1694 24.5049 31.9554 24.7885 31.8441 25.1155C31.7327 25.4425 31.7298 25.7961 31.8357 26.1248C31.9416 26.4536 32.1508 26.7406 32.433 26.9441C32.7152 27.1477 33.0558 27.2572 33.4053 27.2568C33.5733 27.258 33.7404 27.2335 33.9008 27.1842V35.2992C33.9008 36.254 34.6532 37.0308 35.6036 37.0308C35.8687 37.0289 36.1294 36.9641 36.3638 36.8418C36.5981 36.7195 36.7992 36.5433 36.95 36.3281C37.1053 36.5454 37.3112 36.7227 37.5504 36.845C37.7896 36.9673 38.0551 37.031 38.3245 37.0308C39.2484 37.0308 40 36.254 40 35.2992V19.8866C39.9988 19.5037 39.8439 19.1368 39.5691 18.8664C39.2944 18.5961 38.9222 18.4442 38.5343 18.4442ZM20.325 36.3812C19.5665 36.3812 18.8251 36.1592 18.1945 35.7433C17.5639 35.3274 17.0724 34.7362 16.7821 34.0446C16.4919 33.353 16.4159 32.5919 16.5639 31.8577C16.7119 31.1235 17.0771 30.4491 17.6134 29.9197C18.1497 29.3904 18.833 29.0299 19.5768 28.8838C20.3207 28.7378 21.0917 28.8128 21.7924 29.0992C22.4932 29.3857 23.0921 29.8708 23.5134 30.4933C23.9348 31.1157 24.1597 31.8475 24.1597 32.5961C24.1585 33.5996 23.7541 34.5617 23.0352 35.2713C22.3163 35.9809 21.3416 36.38 20.325 36.3812ZM34.3675 16.2382C34.3675 15.8019 34.4986 15.3754 34.7442 15.0126C34.9898 14.6498 35.3388 14.367 35.7472 14.2001C36.1556 14.0331 36.605 13.9894 37.0386 14.0745C37.4721 14.1596 37.8704 14.3698 38.183 14.6783C38.4955 14.9868 38.7084 15.3799 38.7946 15.8078C38.8809 16.2357 38.8366 16.6793 38.6674 17.0824C38.4983 17.4855 38.2118 17.8301 37.8443 18.0725C37.4767 18.3149 37.0446 18.4442 36.6025 18.4442C36.01 18.4437 35.4418 18.2111 35.0228 17.7975C34.6038 17.3839 34.3681 16.8231 34.3675 16.2382ZM32.6007 26.1931C32.5261 26.0882 32.4731 25.97 32.4448 25.8449C32.4165 25.7199 32.4135 25.5906 32.4358 25.4644C32.4582 25.3382 32.5055 25.2176 32.5751 25.1095C32.6447 25.0014 32.7352 24.9079 32.8414 24.8343L37.3424 21.5768C37.4092 21.5243 37.4528 21.4484 37.4641 21.3649C37.4754 21.2814 37.4536 21.1968 37.4032 21.1288C37.3528 21.0609 37.2777 21.0148 37.1936 21.0002C37.1096 20.9856 37.0231 21.0037 36.9522 21.0507L34.5626 22.7808V21.5804C34.5626 21.5804 34.5626 21.576 34.5626 21.5739C34.5619 21.5548 34.5597 21.5359 34.556 21.5172C34.5563 21.5157 34.5563 21.5143 34.556 21.5128C34.5517 21.4934 34.5456 21.4744 34.5376 21.4561C34.5289 21.4376 34.5185 21.4198 34.5067 21.4031C34.4948 21.3872 34.4815 21.3723 34.4669 21.3588L34.461 21.3537C34.4472 21.3409 34.4321 21.3295 34.4161 21.3195H34.4102C34.3937 21.3098 34.3765 21.3013 34.3587 21.2941H34.3535C34.3353 21.2876 34.3166 21.2825 34.2976 21.2788H34.2917C34.2744 21.2759 34.2569 21.2745 34.2394 21.2745H34.2276C34.2081 21.2751 34.1886 21.2775 34.1695 21.2817C34.1493 21.2861 34.1295 21.2924 34.1106 21.3006C34.0906 21.3093 34.0716 21.32 34.0539 21.3326L30.0366 24.1331C29.8177 24.2774 29.5505 24.332 29.2915 24.2854C29.0325 24.2387 28.802 24.0945 28.6489 23.8831C28.4985 23.6723 28.439 23.4113 28.4833 23.1573C28.5276 22.9033 28.6721 22.6769 28.8852 22.5279L32.1045 20.2834C32.1205 20.2722 32.1355 20.2598 32.1494 20.2463C32.9787 19.5104 34.0526 19.1002 35.1677 19.0931H38.5365C38.7491 19.0941 38.9527 19.1781 39.1028 19.3268C39.2529 19.4755 39.3372 19.6767 39.3374 19.8866V22.5199L33.9729 26.427C33.7575 26.5693 33.495 26.6247 33.2394 26.5817C32.9839 26.5387 32.7548 26.4007 32.5992 26.196L32.6007 26.1931ZM38.295 36.3812C37.7348 36.3812 37.2791 35.8965 37.2791 35.3014V28.1586C37.2791 28.0719 37.2442 27.9887 37.1821 27.9274C37.1199 27.8661 37.0357 27.8316 36.9478 27.8316C36.8599 27.8316 36.7757 27.8661 36.7136 27.9274C36.6514 27.9887 36.6165 28.0719 36.6165 28.1586V35.3014C36.6165 35.8965 36.1608 36.3812 35.5734 36.3812C35.0139 36.3812 34.5582 35.8965 34.5582 35.3014V26.8107L39.3345 23.3323V35.2992C39.3374 35.8943 38.8825 36.3812 38.295 36.3812Z" fill="#6524EB" stroke="#6524EB" stroke-width="3.2" mask="url(#path-6-inside-3_873_492)"/>
</g>
<defs>
<clipPath id="clip0_873_492">
<rect width="50" height="50" fill="white"/>
</clipPath>
</defs>
</svg>
