<svg width="22" height="20" viewBox="0 0 22 20" fill="none" xmlns="http://www.w3.org/2000/svg">
<path d="M11.0013 14.6437C10.3596 14.6437 9.83541 14.1195 9.83541 13.4778C9.83541 13.283 9.67786 13.1226 9.48021 13.1226C9.28255 13.1226 9.125 13.2802 9.125 13.4778C9.125 14.3902 9.781 15.1493 10.6461 15.3183V15.9127C10.6461 16.1075 10.8036 16.2679 11.0013 16.2679C11.1989 16.2679 11.3565 16.1104 11.3565 15.9127V15.3183C12.2216 15.1536 12.8776 14.3902 12.8776 13.4778C12.8776 12.4437 12.0382 11.6044 11.0041 11.6044C10.3625 11.6044 9.83824 11.0802 9.83824 10.4385C9.83824 9.79685 10.3625 9.27263 11.0041 9.27263C11.6458 9.27263 12.17 9.79685 12.17 10.4385C12.17 10.6333 12.3276 10.7937 12.5252 10.7937C12.7229 10.7937 12.8804 10.6362 12.8804 10.4385C12.8804 9.52614 12.2244 8.76704 11.3593 8.59804V8.00364C11.3593 7.80885 11.2018 7.64844 11.0041 7.64844C10.8065 7.64844 10.6489 7.80599 10.6489 8.00364V8.59804C9.78382 8.76276 9.12786 9.52614 9.12786 10.4385C9.12786 11.4726 9.96719 12.312 11.0013 12.312C11.643 12.312 12.1672 12.8362 12.1672 13.4778C12.1672 14.1195 11.6458 14.6437 11.0013 14.6437Z" fill="#24252C"/>
<path d="M19.4591 0.828125H2.54088C1.14011 0.828125 0 1.96823 0 3.369V8.99804C0 10.3988 1.14011 11.5389 2.54088 11.5389H5.45986V18.0215C5.45986 18.6446 5.96974 19.1545 6.59277 19.1545H15.407C16.0301 19.1545 16.5399 18.6446 16.5399 18.0215V11.5389H19.4589C20.8597 11.5389 21.9998 10.3988 21.9998 8.99804V3.369C21.9998 1.96823 20.8599 0.828125 19.4591 0.828125ZM15.8298 18.024C15.8298 18.2589 15.6393 18.445 15.4087 18.445H6.59443C6.35953 18.445 6.17335 18.2545 6.17335 18.024V6.54003H15.8357V18.024H15.8298ZM21.2898 9.00071C21.2898 10.009 20.4691 10.8297 19.4607 10.8297H16.5417V6.54014H17.6203C17.815 6.54014 17.9755 6.38258 17.9755 6.18493C17.9755 5.98728 17.8179 5.82972 17.6203 5.82972L4.38182 5.82829C4.18703 5.82829 4.02662 5.98584 4.02662 6.1835C4.02662 6.38115 4.18417 6.5387 4.38182 6.5387H5.46033V10.8283H2.54135C1.53302 10.8283 0.712319 10.0076 0.712319 8.99928V3.37024C0.712319 2.36192 1.53302 1.54121 2.54135 1.54121H19.4596C20.4679 1.54121 21.2887 2.36192 21.2887 3.37024V8.99928L21.2898 9.00071Z" fill="#24252C"/>
</svg>
