<svg width="20" height="20" viewBox="0 0 20 20" fill="none" xmlns="http://www.w3.org/2000/svg">
<path d="M15.361 19.6864H3.72101C2.89397 19.6864 2.22656 19.0128 2.22656 18.1919V17.4596C2.22656 17.2939 2.35636 17.1641 2.52212 17.1641H16.5721C16.7378 17.1641 16.8676 17.2939 16.8676 17.4596V18.1919C16.8615 19.0181 16.188 19.6864 15.361 19.6864ZM2.81148 17.7543V18.1919C2.81148 18.6945 3.2193 19.0961 3.71568 19.0961H15.3608C15.8634 19.0961 16.265 18.6883 16.265 18.1919V17.7543H2.81148Z" fill="#24252C"/>
<path d="M17.2056 17.7515H1.8786C0.844573 17.7515 0 16.907 0 15.8729V2.76754C0 1.72739 0.844573 0.882812 1.8786 0.882812H17.2108C18.2448 0.882812 19.0894 1.72739 19.0894 2.76754V15.8783C19.0841 16.9123 18.2449 17.7515 17.2056 17.7515ZM1.8786 1.4739C1.16997 1.4739 0.590238 2.05274 0.590238 2.76752V15.8783C0.590238 16.5869 1.16907 17.1667 1.8786 17.1667H17.2108C17.9194 17.1667 18.4991 16.5878 18.4991 15.8783V2.76752C18.4991 2.05274 17.9203 1.4739 17.2108 1.4739H1.8786Z" fill="#24252C"/>
<path d="M18.7885 4.83556H0.295557C0.129799 4.83556 0 4.70576 0 4.54V2.76754C0 1.72739 0.844573 0.882812 1.8786 0.882812H17.2108C18.2448 0.882812 19.0894 1.72739 19.0894 2.76754V4.54C19.0841 4.69962 18.9543 4.83556 18.7885 4.83556ZM0.591024 4.24445H18.4937V2.76754C18.4937 2.05276 17.9149 1.47393 17.2054 1.47393H1.87835C1.16972 1.47393 0.589991 2.05276 0.589991 2.76754L0.591024 4.24445Z" fill="#24252C"/>
<path d="M3.78774 3.32127C3.62199 3.32127 3.49219 3.19147 3.49219 3.02571V0.295557C3.49219 0.129799 3.62199 0 3.78774 0C3.9535 0 4.0833 0.129799 4.0833 0.295557V3.0311C4.0833 3.19072 3.9535 3.32127 3.78774 3.32127Z" fill="#24252C"/>
<path d="M7.62368 3.32127C7.45792 3.32127 7.32812 3.19147 7.32812 3.02571V0.295557C7.32812 0.129799 7.45793 0 7.62368 0C7.78944 0 7.91924 0.129799 7.91924 0.295557V3.0311C7.91836 3.19072 7.78856 3.32127 7.62368 3.32127Z" fill="#24252C"/>
<path d="M11.4596 3.32127C11.2939 3.32127 11.1641 3.19147 11.1641 3.02571L11.1649 0.295557C11.1649 0.129799 11.2947 0 11.4605 0C11.6263 0 11.7561 0.129799 11.7561 0.295557V3.0311C11.7552 3.19072 11.6192 3.32127 11.4596 3.32127Z" fill="#24252C"/>
<path d="M15.2956 3.32127C15.1298 3.32127 15 3.19147 15 3.02571V0.295557C15 0.129799 15.1298 0 15.2956 0C15.4613 0 15.5911 0.129799 15.5911 0.295557V3.0311C15.5911 3.19072 15.4552 3.32127 15.2956 3.32127Z" fill="#24252C"/>
<path d="M9.53998 15.8612C6.86933 15.8612 4.69531 13.6871 4.69531 11.0165C4.69531 8.34589 6.86947 6.17188 9.53998 6.17188C12.2105 6.17188 14.3847 8.34603 14.3847 11.0165C14.3847 13.6872 12.2105 15.8612 9.53998 15.8612ZM9.53998 6.76214C7.19398 6.76214 5.28557 8.67055 5.28557 11.0165C5.28557 13.3625 7.19398 15.271 9.53998 15.271C11.886 15.271 13.7944 13.3625 13.7944 11.0165C13.7944 8.67055 11.886 6.76214 9.53998 6.76214Z" fill="#24252C"/>
<path d="M9.53916 13.9312C9.11994 13.9312 8.72966 13.7716 8.42797 13.4822C8.12101 13.1866 7.94386 12.7849 7.93771 12.3535C7.93157 12.1877 8.06137 12.0579 8.22714 12.0518C8.41044 12.0403 8.52269 12.1754 8.52885 12.3412C8.53498 12.613 8.64724 12.8674 8.84194 13.056C9.03664 13.2454 9.2971 13.3515 9.569 13.3392C10.1303 13.3278 10.5732 12.8665 10.5679 12.3052C10.5618 12.0333 10.4495 11.779 10.2548 11.5904C10.0601 11.401 9.8058 11.2949 9.52778 11.3072C8.65339 11.2958 7.93861 10.5801 7.93861 9.70045C7.93861 8.81378 8.65952 8.09375 9.54531 8.09375C10.432 8.09375 11.152 8.81466 11.152 9.70045C11.152 9.86621 11.0222 9.99601 10.8565 9.99601C10.6907 9.99601 10.5609 9.86621 10.5609 9.70045C10.5609 9.13915 10.1057 8.68399 9.54443 8.68399C8.98314 8.68399 8.52797 9.13915 8.52797 9.70045C8.52797 10.2618 8.98314 10.7169 9.54443 10.7169H9.55057C9.96454 10.7169 10.3601 10.8765 10.6618 11.166C10.9687 11.4615 11.1459 11.8632 11.152 12.2947C11.1696 13.1814 10.4609 13.9137 9.57426 13.9312H9.53916Z" fill="#24252C"/>
<path d="M9.54165 14.4637C9.37589 14.4637 9.24609 14.3339 9.24609 14.1682V7.85806C9.24609 7.6923 9.37589 7.5625 9.54165 7.5625C9.70741 7.5625 9.83721 7.6923 9.83721 7.85806V14.1682C9.83721 14.3278 9.70741 14.4637 9.54165 14.4637Z" fill="#24252C"/>
</svg>
