<svg width="50" height="50" viewBox="0 0 50 50" fill="none" xmlns="http://www.w3.org/2000/svg">
<g clip-path="url(#clip0_873_350)">
<rect width="50" height="50" fill="white"/>
<circle cx="25" cy="25" r="24.5" fill="#EBE2FF" stroke="#E0E5F2"/>
<path fill-rule="evenodd" clip-rule="evenodd" d="M38.9713 19.7375H21.2981C21.2043 19.7375 21.1197 19.7758 21.0572 19.8357C20.9947 19.8969 20.9569 19.9797 20.9569 20.0715V21.647C20.9569 21.7387 20.996 21.8216 21.0572 21.8828C21.1197 21.944 21.2043 21.9809 21.2981 21.9809H38.9713C39.0651 21.9809 39.1497 21.9427 39.2122 21.8828C39.2747 21.8216 39.3125 21.7387 39.3125 21.647V20.0715C39.3125 19.9797 39.2734 19.8969 39.2122 19.8357C39.1497 19.7745 39.0651 19.7375 38.9713 19.7375ZM18.7554 29.462L15.2048 12.1928C15.1696 12.0182 15.0629 11.8741 14.9209 11.7811C14.7777 11.688 14.6006 11.6485 14.4222 11.6829C14.2438 11.7174 14.0967 11.8219 14.0017 11.9608C13.9066 12.101 13.8663 12.2744 13.9014 12.449L17.4861 29.8775C17.5473 29.8507 17.6111 29.8239 17.6762 29.7997C17.9535 29.6939 18.3493 29.5486 18.7569 29.4606L18.7554 29.462ZM18.8427 36.1694C18.913 35.9973 19.1109 35.9132 19.2867 35.982C19.4624 36.0508 19.5484 36.2446 19.4781 36.4167C19.2789 36.9049 19.0171 37.3433 18.7229 37.7461C18.5849 37.9361 18.439 38.1183 18.2906 38.293C18.8804 38.2993 19.4663 38.3057 20.0184 38.3121C20.5249 37.6442 20.8088 36.8768 20.8713 36.01C20.939 35.0655 20.745 34.0012 20.2906 32.817C20.2242 32.6436 20.314 32.4512 20.4924 32.3862C20.6695 32.3212 20.8661 32.4091 20.9325 32.5837C21.4221 33.861 21.6304 35.0183 21.5549 36.056C21.495 36.8897 21.2554 37.6443 20.8362 38.3224C21.1981 38.3262 21.5367 38.3288 21.844 38.3313C22.3739 38.1758 22.7294 37.7718 22.9117 37.1204C23.12 36.3773 23.1122 35.3295 22.8882 33.9771C22.8583 33.7948 22.9846 33.6215 23.1708 33.5921C23.357 33.5628 23.534 33.6864 23.564 33.8687C23.8036 35.3155 23.8062 36.4576 23.5718 37.295C23.4533 37.717 23.2775 38.0637 23.0419 38.3364C23.2945 38.3364 23.4429 38.3352 23.4546 38.3301C23.5705 38.2918 23.7346 38.209 23.9221 38.0534C24.0718 37.9298 24.2346 37.7616 24.396 37.5347C24.5262 37.3537 24.6525 37.1395 24.7697 36.9037C24.7762 36.8884 24.7828 36.8731 24.7919 36.8591C24.8466 36.7469 24.8986 36.6297 24.9481 36.5098C25.0979 36.1427 25.2164 35.7514 25.2775 35.3779C25.3895 34.696 25.3114 34.0153 25.0328 33.4404C24.7802 32.9191 24.3596 32.4819 23.7645 32.2079C23.4208 32.0498 23.0197 31.9529 22.663 31.8662C22.4299 31.8101 22.2137 31.7579 22.0289 31.6942C21.5679 31.5348 21.0979 31.146 20.633 30.7624C20.3492 30.5278 20.0666 30.2946 19.8166 30.1403C19.6278 30.0231 19.3049 30.0396 18.9677 30.1047C18.5823 30.1799 18.1904 30.3239 17.9208 30.4259C17.7073 30.5075 17.525 30.5992 17.3753 30.7037C17.2359 30.8019 17.1253 30.909 17.0445 31.0275C16.8258 31.3513 16.7958 31.8713 16.7646 32.4042C16.7333 32.9255 16.7034 33.4596 16.5029 33.9376C16.3753 34.2422 16.1878 34.5112 15.9547 34.7483C15.7099 34.9968 15.4156 35.2084 15.0862 35.3881C14.7047 35.5972 14.3258 35.7527 13.9495 35.9069C13.1917 36.2179 12.4417 36.5264 11.9 37.1829C11.7581 37.3549 11.6774 37.5219 11.6513 37.6711C11.6318 37.7845 11.6461 37.8865 11.6904 37.9681C11.7347 38.0484 11.8102 38.1159 11.9169 38.1618C12.055 38.223 12.2399 38.2485 12.4638 38.2281C12.4742 38.2268 12.4846 38.2268 12.4951 38.2268V38.2255C12.5628 38.2255 12.6995 38.2268 12.8922 38.2281C14.2412 37.9617 15.3127 37.4811 16.1304 36.7622C16.952 36.0408 17.5263 35.072 17.8778 33.8305C17.9286 33.652 18.1174 33.5475 18.2997 33.596C18.482 33.6457 18.5888 33.8305 18.5393 34.0089C18.1526 35.3754 17.5107 36.4512 16.5888 37.2606C16.1395 37.6545 15.6265 37.9846 15.0458 38.251L15.6395 38.2587C16.1942 38.265 16.7867 38.2727 17.3882 38.2791C17.6578 37.9884 17.9221 37.6813 18.1604 37.3537C18.426 36.9891 18.6617 36.5953 18.8374 36.1657L18.8427 36.1694ZM32.2853 12.3958H27.9833C27.8674 12.3958 27.7606 12.4429 27.6838 12.5181C27.607 12.5933 27.5588 12.6979 27.5588 12.8113V13.3773C27.5588 13.4907 27.607 13.5952 27.6838 13.6705C27.7606 13.7457 27.8674 13.7928 27.9833 13.7928H32.2853C32.4012 13.7928 32.5079 13.7457 32.5848 13.6705C32.6616 13.5952 32.7098 13.4907 32.7098 13.3773V12.8113C32.7098 12.6979 32.6616 12.5933 32.5848 12.5181C32.5079 12.4429 32.4012 12.3958 32.2853 12.3958ZM37.9883 23.0992L37.319 35.9491C37.3086 36.1594 37.22 36.3507 37.0794 36.487C36.9492 36.6145 36.7734 36.6935 36.5742 36.6935H25.6133C25.7682 36.3035 25.8893 35.8879 25.9557 35.4864C26.0885 34.6732 25.9921 33.8561 25.6549 33.1576C25.3372 32.4999 24.8072 31.9492 24.056 31.6038C23.6471 31.4164 23.2148 31.3106 22.8281 31.2176C22.7851 31.2074 22.7422 31.1972 22.7018 31.187L22.2565 22.6568H38.0104L37.9896 23.066C37.9883 23.0774 37.987 23.0889 37.9883 23.1017L37.9883 23.0992ZM38.0638 19.065C37.75 17.9216 37.1549 16.8828 36.3489 16.0173C35.5078 15.1123 34.4401 14.3985 33.2279 13.9511C33.1823 14.0224 33.1289 14.0874 33.069 14.1461C32.8672 14.3437 32.5898 14.466 32.2838 14.466H27.9819C27.6759 14.466 27.3972 14.3437 27.1967 14.1461C27.1615 14.1117 27.1303 14.076 27.1003 14.039C25.9389 14.5055 24.9181 15.2206 24.116 16.1129C23.3543 16.9593 22.7905 17.965 22.4884 19.0663H38.064L38.0638 19.065ZM33.3971 13.2984C34.7435 13.7815 35.9284 14.5666 36.8568 15.566C37.7734 16.5526 38.4427 17.7469 38.7708 19.0664H38.9714C39.2552 19.0664 39.5117 19.1798 39.6979 19.3621C39.8841 19.5444 40 19.7967 40 20.0733V21.6488C40 21.9267 39.8841 22.1778 39.6979 22.3601C39.5117 22.5424 39.2539 22.6558 38.9714 22.6558H38.8047C38.7943 22.7004 38.7839 22.745 38.7721 22.7897C38.7396 22.9197 38.7057 23.042 38.6719 23.1568L38.0026 35.9825C37.9831 36.3637 37.8203 36.7116 37.5651 36.9615C37.3099 37.2113 36.9648 37.3655 36.5742 37.3655H25.3023C25.1929 37.5708 25.077 37.7581 24.9585 37.9238C24.7619 38.1966 24.5575 38.4082 24.3635 38.5676C24.1005 38.7843 23.8531 38.9079 23.6708 38.9678C23.6044 38.9895 22.939 38.9959 21.9638 38.9933C21.9169 39.0022 21.8713 39.0022 21.827 38.9933C21.3466 38.992 20.7971 38.9882 20.2098 38.9831C20.1916 38.9844 20.1734 38.9844 20.1565 38.9831C19.3335 38.9755 18.4403 38.9665 17.5614 38.9563C17.5458 38.9576 17.5315 38.9576 17.5171 38.9551C16.87 38.9474 16.232 38.9398 15.6356 38.9334C14.508 38.9194 13.5432 38.9079 12.9404 38.9041H12.9169C12.7463 38.9028 12.6057 38.9015 12.5015 38.9015C12.1669 38.927 11.8779 38.8799 11.6448 38.7766C11.3935 38.667 11.2073 38.4962 11.0914 38.2833C10.9768 38.0717 10.9377 37.8257 10.982 37.5632C11.0263 37.3044 11.1539 37.0316 11.3726 36.7652C12.0263 35.9736 12.8531 35.6333 13.6903 35.2904C14.0575 35.14 14.4273 34.9883 14.7593 34.8061C15.0302 34.6582 15.2711 34.4861 15.4664 34.2873C15.6421 34.1088 15.7815 33.91 15.8752 33.6869C16.0302 33.3147 16.0588 32.838 16.0862 32.3715C16.1226 31.7469 16.1578 31.1389 16.4794 30.6634C16.5823 30.5105 16.7112 30.3728 16.8648 30.2505L13.2308 12.5822C13.1579 12.2253 13.2386 11.8722 13.43 11.5917C13.6214 11.31 13.9222 11.0997 14.2868 11.0271C14.6514 10.9557 15.0121 11.0347 15.2985 11.2221C15.5863 11.4095 15.8011 11.7039 15.8753 12.0608L19.438 29.3835C19.7127 29.3861 19.9706 29.4396 20.1854 29.5722C20.4797 29.7544 20.7778 30.0005 21.0799 30.2503C21.3976 30.5129 21.718 30.778 22.0044 30.9412L21.5721 22.6544H21.2987C21.0148 22.6544 20.7583 22.541 20.5721 22.3587C20.3859 22.1764 20.27 21.924 20.27 21.6474V20.0719C20.27 19.7941 20.3859 19.543 20.5721 19.3607C20.7583 19.1784 21.0161 19.065 21.2987 19.065H21.783C22.1007 17.7916 22.7348 16.6342 23.602 15.668C24.4796 14.6916 25.5981 13.9103 26.8728 13.4042V13.3775V12.8115C26.8728 12.5119 26.9978 12.2392 27.1996 12.0429C27.4015 11.8453 27.6788 11.7229 27.9848 11.7229H32.2868C32.5928 11.7229 32.8714 11.8453 33.072 12.0429C33.2738 12.2404 33.3988 12.5119 33.3988 12.8115V13.2984L33.3971 13.2984ZM13.4479 27.9531C13.6523 28.1532 13.888 28.3253 14.1458 28.4592C13.888 28.5943 13.6536 28.7651 13.4479 28.9652C13.2435 29.1653 13.0677 29.3961 12.931 29.6485C12.7929 29.3961 12.6185 29.1666 12.414 28.9652C12.2096 28.7651 11.9739 28.593 11.7161 28.4592C11.9739 28.3241 12.2083 28.1533 12.414 27.9531C12.6184 27.753 12.7942 27.5223 12.931 27.2699C13.069 27.5223 13.2435 27.7517 13.4479 27.9531ZM12.931 25.5899C13.1211 25.5899 13.2747 25.7403 13.2747 25.9264C13.2747 26.5306 13.5273 27.0787 13.9335 27.4777C14.3411 27.8766 14.901 28.1226 15.5182 28.1226C15.7083 28.1226 15.8619 28.2731 15.8619 28.4591C15.8619 28.6452 15.7083 28.7956 15.5182 28.7956C14.901 28.7956 14.3411 29.0429 13.9335 29.4406C13.526 29.8396 13.2747 30.3877 13.2747 30.9919C13.2747 31.178 13.121 31.3284 12.931 31.3284C12.7409 31.3284 12.5872 31.178 12.5872 30.9919C12.5872 30.3877 12.3346 29.8396 11.9284 29.4406C11.5208 29.0416 10.9609 28.7956 10.3437 28.7956C10.1536 28.7956 10 28.6452 10 28.4591C10 28.273 10.1536 28.1226 10.3437 28.1226C10.9609 28.1226 11.5208 27.8754 11.9284 27.4777C12.3359 27.0799 12.5872 26.5306 12.5872 25.9264C12.5872 25.7403 12.7409 25.5899 12.931 25.5899ZM20.7043 13.3632C20.4998 13.1631 20.3241 12.9324 20.1873 12.68C20.0493 12.9324 19.8748 13.1618 19.6704 13.3632C19.466 13.5634 19.2303 13.7354 18.9725 13.8693C19.2303 14.0044 19.4647 14.1752 19.6704 14.3753C19.8748 14.5754 20.0506 14.8062 20.1873 15.0586C20.3253 14.8062 20.4998 14.5767 20.7043 14.3753C20.9087 14.1752 21.1443 14.0031 21.4022 13.8693C21.1444 13.7342 20.91 13.5634 20.7043 13.3632ZM20.1873 11C20.3774 11 20.5311 11.1504 20.5311 11.3365C20.5311 11.9407 20.7837 12.4888 21.1899 12.8878C21.5975 13.2867 22.1573 13.5328 22.7745 13.5328C22.9646 13.5328 23.1183 13.6832 23.1183 13.8692C23.1183 14.0553 22.9646 14.2057 22.7745 14.2057C22.1573 14.2057 21.5975 14.453 21.1899 14.8507C20.7824 15.2497 20.5311 15.7978 20.5311 16.402C20.5311 16.5881 20.3774 16.7385 20.1873 16.7385C19.9972 16.7385 19.8436 16.5881 19.8436 16.402C19.8436 15.7978 19.591 15.2497 19.1847 14.8507C18.7772 14.4518 18.2173 14.2057 17.6001 14.2057C17.41 14.2057 17.2564 14.0553 17.2564 13.8692C17.2564 13.6832 17.41 13.5328 17.6001 13.5328C18.2173 13.5328 18.7772 13.2855 19.1847 12.8878C19.5923 12.4888 19.8436 11.9407 19.8436 11.3365C19.8436 11.1504 19.9972 11 20.1873 11Z" fill="#6524EB"/>
</g>
<defs>
<clipPath id="clip0_873_350">
<rect width="50" height="50" fill="white"/>
</clipPath>
</defs>
</svg>
