<svg width="27" height="27" viewBox="0 0 27 27" fill="none" xmlns="http://www.w3.org/2000/svg">
<rect width="27" height="27" rx="5" fill="#F3EEFF"/>
<path d="M18.8986 4.32031H11.3386C10.4453 4.32031 9.71859 5.25462 9.71859 6.40317V7.09746H9.17859C8.28527 7.09746 7.55859 8.03176 7.55859 9.18031V21.6775C7.55859 22.826 8.28527 23.7603 9.17859 23.7603H16.7386C17.6319 23.7603 18.3586 22.826 18.3586 21.6775V20.9832H18.8986C19.7919 20.9832 20.5186 20.0489 20.5186 18.9003V6.40317C20.5186 5.25462 19.7919 4.32031 18.8986 4.32031ZM17.2786 21.6775C17.2786 22.0605 17.0365 22.3717 16.7386 22.3717H9.17859C8.88064 22.3717 8.63859 22.0605 8.63859 21.6775V9.18031C8.63859 8.79724 8.88064 8.48603 9.17859 8.48603H16.7386C17.0365 8.48603 17.2786 8.79724 17.2786 9.18031V21.6775ZM19.4386 18.9003C19.4386 19.2834 19.1965 19.5946 18.8986 19.5946H18.3586V9.18031C18.3586 8.03176 17.6319 7.09746 16.7386 7.09746H10.7986V6.40317C10.7986 6.02009 11.0406 5.70888 11.3386 5.70888H18.8986C19.1965 5.70888 19.4386 6.02009 19.4386 6.40317V18.9003Z" fill="#5F33E1"/>
</svg>
