<svg width="37" height="37" viewBox="0 0 37 37" fill="none" xmlns="http://www.w3.org/2000/svg">
<rect width="37" height="37" rx="5" fill="#F3EEFF"/>
<path d="M26.5 6H14.8333C13.4548 6 12.3333 7.24958 12.3333 8.78571V9.71429H11.5C10.1214 9.71429 9 10.9639 9 12.5V29.2143C9 30.7504 10.1214 32 11.5 32H23.1667C24.5452 32 25.6667 30.7504 25.6667 29.2143V28.2857H26.5C27.8786 28.2857 29 27.0361 29 25.5V8.78571C29 7.24958 27.8786 6 26.5 6ZM24 29.2143C24 29.7266 23.6265 30.1429 23.1667 30.1429H11.5C11.0402 30.1429 10.6667 29.7266 10.6667 29.2143V12.5C10.6667 11.9877 11.0402 11.5714 11.5 11.5714H23.1667C23.6265 11.5714 24 11.9877 24 12.5V29.2143ZM27.3333 25.5C27.3333 26.0123 26.9598 26.4286 26.5 26.4286H25.6667V12.5C25.6667 10.9639 24.5452 9.71429 23.1667 9.71429H14V8.78571C14 8.27337 14.3735 7.85714 14.8333 7.85714H26.5C26.9598 7.85714 27.3333 8.27337 27.3333 8.78571V25.5Z" fill="#5F33E1"/>
</svg>
