<svg width="27" height="27" viewBox="0 0 27 27" fill="none" xmlns="http://www.w3.org/2000/svg">
<path d="M13.2158 6.43457C13.4039 6.43471 13.5794 6.54005 13.7061 6.72852L18.9092 15.709L19.04 15.9336L19.2236 15.75L19.6895 15.2861L19.6914 15.2842L25.3643 9.5127L25.3701 9.50781L25.375 9.50098C25.5053 9.34605 25.7493 9.28331 25.9805 9.39453C26.1973 9.51847 26.3324 9.75619 26.3057 9.96777L26.3047 9.97461L24.8281 25.585C24.7992 25.8686 24.5376 26.1025 24.25 26.1025H2.25977C1.97912 26.1025 1.76892 25.9284 1.70117 25.6904L1.68164 25.585L0.205078 9.97461L0.204102 9.97168L0.200195 9.87109C0.206016 9.64357 0.322219 9.4743 0.503906 9.40625L0.512695 9.40234C0.715939 9.31526 0.966811 9.34587 1.13379 9.54102V9.54199L1.14355 9.55176L7.20508 15.75L7.38965 15.9385L7.52148 15.7109L12.7275 6.72168L12.7285 6.72266L12.7344 6.71094C12.8139 6.55302 13.0116 6.43457 13.2158 6.43457ZM13.0439 8.34375L7.99316 17.0596L7.96582 17.1064V17.1553C7.96068 17.1606 7.9547 17.1664 7.94727 17.1738L7.9082 17.2139L7.90527 17.2158C7.90422 17.2167 7.90153 17.2189 7.89648 17.2227C7.88762 17.2292 7.8764 17.237 7.86133 17.2471C7.8478 17.2561 7.82961 17.2679 7.8125 17.2803C7.80156 17.2882 7.78965 17.2991 7.77637 17.3105H7.77441L7.7666 17.3184C7.76231 17.3223 7.75717 17.3258 7.75293 17.3301L7.70215 17.3809C7.69952 17.3834 7.69659 17.3856 7.69434 17.3877H7.65039L7.6084 17.4102C7.58307 17.423 7.57297 17.425 7.56836 17.4258C7.55877 17.4274 7.54706 17.4277 7.50488 17.4277H7.33887L7.29492 17.4072L7.23633 17.3486H7.20898C7.2069 17.3473 7.20531 17.3451 7.20312 17.3438C7.19781 17.3406 7.19141 17.3389 7.18555 17.3359L7.16797 17.3184C7.1672 17.3176 7.16653 17.3159 7.16602 17.3154L7.16406 17.3145L7.1582 17.3086L7.15723 17.3066L7.15527 17.3057L7.06152 17.2119H7.06055L5.9375 16.0527H5.93848L1.86035 11.792L1.46289 11.377L1.5166 11.9492L2.72168 24.7324L2.73926 24.9141H23.6943L23.7119 24.7324L24.917 11.9492L24.9697 11.3848L24.5742 11.791L19.3311 17.1729C19.3252 17.1787 19.3213 17.1858 19.3164 17.1914H19.3125L19.2539 17.25L19.2441 17.2588C19.2386 17.2617 19.2326 17.2635 19.2275 17.2666C19.2257 17.2677 19.2244 17.2694 19.2227 17.2705H19.0781V17.3486H18.9277C18.9251 17.3486 18.9236 17.3496 18.8945 17.3398C18.8683 17.331 18.8191 17.3149 18.7549 17.3115C18.75 17.3091 18.7455 17.3066 18.7412 17.3047C18.7172 17.2939 18.6929 17.2853 18.6807 17.2812C18.6734 17.2788 18.6684 17.2766 18.665 17.2754L18.6221 17.2324H18.5566C18.5478 17.2267 18.5396 17.2229 18.5332 17.2178C18.5188 17.2062 18.5067 17.1941 18.4863 17.1738L18.4482 17.1367C18.4529 17.1415 18.4563 17.1488 18.4463 17.1289C18.4421 17.1206 18.4361 17.108 18.4277 17.0938V17.0732L18.4072 17.0312L18.3291 16.877L18.3301 16.876L18.3242 16.8662L13.3896 8.34375L13.2168 8.04492L13.0439 8.34375Z" fill="black" stroke="white" stroke-width="0.4"/>
<path d="M13.2148 0.200195C14.659 0.200195 15.8125 1.35054 15.8125 2.78906C15.8124 4.22749 14.6589 5.37793 13.2148 5.37793C11.7708 5.37785 10.6183 4.22744 10.6182 2.78906C10.6182 1.35059 11.7707 0.200277 13.2148 0.200195ZM13.2148 1.31055C12.4054 1.31063 11.7324 1.9805 11.7324 2.78906C11.7325 3.59753 12.4054 4.26749 13.2148 4.26758C14.0243 4.26758 14.6971 3.59758 14.6973 2.78906C14.6973 1.98045 14.0244 1.31055 13.2148 1.31055Z" fill="black" stroke="white" stroke-width="0.4"/>
</svg>
