<svg width="11" height="11" viewBox="0 0 11 11" fill="none" xmlns="http://www.w3.org/2000/svg">
<path d="M1.18829 1.18829C1.43934 0.937237 1.84637 0.937237 2.09743 1.18829L5.5 4.59086L8.90257 1.18829C9.15363 0.937237 9.56066 0.937237 9.81171 1.18829C10.0628 1.43934 10.0628 1.84637 9.81171 2.09743L6.40914 5.5L9.81171 8.90257C10.0628 9.15363 10.0628 9.56066 9.81171 9.81171C9.56066 10.0628 9.15363 10.0628 8.90257 9.81171L5.5 6.40914L2.09743 9.81171C1.84637 10.0628 1.43934 10.0628 1.18829 9.81171C0.937237 9.56066 0.937237 9.15363 1.18829 8.90257L4.59086 5.5L1.18829 2.09743C0.937237 1.84637 0.937237 1.43934 1.18829 1.18829Z" fill="white" stroke="white" stroke-width="0.3" stroke-linecap="round" stroke-linejoin="round"/>
</svg>
