<svg width="32" height="32" viewBox="0 0 32 32" fill="none" xmlns="http://www.w3.org/2000/svg">
<rect x="16" width="22.6271" height="22.6271" rx="11.3136" transform="rotate(45 16 0)" fill="#EF2424"/>
<path d="M19.6666 12.3307C19.9197 12.5838 19.9197 12.9942 19.6666 13.2473L16.9167 15.9973L19.6666 18.7473C19.9197 19.0004 19.9197 19.4108 19.6666 19.6639C19.4135 19.917 19.0031 19.917 18.75 19.6639L16 16.914L13.25 19.6639C12.9969 19.917 12.5865 19.917 12.3334 19.6639C12.0803 19.4108 12.0803 19.0004 12.3334 18.7473L15.0833 15.9973L12.3334 13.2473C12.0803 12.9942 12.0803 12.5838 12.3334 12.3307C12.5865 12.0776 12.9969 12.0776 13.25 12.3307L16 15.0806L18.75 12.3307C19.0031 12.0776 19.4135 12.0776 19.6666 12.3307Z" fill="white"/>
</svg>
