<svg width="25" height="25" viewBox="0 0 25 25" fill="none" xmlns="http://www.w3.org/2000/svg">
<path d="M22.2693 4.06402H16.9681L16.0806 2.3332C15.6728 1.51457 14.8093 1 13.8737 1H11.3551C10.4196 1 9.58001 1.51457 9.14823 2.3332L8.2607 4.06402H2.98348C2.45576 4.06402 2 4.48503 2 5.02299C2 5.56095 2.43177 5.98196 2.98348 5.98196H4.20684L6.14981 21.2319C6.29374 22.378 7.27722 23.22 8.47659 23.22H16.8002C17.9756 23.22 18.9591 22.3546 19.127 21.2319L21.0939 5.98196H22.3173C22.845 5.98196 23.3008 5.56095 23.3008 5.02299C23.3008 4.48503 22.821 4.06402 22.2693 4.06402ZM15.7927 16.2499C16.0566 16.5072 16.0566 16.9516 15.7927 17.2089C15.6488 17.3492 15.4809 17.4194 15.289 17.4194C15.0971 17.4194 14.9292 17.3492 14.7853 17.2089L12.6264 15.0805L10.4436 17.2089C10.2996 17.3492 10.1317 17.4194 9.93982 17.4194C9.74792 17.4194 9.58001 17.3492 9.43608 17.2089C9.17222 16.9516 9.17222 16.5072 9.43608 16.2499L11.6189 14.1215L9.43608 11.9931C9.17222 11.7358 9.17222 11.2914 9.43608 11.0341C9.69994 10.7768 10.1557 10.7768 10.4196 11.0341L12.6024 13.1625L14.7853 11.0341C15.0491 10.7768 15.5049 10.7768 15.7687 11.0341C16.0326 11.2914 16.0326 11.7358 15.7687 11.9931L13.5859 14.1215L15.7927 16.2499ZM10.8993 3.17522C10.9953 3.01149 11.1632 2.89455 11.3551 2.89455H13.8737C14.0656 2.89455 14.2575 3.01149 14.3295 3.17522L14.7853 4.08741H10.4436L10.8993 3.17522Z" fill="#F72630"/>
</svg>
