<svg width="357" height="57" viewBox="0 0 357 57" fill="none" xmlns="http://www.w3.org/2000/svg">
<path d="M0 15.8809C0 8.25752 6.07777 2.03752 13.6999 1.89818C45.1625 1.32299 124.097 -0.0107212 179.02 6.50351e-05C233.456 0.0107557 311.9 1.33021 343.255 1.89985C350.878 2.03834 356.961 8.25885 356.961 15.8831V40.1954C356.961 47.8196 350.878 54.0401 343.255 54.1786C311.9 54.7483 233.456 56.0678 179.02 56.0785C124.097 56.0893 45.1625 54.7555 13.6998 54.1803C6.07776 54.041 0 47.8209 0 40.1976V15.8809Z" fill="#FF0000"/>
<path d="M154.737 35H150.055V21.1818H154.832C156.204 21.1818 157.382 21.4585 158.367 22.0117C159.357 22.5605 160.117 23.3499 160.648 24.38C161.179 25.41 161.444 26.6425 161.444 28.0774C161.444 29.5168 161.176 30.7538 160.641 31.7884C160.11 32.8229 159.343 33.6168 158.34 34.1701C157.342 34.7234 156.141 35 154.737 35ZM152.558 32.8342H154.616C155.578 32.8342 156.381 32.6587 157.025 32.3079C157.668 31.9525 158.151 31.424 158.475 30.7223C158.799 30.0161 158.961 29.1345 158.961 28.0774C158.961 27.0204 158.799 26.1432 158.475 25.446C158.151 24.7443 157.672 24.2203 157.038 23.8739C156.408 23.5231 155.626 23.3477 154.69 23.3477H152.558V32.8342ZM168.303 35.2024C167.263 35.2024 166.366 34.9865 165.61 34.5547C164.859 34.1184 164.281 33.5021 163.876 32.706C163.472 31.9053 163.269 30.9629 163.269 29.8789C163.269 28.8129 163.472 27.8772 163.876 27.0721C164.286 26.2624 164.857 25.6327 165.59 25.1829C166.323 24.7286 167.185 24.5014 168.174 24.5014C168.813 24.5014 169.416 24.6049 169.983 24.8118C170.554 25.0142 171.058 25.3291 171.494 25.7564C171.935 26.1837 172.281 26.728 172.533 27.3892C172.785 28.0459 172.911 28.8286 172.911 29.7372V30.4862H164.416V28.8398H170.57C170.565 28.372 170.464 27.956 170.266 27.5916C170.068 27.2228 169.791 26.9326 169.436 26.7212C169.085 26.5098 168.676 26.4041 168.208 26.4041C167.709 26.4041 167.27 26.5256 166.892 26.7685C166.515 27.0069 166.22 27.3217 166.008 27.7131C165.802 28.0999 165.696 28.525 165.691 28.9883V30.4254C165.691 31.0282 165.802 31.5455 166.022 31.9773C166.242 32.4046 166.551 32.733 166.946 32.9624C167.342 33.1873 167.805 33.2997 168.336 33.2997C168.692 33.2997 169.013 33.2502 169.301 33.1513C169.589 33.0478 169.839 32.8971 170.05 32.6992C170.261 32.5013 170.421 32.2562 170.529 31.9638L172.81 32.2202C172.666 32.8229 172.391 33.3492 171.986 33.799C171.586 34.2443 171.073 34.5907 170.448 34.8381C169.823 35.081 169.108 35.2024 168.303 35.2024ZM177.42 21.1818V35H174.977V21.1818H177.42ZM184.519 35.2024C183.48 35.2024 182.583 34.9865 181.827 34.5547C181.076 34.1184 180.498 33.5021 180.093 32.706C179.688 31.9053 179.486 30.9629 179.486 29.8789C179.486 28.8129 179.688 27.8772 180.093 27.0721C180.503 26.2624 181.074 25.6327 181.807 25.1829C182.54 24.7286 183.402 24.5014 184.391 24.5014C185.03 24.5014 185.633 24.6049 186.199 24.8118C186.771 25.0142 187.274 25.3291 187.711 25.7564C188.152 26.1837 188.498 26.728 188.75 27.3892C189.002 28.0459 189.128 28.8286 189.128 29.7372V30.4862H180.633V28.8398H186.786C186.782 28.372 186.681 27.956 186.483 27.5916C186.285 27.2228 186.008 26.9326 185.653 26.7212C185.302 26.5098 184.893 26.4041 184.425 26.4041C183.926 26.4041 183.487 26.5256 183.109 26.7685C182.731 27.0069 182.437 27.3217 182.225 27.7131C182.018 28.0999 181.913 28.525 181.908 28.9883V30.4254C181.908 31.0282 182.018 31.5455 182.239 31.9773C182.459 32.4046 182.767 32.733 183.163 32.9624C183.559 33.1873 184.022 33.2997 184.553 33.2997C184.908 33.2997 185.23 33.2502 185.518 33.1513C185.806 33.0478 186.055 32.8971 186.267 32.6992C186.478 32.5013 186.638 32.2562 186.746 31.9638L189.026 32.2202C188.882 32.8229 188.608 33.3492 188.203 33.799C187.803 34.2443 187.29 34.5907 186.665 34.8381C186.04 35.081 185.324 35.2024 184.519 35.2024ZM196.369 24.6364V26.5256H190.411V24.6364H196.369ZM191.882 22.1534H194.325V31.8828C194.325 32.2112 194.374 32.4631 194.473 32.6385C194.577 32.8094 194.711 32.9264 194.878 32.9893C195.044 33.0523 195.229 33.0838 195.431 33.0838C195.584 33.0838 195.724 33.0726 195.849 33.0501C195.98 33.0276 196.079 33.0073 196.146 32.9893L196.558 34.8988C196.427 34.9438 196.241 34.9933 195.998 35.0472C195.76 35.1012 195.467 35.1327 195.121 35.1417C194.509 35.1597 193.958 35.0675 193.468 34.8651C192.977 34.6581 192.588 34.3388 192.3 33.907C192.017 33.4751 191.878 32.9354 191.882 32.2876V22.1534ZM202.888 35.2024C201.849 35.2024 200.952 34.9865 200.196 34.5547C199.445 34.1184 198.867 33.5021 198.462 32.706C198.057 31.9053 197.855 30.9629 197.855 29.8789C197.855 28.8129 198.057 27.8772 198.462 27.0721C198.872 26.2624 199.443 25.6327 200.176 25.1829C200.909 24.7286 201.771 24.5014 202.76 24.5014C203.399 24.5014 204.002 24.6049 204.568 24.8118C205.14 25.0142 205.644 25.3291 206.08 25.7564C206.521 26.1837 206.867 26.728 207.119 27.3892C207.371 28.0459 207.497 28.8286 207.497 29.7372V30.4862H199.002V28.8398H205.155C205.151 28.372 205.05 27.956 204.852 27.5916C204.654 27.2228 204.377 26.9326 204.022 26.7212C203.671 26.5098 203.262 26.4041 202.794 26.4041C202.295 26.4041 201.856 26.5256 201.478 26.7685C201.1 27.0069 200.806 27.3217 200.594 27.7131C200.388 28.0999 200.282 28.525 200.277 28.9883V30.4254C200.277 31.0282 200.388 31.5455 200.608 31.9773C200.828 32.4046 201.136 32.733 201.532 32.9624C201.928 33.1873 202.391 33.2997 202.922 33.2997C203.278 33.2997 203.599 33.2502 203.887 33.1513C204.175 33.0478 204.425 32.8971 204.636 32.6992C204.847 32.5013 205.007 32.2562 205.115 31.9638L207.396 32.2202C207.252 32.8229 206.977 33.3492 206.572 33.799C206.172 34.2443 205.659 34.5907 205.034 34.8381C204.409 35.081 203.694 35.2024 202.888 35.2024Z" fill="white"/>
</svg>
