<svg width="100" height="100" viewBox="0 0 100 100" fill="none" xmlns="http://www.w3.org/2000/svg">
<circle cx="50" cy="50" r="50" fill="#FF0000"/>
<path d="M70.1572 33.6734H62.1708V30.6508C62.1708 26.9751 59.1486 24 55.4146 24H45.5854C41.8514 24 38.8292 26.9751 38.8292 30.6508V33.6734H30.8428C29.8362 33.6734 29 34.4966 29 35.4875C29 36.4784 29.8362 37.3016 30.8428 37.3016H70.1572C71.1638 37.3016 72 36.4784 72 35.4875C72 34.4966 71.1638 33.6734 70.1572 33.6734ZM42.5148 30.6508C42.5148 28.9818 43.89 27.6281 45.5854 27.6281H55.4146C57.11 27.6281 58.4852 28.9818 58.4852 30.6508V33.6734H42.5148V30.6508ZM31.4579 69.3492C31.4579 73.0249 34.4801 76 38.2141 76H62.7859C66.5199 76 69.5421 73.0249 69.5421 69.3492V40.9297H31.4579V69.3492ZM53.5718 48.7914C53.5718 47.8005 54.408 46.9773 55.4146 46.9773C56.4212 46.9773 57.2574 47.8005 57.2574 48.7914V68.1406C57.2574 69.1315 56.4212 69.9547 55.4146 69.9547C54.408 69.9547 53.5718 69.1315 53.5718 68.1406V48.7914ZM43.7449 48.7914C43.7449 47.8005 44.5811 46.9773 45.5878 46.9773C46.5944 46.9773 47.4306 47.8005 47.4306 48.7914V68.1406C47.4306 69.1315 46.5944 69.9547 45.5878 69.9547C44.5811 69.9547 43.7449 69.1315 43.7449 68.1406V48.7914Z" fill="white"/>
</svg>
