<svg width="50" height="50" viewBox="0 0 50 50" fill="none" xmlns="http://www.w3.org/2000/svg">
<g clip-path="url(#clip0_1310_343)">
<rect width="50" height="50" fill="white"/>
<circle cx="25" cy="25" r="24.5" fill="#EBE2FF" stroke="#E6EAF4"/>
<path d="M36.4697 24.4141C36.6696 24.4143 36.8339 24.5744 36.834 24.7734V37.1445C36.8338 38.1959 35.9646 39.0496 34.8984 39.0498H15.1016C14.0352 39.0498 13.1662 38.196 13.166 37.1445V24.7734C13.1661 24.5742 13.33 24.4141 13.5303 24.4141C13.7305 24.4142 13.8945 24.5743 13.8945 24.7734V37.1445C13.8947 37.7983 14.4354 38.3311 15.1016 38.3311H20.5479V26.6006C20.5479 26.4019 20.7119 26.2414 20.9121 26.2412H29.043C29.2432 26.2414 29.4072 26.4018 29.4072 26.6006V38.3311H34.8984C35.5645 38.3309 36.1053 37.7982 36.1055 37.1445V24.7734C36.1055 24.5743 36.2694 24.4141 36.4697 24.4141ZM21.2773 38.3311H28.6787V26.96H21.2773V38.3311ZM33.2744 10.9502C33.3994 10.9502 33.5162 11.0134 33.583 11.1182L37.9951 18.0449C38.0506 18.1324 38.0623 18.2361 38.0352 18.332V21.2705C38.0352 21.2818 38.0348 21.2936 38.0342 21.3027C38.0189 22.6377 36.905 23.7197 35.5479 23.7197C34.6357 23.7197 33.8351 23.2303 33.4023 22.5049C32.9696 23.2303 32.169 23.7197 31.2568 23.7197C30.3815 23.7197 29.5978 23.2653 29.1543 22.5723C28.7096 23.265 27.9259 23.7196 27.0508 23.7197C26.1745 23.7197 25.391 23.2656 24.9482 22.5732C24.5027 23.2656 23.718 23.7197 22.8438 23.7197C21.968 23.7196 21.1841 23.2653 20.7412 22.5723C20.2956 23.2648 19.5112 23.7197 18.6367 23.7197C17.7625 23.7196 16.9799 23.2645 16.5361 22.5713C16.0912 23.2642 15.3072 23.7196 14.4336 23.7197C13.2735 23.7197 12.2696 22.9185 12.0107 21.8213L11.9688 21.5977C11.9665 21.5808 11.9658 21.564 11.9658 21.5488L11.9639 18.3252C11.939 18.231 11.9498 18.1298 12.0049 18.0439L16.46 11.1172C16.5268 11.0132 16.6424 10.9502 16.7666 10.9502H33.2744ZM12.6934 21.5225C12.8214 22.3659 13.5659 23 14.4336 23C15.3089 22.9999 16.0576 22.3542 16.1758 21.499C16.1978 21.343 16.3192 21.2229 16.4707 21.1953L16.5371 21.1895L16.6045 21.1953C16.7558 21.2233 16.877 21.3439 16.8984 21.5C17.0145 22.3548 17.762 23.001 18.6377 23.001C19.5149 23.0008 20.2643 22.3547 20.3818 21.5L20.3975 21.4355C20.4462 21.2905 20.5843 21.1895 20.7432 21.1895H20.7441C20.9251 21.1898 21.0804 21.3224 21.1045 21.501V21.502C21.2186 22.3556 21.9657 23.0008 22.8438 23.001C23.7211 23.001 24.471 22.3548 24.5889 21.5C24.614 21.3215 24.7691 21.1895 24.9502 21.1895H24.9512C25.133 21.1898 25.288 21.3238 25.3115 21.5029C25.425 22.3563 26.172 23.001 27.0508 23.001C27.9283 23.0008 28.677 22.3553 28.7939 21.501C28.8183 21.3223 28.9734 21.1895 29.1553 21.1895C29.3373 21.1895 29.4925 21.3224 29.5166 21.501C29.6314 22.355 30.3791 23.001 31.2568 23.001C32.2204 23.0008 33.0082 22.2302 33.0146 21.2861C33.0166 21.0881 33.1799 20.9299 33.3789 20.9297H33.4258C33.6252 20.9297 33.7887 21.0882 33.79 21.2861C33.7968 22.2302 34.5847 23.0007 35.5479 23.001C36.5112 23.001 37.2992 22.2304 37.3057 21.2861C37.3057 21.2771 37.3071 21.2688 37.3076 21.2617V18.5947H12.6924L12.6934 21.5225ZM12.9756 17.877H37.0283L33.0732 11.6689H16.9678L12.9756 17.877Z" fill="#6524EB" stroke="#6524EB" stroke-width="0.1"/>
</g>
<defs>
<clipPath id="clip0_1310_343">
<rect width="50" height="50" fill="white"/>
</clipPath>
</defs>
</svg>
