<svg width="50" height="50" viewBox="0 0 50 50" fill="none" xmlns="http://www.w3.org/2000/svg">
<g clip-path="url(#clip0_450_698)">
<rect width="50" height="50" fill="white"/>
<circle cx="25" cy="25" r="24.5" fill="#EBE2FF" stroke="#E0E5F2"/>
<path d="M25.0008 42.7298L24.6516 42.4352C24.0434 41.9279 10 30.0528 10 22.0342C10 13.8956 16.7258 7.27344 25.0008 7.27344C33.2757 7.27344 40.0015 13.8956 40.0015 22.0342C40.0015 30.0528 25.9581 41.9279 25.3608 42.4297L25.0008 42.7298ZM25.0008 8.3644C17.3285 8.3644 11.091 14.4956 11.091 22.0342C11.091 28.8772 22.7997 39.386 25.0008 41.2924C27.1827 39.3832 38.9105 28.8772 38.9105 22.0342C38.8942 14.4956 32.6566 8.3644 25.0008 8.3644Z" fill="#6524EB"/>
<path d="M27.8712 29.3127C26.6957 29.3127 26.2348 28.1072 25.4165 25.9171C25.122 25.1507 24.8902 25.0607 24.8874 25.0607C24.8847 25.0607 24.6147 25.2707 24.3719 25.9171C23.5537 28.099 23.0819 29.3127 21.9173 29.3127C20.8072 29.3127 19.6835 27.8181 19.6835 24.9488C19.7149 24.0258 19.5143 23.1096 19.0999 22.2842C18.751 21.5495 18.505 20.7704 18.3689 19.9686C17.9762 17.7648 18.7289 15.6866 20.1936 14.9283C21.6882 14.0747 22.1818 14.031 24.2465 14.5656C24.4563 14.6205 24.6695 14.6615 24.8847 14.6883C25.1007 14.6607 25.3147 14.6197 25.5256 14.5656C27.5876 14.0201 28.0839 14.0747 29.5867 14.9338C31.0405 15.6975 31.7932 17.7703 31.4196 19.9822C31.2839 20.7914 31.037 21.578 30.6859 22.3196C30.2733 23.1378 30.0736 24.0467 30.105 24.9625C30.105 27.8181 28.9813 29.3127 27.8712 29.3127ZM24.8902 23.9697C25.5175 23.9697 26.0329 24.4961 26.4257 25.5298C27.0612 27.2044 27.4757 28.2217 27.8712 28.2217C28.2067 28.2217 29.014 27.2835 29.014 24.9488C28.9823 23.8809 29.2136 22.8216 29.6877 21.8641C30.0024 21.2053 30.2236 20.5058 30.345 19.7858C30.6368 18.0594 30.1022 16.4175 29.074 15.8857H29.0549C27.8521 15.1956 27.6585 15.1356 25.782 15.6129C25.5018 15.6869 25.2164 15.7398 24.9283 15.7711H24.8711H24.8111C24.5251 15.7385 24.2417 15.6866 23.9628 15.6156C22.1 15.1329 21.9064 15.1902 20.6899 15.8884C19.6426 16.4339 19.108 18.0703 19.3999 19.7995C19.5332 20.515 19.7664 21.2081 20.0926 21.8587C20.5695 22.822 20.8018 23.888 20.769 24.9625C20.769 27.2835 21.5873 28.2354 21.9118 28.2354C22.3073 28.2354 22.73 27.218 23.3573 25.5434C23.8483 24.2561 24.4701 23.9833 24.9038 23.9833L24.8902 23.9697Z" fill="#6524EB"/>
</g>
<defs>
<clipPath id="clip0_450_698">
<rect width="50" height="50" fill="white"/>
</clipPath>
</defs>
</svg>
