<svg width="50" height="50" viewBox="0 0 50 50" fill="none" xmlns="http://www.w3.org/2000/svg">
<g clip-path="url(#clip0_2465_676)">
<rect width="50" height="50" fill="white"/>
<circle cx="25" cy="25" r="24.5" fill="#EBE2FF" stroke="#E0E5F2"/>
<path d="M36.8894 15.5056H13.1091C12.9394 15.5056 12.8033 15.6457 12.8033 15.8171V31.6739C12.8033 31.8469 12.9409 31.9855 13.1091 31.9855H36.8894C37.0591 31.9855 37.1952 31.8454 37.1952 31.6739V15.8171C37.1952 15.6457 37.0592 15.5056 36.8894 15.5056ZM36.5837 31.3624H13.415V16.1288H36.5837V31.3624ZM39.8287 33.2228C39.6619 32.9932 39.4176 32.868 39.1367 32.868H38.6729V15.5668C38.6729 14.7036 37.9838 14 37.1352 14H12.8631C12.016 14 11.3254 14.7021 11.3254 15.5668V32.868H10.8616C10.5822 32.868 10.3364 32.9947 10.1711 33.2228C10.0043 33.4523 9.95746 33.7281 10.0394 33.9995C10.392 35.1771 11.482 36 12.689 36H37.3135C38.5205 36 39.609 35.1771 39.9616 33.9995C40.0421 33.7267 39.9955 33.4509 39.8287 33.2228ZM11.9371 15.5666C11.9371 15.0464 12.3526 14.6245 12.8617 14.6245H37.1353C37.6459 14.6245 38.06 15.0479 38.06 15.5666V32.8679L11.9373 32.8664L11.9371 15.5666ZM27.915 33.4911C27.8886 33.8429 27.6019 34.1216 27.2493 34.1216H22.7473C22.3947 34.1216 22.1094 33.8429 22.0816 33.4911H27.915ZM39.3751 33.8175C39.1001 34.7358 38.2515 35.3768 37.3123 35.3768H12.6877C11.7484 35.3768 10.8999 34.7358 10.6248 33.8175C10.5999 33.7355 10.6131 33.6625 10.6629 33.5939C10.7126 33.5253 10.7784 33.4911 10.8618 33.4911H21.4718C21.4996 34.1872 22.06 34.7463 22.7491 34.7463H27.251C27.9401 34.7463 28.5005 34.1873 28.5283 33.4911H39.1383C39.2217 33.4911 39.2875 33.5239 39.3373 33.5939C39.387 33.6625 39.3986 33.7355 39.3751 33.8175ZM18.7829 24.9566L19.611 28.1065C19.69 28.4061 19.8802 28.6581 20.145 28.8146C20.322 28.919 20.5181 28.9726 20.717 28.9726C20.8165 28.9726 20.916 28.9592 21.014 28.9324C21.3081 28.8519 21.5554 28.6581 21.709 28.3883C21.8626 28.1184 21.9036 27.8039 21.8246 27.5028L21.2423 25.2876H21.9797L27.2378 27.224C27.3139 27.2523 27.3929 27.2657 27.4734 27.2657C27.6358 27.2657 27.7997 27.2076 27.943 27.0958C28.142 26.9408 28.2503 26.7157 28.2503 26.4622V24.3424L28.7009 24.244C29.0374 24.1695 29.2729 23.8729 29.2729 23.5226V22.2644C29.2729 21.9141 29.0374 21.6174 28.7009 21.5429L28.2503 21.4445V19.3247C28.2503 19.0698 28.1405 18.8447 27.943 18.6911C27.728 18.5242 27.4705 18.4765 27.2379 18.5629L21.9797 20.4994H19.949C18.6747 20.4994 17.6388 21.5742 17.6388 22.8934C17.6373 23.773 18.0997 24.5407 18.7829 24.9566ZM21.2321 27.6638C21.2686 27.8024 21.2496 27.9485 21.1779 28.0752C21.1062 28.2019 20.9921 28.2914 20.8546 28.3286C20.5708 28.4062 20.2781 28.2332 20.2021 27.944L19.491 25.2384C19.6388 25.2697 19.7924 25.2861 19.949 25.2861H20.6074L21.2321 27.6638ZM28.5708 22.1528C28.6249 22.1647 28.6601 22.2079 28.6601 22.2646V23.5228C28.6601 23.5794 28.6249 23.6226 28.5708 23.6346L28.2489 23.7046V22.0827L28.5708 22.1528ZM27.4457 19.1475C27.4896 19.1311 27.5379 19.1594 27.5701 19.1848C27.6169 19.2205 27.6374 19.2638 27.6374 19.3234V26.4624C27.6374 26.522 27.6169 26.5653 27.5701 26.6011C27.5364 26.6264 27.4882 26.6547 27.4457 26.6383L22.3381 24.757V21.0288L27.4457 19.1475ZM19.9489 21.1227H21.7265V24.6646H19.9489C19.0126 24.6646 18.2503 23.8701 18.2503 22.8937C18.2503 21.9172 19.0126 21.1227 19.9489 21.1227ZM30.8166 22.5806H32.0558C32.2255 22.5806 32.3616 22.7207 32.3616 22.8922C32.3616 23.0651 32.2241 23.2037 32.0558 23.2037H30.8166C30.6469 23.2037 30.5108 23.0636 30.5108 22.8922C30.5108 22.7207 30.6469 22.5806 30.8166 22.5806ZM29.9271 24.7675C29.8071 24.6453 29.8071 24.4485 29.9271 24.3263C30.047 24.2041 30.2402 24.204 30.3601 24.3263L31.2365 25.2192C31.3564 25.3414 31.3564 25.5382 31.2365 25.6604C31.1765 25.7215 31.0989 25.7514 31.0199 25.7514C30.9409 25.7514 30.8634 25.7215 30.8034 25.6604L29.9271 24.7675ZM29.9271 21.4596C29.8071 21.3374 29.8071 21.1406 29.9271 21.0184L30.8034 20.1254C30.9234 20.0032 31.1165 20.0032 31.2365 20.1254C31.3564 20.2477 31.3564 20.4445 31.2365 20.5667L30.3601 21.4596C30.3001 21.5207 30.2226 21.5505 30.1436 21.5505C30.066 21.5505 29.987 21.5207 29.9271 21.4596Z" fill="#6524EB"/>
</g>
<defs>
<clipPath id="clip0_2465_676">
<rect width="50" height="50" fill="white"/>
</clipPath>
</defs>
</svg>
