<svg width="50" height="50" viewBox="0 0 50 50" fill="none" xmlns="http://www.w3.org/2000/svg">
<g clip-path="url(#clip0_400_171)">
<rect width="50" height="50" fill="white"/>
<circle cx="25" cy="25" r="24.5" fill="#EBE2FF" stroke="#E0E5F2"/>
<path fill-rule="evenodd" clip-rule="evenodd" d="M34.9261 22.6178C36.3183 22.6178 37.4459 21.4902 37.4459 20.098C37.4459 18.7058 36.3183 17.5781 34.9261 17.5781C33.5339 17.5781 32.4062 18.7058 32.4062 20.098C32.4062 21.4902 33.5339 22.6178 34.9261 22.6178ZM34.9261 21.6099C35.7614 21.6099 36.438 20.9333 36.438 20.098C36.438 19.2627 35.7614 18.5861 34.9261 18.5861C34.0908 18.5861 33.4142 19.2627 33.4142 20.098C33.4142 20.9333 34.0908 21.6099 34.9261 21.6099Z" fill="#6524EB"/>
<path fill-rule="evenodd" clip-rule="evenodd" d="M15.0199 10.0156C14.3244 10.0156 13.76 10.5801 13.76 11.2755V11.5275H12.3136C11.1645 11.5275 10.2322 12.4599 10.2322 13.6089V16.5672C10.2322 17.6822 10.4577 18.7431 10.8672 19.7095C10.59 19.8266 10.3582 20.0257 10.2045 20.2727C9.94748 20.6859 9.91221 21.2315 10.2171 21.7102C11.5703 23.8319 13.7373 25.3856 16.2799 25.9297V28.6625C16.2799 29.4978 16.9565 30.1744 17.7918 30.1744V31.4343C17.7918 36.3053 21.7404 40.2539 26.6114 40.2539C31.4824 40.2539 35.4309 36.3053 35.4309 31.4343V25.616C38.2569 25.3615 40.4706 22.9865 40.4706 20.0951C40.4706 17.0334 37.9886 14.5512 34.9268 14.5512C31.865 14.5512 29.383 17.0333 29.383 20.0951C29.383 22.9866 31.5966 25.3615 34.4227 25.616V31.4343C34.4227 35.7483 30.925 39.2459 26.611 39.2459C22.2971 39.2459 18.7994 35.7483 18.7994 31.4343V30.1744C19.6347 30.1744 20.3113 29.4978 20.3113 28.6625V25.9297C22.8539 25.3854 25.0211 23.8319 26.3741 21.7102C26.679 21.2314 26.6438 20.6859 26.3867 20.2727C26.233 20.0257 26.0012 19.8266 25.724 19.7095C26.1322 18.7431 26.359 17.6822 26.359 16.5672V13.6089C26.359 12.4599 25.4267 11.5275 24.2776 11.5275H23.3352V11.2755C23.3352 10.5801 22.7708 10.0156 22.0753 10.0156C21.3798 10.0156 20.8154 10.5801 20.8154 11.2755V12.7874C20.8154 13.4829 21.3798 14.0474 22.0753 14.0474C22.7708 14.0474 23.3352 13.4829 23.3352 12.7874V12.5355H24.2776C24.8698 12.5355 25.3511 13.0168 25.3511 13.6089V16.5672C25.3511 17.6495 25.1079 18.6751 24.672 19.591H23.7245C23.2306 19.591 22.7972 19.8329 22.5062 20.1731C21.4894 21.36 19.98 22.1109 18.2954 22.1109C16.6108 22.1109 15.1015 21.36 14.0846 20.1731C13.7936 19.8329 13.3602 19.591 12.8663 19.591H11.9189C11.4829 18.6751 11.2397 17.6495 11.2397 16.5672V13.6089C11.2397 13.0168 11.721 12.5355 12.3132 12.5355H13.7596V12.7874C13.7596 13.4829 14.324 14.0474 15.0195 14.0474C15.715 14.0474 16.2794 13.4829 16.2794 12.7874V11.2755C16.2794 10.5801 15.715 10.0156 15.0195 10.0156H15.0199ZM15.0199 13.0394C15.1585 13.0394 15.2719 12.9261 15.2719 12.7875V11.2755C15.2719 11.137 15.1585 11.0236 15.0199 11.0236C14.8813 11.0236 14.7679 11.137 14.7679 11.2755V12.7875C14.7679 12.9261 14.8813 13.0394 15.0199 13.0394ZM22.3274 11.2755C22.3274 11.1369 22.214 11.0235 22.0754 11.0235C21.9368 11.0235 21.8234 11.1369 21.8234 11.2755V12.7874C21.8234 12.926 21.9368 13.0394 22.0754 13.0394C22.214 13.0394 22.3274 12.926 22.3274 12.7874V11.2755ZM39.4624 20.0951C39.4624 22.5998 37.4314 24.6307 34.9268 24.6307C32.4222 24.6307 30.3912 22.5996 30.3912 20.0951C30.3912 17.5905 32.4222 15.5595 34.9268 15.5595C37.4314 15.5595 39.4624 17.5905 39.4624 20.0951ZM19.3036 28.6624C19.3036 28.9409 19.078 29.1664 18.7996 29.1664H17.7917C17.5132 29.1664 17.2877 28.9409 17.2877 28.6624V25.0867L16.8669 25.0162C14.4327 24.608 12.3449 23.1716 11.0676 21.1683C10.9844 21.0385 10.9945 20.9112 11.0613 20.8054C11.1319 20.6907 11.2717 20.5988 11.4557 20.5988H12.8668C13.0218 20.5988 13.1893 20.6769 13.3191 20.8293C14.5211 22.2291 16.3051 23.1186 18.2959 23.1186C20.2867 23.1186 22.0706 22.2291 23.2727 20.8293C23.4025 20.6769 23.57 20.5988 23.725 20.5988H25.1361C25.32 20.5988 25.4599 20.6907 25.5305 20.8054C25.5972 20.9112 25.6073 21.0385 25.5242 21.1683C24.2466 23.1715 22.1588 24.6078 19.7249 25.0162L19.3041 25.0867L19.3036 28.6624Z" fill="#6524EB"/>
</g>
<defs>
<clipPath id="clip0_400_171">
<rect width="50" height="50" fill="white"/>
</clipPath>
</defs>
</svg>
