<svg width="40" height="40" viewBox="0 0 40 40" fill="none" xmlns="http://www.w3.org/2000/svg">
<circle cx="20" cy="20" r="19.5" fill="#EDE9FC" stroke="#E0E5F2"/>
<path d="M19.0811 16.5879C19.081 16.7346 19.0226 16.8751 18.9199 16.9785C18.8172 17.082 18.678 17.1396 18.5332 17.1396H12.2354V30.7539H26.752V30.6035L26.7559 10.4043V10.2549H19.0811V16.5879ZM17.7295 11.3018L13.2637 15.7959L13.0088 16.0518H17.9863V11.0439L17.7295 11.3018ZM11.1533 16.5645L11.1523 16.5576C11.1494 16.5275 11.15 16.497 11.1523 16.4668C11.1637 16.4212 11.1794 16.3765 11.1992 16.334L11.1973 16.333C11.2028 16.3236 11.2083 16.3146 11.2129 16.3047L11.2148 16.3057C11.2369 16.2643 11.2654 16.2259 11.2988 16.1934L11.3008 16.1914L18.1465 9.2959L18.1475 9.29688C18.1745 9.27076 18.2043 9.24754 18.2354 9.22656H18.2627L18.2949 9.20996C18.3325 9.19058 18.3724 9.17503 18.4131 9.16504L18.5381 9.15039H27.3027C27.4475 9.15039 27.5867 9.20808 27.6895 9.31152C27.7921 9.41497 27.8496 9.55544 27.8496 9.70215V31.2979C27.8486 31.4442 27.7909 31.5843 27.6885 31.6875C27.5858 31.7909 27.4465 31.8488 27.3018 31.8496H11.7002C11.5554 31.8496 11.4162 31.7919 11.3135 31.6885C11.2109 31.585 11.1533 31.4445 11.1533 31.2979V16.5645Z" fill="#5F33E1" stroke="#EDE9FC" stroke-width="0.3"/>
</svg>
