<svg width="24" height="23" viewBox="0 0 24 23" fill="none" xmlns="http://www.w3.org/2000/svg">
<path d="M2.59039e-05 18.7179C2.59039e-05 20.6486 1.5697 22.2182 3.50031 22.2182H19.8346C21.7652 22.2182 23.3349 20.6486 23.3349 18.7179L23.336 5.88281H0L2.59039e-05 18.7179ZM7.34307 13.2259C7.7992 12.7697 8.53754 12.7697 8.99257 13.2259L10.501 14.7343V9.3833C10.501 8.73793 11.0238 8.21616 11.6681 8.21616C12.3124 8.21616 12.8352 8.73793 12.8352 9.3833V14.7343L14.3436 13.2259C14.7998 12.7697 15.5381 12.7697 15.9931 13.2259C16.4493 13.682 16.4493 14.4203 15.9931 14.8754L12.4929 18.3756C12.2653 18.6043 11.9667 18.718 11.6681 18.718C11.3695 18.718 11.0709 18.6043 10.8434 18.3756L7.34307 14.8754C6.88694 14.4192 6.88694 13.682 7.34307 13.2259Z" fill="#B5A0F3"/>
<path d="M23.336 3.50029V4.66742H0V3.50029C0 1.56967 1.56967 0 3.50029 0H19.8346C21.7652 0 23.336 1.57076 23.336 3.50029Z" fill="#5F33E1"/>
</svg>
