<svg width="50" height="50" viewBox="0 0 50 50" fill="none" xmlns="http://www.w3.org/2000/svg">
<g clip-path="url(#clip0_694_425)">
<rect width="50" height="50" fill="white"/>
<circle cx="25" cy="25" r="24.5" fill="#EBE2FF" stroke="#E0E5F2"/>
<path d="M38.2736 25.3721L25.4166 20.6925V20.0295C25.4312 19.7871 25.4414 18.0914 23.0725 16.501C21.16 15.2168 21.3621 13.4104 21.3713 13.3361C21.3738 13.3184 21.375 13.3004 21.375 13.2824C21.375 11.3623 22.9371 9.8 24.8574 9.8C26.7775 9.8 28.3396 11.3623 28.3396 13.2824C28.3396 13.5033 28.5188 13.6824 28.7396 13.6824C28.9605 13.6824 29.1396 13.5033 29.1396 13.2824C29.1396 10.9211 27.2186 9 24.8574 9C22.5039 9 20.5877 10.9082 20.575 13.259C20.5445 13.549 20.4041 15.673 22.6264 17.165C24.7021 18.5588 24.6227 19.9223 24.6188 19.9746C24.6174 19.9883 24.6166 20.002 24.6166 20.0156V20.6804L11.7262 25.3721C10.1088 25.9607 9.01328 27.4652 9.0002 29.1121C9.0002 29.1143 9 29.1504 9 29.1527V29.3752C9 31.8148 10.9143 33.7996 13.2674 33.7996H13.8918V40.6C13.8918 40.8209 14.0709 41 14.2918 41H35.7082C35.9291 41 36.1082 40.8209 36.1082 40.6V33.7996H36.7326C39.0857 33.7996 41 31.8148 41 29.3752L40.9998 29.1158C40.9867 27.4652 39.8912 25.9607 38.2736 25.3721ZM35.3082 40.2H14.6918V30.15H35.3082V40.2ZM40.2 29.3752C40.2 31.3736 38.6445 32.9996 36.7326 32.9996H36.1082V29.75C36.1082 29.5291 35.9291 29.35 35.7082 29.35H14.2918C14.0709 29.35 13.8918 29.5291 13.8918 29.75V32.9996H13.2674C11.3555 32.9996 9.8 31.3736 9.8 29.3752L9.8002 29.1221C9.81074 27.8039 10.6947 26.5988 11.9998 26.1236L25 21.392L38 26.1236C39.3053 26.5988 40.1893 27.8039 40.2 29.1527V29.3752Z" fill="#6524EB" stroke="#6524EB" stroke-width="0.2"/>
</g>
<defs>
<clipPath id="clip0_694_425">
<rect width="50" height="50" fill="white"/>
</clipPath>
</defs>
</svg>
