<svg width="23" height="22" viewBox="0 0 23 22" fill="none" xmlns="http://www.w3.org/2000/svg">
<path d="M4.45117 14.1211C5.37776 13.4612 6.5073 13.2036 7.63086 13.3936L14.8643 14.623C15.3288 14.7009 15.7321 14.9574 16.0049 15.3408C16.2758 15.7244 16.3833 16.1909 16.3027 16.6553C16.2221 17.1241 15.9624 17.5326 15.5723 17.8037L15.5713 17.8027C15.2738 18.0103 14.9275 18.1182 14.5732 18.1182H14.5703V18.1172C14.461 18.1171 14.3513 18.1078 14.2393 18.0859V18.085L10.5449 17.3857C10.3895 17.3566 10.2863 17.205 10.3154 17.0498C10.3446 16.8946 10.4935 16.7913 10.6514 16.8203L14.3467 17.5205C14.6637 17.5794 14.979 17.511 15.2412 17.3291C15.5033 17.1472 15.6787 16.872 15.7334 16.5576L15.7471 16.4404C15.766 16.1678 15.692 15.8993 15.5322 15.6738C15.3503 15.4168 15.077 15.2435 14.7646 15.1914L7.53125 13.9619C6.56197 13.796 5.58294 14.021 4.78223 14.5898L1.40234 16.9922C1.27277 17.0839 1.09521 17.0523 1.00293 16.9238C0.911086 16.7942 0.942546 16.6157 1.07129 16.5234L4.45117 14.1211Z" fill="#24252C" stroke="black" stroke-width="0.1"/>
<path d="M20.0986 13.0186C20.9036 12.553 21.9398 12.7599 22.5059 13.4971C23.069 14.236 23.0004 15.2894 22.3418 15.9453C22.2332 16.0539 22.1273 16.1385 22.0146 16.2051L22.0156 16.2061L18.6025 18.3516C18.0527 18.7013 17.5013 19.1213 16.8721 19.6777C14.9056 21.4242 12.6489 21.2321 10.0635 21.0117C9.1236 20.9307 8.15638 20.8509 7.10938 20.8438C6.66482 20.8439 6.21468 20.9561 5.81152 21.166L4.69824 21.7383C4.67017 21.753 4.64165 21.7593 4.61328 21.7637V21.7754H4.56543C4.46186 21.7754 4.36211 21.7177 4.31055 21.6201L4.30957 21.6191C4.2377 21.4781 4.29312 21.3064 4.43359 21.2324L5.54395 20.6602L5.72852 20.5703C6.16372 20.3753 6.63749 20.2725 7.10938 20.2725H7.11035C8.18052 20.2769 9.16265 20.3604 10.1094 20.4404C12.695 20.6588 14.7109 20.8283 16.4893 19.25L16.9658 18.8418C17.4304 18.4573 17.8622 18.1419 18.2949 17.8682L21.7119 15.7207L21.7129 15.7197C21.7869 15.6751 21.8578 15.6187 21.9355 15.54C22.3904 15.0852 22.4384 14.3563 22.0479 13.8467C21.6574 13.3374 20.9424 13.1959 20.3857 13.5176H20.3848L16.1318 15.9746C15.9944 16.0519 15.8181 16.0061 15.7383 15.8682V15.8672C15.6579 15.7288 15.7081 15.5538 15.8447 15.4746L20.0986 13.0186Z" fill="#24252C" stroke="black" stroke-width="0.1"/>
<path d="M15.4951 4.34082C16.3815 4.34088 17.1016 5.06084 17.1016 5.94727C17.1015 6.10554 16.9727 6.2351 16.8145 6.23535C16.656 6.23535 16.5264 6.1057 16.5264 5.94727C16.5264 5.37689 16.062 4.91506 15.4941 4.91504C14.9263 4.91504 14.4619 5.37947 14.4619 5.94727C14.4619 6.51505 14.9264 6.97949 15.4941 6.97949C16.3805 6.97951 17.1005 7.69955 17.1006 8.58594C17.1006 9.47238 16.3806 10.1924 15.4941 10.1924C14.6077 10.1924 13.8877 9.4724 13.8877 8.58594C13.8878 8.42767 14.0165 8.29901 14.1748 8.29883C14.3332 8.29883 14.4628 8.42755 14.4629 8.58594C14.4629 9.15632 14.9272 9.61816 15.4951 9.61816C16.0629 9.61811 16.5273 9.1537 16.5273 8.58594C16.5273 8.01823 16.0628 7.55377 15.4951 7.55371C14.6087 7.55371 13.8887 6.83371 13.8887 5.94727C13.8887 5.06081 14.6087 4.34082 15.4951 4.34082Z" fill="#24252C" stroke="black" stroke-width="0.1"/>
<path d="M15.4951 3.7002C15.6535 3.7002 15.783 3.82901 15.7832 3.9873V4.62598C15.7831 4.78433 15.6535 4.91309 15.4951 4.91309C15.3369 4.91291 15.2081 4.78422 15.208 4.62598V3.9873C15.2082 3.82912 15.3369 3.70038 15.4951 3.7002Z" fill="#24252C" stroke="black" stroke-width="0.1"/>
<path d="M15.4951 9.62207C15.6535 9.62207 15.783 9.75088 15.7832 9.90918V10.5479C15.7831 10.7062 15.6535 10.835 15.4951 10.835C15.3369 10.8348 15.2081 10.7061 15.208 10.5479V9.90918C15.2082 9.751 15.3369 9.62225 15.4951 9.62207Z" fill="#24252C" stroke="black" stroke-width="0.1"/>
<path d="M15.4961 0.950195C18.9796 0.950207 21.8115 3.78214 21.8115 7.26562C21.8115 10.7491 18.9796 13.581 15.4961 13.5811C12.0126 13.5811 9.18068 10.7491 9.18066 7.26562C9.18066 3.78304 12.0135 0.950195 15.4961 0.950195ZM15.4961 1.52441C12.3312 1.52441 9.75488 4.10074 9.75488 7.26562C9.75489 10.4305 12.3312 13.0068 15.4961 13.0068C18.661 13.0068 21.2373 10.4305 21.2373 7.26562C21.2373 4.10075 18.661 1.52443 15.4961 1.52441Z" fill="#24252C" stroke="black" stroke-width="0.1"/>
<path d="M15.4932 2.1377C18.3216 2.1377 20.622 4.43821 20.6221 7.2666C20.6221 10.0951 18.3216 12.3955 15.4932 12.3955C12.6648 12.3954 10.3643 10.095 10.3643 7.2666C10.3643 4.43826 12.6648 2.13777 15.4932 2.1377ZM15.4932 2.71289C12.9816 2.71297 10.9395 4.75516 10.9395 7.2666C10.9395 9.77811 12.9817 11.8202 15.4932 11.8203C18.0047 11.8203 20.0469 9.77815 20.0469 7.2666C20.0468 4.75512 18.0047 2.71289 15.4932 2.71289Z" fill="#24252C" stroke="black" stroke-width="0.1"/>
</svg>
