<svg width="33" height="32" viewBox="0 0 33 32" fill="none" xmlns="http://www.w3.org/2000/svg">
<rect width="32.4584" height="31.1667" rx="5" fill="#F3EEFF"/>
<path d="M16.2285 23.8203C15.6136 23.8203 15.1137 24.2581 15.1094 24.7967C15.1094 25.3391 15.6048 25.7769 16.2241 25.7807L23.8002 25.8036H23.8046C24.4195 25.8036 24.9193 25.3659 24.9237 24.8273C24.9237 24.2849 24.4283 23.8471 23.809 23.8433L16.2329 23.8203H16.2285Z" fill="#6524EB"/>
<path d="M6.76172 20.7972V25.474H11.2196L25.6958 10.3108L21.2379 5.64062L6.76172 20.7972ZM10.5663 23.8211H8.33988V21.4817L19.0023 10.3185L21.2318 12.6493L10.5663 23.8211ZM22.3476 11.4816L20.1181 9.1508L21.238 7.97787L23.4654 10.3108L22.3476 11.4816Z" fill="#6524EB"/>
</svg>
