<svg width="24" height="22" viewBox="0 0 24 22" fill="none" xmlns="http://www.w3.org/2000/svg">
<rect width="24" height="22" rx="5" fill="#F3EEFF"/>
<path d="M11.9994 16.8125C11.5447 16.8125 11.1751 17.1215 11.1719 17.5017C11.1719 17.8846 11.5382 18.1936 11.9961 18.1963L17.5979 18.2125H17.6012C18.0559 18.2125 18.4254 17.9035 18.4287 17.5233C18.4287 17.1404 18.0623 16.8314 17.6044 16.8287L12.0026 16.8125H11.9994Z" fill="#6524EB"/>
<path d="M5 14.6831V17.9844H8.29619L19 7.28097L15.7038 3.98438L5 14.6831ZM7.81311 16.8176H6.1669V15.1663L14.0508 7.28638L15.6993 8.93165L7.81311 16.8176ZM16.5243 8.10741L14.8758 6.46214L15.7039 5.63419L17.3508 7.28099L16.5243 8.10741Z" fill="#6524EB"/>
</svg>
