<svg width="16" height="18" viewBox="0 0 16 18" fill="none" xmlns="http://www.w3.org/2000/svg">
<path d="M8.00039 15.6328C7.48076 15.6328 7.05838 15.986 7.05469 16.4205C7.05469 16.8581 7.47335 17.2112 7.9967 17.2143L14.3988 17.2328H14.4025C14.9221 17.2328 15.3445 16.8797 15.3482 16.4452C15.3482 16.0076 14.9295 15.6544 14.4062 15.6513L8.00408 15.6328H8.00039Z" fill="#5F33E1"/>
<path d="M0 13.1959V16.9688H3.76707L16 4.73629L12.2329 0.96875L0 13.1959ZM3.21498 15.6353H1.3336V13.7481L10.3438 4.74247L12.2278 6.62278L3.21498 15.6353ZM13.1706 5.68079L11.2866 3.80049L12.233 2.85425L14.1152 4.73631L13.1706 5.68079Z" fill="#5F33E1"/>
</svg>
