<svg width="16" height="17" viewBox="0 0 16 17" fill="none" xmlns="http://www.w3.org/2000/svg">
<path d="M8.00039 14.6641C7.48076 14.6641 7.05838 15.0172 7.05469 15.4517C7.05469 15.8893 7.47335 16.2424 7.9967 16.2455L14.3988 16.2641H14.4025C14.9221 16.2641 15.3445 15.9109 15.3482 15.4764C15.3482 15.0388 14.9295 14.6857 14.4062 14.6826L8.00408 14.6641H8.00039Z" fill="black"/>
<path d="M0 12.2271V16H3.76707L16 3.76754L12.2329 0L0 12.2271ZM3.21498 14.6666H1.3336V12.7793L10.3438 3.77372L12.2278 5.65403L3.21498 14.6666ZM13.1706 4.71204L11.2866 2.83174L12.233 1.8855L14.1152 3.76756L13.1706 4.71204Z" fill="black"/>
</svg>
