<svg width="50" height="50" viewBox="0 0 50 50" fill="none" xmlns="http://www.w3.org/2000/svg">
<g clip-path="url(#clip0_400_161)">
<rect width="50" height="50" fill="white"/>
<circle cx="25" cy="25" r="24.5" fill="#EBE2FF" stroke="#E0E5F2"/>
<path d="M38.5166 19.8544C38.5708 19.9019 38.6393 19.9267 38.7085 19.9267C38.7494 19.9267 38.7905 19.9181 38.8291 19.9004C38.9332 19.8528 39.0001 19.7483 39.0001 19.6332V17.7289C39.0001 17.6441 38.9636 17.5634 38.9002 17.5076L35.1931 14.2531V7.29354C35.1931 7.13143 35.0625 7 34.9014 7H30.6186C30.4575 7 30.3269 7.13143 30.3269 7.29354V9.98098L27.2413 7.27204C27.1314 7.17561 26.9677 7.17561 26.8578 7.27204L15.1988 17.5077C15.1354 17.5635 15.099 17.6441 15.099 17.729V19.6332C15.099 19.7483 15.1658 19.8528 15.2699 19.9005C15.3741 19.9482 15.4962 19.9301 15.5824 19.8545L16.5265 19.0256V33.4778C16.5265 33.6399 16.6571 33.7713 16.8182 33.7713H16.9988C16.6858 34.3191 16.4774 34.9721 16.3746 35.7235L15.8023 35.4725C15.7313 35.4414 15.6509 35.44 15.5788 35.4686C15.5068 35.4972 15.449 35.5534 15.4182 35.625L14.5845 37.5634L14.0325 37.3213C13.9615 37.2902 13.8811 37.2888 13.8091 37.3174C13.737 37.346 13.6792 37.4022 13.6484 37.4738L11.0241 43.576C10.9601 43.7247 11.0281 43.8976 11.1759 43.962C11.3238 44.0262 11.4954 43.9579 11.5594 43.8092L14.0675 37.977L24.4669 42.538L24.0206 43.576C23.9566 43.7247 24.0246 43.8976 24.1724 43.962C24.3228 43.9865 24.4612 43.9709 24.5559 43.8092L25.1178 42.5025C25.1817 42.3539 25.114 42.1814 24.9667 42.1168L24.4134 41.8741L25.1717 40.1106L30.8304 40.0915C31.7293 40.0915 32.5968 39.7623 33.273 39.1647L38.4761 34.5671C38.7899 34.2897 38.978 33.8893 38.9918 33.4685C39.0057 33.0476 38.8445 32.6353 38.5497 32.3375C38.2772 32.0623 37.9284 31.9128 37.5724 31.8904V19.0255L38.5166 19.8544ZM30.9103 7.58708H34.6098V13.741L30.9103 10.4931V7.58708ZM23.8786 41.6396L15.1192 37.7979L15.8373 36.1282L24.5966 39.97L23.8786 41.6396ZM38.1364 32.7519C38.3208 32.9381 38.4175 33.1857 38.4088 33.449C38.4001 33.7123 38.2873 33.9526 38.0912 34.126L32.8883 38.7236C32.3184 39.2271 31.5876 39.5045 30.8295 39.5045L25.0402 39.5241L16.9313 35.9676C17.056 34.8571 17.4205 33.9883 18.0165 33.3834C18.6896 32.7001 19.3374 32.6555 20.5134 32.5746C21.312 32.5195 22.3674 32.4464 23.7743 32.1218C23.7766 32.1213 23.7788 32.1208 23.7811 32.1202L25.8606 31.5346C27.1012 31.1458 27.8497 30.9113 28.3612 31.3034C28.5645 31.4903 28.6426 31.7513 28.6629 32.0463C28.6241 32.3327 28.4476 32.5766 28.1909 32.6986L23.9433 34.7172C23.8177 34.7769 23.7514 34.9175 23.7847 35.0531C23.818 35.1888 23.9403 35.2837 24.0806 35.2759L30.1844 35.0079C30.7275 34.9841 31.2557 34.8138 31.712 34.5156L32.9275 33.7214L32.9278 33.7211L35.2217 32.2222C35.6809 32.0227 36.0628 32.1101 36.3693 32.4781C36.6093 32.8416 36.5356 33.3216 36.1978 33.5945L33.09 36.1053C32.761 36.3711 32.3676 36.5485 31.9522 36.6185L29.086 37.1008C28.9271 37.1275 28.8199 37.2789 28.8464 37.4388C28.8703 37.5822 28.9938 37.6839 29.1337 37.6839L32.0484 37.1975C32.5621 37.1109 33.0485 36.8916 33.4551 36.5631L36.563 34.0522C37.0113 33.69 37.1848 33.114 37.0464 32.5843L37.3487 32.4844C37.6286 32.4441 37.9213 32.5346 38.1364 32.7519ZM28.7149 30.8364C27.9638 30.2604 27.0088 30.5597 25.6872 30.9739L24.0101 31.4611V21.8694H30.089V33.1842H28.5268C28.9153 32.9656 29.1797 32.5767 29.2408 32.1256C29.253 31.6202 29.1582 31.158 28.7149 30.8364ZM31.7798 33.7713L31.3943 34.0232C31.0252 34.2643 30.5981 34.402 30.1589 34.4213L25.5017 34.6258L27.2998 33.7713H31.7798ZM30.6723 33.1842V21.5758C30.6723 21.4137 30.5417 21.2823 30.3806 21.2823H23.7183C23.5573 21.2823 23.4267 21.4137 23.4267 21.5758V31.5987C22.1825 31.8707 21.2498 31.9353 20.4735 31.9888C19.2431 32.0735 18.4303 32.1296 17.6022 32.97C17.5348 33.0384 17.4709 33.1104 17.4087 33.1842H17.1098V18.5134L27.0495 9.78709L36.9891 18.5134V31.9703C36.9203 31.9943 36.853 32.0242 36.7871 32.0587C36.3452 31.4779 35.5211 31.3263 34.904 31.7298L32.6782 33.1842H30.6723ZM27.2413 9.17631C27.1863 9.1281 27.118 9.10402 27.0495 9.10402C26.9811 9.10402 26.9128 9.1281 26.8578 9.17631L15.6823 18.9877V17.8624L27.0495 7.88275L38.4168 17.8623V18.9876L27.2413 9.17631Z" fill="#6524EB" stroke="#6524EB" stroke-width="0.2"/>
<path d="M28.4493 28.5671C29.0201 28.5671 29.4845 28.1017 29.4845 27.5296C29.4845 26.9576 29.0201 26.4922 28.4493 26.4922C27.8785 26.4922 27.4141 26.9576 27.4141 27.5296C27.4141 28.1017 27.8784 28.5671 28.4493 28.5671ZM28.4493 27.0793C28.6984 27.0793 28.9011 27.2813 28.9011 27.5296C28.9011 27.778 28.6984 27.98 28.4493 27.98C28.2001 27.98 27.9974 27.778 27.9974 27.5296C27.9974 27.2813 28.2001 27.0793 28.4493 27.0793Z" fill="#6524EB" stroke="#6524EB" stroke-width="0.5"/>
</g>
<defs>
<clipPath id="clip0_400_161">
<rect width="50" height="50" fill="white"/>
</clipPath>
</defs>
</svg>
