<svg width="24" height="22" viewBox="0 0 24 22" fill="none" xmlns="http://www.w3.org/2000/svg">
<rect width="24" height="22" rx="5" fill="#F3EEFF"/>
<path d="M12.2129 6.23145C15.4324 6.23145 18.4557 7.81144 20.2988 10.457L20.4629 10.6895L20.4824 10.7188L20.4629 10.7471L20.2988 10.9805C18.4582 13.6233 15.4372 15.2012 12.2129 15.2012C8.9886 15.2011 5.96274 13.6227 4.12207 10.9795L3.95898 10.7471L3.93848 10.7188L3.95898 10.6895L4.12207 10.457L4.29883 10.2119C6.15503 7.71416 9.09178 6.23155 12.2129 6.23145ZM12.2129 7.14551C9.39712 7.14561 6.75065 8.47443 5.06641 10.7158C6.7484 12.9551 9.39695 14.2841 12.2129 14.2842C15.0264 14.2842 17.6728 12.9557 19.3555 10.7158C17.6712 8.47459 15.0287 7.14551 12.2129 7.14551Z" fill="#6524EB" stroke="#6524EB" stroke-width="0.1"/>
<path d="M12.21 8.30957C13.5385 8.30957 14.619 9.38929 14.6191 10.7178C14.6191 12.0464 13.5386 13.127 12.21 13.127C10.8815 13.1268 9.80176 12.0463 9.80176 10.7178C9.80189 9.38937 10.8816 8.3097 12.21 8.30957ZM12.21 9.22656C11.3883 9.22669 10.7189 9.89611 10.7188 10.7178C10.7188 11.5396 11.3859 12.2098 12.21 12.21C13.0318 12.21 13.7021 11.5396 13.7021 10.7178C13.702 9.89603 13.0317 9.22656 12.21 9.22656Z" fill="#6524EB" stroke="#6524EB" stroke-width="0.1"/>
</svg>
