<svg width="40" height="40" viewBox="0 0 40 40" fill="none" xmlns="http://www.w3.org/2000/svg">
<circle cx="20" cy="20" r="19.5" fill="#EDE9FC" stroke="#E0E5F2"/>
<path d="M20.8613 29.7373C20.3531 29.6543 19.8584 29.5309 19.3828 29.375L19.3203 29.3545C19.0778 29.2728 18.9583 29.025 19.04 28.8018C19.1131 28.6046 19.3225 28.4854 19.5381 28.5137L19.6299 28.5352C20.0737 28.685 20.5336 28.7994 21.0049 28.876L21.0068 28.877L21.0215 28.8799C21.4859 28.9546 21.9667 28.9941 22.46 28.9941C22.9622 28.9941 23.4534 28.9525 23.9268 28.874C24.4182 28.7928 24.8915 28.6727 25.3418 28.5176C25.4588 28.4772 25.5834 28.4848 25.6914 28.5303V28.5312L28.251 29.6416L28.4248 29.7178L28.3887 29.5312L27.9609 27.3535C27.9334 27.2127 27.9804 27.0738 28.0791 26.9756L28.124 26.9365L28.1289 26.9336C29.015 26.18 29.7342 25.2501 30.2295 24.2002C30.7084 23.1852 30.9756 22.0578 30.9756 20.8691C30.9756 19.6861 30.7113 18.5641 30.2383 17.5547C29.7449 16.5028 29.0239 15.5689 28.1367 14.8115C27.9502 14.6508 27.9357 14.3797 28.1016 14.2031C28.2716 14.0222 28.5648 14.0057 28.7539 14.168C29.7378 15.0078 30.5361 16.0411 31.0811 17.2051C31.607 18.3274 31.9004 19.5686 31.9004 20.8711C31.9004 22.1828 31.604 23.4306 31.0723 24.5566C30.5661 25.6302 29.8424 26.5928 28.9551 27.3955L28.9141 27.4326L28.9248 27.4883L29.4697 30.2676H29.4678L29.4922 30.3877C29.5089 30.4713 29.4992 30.5603 29.459 30.6445C29.3553 30.8615 29.0806 30.9624 28.8457 30.8604L25.5078 29.4111L25.4736 29.3955L25.4375 29.4072C24.996 29.5472 24.5422 29.6576 24.0811 29.7344C23.5515 29.822 23.0094 29.8672 22.458 29.8672C21.917 29.8672 21.3834 29.8222 20.8623 29.7373H20.8613ZM17.54 9.09961H17.542C20.1496 9.09965 22.5096 10.1086 24.2178 11.7373C25.9249 13.3652 26.9804 15.6135 26.9805 18.0967C26.9805 20.579 25.9248 22.8272 24.2178 24.4551C22.5096 26.0839 20.1506 27.0927 17.542 27.0928C16.9916 27.0928 16.4486 27.0466 15.9189 26.959C15.4589 26.8832 15.005 26.7728 14.5625 26.6328L14.5264 26.6211L14.4922 26.6367L11.1543 28.0859C10.9197 28.1879 10.6458 28.0874 10.541 27.8691C10.5008 27.7849 10.4911 27.6949 10.5078 27.6123L10.5322 27.4922H10.5303L11.0752 24.7139L11.0859 24.6582L11.0449 24.6211C10.1576 23.8183 9.43393 22.8558 8.92773 21.7822C8.39686 20.6552 8.09961 19.4084 8.09961 18.0967C8.09963 15.6136 9.15537 13.3661 10.8633 11.7373C12.4638 10.2102 14.6386 9.22805 17.0537 9.11133L17.54 9.09961ZM17.542 9.97266C15.1922 9.97266 13.0635 10.8811 11.5225 12.3506C9.98147 13.8201 9.02737 15.8519 9.02734 18.0967C9.02734 19.2854 9.29354 20.4128 9.77246 21.4277C10.2677 22.4775 10.9879 23.4074 11.874 24.1602V24.1611L11.8789 24.1641C11.9912 24.2497 12.0552 24.3822 12.0488 24.5215L12.042 24.5811L11.6143 26.7578L11.5771 26.9453L11.752 26.8691L14.3115 25.7588C14.4177 25.7127 14.5421 25.7043 14.6611 25.7451C15.1114 25.8993 15.5837 26.0195 16.0762 26.1016C16.5497 26.18 17.0399 26.2207 17.543 26.2207C19.8926 26.2206 22.0205 25.3122 23.5605 23.8428C25.1016 22.3733 26.0557 20.3416 26.0557 18.0977C26.0557 15.993 25.2174 14.0761 23.8428 12.6338L23.5596 12.3506C22.0186 10.8813 19.8905 9.9727 17.542 9.97266ZM17.542 22.5459C17.8014 22.546 18.0049 22.7456 18.0049 22.9824V23.2852C18.0049 23.5212 17.8022 23.7216 17.542 23.7217C17.2817 23.7217 17.0791 23.5221 17.0791 23.2852V22.9824C17.0791 22.7463 17.2817 22.5459 17.542 22.5459ZM17.541 12.7129C18.5361 12.7129 19.4353 13.0974 20.0859 13.7178C20.7363 14.3381 21.1367 15.1932 21.1367 16.1377C21.1367 17.0822 20.7364 17.9373 20.0859 18.5576C19.5572 19.0618 18.8626 19.4105 18.0879 19.5234L18.0029 19.5352V20.8633C18.0028 21.1001 17.8003 21.2997 17.54 21.2998C17.2798 21.2998 17.0773 21.1001 17.0771 20.8633V19.125C17.0774 18.8891 17.28 18.6885 17.54 18.6885C18.2761 18.6884 18.9442 18.4054 19.4277 17.9443C19.9113 17.4832 20.2109 16.8439 20.2109 16.1377C20.2109 15.4314 19.9102 14.7921 19.4277 14.3311C18.9442 13.87 18.2761 13.586 17.54 13.5859C16.8038 13.5859 16.1358 13.871 15.6523 14.3311C15.1687 14.7922 14.8691 15.4314 14.8691 16.1377V16.1465C14.8641 16.3787 14.6642 16.5742 14.4072 16.5742C14.147 16.5741 13.9444 16.3745 13.9443 16.1377C13.9443 15.1932 14.3456 14.3381 14.9961 13.7178C15.6467 13.0973 16.5459 12.7129 17.541 12.7129Z" fill="#6524EB" stroke="#EDE9FC" stroke-width="0.2"/>
</svg>
