<svg width="50" height="50" viewBox="0 0 50 50" fill="none" xmlns="http://www.w3.org/2000/svg">
<circle cx="25" cy="25" r="25" fill="#EBE2FF"/>
<path d="M35 19.975C35 14.476 30.5148 10 25 10C19.4852 10 15 14.4739 15 19.975C15 25.0689 18.8489 29.2819 23.7966 29.8767V35.8476H19.6526C18.9891 35.8476 18.4512 36.3841 18.4512 37.0459C18.4512 37.7077 18.9891 38.2442 19.6526 38.2442H23.7966V42.8017C23.7966 43.4635 24.3345 44 24.998 44C25.6614 44 26.1993 43.4635 26.1993 42.8017V38.2442H30.3433C31.0068 38.2442 31.5447 37.7077 31.5447 37.0459C31.5447 36.3841 31.0068 35.8476 30.3433 35.8476H26.1993V29.8767C31.1491 29.2817 34.9959 25.0687 34.9959 19.975H35ZM17.4046 19.975C17.4046 15.7975 20.8119 12.3986 25 12.3986C29.1881 12.3986 32.5954 15.7974 32.5954 19.975C32.5954 24.1524 29.1881 27.5513 25 27.5513C20.8119 27.5513 17.4046 24.1525 17.4046 19.975Z" fill="#6524EB"/>
</svg>
