<svg width="50" height="50" viewBox="0 0 50 50" fill="none" xmlns="http://www.w3.org/2000/svg">
<rect width="50" height="50" rx="25" fill="#F9F9F9"/>
<path d="M20.8866 27.1967C20.6964 26.773 20.4121 26.3983 20.0552 26.101C19.6984 25.8037 19.2784 25.5918 18.8273 25.4813V17.7787C18.8273 17.5805 18.7486 17.3904 18.6084 17.2502C18.4682 17.11 18.2781 17.0312 18.0798 17.0312C17.8816 17.0312 17.6915 17.11 17.5513 17.2502C17.4111 17.3904 17.3324 17.5805 17.3324 17.7787V25.4776C17.1535 25.5233 16.9785 25.5833 16.8092 25.657C16.2268 25.9207 15.7409 26.3591 15.419 26.9114C15.0971 27.4637 14.955 28.1026 15.0125 28.7393C15.07 29.376 15.3242 29.979 15.7399 30.4647C16.1556 30.9504 16.7122 31.2947 17.3324 31.4498V34.2229C17.3324 34.4211 17.4111 34.6112 17.5513 34.7514C17.6915 34.8916 17.8816 34.9703 18.0798 34.9703C18.2781 34.9703 18.4682 34.8916 18.6084 34.7514C18.7486 34.6112 18.8273 34.4211 18.8273 34.2229V31.4535C19.3114 31.3352 19.7592 31.1004 20.1318 30.7695C20.5044 30.4386 20.7904 30.0217 20.965 29.555C21.109 29.1763 21.1763 28.7728 21.1628 28.368C21.1493 27.9631 21.0554 27.5649 20.8866 27.1967ZM19.5673 29.028C19.4752 29.2724 19.3243 29.4904 19.1278 29.6626C18.9314 29.8347 18.6955 29.9558 18.4411 30.015C18.1867 30.0742 17.9216 30.0698 17.6693 30.0021C17.4171 29.9345 17.1854 29.8056 16.9948 29.627C16.8042 29.4484 16.6606 29.2255 16.5767 28.9781C16.4928 28.7308 16.4712 28.4665 16.5139 28.2088C16.5565 27.9511 16.662 27.7079 16.8211 27.5007C16.9801 27.2936 17.1879 27.1288 17.4258 27.0211C17.6297 26.9271 17.8516 26.8787 18.0761 26.8791C18.382 26.879 18.6815 26.9671 18.9386 27.1328C19.1958 27.2985 19.3998 27.5348 19.5262 27.8134C19.6144 28.0025 19.6642 28.2073 19.6725 28.4158C19.6809 28.6243 19.6476 28.8324 19.5748 29.028H19.5673Z" fill="#0A0A0A"/>
<path d="M34.7147 27.1967C34.5245 26.773 34.2402 26.3983 33.8833 26.101C33.5265 25.8037 33.1065 25.5918 32.6554 25.4813V17.7787C32.6554 17.5805 32.5767 17.3904 32.4365 17.2502C32.2963 17.11 32.1062 17.0312 31.908 17.0312C31.7097 17.0312 31.5196 17.11 31.3794 17.2502C31.2393 17.3904 31.1605 17.5805 31.1605 17.7787V25.4776C30.9816 25.5233 30.8066 25.5833 30.6373 25.657C30.0549 25.9207 29.5691 26.3591 29.2471 26.9114C28.9252 27.4637 28.7831 28.1026 28.8406 28.7393C28.8981 29.376 29.1524 29.979 29.5681 30.4647C29.9838 30.9504 30.5403 31.2947 31.1605 31.4498V34.2229C31.1605 34.4211 31.2393 34.6112 31.3794 34.7514C31.5196 34.8916 31.7097 34.9703 31.908 34.9703C32.1062 34.9703 32.2963 34.8916 32.4365 34.7514C32.5767 34.6112 32.6554 34.4211 32.6554 34.2229V31.4535C33.1395 31.3352 33.5873 31.1004 33.9599 30.7695C34.3325 30.4386 34.6186 30.0217 34.7932 29.555C34.9372 29.1763 35.0044 28.7728 34.9909 28.368C34.9775 27.9631 34.8835 27.5649 34.7147 27.1967ZM33.3954 29.028C33.3033 29.2724 33.1524 29.4904 32.9559 29.6626C32.7595 29.8347 32.5236 29.9558 32.2692 30.015C32.0148 30.0742 31.7498 30.0698 31.4975 30.0021C31.2452 29.9345 31.0135 29.8056 30.8229 29.627C30.6323 29.4484 30.4887 29.2255 30.4048 28.9781C30.3209 28.7308 30.2994 28.4665 30.342 28.2088C30.3846 27.9511 30.4901 27.7079 30.6492 27.5007C30.8083 27.2936 31.016 27.1288 31.2539 27.0211C31.4579 26.9275 31.6798 26.879 31.9042 26.8791C32.2102 26.879 32.5096 26.9671 32.7668 27.1328C33.0239 27.2985 33.2279 27.5348 33.3543 27.8134C33.4413 28.003 33.4898 28.208 33.4969 28.4166C33.5039 28.6251 33.4694 28.8329 33.3954 29.028Z" fill="#0A0A0A"/>
<path d="M26.0805 20.7686C25.9684 20.7274 25.8563 20.6938 25.7404 20.6639V17.7787C25.7404 17.5805 25.6617 17.3904 25.5215 17.2502C25.3813 17.11 25.1912 17.0312 24.993 17.0312C24.7947 17.0312 24.6046 17.11 24.4644 17.2502C24.3242 17.3904 24.2455 17.5805 24.2455 17.7787V20.6751C23.8081 20.7855 23.4002 20.9905 23.0506 21.2755C22.7009 21.5605 22.418 21.9187 22.2217 22.3249C22.0254 22.731 21.9205 23.1753 21.9143 23.6263C21.9082 24.0774 22.001 24.5243 22.1862 24.9357C22.352 25.305 22.5892 25.6378 22.8843 25.9149C23.1794 26.192 23.5264 26.4079 23.9054 26.5502C24.0175 26.5913 24.1334 26.6249 24.2455 26.6548V34.2229C24.2455 34.4211 24.3242 34.6112 24.4644 34.7514C24.6046 34.8916 24.7947 34.9703 24.993 34.9703C25.1912 34.9703 25.3813 34.8916 25.5215 34.7514C25.6617 34.6112 25.7404 34.4211 25.7404 34.2229V26.6511C25.9202 26.6082 26.0954 26.5481 26.2636 26.4717C26.8235 26.223 27.2965 25.8129 27.6221 25.294C27.9477 24.7751 28.1111 24.1708 28.0914 23.5585C28.0718 22.9462 27.8699 22.3536 27.5117 21.8567C27.1535 21.3597 26.6552 20.9808 26.0805 20.7686ZM26.4916 24.2256C26.3808 24.5196 26.1852 24.7741 25.9296 24.957C25.6741 25.1398 25.37 25.2428 25.0559 25.2528C24.7419 25.2628 24.4319 25.1794 24.1652 25.0132C23.8986 24.847 23.6872 24.6054 23.5578 24.319C23.4486 24.0772 23.4016 23.8118 23.4213 23.5472C23.441 23.2825 23.5267 23.027 23.6705 22.804C23.8143 22.581 24.0118 22.3976 24.2447 22.2705C24.4777 22.1435 24.7388 22.0768 25.0042 22.0766C25.1955 22.0768 25.3854 22.1109 25.5648 22.1775C25.7581 22.2522 25.9349 22.3642 26.085 22.5072C26.235 22.6502 26.3554 22.8214 26.4393 23.0109C26.5281 23.1998 26.5785 23.4045 26.5875 23.613C26.5965 23.8215 26.5639 24.0298 26.4916 24.2256Z" fill="#0A0A0A"/>
</svg>
