<svg width="50" height="50" viewBox="0 0 50 50" fill="none" xmlns="http://www.w3.org/2000/svg">
<g clip-path="url(#clip0_1292_350)">
<rect width="50" height="50" fill="white"/>
<circle cx="25" cy="25" r="24.5" fill="#EBE2FF" stroke="#E6EAF4"/>
<mask id="path-2-outside-1_1292_350" maskUnits="userSpaceOnUse" x="10" y="11" width="30" height="29" fill="black">
<rect fill="white" x="10" y="11" width="30" height="29"/>
<path d="M31.2859 15.245C30.4037 15.245 29.5414 15.5058 28.808 15.9944C28.0745 16.483 27.5028 17.1774 27.1653 17.9899C26.8277 18.8024 26.7395 19.6964 26.9116 20.5589C27.0837 21.4214 27.5086 22.2137 28.1324 22.8355C28.7562 23.4572 29.551 23.8807 30.4162 24.0522C31.2814 24.2236 32.1781 24.1355 32.9931 23.7989C33.808 23.4623 34.5046 22.8923 34.9946 22.161C35.4845 21.4297 35.746 20.57 35.7459 19.6906C35.7444 18.5119 35.274 17.3819 34.4379 16.5485C33.6018 15.7151 32.4682 15.2463 31.2859 15.245ZM31.2859 23.4699C30.5362 23.4699 29.8033 23.2483 29.1799 22.8331C28.5565 22.4179 28.0707 21.8277 27.7838 21.1372C27.4968 20.4467 27.4218 19.6869 27.568 18.9538C27.7142 18.2208 28.0752 17.5474 28.6053 17.0189C29.1354 16.4904 29.8109 16.1304 30.5462 15.9846C31.2815 15.8388 32.0436 15.9135 32.7363 16.1995C33.429 16.4855 34.021 16.9698 34.4376 17.5912C34.8541 18.2126 35.0765 18.9432 35.0766 19.6906C35.0757 20.6926 34.676 21.6533 33.9653 22.3619C33.2546 23.0704 32.291 23.4689 31.2859 23.4699ZM32.6348 20.7021C32.6345 21.0006 32.5347 21.2905 32.3511 21.5264C32.1675 21.7622 31.9105 21.9305 31.6205 22.0049V22.542C31.6205 22.6305 31.5853 22.7154 31.5225 22.778C31.4598 22.8405 31.3746 22.8757 31.2859 22.8757C31.1971 22.8757 31.112 22.8405 31.0492 22.778C30.9865 22.7154 30.9512 22.6305 30.9512 22.542V22.0049C30.666 21.9326 30.4124 21.7689 30.2295 21.539C30.2008 21.5048 30.1792 21.4653 30.1661 21.4227C30.1529 21.3801 30.1484 21.3354 30.1529 21.291C30.1574 21.2467 30.1708 21.2037 30.1922 21.1646C30.2136 21.1255 30.2427 21.0911 30.2777 21.0633C30.3127 21.0356 30.3529 21.0152 30.3959 21.0032C30.439 20.9912 30.484 20.9879 30.5283 20.9936C30.5727 20.9992 30.6154 21.0137 30.6541 21.0361C30.6927 21.0585 30.7265 21.0883 30.7533 21.1239C30.8248 21.2138 30.918 21.2842 31.0243 21.3283C31.1305 21.3725 31.2462 21.389 31.3605 21.3764C31.4749 21.3638 31.5842 21.3225 31.6782 21.2563C31.7721 21.1901 31.8477 21.1011 31.8978 20.9978C31.9478 20.8946 31.9708 20.7803 31.9645 20.6657C31.9581 20.5512 31.9227 20.4401 31.8616 20.343C31.8004 20.2458 31.7155 20.1657 31.6148 20.1102C31.5141 20.0546 31.4009 20.0255 31.2859 20.0255C30.9569 20.0259 30.6392 19.9065 30.3924 19.6896C30.1456 19.4728 29.9868 19.1736 29.9458 18.8482C29.9048 18.5228 29.9846 18.1937 30.1699 17.9228C30.3553 17.6519 30.6336 17.4579 30.9525 17.3773V16.8402C30.9525 16.7517 30.9877 16.6668 31.0505 16.6042C31.1132 16.5417 31.1984 16.5065 31.2871 16.5065C31.3759 16.5065 31.461 16.5417 31.5238 16.6042C31.5865 16.6668 31.6218 16.7517 31.6218 16.8402V17.3773C31.907 17.4496 32.1606 17.6133 32.3435 17.8432C32.3975 17.9126 32.422 18.0004 32.4115 18.0876C32.4011 18.1748 32.3565 18.2544 32.2876 18.3091C32.2186 18.3638 32.1308 18.3891 32.0432 18.3797C31.9556 18.3702 31.8753 18.3267 31.8197 18.2586C31.7482 18.1687 31.6549 18.0983 31.5487 18.0542C31.4425 18.01 31.3268 17.9935 31.2125 18.0061C31.0981 18.0187 30.9888 18.06 30.8948 18.1262C30.8009 18.1925 30.7253 18.2814 30.6752 18.3847C30.6252 18.4879 30.6022 18.6022 30.6085 18.7168C30.6149 18.8313 30.6503 18.9424 30.7114 19.0395C30.7726 19.1367 30.8575 19.2168 30.9582 19.2723C31.0589 19.3279 31.1721 19.357 31.2871 19.357C31.6447 19.3576 31.9874 19.4995 32.2401 19.7517C32.4928 20.0038 32.6346 20.3456 32.6348 20.7021ZM38.7248 18.07L37.2915 17.819C37.1793 17.4612 37.035 17.1143 36.8602 16.7824L37.6965 15.5935C37.7417 15.5293 37.7627 15.4512 37.7558 15.373C37.749 15.2949 37.7148 15.2216 37.6592 15.1661L35.8257 13.3383C35.77 13.2828 35.6965 13.2486 35.6181 13.2418C35.5397 13.235 35.4613 13.2559 35.3969 13.301L34.2041 14.1348C33.8713 13.9607 33.5235 13.8168 33.1649 13.7048L32.9128 12.2759C32.8992 12.1985 32.8587 12.1285 32.7984 12.078C32.7381 12.0275 32.6618 11.9999 32.5831 12H29.9896C29.9109 11.9999 29.8346 12.0275 29.7743 12.078C29.714 12.1285 29.6735 12.1985 29.6599 12.2759L29.4078 13.7048C29.0491 13.8168 28.7012 13.9607 28.3683 14.1348L27.1755 13.301C27.111 13.2559 27.0327 13.235 26.9543 13.2418C26.8759 13.2486 26.8024 13.2828 26.7467 13.3383L24.9135 15.1661C24.8578 15.2215 24.8235 15.2948 24.8167 15.373C24.8098 15.4512 24.8309 15.5293 24.8761 15.5935L25.7122 16.7824C25.5376 17.1143 25.3934 17.4613 25.2812 17.819L23.8478 18.07C23.7704 18.0837 23.7002 18.1241 23.6496 18.1842C23.599 18.2443 23.5712 18.3202 23.5711 18.3987V20.9835C23.5712 21.062 23.5989 21.1379 23.6495 21.198C23.7001 21.2581 23.7703 21.2985 23.8478 21.3122L25.2812 21.5632C25.3934 21.921 25.5377 22.2679 25.7125 22.5998L24.8761 23.7887C24.8309 23.8529 24.8098 23.931 24.8167 24.0092C24.8235 24.0874 24.8578 24.1606 24.9135 24.2161L26.7458 26.0439C26.8014 26.0994 26.8749 26.1336 26.9534 26.1404C27.0318 26.1472 27.1101 26.1263 27.1745 26.0812L28.3674 25.2474C28.7003 25.4215 29.0482 25.5654 29.4069 25.6774L29.659 27.1063C29.6725 27.1837 29.713 27.2538 29.7733 27.3043C29.8337 27.3548 29.9099 27.3825 29.9887 27.3825H32.5812C32.66 27.3825 32.7362 27.3548 32.7965 27.3043C32.8568 27.2538 32.8973 27.1837 32.9109 27.1063L33.163 25.6774C33.5218 25.5655 33.8699 25.4216 34.2028 25.2474L35.3953 26.0812C35.4598 26.1263 35.5381 26.1472 35.6165 26.1404C35.695 26.1336 35.7684 26.0994 35.8241 26.0439L37.6576 24.2161C37.7132 24.1606 37.7474 24.0873 37.7543 24.0092C37.7611 23.931 37.7401 23.8529 37.695 23.7887L36.8586 22.5998C37.0334 22.2679 37.1778 21.921 37.2899 21.5632L38.7233 21.3122C38.8008 21.2985 38.871 21.2581 38.9216 21.198C38.9722 21.1379 39 21.062 39 20.9835V18.3987C39 18.3204 38.9724 18.2447 38.9221 18.1847C38.8719 18.1246 38.802 18.084 38.7248 18.07ZM38.3322 20.7033L36.9705 20.9419C36.9081 20.9527 36.85 20.981 36.8032 21.0235C36.7563 21.0659 36.7224 21.1208 36.7056 21.1817C36.5827 21.6265 36.4048 22.0544 36.1759 22.4554C36.1446 22.5103 36.1296 22.573 36.1326 22.6361C36.1355 22.6992 36.1564 22.7602 36.1927 22.812L36.987 23.9409L35.5505 25.3754L34.4178 24.5839C34.3659 24.5476 34.3048 24.5267 34.2415 24.5236C34.1781 24.5206 34.1152 24.5356 34.0601 24.5668C33.6578 24.7949 33.2287 24.9723 32.7825 25.0949C32.7214 25.1117 32.6664 25.1454 32.6237 25.1922C32.5811 25.2389 32.5526 25.2967 32.5416 25.359L32.3026 26.7165H30.2707L30.0313 25.359C30.0204 25.2967 29.9919 25.2389 29.9493 25.1922C29.9066 25.1454 29.8516 25.1117 29.7905 25.0949C29.3443 24.9725 28.9151 24.7951 28.5129 24.5668C28.4578 24.5356 28.395 24.5206 28.3317 24.5236C28.2685 24.5266 28.2074 24.5474 28.1555 24.5836L27.0212 25.3754L25.5854 23.944L26.3796 22.8151C26.416 22.7633 26.4368 22.7023 26.4398 22.6392C26.4428 22.5761 26.4278 22.5134 26.3965 22.4585C26.1676 22.0575 25.9897 21.6296 25.8667 21.1848C25.8499 21.1239 25.8161 21.0691 25.7692 21.0266C25.7223 20.9841 25.6643 20.9558 25.6019 20.945L24.2401 20.7064V18.6789L25.6019 18.4403C25.6643 18.4295 25.7223 18.4012 25.7692 18.3587C25.8161 18.3163 25.8499 18.2614 25.8667 18.2005C25.9897 17.7552 26.1676 17.3268 26.3965 16.9253C26.4278 16.8704 26.4428 16.8078 26.4398 16.7447C26.4368 16.6816 26.416 16.6207 26.3796 16.569L25.5854 15.4398L27.0212 14.0083L28.1542 14.8002C28.2061 14.8364 28.2672 14.8572 28.3305 14.8602C28.3938 14.8631 28.4566 14.8481 28.5116 14.8169C28.9139 14.5888 29.3431 14.4114 29.7892 14.2888C29.8503 14.272 29.9054 14.2383 29.948 14.1916C29.9907 14.1448 30.0191 14.087 30.0301 14.0248L30.2694 12.6673H32.3002L32.5392 14.0248C32.5501 14.087 32.5786 14.1448 32.6212 14.1916C32.6639 14.2383 32.7189 14.272 32.78 14.2888C33.2262 14.4113 33.6554 14.5887 34.0576 14.8169C34.1127 14.8481 34.1756 14.8631 34.2389 14.8601C34.3022 14.8572 34.3634 14.8364 34.4153 14.8002L35.548 14.0083L36.9839 15.4398L36.1896 16.569C36.1533 16.6207 36.1324 16.6816 36.1294 16.7447C36.1265 16.8078 36.1415 16.8704 36.1728 16.9253C36.4018 17.3268 36.5797 17.7551 36.7025 18.2005C36.7193 18.2614 36.7531 18.3163 36.8 18.3587C36.8469 18.4012 36.905 18.4295 36.9674 18.4403L38.3291 18.6789L38.3322 20.7033ZM19.5268 29.1476C20.2072 29.1475 20.8723 28.9463 21.4381 28.5695C22.0038 28.1926 22.4447 27.6569 22.7051 27.0302C22.9654 26.4035 23.0336 25.714 22.9008 25.0487C22.7681 24.3834 22.4405 23.7723 21.9594 23.2926C21.4782 22.813 20.8653 22.4863 20.1979 22.3539C19.5306 22.2215 18.8389 22.2894 18.2102 22.5489C17.5816 22.8084 17.0442 23.2479 16.6661 23.8118C16.288 24.3758 16.0862 25.0388 16.086 25.7171C16.0869 26.6266 16.4497 27.4986 17.0948 28.1417C17.7399 28.7849 18.6145 29.1466 19.5268 29.1476ZM19.5268 22.9552C20.0749 22.9553 20.6106 23.1173 21.0663 23.421C21.522 23.7246 21.8771 24.1561 22.0868 24.6609C22.2965 25.1658 22.3513 25.7212 22.2443 26.2571C22.1373 26.793 21.8732 27.2852 21.4856 27.6715C21.098 28.0578 20.6042 28.3208 20.0666 28.4273C19.529 28.5338 18.9718 28.479 18.4655 28.2698C17.9592 28.0606 17.5265 27.7065 17.2221 27.2521C16.9177 26.7977 16.7552 26.2635 16.7554 25.7171C16.7561 24.9847 17.0484 24.2825 17.568 23.7646C18.0876 23.2468 18.7921 22.9557 19.5268 22.9552ZM19.5268 30.1662C17.2662 30.1687 15.0988 31.065 13.5003 32.6585C11.9017 34.2521 11.0026 36.4127 11 38.6664C11 38.7549 11.0353 38.8397 11.098 38.9023C11.1608 38.9648 11.2459 39 11.3347 39H27.7186C27.7627 39.0002 27.8063 38.9917 27.8471 38.975C27.8878 38.9583 27.9248 38.9337 27.9561 38.9027C27.9873 38.8717 28.012 38.8349 28.0289 38.7943C28.0458 38.7538 28.0545 38.7103 28.0545 38.6664C28.052 36.4125 27.1526 34.2518 25.5539 32.6582C23.9552 31.0646 21.7876 30.1684 19.5268 30.1662ZM11.6765 38.3327C11.763 36.315 12.6279 34.4085 14.0906 33.0113C15.5534 31.614 17.501 30.834 19.5268 30.834C21.5526 30.834 23.5002 31.614 24.9629 33.0113C26.4257 34.4085 27.2906 36.315 27.3771 38.3327H11.6765Z"/>
</mask>
<path d="M31.2859 15.245C30.4037 15.245 29.5414 15.5058 28.808 15.9944C28.0745 16.483 27.5028 17.1774 27.1653 17.9899C26.8277 18.8024 26.7395 19.6964 26.9116 20.5589C27.0837 21.4214 27.5086 22.2137 28.1324 22.8355C28.7562 23.4572 29.551 23.8807 30.4162 24.0522C31.2814 24.2236 32.1781 24.1355 32.9931 23.7989C33.808 23.4623 34.5046 22.8923 34.9946 22.161C35.4845 21.4297 35.746 20.57 35.7459 19.6906C35.7444 18.5119 35.274 17.3819 34.4379 16.5485C33.6018 15.7151 32.4682 15.2463 31.2859 15.245ZM31.2859 23.4699C30.5362 23.4699 29.8033 23.2483 29.1799 22.8331C28.5565 22.4179 28.0707 21.8277 27.7838 21.1372C27.4968 20.4467 27.4218 19.6869 27.568 18.9538C27.7142 18.2208 28.0752 17.5474 28.6053 17.0189C29.1354 16.4904 29.8109 16.1304 30.5462 15.9846C31.2815 15.8388 32.0436 15.9135 32.7363 16.1995C33.429 16.4855 34.021 16.9698 34.4376 17.5912C34.8541 18.2126 35.0765 18.9432 35.0766 19.6906C35.0757 20.6926 34.676 21.6533 33.9653 22.3619C33.2546 23.0704 32.291 23.4689 31.2859 23.4699ZM32.6348 20.7021C32.6345 21.0006 32.5347 21.2905 32.3511 21.5264C32.1675 21.7622 31.9105 21.9305 31.6205 22.0049V22.542C31.6205 22.6305 31.5853 22.7154 31.5225 22.778C31.4598 22.8405 31.3746 22.8757 31.2859 22.8757C31.1971 22.8757 31.112 22.8405 31.0492 22.778C30.9865 22.7154 30.9512 22.6305 30.9512 22.542V22.0049C30.666 21.9326 30.4124 21.7689 30.2295 21.539C30.2008 21.5048 30.1792 21.4653 30.1661 21.4227C30.1529 21.3801 30.1484 21.3354 30.1529 21.291C30.1574 21.2467 30.1708 21.2037 30.1922 21.1646C30.2136 21.1255 30.2427 21.0911 30.2777 21.0633C30.3127 21.0356 30.3529 21.0152 30.3959 21.0032C30.439 20.9912 30.484 20.9879 30.5283 20.9936C30.5727 20.9992 30.6154 21.0137 30.6541 21.0361C30.6927 21.0585 30.7265 21.0883 30.7533 21.1239C30.8248 21.2138 30.918 21.2842 31.0243 21.3283C31.1305 21.3725 31.2462 21.389 31.3605 21.3764C31.4749 21.3638 31.5842 21.3225 31.6782 21.2563C31.7721 21.1901 31.8477 21.1011 31.8978 20.9978C31.9478 20.8946 31.9708 20.7803 31.9645 20.6657C31.9581 20.5512 31.9227 20.4401 31.8616 20.343C31.8004 20.2458 31.7155 20.1657 31.6148 20.1102C31.5141 20.0546 31.4009 20.0255 31.2859 20.0255C30.9569 20.0259 30.6392 19.9065 30.3924 19.6896C30.1456 19.4728 29.9868 19.1736 29.9458 18.8482C29.9048 18.5228 29.9846 18.1937 30.1699 17.9228C30.3553 17.6519 30.6336 17.4579 30.9525 17.3773V16.8402C30.9525 16.7517 30.9877 16.6668 31.0505 16.6042C31.1132 16.5417 31.1984 16.5065 31.2871 16.5065C31.3759 16.5065 31.461 16.5417 31.5238 16.6042C31.5865 16.6668 31.6218 16.7517 31.6218 16.8402V17.3773C31.907 17.4496 32.1606 17.6133 32.3435 17.8432C32.3975 17.9126 32.422 18.0004 32.4115 18.0876C32.4011 18.1748 32.3565 18.2544 32.2876 18.3091C32.2186 18.3638 32.1308 18.3891 32.0432 18.3797C31.9556 18.3702 31.8753 18.3267 31.8197 18.2586C31.7482 18.1687 31.6549 18.0983 31.5487 18.0542C31.4425 18.01 31.3268 17.9935 31.2125 18.0061C31.0981 18.0187 30.9888 18.06 30.8948 18.1262C30.8009 18.1925 30.7253 18.2814 30.6752 18.3847C30.6252 18.4879 30.6022 18.6022 30.6085 18.7168C30.6149 18.8313 30.6503 18.9424 30.7114 19.0395C30.7726 19.1367 30.8575 19.2168 30.9582 19.2723C31.0589 19.3279 31.1721 19.357 31.2871 19.357C31.6447 19.3576 31.9874 19.4995 32.2401 19.7517C32.4928 20.0038 32.6346 20.3456 32.6348 20.7021ZM38.7248 18.07L37.2915 17.819C37.1793 17.4612 37.035 17.1143 36.8602 16.7824L37.6965 15.5935C37.7417 15.5293 37.7627 15.4512 37.7558 15.373C37.749 15.2949 37.7148 15.2216 37.6592 15.1661L35.8257 13.3383C35.77 13.2828 35.6965 13.2486 35.6181 13.2418C35.5397 13.235 35.4613 13.2559 35.3969 13.301L34.2041 14.1348C33.8713 13.9607 33.5235 13.8168 33.1649 13.7048L32.9128 12.2759C32.8992 12.1985 32.8587 12.1285 32.7984 12.078C32.7381 12.0275 32.6618 11.9999 32.5831 12H29.9896C29.9109 11.9999 29.8346 12.0275 29.7743 12.078C29.714 12.1285 29.6735 12.1985 29.6599 12.2759L29.4078 13.7048C29.0491 13.8168 28.7012 13.9607 28.3683 14.1348L27.1755 13.301C27.111 13.2559 27.0327 13.235 26.9543 13.2418C26.8759 13.2486 26.8024 13.2828 26.7467 13.3383L24.9135 15.1661C24.8578 15.2215 24.8235 15.2948 24.8167 15.373C24.8098 15.4512 24.8309 15.5293 24.8761 15.5935L25.7122 16.7824C25.5376 17.1143 25.3934 17.4613 25.2812 17.819L23.8478 18.07C23.7704 18.0837 23.7002 18.1241 23.6496 18.1842C23.599 18.2443 23.5712 18.3202 23.5711 18.3987V20.9835C23.5712 21.062 23.5989 21.1379 23.6495 21.198C23.7001 21.2581 23.7703 21.2985 23.8478 21.3122L25.2812 21.5632C25.3934 21.921 25.5377 22.2679 25.7125 22.5998L24.8761 23.7887C24.8309 23.8529 24.8098 23.931 24.8167 24.0092C24.8235 24.0874 24.8578 24.1606 24.9135 24.2161L26.7458 26.0439C26.8014 26.0994 26.8749 26.1336 26.9534 26.1404C27.0318 26.1472 27.1101 26.1263 27.1745 26.0812L28.3674 25.2474C28.7003 25.4215 29.0482 25.5654 29.4069 25.6774L29.659 27.1063C29.6725 27.1837 29.713 27.2538 29.7733 27.3043C29.8337 27.3548 29.9099 27.3825 29.9887 27.3825H32.5812C32.66 27.3825 32.7362 27.3548 32.7965 27.3043C32.8568 27.2538 32.8973 27.1837 32.9109 27.1063L33.163 25.6774C33.5218 25.5655 33.8699 25.4216 34.2028 25.2474L35.3953 26.0812C35.4598 26.1263 35.5381 26.1472 35.6165 26.1404C35.695 26.1336 35.7684 26.0994 35.8241 26.0439L37.6576 24.2161C37.7132 24.1606 37.7474 24.0873 37.7543 24.0092C37.7611 23.931 37.7401 23.8529 37.695 23.7887L36.8586 22.5998C37.0334 22.2679 37.1778 21.921 37.2899 21.5632L38.7233 21.3122C38.8008 21.2985 38.871 21.2581 38.9216 21.198C38.9722 21.1379 39 21.062 39 20.9835V18.3987C39 18.3204 38.9724 18.2447 38.9221 18.1847C38.8719 18.1246 38.802 18.084 38.7248 18.07ZM38.3322 20.7033L36.9705 20.9419C36.9081 20.9527 36.85 20.981 36.8032 21.0235C36.7563 21.0659 36.7224 21.1208 36.7056 21.1817C36.5827 21.6265 36.4048 22.0544 36.1759 22.4554C36.1446 22.5103 36.1296 22.573 36.1326 22.6361C36.1355 22.6992 36.1564 22.7602 36.1927 22.812L36.987 23.9409L35.5505 25.3754L34.4178 24.5839C34.3659 24.5476 34.3048 24.5267 34.2415 24.5236C34.1781 24.5206 34.1152 24.5356 34.0601 24.5668C33.6578 24.7949 33.2287 24.9723 32.7825 25.0949C32.7214 25.1117 32.6664 25.1454 32.6237 25.1922C32.5811 25.2389 32.5526 25.2967 32.5416 25.359L32.3026 26.7165H30.2707L30.0313 25.359C30.0204 25.2967 29.9919 25.2389 29.9493 25.1922C29.9066 25.1454 29.8516 25.1117 29.7905 25.0949C29.3443 24.9725 28.9151 24.7951 28.5129 24.5668C28.4578 24.5356 28.395 24.5206 28.3317 24.5236C28.2685 24.5266 28.2074 24.5474 28.1555 24.5836L27.0212 25.3754L25.5854 23.944L26.3796 22.8151C26.416 22.7633 26.4368 22.7023 26.4398 22.6392C26.4428 22.5761 26.4278 22.5134 26.3965 22.4585C26.1676 22.0575 25.9897 21.6296 25.8667 21.1848C25.8499 21.1239 25.8161 21.0691 25.7692 21.0266C25.7223 20.9841 25.6643 20.9558 25.6019 20.945L24.2401 20.7064V18.6789L25.6019 18.4403C25.6643 18.4295 25.7223 18.4012 25.7692 18.3587C25.8161 18.3163 25.8499 18.2614 25.8667 18.2005C25.9897 17.7552 26.1676 17.3268 26.3965 16.9253C26.4278 16.8704 26.4428 16.8078 26.4398 16.7447C26.4368 16.6816 26.416 16.6207 26.3796 16.569L25.5854 15.4398L27.0212 14.0083L28.1542 14.8002C28.2061 14.8364 28.2672 14.8572 28.3305 14.8602C28.3938 14.8631 28.4566 14.8481 28.5116 14.8169C28.9139 14.5888 29.3431 14.4114 29.7892 14.2888C29.8503 14.272 29.9054 14.2383 29.948 14.1916C29.9907 14.1448 30.0191 14.087 30.0301 14.0248L30.2694 12.6673H32.3002L32.5392 14.0248C32.5501 14.087 32.5786 14.1448 32.6212 14.1916C32.6639 14.2383 32.7189 14.272 32.78 14.2888C33.2262 14.4113 33.6554 14.5887 34.0576 14.8169C34.1127 14.8481 34.1756 14.8631 34.2389 14.8601C34.3022 14.8572 34.3634 14.8364 34.4153 14.8002L35.548 14.0083L36.9839 15.4398L36.1896 16.569C36.1533 16.6207 36.1324 16.6816 36.1294 16.7447C36.1265 16.8078 36.1415 16.8704 36.1728 16.9253C36.4018 17.3268 36.5797 17.7551 36.7025 18.2005C36.7193 18.2614 36.7531 18.3163 36.8 18.3587C36.8469 18.4012 36.905 18.4295 36.9674 18.4403L38.3291 18.6789L38.3322 20.7033ZM19.5268 29.1476C20.2072 29.1475 20.8723 28.9463 21.4381 28.5695C22.0038 28.1926 22.4447 27.6569 22.7051 27.0302C22.9654 26.4035 23.0336 25.714 22.9008 25.0487C22.7681 24.3834 22.4405 23.7723 21.9594 23.2926C21.4782 22.813 20.8653 22.4863 20.1979 22.3539C19.5306 22.2215 18.8389 22.2894 18.2102 22.5489C17.5816 22.8084 17.0442 23.2479 16.6661 23.8118C16.288 24.3758 16.0862 25.0388 16.086 25.7171C16.0869 26.6266 16.4497 27.4986 17.0948 28.1417C17.7399 28.7849 18.6145 29.1466 19.5268 29.1476ZM19.5268 22.9552C20.0749 22.9553 20.6106 23.1173 21.0663 23.421C21.522 23.7246 21.8771 24.1561 22.0868 24.6609C22.2965 25.1658 22.3513 25.7212 22.2443 26.2571C22.1373 26.793 21.8732 27.2852 21.4856 27.6715C21.098 28.0578 20.6042 28.3208 20.0666 28.4273C19.529 28.5338 18.9718 28.479 18.4655 28.2698C17.9592 28.0606 17.5265 27.7065 17.2221 27.2521C16.9177 26.7977 16.7552 26.2635 16.7554 25.7171C16.7561 24.9847 17.0484 24.2825 17.568 23.7646C18.0876 23.2468 18.7921 22.9557 19.5268 22.9552ZM19.5268 30.1662C17.2662 30.1687 15.0988 31.065 13.5003 32.6585C11.9017 34.2521 11.0026 36.4127 11 38.6664C11 38.7549 11.0353 38.8397 11.098 38.9023C11.1608 38.9648 11.2459 39 11.3347 39H27.7186C27.7627 39.0002 27.8063 38.9917 27.8471 38.975C27.8878 38.9583 27.9248 38.9337 27.9561 38.9027C27.9873 38.8717 28.012 38.8349 28.0289 38.7943C28.0458 38.7538 28.0545 38.7103 28.0545 38.6664C28.052 36.4125 27.1526 34.2518 25.5539 32.6582C23.9552 31.0646 21.7876 30.1684 19.5268 30.1662ZM11.6765 38.3327C11.763 36.315 12.6279 34.4085 14.0906 33.0113C15.5534 31.614 17.501 30.834 19.5268 30.834C21.5526 30.834 23.5002 31.614 24.9629 33.0113C26.4257 34.4085 27.2906 36.315 27.3771 38.3327H11.6765Z" fill="#6524EB"/>
<path d="M31.2859 15.245C30.4037 15.245 29.5414 15.5058 28.808 15.9944C28.0745 16.483 27.5028 17.1774 27.1653 17.9899C26.8277 18.8024 26.7395 19.6964 26.9116 20.5589C27.0837 21.4214 27.5086 22.2137 28.1324 22.8355C28.7562 23.4572 29.551 23.8807 30.4162 24.0522C31.2814 24.2236 32.1781 24.1355 32.9931 23.7989C33.808 23.4623 34.5046 22.8923 34.9946 22.161C35.4845 21.4297 35.746 20.57 35.7459 19.6906C35.7444 18.5119 35.274 17.3819 34.4379 16.5485C33.6018 15.7151 32.4682 15.2463 31.2859 15.245ZM31.2859 23.4699C30.5362 23.4699 29.8033 23.2483 29.1799 22.8331C28.5565 22.4179 28.0707 21.8277 27.7838 21.1372C27.4968 20.4467 27.4218 19.6869 27.568 18.9538C27.7142 18.2208 28.0752 17.5474 28.6053 17.0189C29.1354 16.4904 29.8109 16.1304 30.5462 15.9846C31.2815 15.8388 32.0436 15.9135 32.7363 16.1995C33.429 16.4855 34.021 16.9698 34.4376 17.5912C34.8541 18.2126 35.0765 18.9432 35.0766 19.6906C35.0757 20.6926 34.676 21.6533 33.9653 22.3619C33.2546 23.0704 32.291 23.4689 31.2859 23.4699ZM32.6348 20.7021C32.6345 21.0006 32.5347 21.2905 32.3511 21.5264C32.1675 21.7622 31.9105 21.9305 31.6205 22.0049V22.542C31.6205 22.6305 31.5853 22.7154 31.5225 22.778C31.4598 22.8405 31.3746 22.8757 31.2859 22.8757C31.1971 22.8757 31.112 22.8405 31.0492 22.778C30.9865 22.7154 30.9512 22.6305 30.9512 22.542V22.0049C30.666 21.9326 30.4124 21.7689 30.2295 21.539C30.2008 21.5048 30.1792 21.4653 30.1661 21.4227C30.1529 21.3801 30.1484 21.3354 30.1529 21.291C30.1574 21.2467 30.1708 21.2037 30.1922 21.1646C30.2136 21.1255 30.2427 21.0911 30.2777 21.0633C30.3127 21.0356 30.3529 21.0152 30.3959 21.0032C30.439 20.9912 30.484 20.9879 30.5283 20.9936C30.5727 20.9992 30.6154 21.0137 30.6541 21.0361C30.6927 21.0585 30.7265 21.0883 30.7533 21.1239C30.8248 21.2138 30.918 21.2842 31.0243 21.3283C31.1305 21.3725 31.2462 21.389 31.3605 21.3764C31.4749 21.3638 31.5842 21.3225 31.6782 21.2563C31.7721 21.1901 31.8477 21.1011 31.8978 20.9978C31.9478 20.8946 31.9708 20.7803 31.9645 20.6657C31.9581 20.5512 31.9227 20.4401 31.8616 20.343C31.8004 20.2458 31.7155 20.1657 31.6148 20.1102C31.5141 20.0546 31.4009 20.0255 31.2859 20.0255C30.9569 20.0259 30.6392 19.9065 30.3924 19.6896C30.1456 19.4728 29.9868 19.1736 29.9458 18.8482C29.9048 18.5228 29.9846 18.1937 30.1699 17.9228C30.3553 17.6519 30.6336 17.4579 30.9525 17.3773V16.8402C30.9525 16.7517 30.9877 16.6668 31.0505 16.6042C31.1132 16.5417 31.1984 16.5065 31.2871 16.5065C31.3759 16.5065 31.461 16.5417 31.5238 16.6042C31.5865 16.6668 31.6218 16.7517 31.6218 16.8402V17.3773C31.907 17.4496 32.1606 17.6133 32.3435 17.8432C32.3975 17.9126 32.422 18.0004 32.4115 18.0876C32.4011 18.1748 32.3565 18.2544 32.2876 18.3091C32.2186 18.3638 32.1308 18.3891 32.0432 18.3797C31.9556 18.3702 31.8753 18.3267 31.8197 18.2586C31.7482 18.1687 31.6549 18.0983 31.5487 18.0542C31.4425 18.01 31.3268 17.9935 31.2125 18.0061C31.0981 18.0187 30.9888 18.06 30.8948 18.1262C30.8009 18.1925 30.7253 18.2814 30.6752 18.3847C30.6252 18.4879 30.6022 18.6022 30.6085 18.7168C30.6149 18.8313 30.6503 18.9424 30.7114 19.0395C30.7726 19.1367 30.8575 19.2168 30.9582 19.2723C31.0589 19.3279 31.1721 19.357 31.2871 19.357C31.6447 19.3576 31.9874 19.4995 32.2401 19.7517C32.4928 20.0038 32.6346 20.3456 32.6348 20.7021ZM38.7248 18.07L37.2915 17.819C37.1793 17.4612 37.035 17.1143 36.8602 16.7824L37.6965 15.5935C37.7417 15.5293 37.7627 15.4512 37.7558 15.373C37.749 15.2949 37.7148 15.2216 37.6592 15.1661L35.8257 13.3383C35.77 13.2828 35.6965 13.2486 35.6181 13.2418C35.5397 13.235 35.4613 13.2559 35.3969 13.301L34.2041 14.1348C33.8713 13.9607 33.5235 13.8168 33.1649 13.7048L32.9128 12.2759C32.8992 12.1985 32.8587 12.1285 32.7984 12.078C32.7381 12.0275 32.6618 11.9999 32.5831 12H29.9896C29.9109 11.9999 29.8346 12.0275 29.7743 12.078C29.714 12.1285 29.6735 12.1985 29.6599 12.2759L29.4078 13.7048C29.0491 13.8168 28.7012 13.9607 28.3683 14.1348L27.1755 13.301C27.111 13.2559 27.0327 13.235 26.9543 13.2418C26.8759 13.2486 26.8024 13.2828 26.7467 13.3383L24.9135 15.1661C24.8578 15.2215 24.8235 15.2948 24.8167 15.373C24.8098 15.4512 24.8309 15.5293 24.8761 15.5935L25.7122 16.7824C25.5376 17.1143 25.3934 17.4613 25.2812 17.819L23.8478 18.07C23.7704 18.0837 23.7002 18.1241 23.6496 18.1842C23.599 18.2443 23.5712 18.3202 23.5711 18.3987V20.9835C23.5712 21.062 23.5989 21.1379 23.6495 21.198C23.7001 21.2581 23.7703 21.2985 23.8478 21.3122L25.2812 21.5632C25.3934 21.921 25.5377 22.2679 25.7125 22.5998L24.8761 23.7887C24.8309 23.8529 24.8098 23.931 24.8167 24.0092C24.8235 24.0874 24.8578 24.1606 24.9135 24.2161L26.7458 26.0439C26.8014 26.0994 26.8749 26.1336 26.9534 26.1404C27.0318 26.1472 27.1101 26.1263 27.1745 26.0812L28.3674 25.2474C28.7003 25.4215 29.0482 25.5654 29.4069 25.6774L29.659 27.1063C29.6725 27.1837 29.713 27.2538 29.7733 27.3043C29.8337 27.3548 29.9099 27.3825 29.9887 27.3825H32.5812C32.66 27.3825 32.7362 27.3548 32.7965 27.3043C32.8568 27.2538 32.8973 27.1837 32.9109 27.1063L33.163 25.6774C33.5218 25.5655 33.8699 25.4216 34.2028 25.2474L35.3953 26.0812C35.4598 26.1263 35.5381 26.1472 35.6165 26.1404C35.695 26.1336 35.7684 26.0994 35.8241 26.0439L37.6576 24.2161C37.7132 24.1606 37.7474 24.0873 37.7543 24.0092C37.7611 23.931 37.7401 23.8529 37.695 23.7887L36.8586 22.5998C37.0334 22.2679 37.1778 21.921 37.2899 21.5632L38.7233 21.3122C38.8008 21.2985 38.871 21.2581 38.9216 21.198C38.9722 21.1379 39 21.062 39 20.9835V18.3987C39 18.3204 38.9724 18.2447 38.9221 18.1847C38.8719 18.1246 38.802 18.084 38.7248 18.07ZM38.3322 20.7033L36.9705 20.9419C36.9081 20.9527 36.85 20.981 36.8032 21.0235C36.7563 21.0659 36.7224 21.1208 36.7056 21.1817C36.5827 21.6265 36.4048 22.0544 36.1759 22.4554C36.1446 22.5103 36.1296 22.573 36.1326 22.6361C36.1355 22.6992 36.1564 22.7602 36.1927 22.812L36.987 23.9409L35.5505 25.3754L34.4178 24.5839C34.3659 24.5476 34.3048 24.5267 34.2415 24.5236C34.1781 24.5206 34.1152 24.5356 34.0601 24.5668C33.6578 24.7949 33.2287 24.9723 32.7825 25.0949C32.7214 25.1117 32.6664 25.1454 32.6237 25.1922C32.5811 25.2389 32.5526 25.2967 32.5416 25.359L32.3026 26.7165H30.2707L30.0313 25.359C30.0204 25.2967 29.9919 25.2389 29.9493 25.1922C29.9066 25.1454 29.8516 25.1117 29.7905 25.0949C29.3443 24.9725 28.9151 24.7951 28.5129 24.5668C28.4578 24.5356 28.395 24.5206 28.3317 24.5236C28.2685 24.5266 28.2074 24.5474 28.1555 24.5836L27.0212 25.3754L25.5854 23.944L26.3796 22.8151C26.416 22.7633 26.4368 22.7023 26.4398 22.6392C26.4428 22.5761 26.4278 22.5134 26.3965 22.4585C26.1676 22.0575 25.9897 21.6296 25.8667 21.1848C25.8499 21.1239 25.8161 21.0691 25.7692 21.0266C25.7223 20.9841 25.6643 20.9558 25.6019 20.945L24.2401 20.7064V18.6789L25.6019 18.4403C25.6643 18.4295 25.7223 18.4012 25.7692 18.3587C25.8161 18.3163 25.8499 18.2614 25.8667 18.2005C25.9897 17.7552 26.1676 17.3268 26.3965 16.9253C26.4278 16.8704 26.4428 16.8078 26.4398 16.7447C26.4368 16.6816 26.416 16.6207 26.3796 16.569L25.5854 15.4398L27.0212 14.0083L28.1542 14.8002C28.2061 14.8364 28.2672 14.8572 28.3305 14.8602C28.3938 14.8631 28.4566 14.8481 28.5116 14.8169C28.9139 14.5888 29.3431 14.4114 29.7892 14.2888C29.8503 14.272 29.9054 14.2383 29.948 14.1916C29.9907 14.1448 30.0191 14.087 30.0301 14.0248L30.2694 12.6673H32.3002L32.5392 14.0248C32.5501 14.087 32.5786 14.1448 32.6212 14.1916C32.6639 14.2383 32.7189 14.272 32.78 14.2888C33.2262 14.4113 33.6554 14.5887 34.0576 14.8169C34.1127 14.8481 34.1756 14.8631 34.2389 14.8601C34.3022 14.8572 34.3634 14.8364 34.4153 14.8002L35.548 14.0083L36.9839 15.4398L36.1896 16.569C36.1533 16.6207 36.1324 16.6816 36.1294 16.7447C36.1265 16.8078 36.1415 16.8704 36.1728 16.9253C36.4018 17.3268 36.5797 17.7551 36.7025 18.2005C36.7193 18.2614 36.7531 18.3163 36.8 18.3587C36.8469 18.4012 36.905 18.4295 36.9674 18.4403L38.3291 18.6789L38.3322 20.7033ZM19.5268 29.1476C20.2072 29.1475 20.8723 28.9463 21.4381 28.5695C22.0038 28.1926 22.4447 27.6569 22.7051 27.0302C22.9654 26.4035 23.0336 25.714 22.9008 25.0487C22.7681 24.3834 22.4405 23.7723 21.9594 23.2926C21.4782 22.813 20.8653 22.4863 20.1979 22.3539C19.5306 22.2215 18.8389 22.2894 18.2102 22.5489C17.5816 22.8084 17.0442 23.2479 16.6661 23.8118C16.288 24.3758 16.0862 25.0388 16.086 25.7171C16.0869 26.6266 16.4497 27.4986 17.0948 28.1417C17.7399 28.7849 18.6145 29.1466 19.5268 29.1476ZM19.5268 22.9552C20.0749 22.9553 20.6106 23.1173 21.0663 23.421C21.522 23.7246 21.8771 24.1561 22.0868 24.6609C22.2965 25.1658 22.3513 25.7212 22.2443 26.2571C22.1373 26.793 21.8732 27.2852 21.4856 27.6715C21.098 28.0578 20.6042 28.3208 20.0666 28.4273C19.529 28.5338 18.9718 28.479 18.4655 28.2698C17.9592 28.0606 17.5265 27.7065 17.2221 27.2521C16.9177 26.7977 16.7552 26.2635 16.7554 25.7171C16.7561 24.9847 17.0484 24.2825 17.568 23.7646C18.0876 23.2468 18.7921 22.9557 19.5268 22.9552ZM19.5268 30.1662C17.2662 30.1687 15.0988 31.065 13.5003 32.6585C11.9017 34.2521 11.0026 36.4127 11 38.6664C11 38.7549 11.0353 38.8397 11.098 38.9023C11.1608 38.9648 11.2459 39 11.3347 39H27.7186C27.7627 39.0002 27.8063 38.9917 27.8471 38.975C27.8878 38.9583 27.9248 38.9337 27.9561 38.9027C27.9873 38.8717 28.012 38.8349 28.0289 38.7943C28.0458 38.7538 28.0545 38.7103 28.0545 38.6664C28.052 36.4125 27.1526 34.2518 25.5539 32.6582C23.9552 31.0646 21.7876 30.1684 19.5268 30.1662ZM11.6765 38.3327C11.763 36.315 12.6279 34.4085 14.0906 33.0113C15.5534 31.614 17.501 30.834 19.5268 30.834C21.5526 30.834 23.5002 31.614 24.9629 33.0113C26.4257 34.4085 27.2906 36.315 27.3771 38.3327H11.6765Z" stroke="#6524EB" stroke-width="0.2" mask="url(#path-2-outside-1_1292_350)"/>
</g>
<defs>
<clipPath id="clip0_1292_350">
<rect width="50" height="50" fill="white"/>
</clipPath>
</defs>
</svg>
