<svg width="75" height="75" viewBox="0 0 75 75" fill="none" xmlns="http://www.w3.org/2000/svg">
<g filter="url(#filter0_d_803_117)">
<circle cx="37.5" cy="37.5" r="32.5" fill="#6524EB"/>
<circle cx="37.5" cy="37.5" r="32.5" stroke="white" stroke-width="2"/>
</g>
<path d="M21.7387 16.376V19.183H25.2807V20.632H21.7387V23.495H26.2327V25H19.8487V14.878H26.2327V16.376H21.7387ZM33.2494 21.178L32.0174 17.811C31.9567 17.6617 31.8937 17.4843 31.8284 17.279C31.7631 17.0737 31.6977 16.852 31.6324 16.614C31.5717 16.852 31.5087 17.076 31.4434 17.286C31.3781 17.4913 31.3151 17.671 31.2544 17.825L30.0294 21.178H33.2494ZM36.5744 25H35.1184C34.9551 25 34.8221 24.9603 34.7194 24.881C34.6167 24.797 34.5397 24.6943 34.4884 24.573L33.7324 22.508H29.5394L28.7834 24.573C28.7461 24.6803 28.6737 24.7783 28.5664 24.867C28.4591 24.9557 28.3261 25 28.1674 25H26.6974L30.6804 14.878H32.5984L36.5744 25ZM40.6811 19.694C41.0358 19.694 41.3438 19.6497 41.6051 19.561C41.8711 19.4723 42.0881 19.351 42.2561 19.197C42.4288 19.0383 42.5571 18.8517 42.6411 18.637C42.7251 18.4223 42.7671 18.1867 42.7671 17.93C42.7671 17.4167 42.5968 17.0223 42.2561 16.747C41.9201 16.4717 41.4045 16.334 40.7091 16.334H39.5051V19.694H40.6811ZM45.5251 25H43.8241C43.5021 25 43.2688 24.874 43.1241 24.622L40.9961 21.381C40.9168 21.2597 40.8281 21.1733 40.7301 21.122C40.6368 21.0707 40.4968 21.045 40.3101 21.045H39.5051V25H37.6221V14.878H40.7091C41.3951 14.878 41.9831 14.9503 42.4731 15.095C42.9678 15.235 43.3715 15.4333 43.6841 15.69C44.0015 15.9467 44.2348 16.2547 44.3841 16.614C44.5335 16.9687 44.6081 17.3607 44.6081 17.79C44.6081 18.1307 44.5568 18.4527 44.4541 18.756C44.3561 19.0593 44.2115 19.3347 44.0201 19.582C43.8335 19.8293 43.6001 20.0463 43.3201 20.233C43.0448 20.4197 42.7298 20.5667 42.3751 20.674C42.4965 20.744 42.6085 20.828 42.7111 20.926C42.8138 21.0193 42.9071 21.1313 42.9911 21.262L45.5251 25ZM55.1512 14.878V25H54.1852C54.0359 25 53.9099 24.9767 53.8072 24.93C53.7092 24.8787 53.6135 24.7947 53.5202 24.678L48.2352 17.93C48.2632 18.238 48.2772 18.5227 48.2772 18.784V25H46.6182V14.878H47.6052C47.6845 14.878 47.7522 14.8827 47.8082 14.892C47.8689 14.8967 47.9202 14.9107 47.9622 14.934C48.0089 14.9527 48.0532 14.983 48.0952 15.025C48.1372 15.0623 48.1839 15.1137 48.2352 15.179L53.5412 21.955C53.5272 21.7917 53.5155 21.6307 53.5062 21.472C53.4969 21.3133 53.4922 21.1663 53.4922 21.031V14.878H55.1512Z" fill="white"/>
<rect x="6.5" y="50.5" width="62" height="14" rx="1.5" fill="#EEE6FF" stroke="#5F33E1"/>
<path d="M11.9376 57.452C12.2416 57.452 12.5056 57.414 12.7296 57.338C12.9576 57.262 13.1436 57.158 13.2876 57.026C13.4356 56.89 13.5456 56.73 13.6176 56.546C13.6896 56.362 13.7256 56.16 13.7256 55.94C13.7256 55.5 13.5796 55.162 13.2876 54.926C12.9996 54.69 12.5576 54.572 11.9616 54.572H10.9296V57.452H11.9376ZM16.0896 62H14.6316C14.3556 62 14.1556 61.892 14.0316 61.676L12.2076 58.898C12.1396 58.794 12.0636 58.72 11.9796 58.676C11.8996 58.632 11.7796 58.61 11.6196 58.61H10.9296V62H9.31561V53.324H11.9616C12.5496 53.324 13.0536 53.386 13.4736 53.51C13.8976 53.63 14.2436 53.8 14.5116 54.02C14.7836 54.24 14.9836 54.504 15.1116 54.812C15.2396 55.116 15.3036 55.452 15.3036 55.82C15.3036 56.112 15.2596 56.388 15.1716 56.648C15.0876 56.908 14.9636 57.144 14.7996 57.356C14.6396 57.568 14.4396 57.754 14.1996 57.914C13.9636 58.074 13.6936 58.2 13.3896 58.292C13.4936 58.352 13.5896 58.424 13.6776 58.508C13.7656 58.588 13.8456 58.684 13.9176 58.796L16.0896 62ZM18.6465 54.608V57.014H21.6825V58.256H18.6465V60.71H22.4985V62H17.0265V53.324H22.4985V54.608H18.6465ZM25.5489 54.608V57.176H28.8009V58.466H25.5489V62H23.9289V53.324H29.4009V54.608H25.5489ZM32.3458 54.608V57.014H35.3818V58.256H32.3458V60.71H36.1978V62H30.7258V53.324H36.1978V54.608H32.3458ZM40.2501 57.452C40.5541 57.452 40.8181 57.414 41.0421 57.338C41.2701 57.262 41.4561 57.158 41.6001 57.026C41.7481 56.89 41.8581 56.73 41.9301 56.546C42.0021 56.362 42.0381 56.16 42.0381 55.94C42.0381 55.5 41.8921 55.162 41.6001 54.926C41.3121 54.69 40.8701 54.572 40.2741 54.572H39.2421V57.452H40.2501ZM44.4021 62H42.9441C42.6681 62 42.4681 61.892 42.3441 61.676L40.5201 58.898C40.4521 58.794 40.3761 58.72 40.2921 58.676C40.2121 58.632 40.0921 58.61 39.9321 58.61H39.2421V62H37.6281V53.324H40.2741C40.8621 53.324 41.3661 53.386 41.7861 53.51C42.2101 53.63 42.5561 53.8 42.8241 54.02C43.0961 54.24 43.2961 54.504 43.4241 54.812C43.5521 55.116 43.6161 55.452 43.6161 55.82C43.6161 56.112 43.5721 56.388 43.4841 56.648C43.4001 56.908 43.2761 57.144 43.1121 57.356C42.9521 57.568 42.7521 57.754 42.5121 57.914C42.2761 58.074 42.0061 58.2 41.7021 58.292C41.8061 58.352 41.9021 58.424 41.9901 58.508C42.0781 58.588 42.1581 58.684 42.2301 58.796L44.4021 62ZM47.961 57.452C48.265 57.452 48.529 57.414 48.753 57.338C48.981 57.262 49.167 57.158 49.311 57.026C49.459 56.89 49.569 56.73 49.641 56.546C49.713 56.362 49.749 56.16 49.749 55.94C49.749 55.5 49.603 55.162 49.311 54.926C49.023 54.69 48.581 54.572 47.985 54.572H46.953V57.452H47.961ZM52.113 62H50.655C50.379 62 50.179 61.892 50.055 61.676L48.231 58.898C48.163 58.794 48.087 58.72 48.003 58.676C47.923 58.632 47.803 58.61 47.643 58.61H46.953V62H45.339V53.324H47.985C48.573 53.324 49.077 53.386 49.497 53.51C49.921 53.63 50.267 53.8 50.535 54.02C50.807 54.24 51.007 54.504 51.135 54.812C51.263 55.116 51.327 55.452 51.327 55.82C51.327 56.112 51.283 56.388 51.195 56.648C51.111 56.908 50.987 57.144 50.823 57.356C50.663 57.568 50.463 57.754 50.223 57.914C49.987 58.074 49.717 58.2 49.413 58.292C49.517 58.352 49.613 58.424 49.701 58.508C49.789 58.588 49.869 58.684 49.941 58.796L52.113 62ZM57.634 58.724L56.578 55.838C56.526 55.71 56.472 55.558 56.416 55.382C56.36 55.206 56.304 55.016 56.248 54.812C56.196 55.016 56.142 55.208 56.086 55.388C56.03 55.564 55.976 55.718 55.924 55.85L54.874 58.724H57.634ZM60.484 62H59.236C59.096 62 58.982 61.966 58.894 61.898C58.806 61.826 58.74 61.738 58.696 61.634L58.048 59.864H54.454L53.806 61.634C53.774 61.726 53.712 61.81 53.62 61.886C53.528 61.962 53.414 62 53.278 62H52.018L55.432 53.324H57.076L60.484 62ZM66.464 60.668V62H61.382V53.324H62.996V60.668H66.464Z" fill="#5F33E1"/>
<defs>
<filter id="filter0_d_803_117" x="0" y="0" width="75" height="75" filterUnits="userSpaceOnUse" color-interpolation-filters="sRGB">
<feFlood flood-opacity="0" result="BackgroundImageFix"/>
<feColorMatrix in="SourceAlpha" type="matrix" values="0 0 0 0 0 0 0 0 0 0 0 0 0 0 0 0 0 0 127 0" result="hardAlpha"/>
<feOffset/>
<feGaussianBlur stdDeviation="2"/>
<feComposite in2="hardAlpha" operator="out"/>
<feColorMatrix type="matrix" values="0 0 0 0 0.396078 0 0 0 0 0.141176 0 0 0 0 0.921569 0 0 0 0.89 0"/>
<feBlend mode="normal" in2="BackgroundImageFix" result="effect1_dropShadow_803_117"/>
<feBlend mode="normal" in="SourceGraphic" in2="effect1_dropShadow_803_117" result="shape"/>
</filter>
</defs>
</svg>
