<svg width="75" height="75" viewBox="0 0 75 75" fill="none" xmlns="http://www.w3.org/2000/svg">
<g filter="url(#filter0_d_686_15334)">
<circle cx="37.5" cy="37.5" r="32.5" fill="#6524EB"/>
<circle cx="37.5" cy="37.5" r="32.5" stroke="white" stroke-width="2"/>
</g>
<path d="M28.1796 44.595V47H17.7796V44.595H21.5886V33.636C21.5886 33.2027 21.6016 32.7563 21.6276 32.297L18.9236 34.559C18.7676 34.6803 18.6116 34.7583 18.4556 34.793C18.3083 34.819 18.1653 34.819 18.0266 34.793C17.8966 34.767 17.7796 34.7237 17.6756 34.663C17.5716 34.5937 17.4936 34.52 17.4416 34.442L16.4276 33.051L22.1606 28.176H24.7996V44.595H28.1796ZM44.2366 37.601C44.2366 39.239 44.059 40.6647 43.7036 41.878C43.357 43.0827 42.8716 44.0793 42.2476 44.868C41.6323 45.6567 40.9 46.246 40.0506 46.636C39.21 47.0173 38.3 47.208 37.3206 47.208C36.3413 47.208 35.4313 47.0173 34.5906 46.636C33.7586 46.246 33.035 45.6567 32.4196 44.868C31.8043 44.0793 31.3233 43.0827 30.9766 41.878C30.63 40.6647 30.4566 39.239 30.4566 37.601C30.4566 35.9543 30.63 34.5287 30.9766 33.324C31.3233 32.1193 31.8043 31.1227 32.4196 30.334C33.035 29.5453 33.7586 28.9603 34.5906 28.579C35.4313 28.189 36.3413 27.994 37.3206 27.994C38.3 27.994 39.21 28.189 40.0506 28.579C40.9 28.9603 41.6323 29.5453 42.2476 30.334C42.8716 31.1227 43.357 32.1193 43.7036 33.324C44.059 34.5287 44.2366 35.9543 44.2366 37.601ZM40.9216 37.601C40.9216 36.2403 40.822 35.1137 40.6226 34.221C40.4233 33.3283 40.1546 32.6177 39.8166 32.089C39.4873 31.5603 39.106 31.192 38.6726 30.984C38.2393 30.7673 37.7886 30.659 37.3206 30.659C36.8613 30.659 36.415 30.7673 35.9816 30.984C35.557 31.192 35.18 31.5603 34.8506 32.089C34.5213 32.6177 34.257 33.3283 34.0576 34.221C33.867 35.1137 33.7716 36.2403 33.7716 37.601C33.7716 38.9617 33.867 40.0883 34.0576 40.981C34.257 41.8737 34.5213 42.5843 34.8506 43.113C35.18 43.6417 35.557 44.0143 35.9816 44.231C36.415 44.439 36.8613 44.543 37.3206 44.543C37.7886 44.543 38.2393 44.439 38.6726 44.231C39.106 44.0143 39.4873 43.6417 39.8166 43.113C40.1546 42.5843 40.4233 41.8737 40.6226 40.981C40.822 40.0883 40.9216 38.9617 40.9216 37.601ZM52.3387 36.04C52.3387 36.5867 52.2453 37.08 52.0587 37.52C51.8787 37.96 51.6353 38.3367 51.3287 38.65C51.022 38.9567 50.6653 39.1933 50.2587 39.36C49.852 39.5267 49.4287 39.61 48.9887 39.61C48.5087 39.61 48.0653 39.5267 47.6587 39.36C47.252 39.1933 46.8987 38.9567 46.5987 38.65C46.3053 38.3367 46.0753 37.96 45.9087 37.52C45.742 37.08 45.6587 36.5867 45.6587 36.04C45.6587 35.48 45.742 34.9733 45.9087 34.52C46.0753 34.0667 46.3053 33.6833 46.5987 33.37C46.8987 33.0567 47.252 32.8167 47.6587 32.65C48.0653 32.4767 48.5087 32.39 48.9887 32.39C49.4687 32.39 49.912 32.4767 50.3187 32.65C50.732 32.8167 51.0887 33.0567 51.3887 33.37C51.6887 33.6833 51.922 34.0667 52.0887 34.52C52.2553 34.9733 52.3387 35.48 52.3387 36.04ZM50.4387 36.04C50.4387 35.6533 50.3987 35.33 50.3187 35.07C50.2453 34.81 50.142 34.6 50.0087 34.44C49.882 34.28 49.7287 34.1667 49.5487 34.1C49.3753 34.0267 49.1887 33.99 48.9887 33.99C48.7887 33.99 48.602 34.0267 48.4287 34.1C48.2553 34.1667 48.1053 34.28 47.9787 34.44C47.8587 34.6 47.762 34.81 47.6887 35.07C47.6153 35.33 47.5787 35.6533 47.5787 36.04C47.5787 36.4133 47.6153 36.7267 47.6887 36.98C47.762 37.2267 47.8587 37.4267 47.9787 37.58C48.1053 37.7333 48.2553 37.8433 48.4287 37.91C48.602 37.9767 48.7887 38.01 48.9887 38.01C49.1887 38.01 49.3753 37.9767 49.5487 37.91C49.7287 37.8433 49.882 37.7333 50.0087 37.58C50.142 37.4267 50.2453 37.2267 50.3187 36.98C50.3987 36.7267 50.4387 36.4133 50.4387 36.04ZM57.1487 32.93C57.2353 32.83 57.3353 32.74 57.4487 32.66C57.5687 32.58 57.7353 32.54 57.9487 32.54H59.7487L49.0087 46.63C48.922 46.7367 48.8187 46.8267 48.6987 46.9C48.5787 46.9667 48.432 47 48.2587 47H46.4187L57.1487 32.93ZM60.5087 43.6C60.5087 44.1467 60.4153 44.64 60.2287 45.08C60.0487 45.52 59.8053 45.8967 59.4987 46.21C59.192 46.5167 58.8353 46.7567 58.4287 46.93C58.022 47.0967 57.5987 47.18 57.1587 47.18C56.6787 47.18 56.2353 47.0967 55.8287 46.93C55.422 46.7567 55.0687 46.5167 54.7687 46.21C54.4753 45.8967 54.2453 45.52 54.0787 45.08C53.912 44.64 53.8287 44.1467 53.8287 43.6C53.8287 43.04 53.912 42.5333 54.0787 42.08C54.2453 41.6267 54.4753 41.2433 54.7687 40.93C55.0687 40.6167 55.422 40.3767 55.8287 40.21C56.2353 40.0367 56.6787 39.95 57.1587 39.95C57.6387 39.95 58.082 40.0367 58.4887 40.21C58.902 40.3767 59.2553 40.6167 59.5487 40.93C59.8487 41.2433 60.082 41.6267 60.2487 42.08C60.422 42.5333 60.5087 43.04 60.5087 43.6ZM58.5987 43.6C58.5987 43.2133 58.562 42.89 58.4887 42.63C58.4153 42.37 58.312 42.16 58.1787 42C58.052 41.84 57.8987 41.7267 57.7187 41.66C57.5453 41.5867 57.3587 41.55 57.1587 41.55C56.9587 41.55 56.772 41.5867 56.5987 41.66C56.4253 41.7267 56.2753 41.84 56.1487 42C56.022 42.16 55.922 42.37 55.8487 42.63C55.782 42.89 55.7487 43.2133 55.7487 43.6C55.7487 43.9733 55.782 44.2867 55.8487 44.54C55.922 44.7933 56.022 44.9967 56.1487 45.15C56.2753 45.3033 56.4253 45.4133 56.5987 45.48C56.772 45.5467 56.9587 45.58 57.1587 45.58C57.3587 45.58 57.5453 45.5467 57.7187 45.48C57.8987 45.4133 58.052 45.3033 58.1787 45.15C58.312 44.9967 58.4153 44.7933 58.4887 44.54C58.562 44.2867 58.5987 43.9733 58.5987 43.6Z" fill="white"/>
<path d="M21.7387 16.376V19.183H25.2807V20.632H21.7387V23.495H26.2327V25H19.8487V14.878H26.2327V16.376H21.7387ZM33.2494 21.178L32.0174 17.811C31.9567 17.6617 31.8937 17.4843 31.8284 17.279C31.7631 17.0737 31.6977 16.852 31.6324 16.614C31.5717 16.852 31.5087 17.076 31.4434 17.286C31.3781 17.4913 31.3151 17.671 31.2544 17.825L30.0294 21.178H33.2494ZM36.5744 25H35.1184C34.9551 25 34.8221 24.9603 34.7194 24.881C34.6167 24.797 34.5397 24.6943 34.4884 24.573L33.7324 22.508H29.5394L28.7834 24.573C28.7461 24.6803 28.6737 24.7783 28.5664 24.867C28.4591 24.9557 28.3261 25 28.1674 25H26.6974L30.6804 14.878H32.5984L36.5744 25ZM40.6811 19.694C41.0358 19.694 41.3438 19.6497 41.6051 19.561C41.8711 19.4723 42.0881 19.351 42.2561 19.197C42.4288 19.0383 42.5571 18.8517 42.6411 18.637C42.7251 18.4223 42.7671 18.1867 42.7671 17.93C42.7671 17.4167 42.5968 17.0223 42.2561 16.747C41.9201 16.4717 41.4045 16.334 40.7091 16.334H39.5051V19.694H40.6811ZM45.5251 25H43.8241C43.5021 25 43.2688 24.874 43.1241 24.622L40.9961 21.381C40.9168 21.2597 40.8281 21.1733 40.7301 21.122C40.6368 21.0707 40.4968 21.045 40.3101 21.045H39.5051V25H37.6221V14.878H40.7091C41.3951 14.878 41.9831 14.9503 42.4731 15.095C42.9678 15.235 43.3715 15.4333 43.6841 15.69C44.0015 15.9467 44.2348 16.2547 44.3841 16.614C44.5335 16.9687 44.6081 17.3607 44.6081 17.79C44.6081 18.1307 44.5568 18.4527 44.4541 18.756C44.3561 19.0593 44.2115 19.3347 44.0201 19.582C43.8335 19.8293 43.6001 20.0463 43.3201 20.233C43.0448 20.4197 42.7298 20.5667 42.3751 20.674C42.4965 20.744 42.6085 20.828 42.7111 20.926C42.8138 21.0193 42.9071 21.1313 42.9911 21.262L45.5251 25ZM55.1512 14.878V25H54.1852C54.0359 25 53.9099 24.9767 53.8072 24.93C53.7092 24.8787 53.6135 24.7947 53.5202 24.678L48.2352 17.93C48.2632 18.238 48.2772 18.5227 48.2772 18.784V25H46.6182V14.878H47.6052C47.6845 14.878 47.7522 14.8827 47.8082 14.892C47.8689 14.8967 47.9202 14.9107 47.9622 14.934C48.0089 14.9527 48.0532 14.983 48.0952 15.025C48.1372 15.0623 48.1839 15.1137 48.2352 15.179L53.5412 21.955C53.5272 21.7917 53.5155 21.6307 53.5062 21.472C53.4969 21.3133 53.4922 21.1663 53.4922 21.031V14.878H55.1512Z" fill="white"/>
<rect x="6.5" y="50.5" width="62" height="14" rx="1.5" fill="#EEE6FF" stroke="#5F33E1"/>
<path d="M11.9376 57.452C12.2416 57.452 12.5056 57.414 12.7296 57.338C12.9576 57.262 13.1436 57.158 13.2876 57.026C13.4356 56.89 13.5456 56.73 13.6176 56.546C13.6896 56.362 13.7256 56.16 13.7256 55.94C13.7256 55.5 13.5796 55.162 13.2876 54.926C12.9996 54.69 12.5576 54.572 11.9616 54.572H10.9296V57.452H11.9376ZM16.0896 62H14.6316C14.3556 62 14.1556 61.892 14.0316 61.676L12.2076 58.898C12.1396 58.794 12.0636 58.72 11.9796 58.676C11.8996 58.632 11.7796 58.61 11.6196 58.61H10.9296V62H9.31561V53.324H11.9616C12.5496 53.324 13.0536 53.386 13.4736 53.51C13.8976 53.63 14.2436 53.8 14.5116 54.02C14.7836 54.24 14.9836 54.504 15.1116 54.812C15.2396 55.116 15.3036 55.452 15.3036 55.82C15.3036 56.112 15.2596 56.388 15.1716 56.648C15.0876 56.908 14.9636 57.144 14.7996 57.356C14.6396 57.568 14.4396 57.754 14.1996 57.914C13.9636 58.074 13.6936 58.2 13.3896 58.292C13.4936 58.352 13.5896 58.424 13.6776 58.508C13.7656 58.588 13.8456 58.684 13.9176 58.796L16.0896 62ZM18.6465 54.608V57.014H21.6825V58.256H18.6465V60.71H22.4985V62H17.0265V53.324H22.4985V54.608H18.6465ZM25.5489 54.608V57.176H28.8009V58.466H25.5489V62H23.9289V53.324H29.4009V54.608H25.5489ZM32.3458 54.608V57.014H35.3818V58.256H32.3458V60.71H36.1978V62H30.7258V53.324H36.1978V54.608H32.3458ZM40.2501 57.452C40.5541 57.452 40.8181 57.414 41.0421 57.338C41.2701 57.262 41.4561 57.158 41.6001 57.026C41.7481 56.89 41.8581 56.73 41.9301 56.546C42.0021 56.362 42.0381 56.16 42.0381 55.94C42.0381 55.5 41.8921 55.162 41.6001 54.926C41.3121 54.69 40.8701 54.572 40.2741 54.572H39.2421V57.452H40.2501ZM44.4021 62H42.9441C42.6681 62 42.4681 61.892 42.3441 61.676L40.5201 58.898C40.4521 58.794 40.3761 58.72 40.2921 58.676C40.2121 58.632 40.0921 58.61 39.9321 58.61H39.2421V62H37.6281V53.324H40.2741C40.8621 53.324 41.3661 53.386 41.7861 53.51C42.2101 53.63 42.5561 53.8 42.8241 54.02C43.0961 54.24 43.2961 54.504 43.4241 54.812C43.5521 55.116 43.6161 55.452 43.6161 55.82C43.6161 56.112 43.5721 56.388 43.4841 56.648C43.4001 56.908 43.2761 57.144 43.1121 57.356C42.9521 57.568 42.7521 57.754 42.5121 57.914C42.2761 58.074 42.0061 58.2 41.7021 58.292C41.8061 58.352 41.9021 58.424 41.9901 58.508C42.0781 58.588 42.1581 58.684 42.2301 58.796L44.4021 62ZM47.961 57.452C48.265 57.452 48.529 57.414 48.753 57.338C48.981 57.262 49.167 57.158 49.311 57.026C49.459 56.89 49.569 56.73 49.641 56.546C49.713 56.362 49.749 56.16 49.749 55.94C49.749 55.5 49.603 55.162 49.311 54.926C49.023 54.69 48.581 54.572 47.985 54.572H46.953V57.452H47.961ZM52.113 62H50.655C50.379 62 50.179 61.892 50.055 61.676L48.231 58.898C48.163 58.794 48.087 58.72 48.003 58.676C47.923 58.632 47.803 58.61 47.643 58.61H46.953V62H45.339V53.324H47.985C48.573 53.324 49.077 53.386 49.497 53.51C49.921 53.63 50.267 53.8 50.535 54.02C50.807 54.24 51.007 54.504 51.135 54.812C51.263 55.116 51.327 55.452 51.327 55.82C51.327 56.112 51.283 56.388 51.195 56.648C51.111 56.908 50.987 57.144 50.823 57.356C50.663 57.568 50.463 57.754 50.223 57.914C49.987 58.074 49.717 58.2 49.413 58.292C49.517 58.352 49.613 58.424 49.701 58.508C49.789 58.588 49.869 58.684 49.941 58.796L52.113 62ZM57.634 58.724L56.578 55.838C56.526 55.71 56.472 55.558 56.416 55.382C56.36 55.206 56.304 55.016 56.248 54.812C56.196 55.016 56.142 55.208 56.086 55.388C56.03 55.564 55.976 55.718 55.924 55.85L54.874 58.724H57.634ZM60.484 62H59.236C59.096 62 58.982 61.966 58.894 61.898C58.806 61.826 58.74 61.738 58.696 61.634L58.048 59.864H54.454L53.806 61.634C53.774 61.726 53.712 61.81 53.62 61.886C53.528 61.962 53.414 62 53.278 62H52.018L55.432 53.324H57.076L60.484 62ZM66.464 60.668V62H61.382V53.324H62.996V60.668H66.464Z" fill="#5F33E1"/>
<defs>
<filter id="filter0_d_686_15334" x="0" y="0" width="75" height="75" filterUnits="userSpaceOnUse" color-interpolation-filters="sRGB">
<feFlood flood-opacity="0" result="BackgroundImageFix"/>
<feColorMatrix in="SourceAlpha" type="matrix" values="0 0 0 0 0 0 0 0 0 0 0 0 0 0 0 0 0 0 127 0" result="hardAlpha"/>
<feOffset/>
<feGaussianBlur stdDeviation="2"/>
<feComposite in2="hardAlpha" operator="out"/>
<feColorMatrix type="matrix" values="0 0 0 0 0.396078 0 0 0 0 0.141176 0 0 0 0 0.921569 0 0 0 0.89 0"/>
<feBlend mode="normal" in2="BackgroundImageFix" result="effect1_dropShadow_686_15334"/>
<feBlend mode="normal" in="SourceGraphic" in2="effect1_dropShadow_686_15334" result="shape"/>
</filter>
</defs>
</svg>
