<svg width="73" height="73" viewBox="0 0 73 73" fill="none" xmlns="http://www.w3.org/2000/svg">
<g filter="url(#filter0_d_654_151)">
<path d="M69 36.5C69 54.4493 54.4493 69 36.5 69C18.5507 69 4 54.4493 4 36.5C4 18.5507 18.5507 4 36.5 4C54.4493 4 69 18.5507 69 36.5Z" fill="#6524EB"/>
</g>
<g filter="url(#filter1_d_654_151)">
<path d="M68.5 36.5C68.5 18.8269 54.1731 4.5 36.5 4.5C18.8269 4.5 4.5 18.8269 4.5 36.5C4.5 54.1731 18.8269 68.5 36.5 68.5V69C18.5507 69 4 54.4493 4 36.5C4 18.5507 18.5507 4 36.5 4C54.4493 4 69 18.5507 69 36.5C69 54.4493 54.4493 69 36.5 69V68.5C54.1731 68.5 68.5 54.1731 68.5 36.5Z" fill="white"/>
</g>
<path d="M52.3486 40.4764C52.3486 40.8824 52.2926 41.2417 52.1806 41.5544C52.0686 41.8624 51.9169 42.119 51.7256 42.3244C51.5343 42.5297 51.3126 42.686 51.0606 42.7934C50.8086 42.896 50.5426 42.9474 50.2626 42.9474C49.9733 42.9474 49.7003 42.896 49.4436 42.7934C49.1916 42.686 48.9723 42.5297 48.7856 42.3244C48.5989 42.119 48.4519 41.8624 48.3446 41.5544C48.2373 41.2417 48.1836 40.8824 48.1836 40.4764C48.1836 40.0657 48.2373 39.704 48.3446 39.3914C48.4519 39.0787 48.5989 38.8197 48.7856 38.6144C48.9723 38.4044 49.1916 38.248 49.4436 38.1454C49.7003 38.038 49.9733 37.9844 50.2626 37.9844C50.5519 37.9844 50.8226 38.038 51.0746 38.1454C51.3266 38.248 51.5459 38.4044 51.7326 38.6144C51.9239 38.8197 52.0733 39.0787 52.1806 39.3914C52.2926 39.704 52.3486 40.0657 52.3486 40.4764ZM51.8166 40.4764C51.8166 40.117 51.7746 39.809 51.6906 39.5524C51.6113 39.2957 51.4993 39.0857 51.3546 38.9224C51.2146 38.7544 51.0489 38.633 50.8576 38.5584C50.6709 38.479 50.4726 38.4394 50.2626 38.4394C50.0526 38.4394 49.8543 38.479 49.6676 38.5584C49.4809 38.633 49.3176 38.7544 49.1776 38.9224C49.0376 39.0857 48.9256 39.2957 48.8416 39.5524C48.7623 39.809 48.7226 40.117 48.7226 40.4764C48.7226 40.8357 48.7623 41.1437 48.8416 41.4004C48.9256 41.6524 49.0376 41.86 49.1776 42.0234C49.3176 42.1867 49.4809 42.308 49.6676 42.3874C49.8543 42.462 50.0526 42.4994 50.2626 42.4994C50.4726 42.4994 50.6709 42.462 50.8576 42.3874C51.0489 42.308 51.2146 42.1867 51.3546 42.0234C51.4993 41.86 51.6113 41.6524 51.6906 41.4004C51.7746 41.1437 51.8166 40.8357 51.8166 40.4764ZM56.1076 38.2224C56.1356 38.185 56.1683 38.1547 56.2056 38.1314C56.2476 38.108 56.3013 38.0964 56.3666 38.0964H56.8356L49.7236 47.8754C49.6629 47.9594 49.5813 48.0014 49.4786 48.0014H49.0026L56.1076 38.2224ZM57.6966 45.6494C57.6966 46.0554 57.6406 46.4147 57.5286 46.7274C57.4166 47.0354 57.2649 47.292 57.0736 47.4974C56.8869 47.7027 56.6676 47.859 56.4156 47.9664C56.1636 48.069 55.8976 48.1204 55.6176 48.1204C55.3283 48.1204 55.0553 48.069 54.7986 47.9664C54.5466 47.859 54.3273 47.7027 54.1406 47.4974C53.9539 47.292 53.8069 47.0354 53.6996 46.7274C53.5923 46.4147 53.5386 46.0554 53.5386 45.6494C53.5386 45.2387 53.5923 44.877 53.6996 44.5644C53.8069 44.2517 53.9539 43.9927 54.1406 43.7874C54.3273 43.5774 54.5466 43.421 54.7986 43.3184C55.0553 43.211 55.3283 43.1574 55.6176 43.1574C55.9069 43.1574 56.1776 43.211 56.4296 43.3184C56.6816 43.421 56.9009 43.5774 57.0876 43.7874C57.2789 43.9927 57.4283 44.2517 57.5356 44.5644C57.6429 44.877 57.6966 45.2387 57.6966 45.6494ZM57.1646 45.6494C57.1646 45.29 57.1226 44.982 57.0386 44.7254C56.9593 44.464 56.8496 44.2517 56.7096 44.0884C56.5696 43.9204 56.4039 43.799 56.2126 43.7244C56.0259 43.645 55.8276 43.6054 55.6176 43.6054C55.4076 43.6054 55.2069 43.645 55.0156 43.7244C54.8289 43.799 54.6656 43.9204 54.5256 44.0884C54.3856 44.2517 54.2736 44.464 54.1896 44.7254C54.1103 44.982 54.0706 45.29 54.0706 45.6494C54.0706 46.0087 54.1103 46.3167 54.1896 46.5734C54.2736 46.8254 54.3856 47.033 54.5256 47.1964C54.6656 47.3597 54.8289 47.4787 55.0156 47.5534C55.2069 47.628 55.4076 47.6654 55.6176 47.6654C55.8276 47.6654 56.0259 47.628 56.2126 47.5534C56.4039 47.4787 56.5696 47.3597 56.7096 47.1964C56.8496 47.033 56.9593 46.8254 57.0386 46.5734C57.1226 46.3167 57.1646 46.0087 57.1646 45.6494Z" fill="white"/>
<path d="M46.8511 37.8349C46.8511 39.6083 46.6598 41.1483 46.2771 42.4549C45.8944 43.7616 45.3671 44.8443 44.6951 45.7029C44.0231 46.5523 43.2251 47.1869 42.3011 47.6069C41.3864 48.0176 40.3971 48.2229 39.3331 48.2229C38.2691 48.2229 37.2798 48.0176 36.3651 47.6069C35.4504 47.1869 34.6618 46.5523 33.9991 45.7029C33.3364 44.8443 32.8138 43.7616 32.4311 42.4549C32.0578 41.1483 31.8711 39.6083 31.8711 37.8349C31.8711 36.0616 32.0578 34.5263 32.4311 33.2289C32.8138 31.9223 33.3364 30.8443 33.9991 29.9949C34.6618 29.1363 35.4504 28.5016 36.3651 28.0909C37.2798 27.6709 38.2691 27.4609 39.3331 27.4609C40.3971 27.4609 41.3864 27.6709 42.3011 28.0909C43.2251 28.5016 44.0231 29.1363 44.6951 29.9949C45.3671 30.8443 45.8944 31.9223 46.2771 33.2289C46.6598 34.5263 46.8511 36.0616 46.8511 37.8349ZM42.8611 37.8349C42.8611 36.3976 42.7584 35.2123 42.5531 34.2789C42.3571 33.3456 42.0958 32.6083 41.7691 32.0669C41.4424 31.5256 41.0644 31.1476 40.6351 30.9329C40.2151 30.7183 39.7811 30.6109 39.3331 30.6109C38.8851 30.6109 38.4511 30.7183 38.0311 30.9329C37.6204 31.1476 37.2518 31.5256 36.9251 32.0669C36.6078 32.6083 36.3511 33.3456 36.1551 34.2789C35.9591 35.2123 35.8611 36.3976 35.8611 37.8349C35.8611 39.2816 35.9591 40.4716 36.1551 41.4049C36.3511 42.3383 36.6078 43.0756 36.9251 43.6169C37.2518 44.1583 37.6204 44.5363 38.0311 44.7509C38.4511 44.9656 38.8851 45.0729 39.3331 45.0729C39.7811 45.0729 40.2151 44.9656 40.6351 44.7509C41.0644 44.5363 41.4424 44.1583 41.7691 43.6169C42.0958 43.0756 42.3571 42.3383 42.5531 41.4049C42.7584 40.4716 42.8611 39.2816 42.8611 37.8349Z" fill="white"/>
<path d="M29.5883 45.1579V47.9999H18.1923V45.1579H22.2243V34.0419C22.2243 33.7992 22.229 33.5519 22.2383 33.2999C22.2477 33.0479 22.2617 32.7912 22.2803 32.5299L19.6203 34.7419C19.4337 34.8819 19.2517 34.9705 19.0743 35.0079C18.897 35.0452 18.729 35.0499 18.5703 35.0219C18.4117 34.9845 18.2717 34.9285 18.1503 34.8539C18.029 34.7699 17.9357 34.6859 17.8703 34.6019L16.6523 32.9639L22.8963 27.6719H26.0743V45.1579H29.5883Z" fill="white"/>
<path d="M44.7443 17.2188V25.0013H44.4803C44.4326 25.0013 44.3923 24.9939 44.3593 24.9792C44.3299 24.9609 44.3006 24.9316 44.2713 24.8913L39.2168 18.1373C39.2278 18.2473 39.2333 18.3518 39.2333 18.4508V25.0013H38.7383V17.2188H39.0188C39.0701 17.2188 39.1086 17.2261 39.1343 17.2408C39.1636 17.2518 39.1948 17.2792 39.2278 17.3233L44.2713 24.0608C44.2603 23.9508 44.2548 23.8463 44.2548 23.7473V17.2188H44.7443Z" fill="white"/>
<path d="M33.5312 21.0633C33.8759 21.0633 34.1839 21.0229 34.4552 20.9423C34.7302 20.8579 34.9612 20.7388 35.1482 20.5848C35.3389 20.4308 35.4837 20.2456 35.5827 20.0293C35.6817 19.8129 35.7312 19.5691 35.7312 19.2978C35.7312 18.7441 35.5497 18.3334 35.1867 18.0658C34.8274 17.7981 34.3012 17.6642 33.6082 17.6642H32.1837V21.0633H33.5312ZM36.9852 25.0013H36.5012C36.4389 25.0013 36.3857 24.9921 36.3417 24.9738C36.3014 24.9518 36.2629 24.9133 36.2262 24.8583L33.7292 21.7013C33.6999 21.6609 33.6687 21.6261 33.6357 21.5968C33.6064 21.5674 33.5715 21.5454 33.5312 21.5308C33.4945 21.5124 33.4487 21.4996 33.3937 21.4923C33.3424 21.4849 33.2782 21.4812 33.2012 21.4812H32.1837V25.0013H31.6172V17.2188H33.6082C34.5029 17.2188 35.172 17.3929 35.6157 17.7413C36.063 18.0859 36.2867 18.5937 36.2867 19.2647C36.2867 19.5617 36.2354 19.8331 36.1327 20.0788C36.03 20.3244 35.8815 20.5408 35.6872 20.7278C35.4965 20.9111 35.2637 21.0614 34.9887 21.1788C34.7174 21.2961 34.4112 21.3749 34.0702 21.4153C34.1582 21.4703 34.237 21.5436 34.3067 21.6353L36.9852 25.0013Z" fill="white"/>
<path d="M28.1639 22.1743L26.5799 18.2418C26.5249 18.1134 26.4718 17.9594 26.4204 17.7798C26.3984 17.8678 26.3746 17.9521 26.3489 18.0327C26.3233 18.1097 26.2958 18.1813 26.2664 18.2473L24.6824 22.1743H28.1639ZM29.8854 25.0013H29.4509C29.3996 25.0013 29.3574 24.9884 29.3244 24.9628C29.2914 24.9334 29.2658 24.8967 29.2474 24.8527L28.3344 22.5922H24.5119L23.5989 24.8527C23.5843 24.8931 23.5586 24.9279 23.5219 24.9573C23.4853 24.9866 23.4413 25.0013 23.3899 25.0013H22.9609L26.1454 17.2188H26.7009L29.8854 25.0013Z" fill="white"/>
<path d="M21.8234 24.5338L21.8124 25.0013H17.1484V17.2188H21.8124V17.6863H17.7149V20.8323H21.1249V21.2888H17.7149V24.5338H21.8234Z" fill="white"/>
<defs>
<filter id="filter0_d_654_151" x="0" y="0" width="73" height="73" filterUnits="userSpaceOnUse" color-interpolation-filters="sRGB">
<feFlood flood-opacity="0" result="BackgroundImageFix"/>
<feColorMatrix in="SourceAlpha" type="matrix" values="0 0 0 0 0 0 0 0 0 0 0 0 0 0 0 0 0 0 127 0" result="hardAlpha"/>
<feOffset/>
<feGaussianBlur stdDeviation="2"/>
<feComposite in2="hardAlpha" operator="out"/>
<feColorMatrix type="matrix" values="0 0 0 0 0.396078 0 0 0 0 0.141176 0 0 0 0 0.921569 0 0 0 0.89 0"/>
<feBlend mode="normal" in2="BackgroundImageFix" result="effect1_dropShadow_654_151"/>
<feBlend mode="normal" in="SourceGraphic" in2="effect1_dropShadow_654_151" result="shape"/>
</filter>
<filter id="filter1_d_654_151" x="0" y="0" width="73" height="73" filterUnits="userSpaceOnUse" color-interpolation-filters="sRGB">
<feFlood flood-opacity="0" result="BackgroundImageFix"/>
<feColorMatrix in="SourceAlpha" type="matrix" values="0 0 0 0 0 0 0 0 0 0 0 0 0 0 0 0 0 0 127 0" result="hardAlpha"/>
<feOffset/>
<feGaussianBlur stdDeviation="2"/>
<feComposite in2="hardAlpha" operator="out"/>
<feColorMatrix type="matrix" values="0 0 0 0 0.396078 0 0 0 0 0.141176 0 0 0 0 0.921569 0 0 0 0.89 0"/>
<feBlend mode="normal" in2="BackgroundImageFix" result="effect1_dropShadow_654_151"/>
<feBlend mode="normal" in="SourceGraphic" in2="effect1_dropShadow_654_151" result="shape"/>
</filter>
</defs>
</svg>
