<svg width="50" height="50" viewBox="0 0 50 50" fill="none" xmlns="http://www.w3.org/2000/svg">
<circle cx="25" cy="25" r="25" fill="#EBE2FF"/>
<path d="M40.4667 35.9165H39.24V32.8284C39.24 32.5034 39.0267 32.2867 38.7067 32.2867H31.0267C30.7067 32.2867 30.4933 32.5034 30.4933 32.8284V35.9165H28.4667V30.228C28.4667 27.7901 26.4933 25.7856 24.0933 25.7856H15.1333C12.7333 25.7856 10.76 27.7901 10.76 30.228V35.9165H9.53333C9.21333 35.9165 9 36.1332 9 36.4582C9 36.7833 9.21333 37 9.53333 37H10.76H28.4667H31.0267H38.6533H40.4667C40.7867 37 41 36.7833 41 36.4582C41 36.1332 40.7867 35.9165 40.4667 35.9165ZM27.4533 35.9165H11.8267V30.228C11.8267 28.386 13.32 26.8691 15.1333 26.8691H24.0933C25.9067 26.8691 27.4 28.386 27.4 30.228V35.9165H27.4533ZM38.1733 35.9165H31.56V33.3702H38.12V35.9165H38.1733ZM19.6133 25.1354C22.92 25.1354 25.5867 22.4266 25.5867 19.0677C25.5867 15.7088 22.92 13 19.6133 13C16.3067 13 13.64 15.7088 13.64 19.0677C13.64 22.4266 16.36 25.1354 19.6133 25.1354ZM19.6133 14.1377C22.28 14.1377 24.52 16.3589 24.52 19.1219C24.52 21.8307 22.3333 24.1061 19.6133 24.1061C16.9467 24.1061 14.7067 21.8849 14.7067 19.1219C14.76 16.3589 16.9467 14.1377 19.6133 14.1377Z" fill="#6524EB"/>
</svg>
