<svg width="18" height="18" viewBox="0 0 18 18" fill="none" xmlns="http://www.w3.org/2000/svg">
<path d="M16.9908 3.88985H15.2805C15.5916 3.36035 15.3811 1.90049 15.0978 1.08852C14.1697 -1.52363 10.5121 1.31667 9.87843 1.85439C9.60487 1.64435 8.92946 1.74398 8.60494 1.72172C8.43427 1.72245 8.26714 1.76828 8.12198 1.85415C7.49393 1.3203 3.83136 -1.52282 2.90366 1.0854C2.62034 1.89782 2.40775 3.35956 2.72017 3.88985H1.00922C0.741644 3.89013 0.485116 3.99195 0.295915 4.17298C0.106714 4.35401 0.000292065 4.59946 0 4.85548V8.25893C5.35263e-06 8.34429 0.0354496 8.42616 0.0985366 8.48652C0.161624 8.54688 0.247187 8.5808 0.336405 8.5808H0.995759V17.0343C0.996051 17.2903 1.10247 17.5358 1.29167 17.7168C1.48088 17.8978 1.7374 17.9997 2.00497 17.9999C3.79703 18.0001 15.995 17.9999 15.995 17.9999C16.2626 17.9997 16.5191 17.8978 16.7083 17.7168C16.8975 17.5358 17.0039 17.2903 17.0042 17.0343V8.5808H17.6636C17.7528 8.5808 17.8384 8.54688 17.9015 8.48652C17.9646 8.42616 18 8.34429 18 8.25893V4.85548C17.9997 4.59947 17.8933 4.35401 17.7041 4.17298C17.5149 3.99195 17.2583 3.89013 16.9908 3.88985ZM10.7645 3.88985C11.6315 3.12698 13.7243 2.68402 14.7381 2.54654C14.807 3.09624 14.7978 3.77789 14.3653 3.88985H10.7645ZM10.4281 7.93705C10.4031 7.93453 7.59649 7.93887 7.57191 7.93705V4.53361C7.57191 4.53361 10.1555 4.53409 10.4281 4.53361L10.4281 7.93705ZM13.3064 0.65505C14.2072 0.439485 14.5072 1.21999 14.6208 1.91354C13.7514 2.0346 11.5652 2.42264 10.331 3.37804C10.3504 3.04049 10.3364 2.70194 10.2891 2.36692C11.1666 1.61092 12.1922 1.02906 13.3064 0.65505ZM8.60495 2.3655H9.39504C9.46483 2.36561 9.53172 2.39219 9.58105 2.43942C9.63038 2.48665 9.65812 2.55067 9.65819 2.61744V3.88986H8.34181V2.61744C8.34187 2.55067 8.36961 2.48665 8.41894 2.43941C8.46827 2.39218 8.53516 2.36561 8.60495 2.3655ZM3.54984 1.26423C3.61762 1.03849 3.77612 0.847639 3.99064 0.733466C4.20516 0.619294 4.45822 0.591101 4.69441 0.655059C5.80833 1.02907 6.83365 1.61076 7.71103 2.36648C7.66629 2.70167 7.65222 3.03996 7.66901 3.3775C6.43464 2.42252 4.24906 2.03459 3.37977 1.91353C3.42792 1.70011 3.48264 1.48255 3.54984 1.26423ZM3.26255 2.54639C4.31509 2.68904 6.26261 3.10308 7.26089 3.88985H3.63515C3.2027 3.77789 3.19362 3.09608 3.26255 2.54639ZM0.67282 4.85548C0.672936 4.77015 0.708416 4.68834 0.771479 4.62801C0.834542 4.56767 0.920041 4.53372 1.00923 4.53361H6.89911V7.93705C6.49562 7.93631 0.914487 7.93758 0.672773 7.93705L0.67282 4.85548ZM1.66857 17.0343V8.5808H7.34819V17.3562H2.00497C1.91579 17.3561 1.83029 17.3221 1.76722 17.2618C1.70416 17.2015 1.66868 17.1197 1.66857 17.0343ZM8.021 17.3562V8.5808H9.97899V17.3562H8.021ZM16.3314 17.0343C16.3313 17.1197 16.2958 17.2015 16.2328 17.2618C16.1697 17.3221 16.0842 17.3561 15.995 17.3562H10.6518V8.5808H16.3314V17.0343ZM17.3272 7.93705C17.1128 7.93827 11.4771 7.93617 11.1009 7.93705L11.1009 4.53361H16.9908C17.08 4.53372 17.1655 4.56767 17.2285 4.62801C17.2916 4.68834 17.3271 4.77015 17.3272 4.85548V7.93705Z" fill="#24252C"/>
</svg>
