<svg width="34" height="31" viewBox="0 0 34 31" fill="none" xmlns="http://www.w3.org/2000/svg">
<mask id="path-1-inside-1_879_165" fill="white">
<path d="M12.5268 0.00058333C12.4139 0.00058333 12.3528 0.0033077 12.3528 0.0033077H12.3515C12.0726 0.0128437 11.8468 0.243067 11.8375 0.530499C11.8375 0.530499 11.6556 4.57903 14.1233 7.11018C16.0305 9.06641 18.8207 9.39879 19.991 9.44783V13.104C18.5553 13.2702 17.2683 14.1012 16.5033 15.3586C15.9415 15.1256 15.3398 15.0044 14.7302 15.0044C12.5162 15.0044 10.6155 16.5805 10.1191 18.7505L7.9516 18.7519H7.94496C7.87192 18.7533 7.8002 18.7696 7.73379 18.8009C7.73113 18.8009 7.72715 18.8037 7.72715 18.8037C7.7152 18.8078 7.70324 18.8146 7.69262 18.82L6.05371 19.7545V18.8623C6.05238 18.5626 5.81464 18.3187 5.52113 18.3201H0.531254C0.239062 18.3187 0.00132601 18.5625 0 18.8623V30.4551C0 30.5995 0.0557808 30.7384 0.155391 30.8406C0.255002 30.9428 0.390472 31 0.531264 31H5.52114C5.66325 31 5.79872 30.9428 5.89834 30.8406C5.99795 30.7384 6.05373 30.5995 6.05373 30.4551V29.5628L7.69264 30.4987C7.70061 30.5041 7.70991 30.5082 7.71788 30.5109C7.72053 30.5123 7.72186 30.5137 7.72452 30.515C7.79624 30.5504 7.8746 30.5681 7.95428 30.5668H20.3219C20.4215 30.5668 20.5198 30.5382 20.6034 30.4837L32.7453 23.5117C33.9366 22.8278 34.3589 21.2735 33.6656 20.0774C33.319 19.4794 32.7625 19.0775 32.1462 18.9127C31.7611 18.8105 31.352 18.7996 30.9549 18.8881C30.5113 16.6649 28.5882 15.0042 26.3132 15.0042C25.7036 15.0056 25.1033 15.1268 24.5415 15.3598C23.7765 14.1024 22.4895 13.2714 21.0537 13.1052V9.44902C22.2238 9.39862 25.0131 9.06757 26.9201 7.11138C29.3878 4.58029 29.2059 0.531698 29.2059 0.531698V0.530335C29.1966 0.242897 28.9721 0.0126652 28.6932 0.00314457C28.6932 0.00314457 24.7448 -0.184847 22.277 2.34626C21.3991 3.24671 20.8572 4.33924 20.5225 5.37186C20.1879 4.33792 19.6447 3.24535 18.7681 2.34626C16.6085 0.131202 13.3156 -0.000776757 12.5268 0.00058333ZM12.9638 1.15579C13.7447 1.17894 16.2682 1.32335 18.0172 3.11609C19.7664 4.91019 19.9072 7.50115 19.9284 8.30081C19.1475 8.27766 16.624 8.13325 14.875 6.34051C13.1258 4.54641 12.985 1.95545 12.9638 1.15579ZM28.082 1.15579C28.0594 1.95681 27.92 4.54648 26.1708 6.34051C24.4217 8.1346 21.8983 8.27902 21.1174 8.30081C21.1399 7.49979 21.2794 4.91012 23.0285 3.11609C24.7777 1.32207 27.301 1.17758 28.082 1.15579ZM20.5237 14.1642C21.9395 14.1642 23.2252 14.9951 23.8374 16.3043H23.8361C23.8388 16.3084 23.8414 16.3124 23.8428 16.3165C23.8454 16.3206 23.8467 16.3247 23.8481 16.3288C23.8547 16.3383 23.86 16.3479 23.8667 16.3574C23.8746 16.371 23.8826 16.3833 23.8919 16.3969C23.9012 16.4092 23.9118 16.4214 23.9224 16.4337C23.9317 16.4446 23.9424 16.4555 23.953 16.4664C23.9649 16.4773 23.9769 16.4882 23.9888 16.4977C24.0021 16.5072 24.0141 16.5168 24.0274 16.5263C24.0406 16.5345 24.0526 16.5413 24.0659 16.5481C24.0792 16.5563 24.0938 16.5645 24.1097 16.5713C24.1217 16.5767 24.1336 16.5808 24.1456 16.5849C24.1642 16.5903 24.1814 16.5972 24.2 16.6012C24.2106 16.6026 24.2226 16.6053 24.2332 16.6067C24.2518 16.6108 24.2704 16.6121 24.2903 16.6135H24.3262C24.3461 16.6135 24.366 16.6121 24.386 16.6094C24.3939 16.6081 24.4032 16.6067 24.4125 16.604C24.4338 16.5999 24.455 16.5958 24.4763 16.589C24.4856 16.5849 24.4949 16.5822 24.5042 16.5781C24.5188 16.5726 24.5321 16.5672 24.5467 16.5617C24.5599 16.5549 24.5732 16.5481 24.5865 16.5399C25.1178 16.2484 25.7114 16.0959 26.3144 16.0945C28.1658 16.0945 29.7025 17.4881 29.9534 19.334L21.8478 23.989C21.7442 23.0912 21.1612 22.2752 20.2753 21.9224L12.3967 18.7865L12.3954 18.7878C12.3914 18.7865 12.3875 18.7865 12.3848 18.7851C12.3529 18.7728 12.321 18.7647 12.2878 18.7592C12.2825 18.7578 12.2772 18.7578 12.2719 18.7565C12.2493 18.7538 12.2254 18.7524 12.2028 18.7524H11.2187C11.6849 17.1939 13.0927 16.096 14.7302 16.096C15.3399 16.096 15.9415 16.2513 16.4781 16.5483L16.482 16.5496C16.4874 16.5523 16.4927 16.5564 16.498 16.5605C16.5139 16.5673 16.5312 16.5741 16.5471 16.5796C16.5538 16.5823 16.5617 16.585 16.5684 16.5878C16.5896 16.5932 16.6109 16.5987 16.6335 16.6027C16.6414 16.6041 16.6507 16.6068 16.66 16.6082C16.6813 16.6109 16.7038 16.6123 16.7264 16.6123H16.7503C16.7742 16.6109 16.7981 16.6082 16.8221 16.6041C16.8287 16.6027 16.8353 16.6014 16.8433 16.6C16.8659 16.5946 16.8871 16.5878 16.9097 16.5796C16.9163 16.5769 16.9243 16.5741 16.931 16.5714C16.9535 16.5619 16.9761 16.5496 16.9974 16.5374C17.0013 16.5346 17.0067 16.5319 17.0106 16.5292C17.0332 16.5156 17.0545 16.4992 17.0744 16.4815C17.0784 16.4788 17.081 16.4747 17.085 16.472C17.1023 16.4556 17.1182 16.4379 17.1328 16.4202C17.1395 16.4134 17.1448 16.4066 17.1514 16.3984C17.1634 16.3821 17.174 16.3643 17.1846 16.3466C17.1886 16.3398 17.1926 16.333 17.1966 16.3262C17.1992 16.3221 17.2006 16.318 17.2032 16.3139C17.2046 16.3112 17.2072 16.3085 17.2085 16.3044C17.8208 14.9953 19.1078 14.1643 20.5222 14.1643L20.5237 14.1642ZM1.06405 19.4075H4.99142V20.6798V20.7016V29.9091H1.06405V19.4075ZM8.09122 19.842H12.1022L19.8903 22.9385C20.6487 23.2395 20.994 24.0528 20.7058 24.783C20.4176 25.5132 19.5968 25.866 18.8358 25.5636L10.9572 22.4303H10.9559C10.6823 22.3214 10.3742 22.4603 10.2679 22.7396C10.2161 22.8744 10.2201 23.0257 10.2772 23.1578C10.3344 23.2899 10.4406 23.3935 10.5721 23.4466L18.4506 26.5798C19.6619 27.062 21.0352 26.5362 21.6063 25.3797L30.7411 20.1308H30.7398C30.7584 20.1212 30.777 20.1103 30.7955 20.0994C31.4941 19.7139 32.3588 19.955 32.7532 20.6348C33.1517 21.3214 32.9299 22.1592 32.2273 22.5611L20.1823 29.4773H8.09118L6.05382 28.3153V21.0025L8.09122 19.842Z"/>
</mask>
<path d="M12.5268 0.00058333C12.4139 0.00058333 12.3528 0.0033077 12.3528 0.0033077H12.3515C12.0726 0.0128437 11.8468 0.243067 11.8375 0.530499C11.8375 0.530499 11.6556 4.57903 14.1233 7.11018C16.0305 9.06641 18.8207 9.39879 19.991 9.44783V13.104C18.5553 13.2702 17.2683 14.1012 16.5033 15.3586C15.9415 15.1256 15.3398 15.0044 14.7302 15.0044C12.5162 15.0044 10.6155 16.5805 10.1191 18.7505L7.9516 18.7519H7.94496C7.87192 18.7533 7.8002 18.7696 7.73379 18.8009C7.73113 18.8009 7.72715 18.8037 7.72715 18.8037C7.7152 18.8078 7.70324 18.8146 7.69262 18.82L6.05371 19.7545V18.8623C6.05238 18.5626 5.81464 18.3187 5.52113 18.3201H0.531254C0.239062 18.3187 0.00132601 18.5625 0 18.8623V30.4551C0 30.5995 0.0557808 30.7384 0.155391 30.8406C0.255002 30.9428 0.390472 31 0.531264 31H5.52114C5.66325 31 5.79872 30.9428 5.89834 30.8406C5.99795 30.7384 6.05373 30.5995 6.05373 30.4551V29.5628L7.69264 30.4987C7.70061 30.5041 7.70991 30.5082 7.71788 30.5109C7.72053 30.5123 7.72186 30.5137 7.72452 30.515C7.79624 30.5504 7.8746 30.5681 7.95428 30.5668H20.3219C20.4215 30.5668 20.5198 30.5382 20.6034 30.4837L32.7453 23.5117C33.9366 22.8278 34.3589 21.2735 33.6656 20.0774C33.319 19.4794 32.7625 19.0775 32.1462 18.9127C31.7611 18.8105 31.352 18.7996 30.9549 18.8881C30.5113 16.6649 28.5882 15.0042 26.3132 15.0042C25.7036 15.0056 25.1033 15.1268 24.5415 15.3598C23.7765 14.1024 22.4895 13.2714 21.0537 13.1052V9.44902C22.2238 9.39862 25.0131 9.06757 26.9201 7.11138C29.3878 4.58029 29.2059 0.531698 29.2059 0.531698V0.530335C29.1966 0.242897 28.9721 0.0126652 28.6932 0.00314457C28.6932 0.00314457 24.7448 -0.184847 22.277 2.34626C21.3991 3.24671 20.8572 4.33924 20.5225 5.37186C20.1879 4.33792 19.6447 3.24535 18.7681 2.34626C16.6085 0.131202 13.3156 -0.000776757 12.5268 0.00058333ZM12.9638 1.15579C13.7447 1.17894 16.2682 1.32335 18.0172 3.11609C19.7664 4.91019 19.9072 7.50115 19.9284 8.30081C19.1475 8.27766 16.624 8.13325 14.875 6.34051C13.1258 4.54641 12.985 1.95545 12.9638 1.15579ZM28.082 1.15579C28.0594 1.95681 27.92 4.54648 26.1708 6.34051C24.4217 8.1346 21.8983 8.27902 21.1174 8.30081C21.1399 7.49979 21.2794 4.91012 23.0285 3.11609C24.7777 1.32207 27.301 1.17758 28.082 1.15579ZM20.5237 14.1642C21.9395 14.1642 23.2252 14.9951 23.8374 16.3043H23.8361C23.8388 16.3084 23.8414 16.3124 23.8428 16.3165C23.8454 16.3206 23.8467 16.3247 23.8481 16.3288C23.8547 16.3383 23.86 16.3479 23.8667 16.3574C23.8746 16.371 23.8826 16.3833 23.8919 16.3969C23.9012 16.4092 23.9118 16.4214 23.9224 16.4337C23.9317 16.4446 23.9424 16.4555 23.953 16.4664C23.9649 16.4773 23.9769 16.4882 23.9888 16.4977C24.0021 16.5072 24.0141 16.5168 24.0274 16.5263C24.0406 16.5345 24.0526 16.5413 24.0659 16.5481C24.0792 16.5563 24.0938 16.5645 24.1097 16.5713C24.1217 16.5767 24.1336 16.5808 24.1456 16.5849C24.1642 16.5903 24.1814 16.5972 24.2 16.6012C24.2106 16.6026 24.2226 16.6053 24.2332 16.6067C24.2518 16.6108 24.2704 16.6121 24.2903 16.6135H24.3262C24.3461 16.6135 24.366 16.6121 24.386 16.6094C24.3939 16.6081 24.4032 16.6067 24.4125 16.604C24.4338 16.5999 24.455 16.5958 24.4763 16.589C24.4856 16.5849 24.4949 16.5822 24.5042 16.5781C24.5188 16.5726 24.5321 16.5672 24.5467 16.5617C24.5599 16.5549 24.5732 16.5481 24.5865 16.5399C25.1178 16.2484 25.7114 16.0959 26.3144 16.0945C28.1658 16.0945 29.7025 17.4881 29.9534 19.334L21.8478 23.989C21.7442 23.0912 21.1612 22.2752 20.2753 21.9224L12.3967 18.7865L12.3954 18.7878C12.3914 18.7865 12.3875 18.7865 12.3848 18.7851C12.3529 18.7728 12.321 18.7647 12.2878 18.7592C12.2825 18.7578 12.2772 18.7578 12.2719 18.7565C12.2493 18.7538 12.2254 18.7524 12.2028 18.7524H11.2187C11.6849 17.1939 13.0927 16.096 14.7302 16.096C15.3399 16.096 15.9415 16.2513 16.4781 16.5483L16.482 16.5496C16.4874 16.5523 16.4927 16.5564 16.498 16.5605C16.5139 16.5673 16.5312 16.5741 16.5471 16.5796C16.5538 16.5823 16.5617 16.585 16.5684 16.5878C16.5896 16.5932 16.6109 16.5987 16.6335 16.6027C16.6414 16.6041 16.6507 16.6068 16.66 16.6082C16.6813 16.6109 16.7038 16.6123 16.7264 16.6123H16.7503C16.7742 16.6109 16.7981 16.6082 16.8221 16.6041C16.8287 16.6027 16.8353 16.6014 16.8433 16.6C16.8659 16.5946 16.8871 16.5878 16.9097 16.5796C16.9163 16.5769 16.9243 16.5741 16.931 16.5714C16.9535 16.5619 16.9761 16.5496 16.9974 16.5374C17.0013 16.5346 17.0067 16.5319 17.0106 16.5292C17.0332 16.5156 17.0545 16.4992 17.0744 16.4815C17.0784 16.4788 17.081 16.4747 17.085 16.472C17.1023 16.4556 17.1182 16.4379 17.1328 16.4202C17.1395 16.4134 17.1448 16.4066 17.1514 16.3984C17.1634 16.3821 17.174 16.3643 17.1846 16.3466C17.1886 16.3398 17.1926 16.333 17.1966 16.3262C17.1992 16.3221 17.2006 16.318 17.2032 16.3139C17.2046 16.3112 17.2072 16.3085 17.2085 16.3044C17.8208 14.9953 19.1078 14.1643 20.5222 14.1643L20.5237 14.1642ZM1.06405 19.4075H4.99142V20.6798V20.7016V29.9091H1.06405V19.4075ZM8.09122 19.842H12.1022L19.8903 22.9385C20.6487 23.2395 20.994 24.0528 20.7058 24.783C20.4176 25.5132 19.5968 25.866 18.8358 25.5636L10.9572 22.4303H10.9559C10.6823 22.3214 10.3742 22.4603 10.2679 22.7396C10.2161 22.8744 10.2201 23.0257 10.2772 23.1578C10.3344 23.2899 10.4406 23.3935 10.5721 23.4466L18.4506 26.5798C19.6619 27.062 21.0352 26.5362 21.6063 25.3797L30.7411 20.1308H30.7398C30.7584 20.1212 30.777 20.1103 30.7955 20.0994C31.4941 19.7139 32.3588 19.955 32.7532 20.6348C33.1517 21.3214 32.9299 22.1592 32.2273 22.5611L20.1823 29.4773H8.09118L6.05382 28.3153V21.0025L8.09122 19.842Z" fill="#24252C" stroke="white" stroke-width="0.2" mask="url(#path-1-inside-1_879_165)"/>
</svg>
