<svg width="50" height="50" viewBox="0 0 50 50" fill="none" xmlns="http://www.w3.org/2000/svg">
<g clip-path="url(#clip0_400_194)">
<rect width="50" height="50" fill="white"/>
<circle cx="25" cy="25" r="24.5" fill="#EBE2FF" stroke="#E0E5F2"/>
<path d="M14.2507 20.8917C14.0062 20.6961 13.7048 20.6064 13.3867 20.6363C13.0728 20.6676 12.7908 20.8156 12.5908 21.0534L12.2032 21.5167L11.1573 20.6784C10.9698 20.5276 10.7351 20.457 10.4934 20.4814C10.2517 20.5045 10.035 20.6186 9.88079 20.802L9.20574 21.6077C9.05434 21.7884 8.98072 22.0247 9.00434 22.2584C9.02795 22.4948 9.14463 22.7068 9.33215 22.8562L10.3781 23.6945L9.96694 24.1863C9.7697 24.4213 9.67525 24.7297 9.7058 25.0313C9.73775 25.3384 9.88915 25.6142 10.1322 25.8085L11.8546 27.1888C11.981 27.2907 12.1269 27.36 12.281 27.4021L12.1158 27.5991C11.931 27.8192 11.8421 28.1072 11.8713 28.3911C11.9005 28.6778 12.0421 28.9373 12.2713 29.1207L14.1076 30.592C14.3049 30.7496 14.5563 30.8366 14.8105 30.8366C14.8466 30.8366 14.8813 30.8352 14.9174 30.8311C15.2105 30.8026 15.4758 30.664 15.6633 30.4399L16.9246 28.9346L24.2974 34.8415L23.0361 36.3468C22.85 36.5696 22.7625 36.8509 22.7916 37.1402C22.8208 37.4228 22.9667 37.6891 23.1917 37.8684L25.028 39.3398C25.228 39.5001 25.4725 39.5843 25.7281 39.5843C25.7656 39.5843 25.8017 39.583 25.8392 39.5789C26.1323 39.549 26.3976 39.4104 26.5837 39.1876L26.749 38.9906C26.8212 39.1292 26.9226 39.2542 27.049 39.3561L28.7714 40.7364C28.9812 40.909 29.2423 41 29.5145 41C29.5534 41 29.5937 40.9973 29.6326 40.9946C29.941 40.9647 30.2313 40.8125 30.4285 40.5775L30.8396 40.087L31.6356 40.7255C31.7981 40.856 32.0037 40.9266 32.2106 40.9266C32.2398 40.9266 32.269 40.9253 32.2981 40.9225C32.5357 40.8994 32.7593 40.7826 32.9107 40.6019L33.5858 39.7963C33.7399 39.6129 33.8108 39.3819 33.7858 39.1482C33.7622 38.9118 33.6455 38.6985 33.458 38.5491L32.662 37.9106L33.051 37.4473C33.251 37.2082 33.3427 36.9093 33.3121 36.6009C33.2802 36.2939 33.1288 36.0181 32.8857 35.8238L31.1633 34.4448C31.0369 34.3429 30.8911 34.2709 30.7383 34.2288L30.9258 34.0047C31.1091 33.7846 31.1994 33.4966 31.1703 33.2126C31.1411 32.926 30.9994 32.6665 30.7702 32.4831L28.9339 31.0117C28.7061 30.8297 28.4172 30.7441 28.1241 30.7726C27.8311 30.8011 27.5658 30.9397 27.3782 31.1625L26.1184 32.6678L18.7456 26.7581L20.0068 25.2528C20.193 25.03 20.2805 24.7487 20.2513 24.4607C20.2221 24.1741 20.0805 23.9146 19.8513 23.7312L18.015 22.2598C17.79 22.0791 17.4983 21.9922 17.2052 22.0207C16.9121 22.0492 16.6468 22.1878 16.4593 22.412L16.2718 22.6361C16.1995 22.4976 16.0981 22.3739 15.9717 22.272L14.2507 20.8917ZM33.0094 39.0846C33.0496 39.1172 33.0746 39.1634 33.0802 39.2137C33.0858 39.2639 33.0705 39.3142 33.0371 39.3536L32.3621 40.1592C32.3288 40.1986 32.2815 40.2231 32.2301 40.2285C32.1787 40.2339 32.1274 40.2176 32.0871 40.1864L31.2912 39.5479L32.2149 38.4461L33.0094 39.0846ZM32.4357 36.3593C32.5329 36.4367 32.5927 36.5468 32.6052 36.669C32.6177 36.7913 32.5801 36.9095 32.501 37.0046L31.8898 37.7355C31.8884 37.7369 31.8884 37.7369 31.887 37.7369C31.887 37.7383 31.8856 37.7383 31.8856 37.7396L29.8771 40.1375C29.7979 40.2312 29.6827 40.291 29.5604 40.3032C29.4354 40.3128 29.3146 40.2801 29.2173 40.2027L27.4949 38.8224C27.3977 38.7449 27.338 38.6349 27.3255 38.5126C27.313 38.3931 27.3505 38.2708 27.4297 38.1771L30.0535 35.0442C30.1313 34.9504 30.2466 34.8907 30.3688 34.8784C30.3841 34.8771 30.4008 34.8757 30.416 34.8757C30.5244 34.8757 30.6286 34.9124 30.7119 34.9803L32.4357 36.3593ZM9.78365 22.3184C9.74337 22.2858 9.71697 22.2383 9.71281 22.1894C9.70725 22.1391 9.72392 22.0875 9.75586 22.0494L10.4309 21.2438C10.4643 21.2044 10.5115 21.1799 10.5629 21.1745C10.6143 21.1691 10.6643 21.184 10.7059 21.2166L11.7519 22.0549L10.8282 23.1567L9.78365 22.3184ZM27.9297 31.6014C27.9963 31.5226 28.0936 31.4724 28.195 31.4615C28.2075 31.4602 28.2214 31.4588 28.2353 31.4588C28.3269 31.4588 28.4144 31.49 28.4839 31.5457L30.3202 33.0171C30.4021 33.0823 30.4521 33.1747 30.4633 33.2766C30.473 33.3771 30.441 33.4817 30.3757 33.5592L26.0294 38.749C25.9641 38.8278 25.8669 38.878 25.7641 38.8889C25.6585 38.8998 25.5557 38.8685 25.4752 38.8033L23.6389 37.332C23.5583 37.2681 23.5069 37.173 23.4972 37.0725C23.4875 36.9692 23.518 36.8687 23.5847 36.7899L25.0696 35.0169L25.071 35.0156C25.071 35.0142 25.0723 35.0142 25.0723 35.0142L27.9297 31.6014ZM25.6683 33.2032L24.7446 34.3064L17.3733 28.3994L18.297 27.2963L25.6683 33.2032ZM17.0105 22.8521C17.0772 22.772 17.1716 22.7231 17.2758 22.7122C17.2883 22.7108 17.3008 22.7108 17.3133 22.7108C17.4036 22.7108 17.4939 22.7421 17.5647 22.7978L19.401 24.2691C19.4816 24.3343 19.5329 24.4281 19.5441 24.5286C19.5538 24.6319 19.5232 24.7324 19.4566 24.8112L15.1102 30.001C15.0435 30.0812 14.9491 30.1301 14.8449 30.1409C14.7421 30.1532 14.6352 30.1192 14.556 30.0554L12.7197 28.584C12.6377 28.5188 12.5877 28.4264 12.5766 28.3245C12.5669 28.224 12.5988 28.1194 12.6641 28.0419L13.5128 27.0284L16.1367 23.8955C16.138 23.8942 16.138 23.8928 16.1394 23.8928L17.0105 22.8521ZM13.3963 26.0692L12.9629 26.5869C12.8851 26.6806 12.7698 26.7404 12.6476 26.7526C12.5226 26.7635 12.4017 26.7281 12.3045 26.6507L10.5821 25.2704C10.4863 25.1943 10.4251 25.0815 10.4126 24.962C10.4001 24.8424 10.4376 24.7202 10.5168 24.6264L13.1407 21.4935C13.2185 21.3998 13.3337 21.34 13.4574 21.3278C13.4726 21.3264 13.4893 21.3251 13.5046 21.3251C13.6129 21.3251 13.7171 21.3618 13.8004 21.4283L15.5228 22.8087C15.6201 22.8861 15.6798 22.9961 15.6923 23.1171C15.7034 23.2366 15.6659 23.3589 15.5895 23.4526L13.3963 26.0692ZM18.3425 18.7819C18.3439 18.9734 18.5023 19.1283 18.6981 19.1283H18.6995L23.3165 19.1134C24.0276 21.0602 26.9779 28.6044 29.9795 28.6044C30.0809 28.6044 30.1837 28.5962 30.2851 28.5785C30.3378 28.584 30.3906 28.5853 30.4434 28.5853C32.9297 28.5853 35.8441 23.0571 37.6025 19.1295H40.6444C40.8417 19.1295 41 18.9732 41 18.7817C41 18.5901 40.8417 18.4339 40.6444 18.4339H37.9081C37.9386 18.3632 37.9706 18.2912 38.0011 18.2206C39.1985 15.4409 39.3901 12.6054 38.5011 10.823C38.0567 9.93173 37.3622 9.3394 36.4926 9.10843C34.8091 8.66283 32.7355 9.60703 30.8879 11.6394C29.2266 9.77411 27.1848 8.97119 25.4833 9.54182C24.1317 9.99423 23.1567 11.2237 22.7358 13.0021C22.3524 14.6256 22.4788 16.5357 23.0803 18.4173L18.6966 18.4309C18.5007 18.4336 18.3411 18.5903 18.3425 18.7819ZM30.3216 27.8816C30.2799 27.8748 30.2382 27.8775 30.1966 27.8857C28.4117 28.2729 25.81 23.8495 24.0698 19.1108L26.445 19.1026C26.5533 19.1026 26.6547 19.0537 26.7214 18.9722L27.9479 17.4683L28.6744 21.6296C28.7008 21.7804 28.8258 21.8973 28.9813 21.9163C28.9966 21.9177 29.0105 21.919 29.0244 21.919C29.1647 21.919 29.2925 21.8389 29.3494 21.7112L31.9205 16.0052L32.5497 18.8542C32.5858 19.0145 32.7303 19.1286 32.897 19.1286H36.8237C34.2749 24.7625 31.8147 28.0826 30.3216 27.8816ZM23.4306 13.1601C23.7932 11.6235 24.6057 10.572 25.7156 10.1998C26.0031 10.1033 26.3059 10.0571 26.6156 10.0571C27.9241 10.0571 29.3825 10.894 30.6064 12.3952C30.6731 12.4767 30.7745 12.5257 30.88 12.527C30.9884 12.5243 31.0884 12.4822 31.1565 12.402C32.8636 10.3968 34.8386 9.39279 36.3054 9.78271C36.9804 9.96204 37.5041 10.4144 37.8597 11.1304C38.6611 12.7376 38.4639 15.3516 37.3444 17.9517C37.2749 18.1148 37.2041 18.2751 37.1332 18.4354L33.1855 18.434L32.3854 14.8135C32.3521 14.6654 32.2271 14.5567 32.0729 14.5404C31.9201 14.5254 31.7743 14.6083 31.7118 14.7469L29.1754 20.3756L28.5142 16.5892C28.4906 16.4533 28.3878 16.3446 28.2531 16.3107C28.1184 16.2753 27.9739 16.3229 27.8864 16.4302L26.2724 18.411L23.8249 18.4192C23.2026 16.5851 23.0612 14.7224 23.4306 13.1601Z" fill="#6524EB" stroke="#6524EB" stroke-width="0.1"/>
</g>
<defs>
<clipPath id="clip0_400_194">
<rect width="50" height="50" fill="white"/>
</clipPath>
</defs>
</svg>
