<svg width="50" height="50" viewBox="0 0 50 50" fill="none" xmlns="http://www.w3.org/2000/svg">
<g clip-path="url(#clip0_1310_339)">
<rect width="50" height="50" fill="white"/>
<circle cx="25" cy="25" r="24.5" fill="#EBE2FF" stroke="#E6EAF4"/>
<path d="M16.6776 23.2844C17.0236 23.8838 17.6673 24.258 18.3593 24.258C19.0512 24.258 19.6949 23.8838 20.0409 23.2844C20.1415 23.1114 20.0811 22.8902 19.9081 22.7896C19.7351 22.689 19.5139 22.7493 19.4133 22.9223C19.196 23.2965 18.7937 23.5298 18.3593 23.5298C17.9248 23.5298 17.5225 23.2965 17.3052 22.9223C17.2047 22.7493 16.9834 22.689 16.8104 22.7896C16.6374 22.8902 16.5771 23.1114 16.6776 23.2844Z" fill="#6524EB"/>
<path d="M16.7502 20.0258C16.6496 19.8529 16.4243 19.7965 16.2554 19.9011C16.0944 19.9977 15.8933 19.9977 15.7283 19.9011C15.5554 19.7965 15.3341 19.8569 15.2335 20.0258C15.1329 20.1988 15.1893 20.4201 15.3582 20.5207C15.5554 20.6373 15.7726 20.6937 15.9939 20.6937C16.2151 20.6937 16.4324 20.6333 16.6255 20.5207C16.7985 20.4201 16.8548 20.1948 16.7502 20.0258Z" fill="#6524EB"/>
<path d="M20.0419 20.5247C20.2391 20.6414 20.4563 20.6977 20.6736 20.6977C20.8908 20.6977 21.1121 20.6374 21.3052 20.5247C21.4782 20.4241 21.5345 20.1988 21.4299 20.0299C21.3293 19.8569 21.104 19.8006 20.935 19.9052C20.7741 20.0017 20.573 20.0017 20.408 19.9052C20.235 19.8006 20.0138 19.8609 19.9132 20.0299C19.8126 20.2029 19.8689 20.4241 20.0379 20.5247H20.0419Z" fill="#6524EB"/>
<path d="M18.3347 22.2786C18.5359 22.2786 18.6968 22.1177 18.6968 21.9166V21.0194C18.6968 20.8183 18.5359 20.6573 18.3347 20.6573C18.1336 20.6573 17.9727 20.8183 17.9727 21.0194V21.9166C17.9727 22.1177 18.1336 22.2786 18.3347 22.2786Z" fill="#6524EB"/>
<path d="M12.1785 34.0862C11.9773 34.0862 11.8164 34.2471 11.8164 34.4483V38.4552C11.8164 38.6563 11.9773 38.8172 12.1785 38.8172C12.3796 38.8172 12.5405 38.6563 12.5405 38.4552V34.4483C12.5405 34.2471 12.3796 34.0862 12.1785 34.0862Z" fill="#6524EB"/>
<path d="M26.3469 29.1299L24.4038 28.3856C24.4038 28.3856 24.3917 28.3856 24.3877 28.3816L22.2434 27.5609V26.1126C22.702 25.7184 23.0561 25.2034 23.2371 24.6L23.6957 23.0551C23.7722 22.7977 23.9773 22.6367 24.1423 22.5402C24.2227 22.4919 24.2992 22.4316 24.3836 22.3551C24.613 22.1258 24.7377 21.8241 24.7377 21.5063V17.5476V17.1131C24.7377 15.4154 24.3354 14.1562 23.5388 13.3717C22.8911 12.7321 21.998 12.4102 20.8595 12.4263H16.4382C15.2715 12.4263 13.3566 11.8711 12.6445 11.1631L12.5962 11.1148C12.4956 11.0062 12.3387 10.97 12.1979 11.0263C12.0612 11.0826 11.9686 11.2154 11.9686 11.3642V14.5223C11.9686 15.8338 12.6445 17.0488 13.7428 17.7528V21.5183C13.7428 21.9448 13.9721 22.3431 14.3382 22.5603C14.4951 22.6528 14.7003 22.8137 14.7767 23.0712L15.2393 24.6161C15.4204 25.2195 15.7784 25.7345 16.237 26.1327V27.577L14.0928 28.3977C14.0928 28.3977 14.0807 28.3977 14.0767 28.4017L12.1336 29.146C10.4801 29.7776 9.26114 31.254 8.95539 32.996L8.00595 38.4029C7.96975 38.6001 8.10251 38.7891 8.29963 38.8213C8.31975 38.8213 8.33986 38.8253 8.364 38.8253C8.53699 38.8253 8.68987 38.7006 8.72205 38.5276L9.67148 33.1207C9.93298 31.6282 10.9749 30.3609 12.3951 29.8218L14.1089 29.1661L16.3256 31.7368C16.4301 31.8575 16.5991 31.8977 16.748 31.8333L18.8802 30.892V38.4713C18.8802 38.6725 19.0411 38.8334 19.2422 38.8334C19.4434 38.8334 19.6043 38.6725 19.6043 38.4713V30.896L21.7325 31.8374C21.8773 31.9017 22.0503 31.8615 22.1509 31.7408L24.3676 29.1701L26.0814 29.8259C27.4975 30.369 28.5434 31.6322 28.8049 33.1247L29.7544 38.5317C29.7866 38.7087 29.9394 38.8294 30.1124 38.8294C30.1325 38.8294 30.1527 38.8294 30.1768 38.8253C30.3739 38.7891 30.5067 38.6041 30.4705 38.4069L29.521 33C29.2153 31.2581 27.9963 29.7816 26.3429 29.15L26.3469 29.1299ZM15.9393 24.3948L15.4767 22.8459C15.364 22.4678 15.0905 22.1419 14.7083 21.9206C14.5635 21.8321 14.4709 21.6752 14.4709 21.5063V18.1149C14.8451 18.2557 15.2353 18.3402 15.6416 18.3603C18.0192 18.4769 19.8457 18.32 21.0727 17.8896C21.4388 17.7608 21.7526 17.608 22.006 17.435L22.3882 19.3861C22.4204 19.5591 22.5733 19.6798 22.7423 19.6798C22.7664 19.6798 22.7905 19.6798 22.8107 19.6718C23.0078 19.6315 23.1365 19.4425 23.0963 19.2453L22.5934 16.6666C22.5652 16.5298 22.4606 16.4171 22.3239 16.385C22.1871 16.3528 22.0423 16.4011 21.9537 16.5097C21.7325 16.7873 21.3503 17.0246 20.8273 17.2057C19.7049 17.5999 17.9227 17.7488 15.6738 17.6361C15.2313 17.616 14.8049 17.4993 14.3985 17.2942C14.3663 17.2781 14.3382 17.262 14.306 17.2419C14.2899 17.2338 14.2778 17.2258 14.2617 17.2177C13.2962 16.6626 12.6968 15.6286 12.6968 14.5143V12.1045C13.787 12.7803 15.4767 13.1464 16.4382 13.1464H20.8796C21.8009 13.1303 22.525 13.3838 23.0279 13.8827C23.6796 14.5263 24.0095 15.6125 24.0095 17.1091V17.5436V21.4982C24.0095 21.627 23.9612 21.7436 23.8768 21.8281C23.8365 21.8643 23.8043 21.8925 23.7722 21.9126C23.3819 22.1379 23.1164 22.4597 22.9997 22.8419L22.5371 24.3867C22.2193 25.4488 21.2216 26.1891 20.1152 26.1891H18.3572C17.2468 26.1891 16.2531 25.4488 15.9353 24.3867L15.9393 24.3948ZM16.7037 31.0448L14.833 28.8764L16.5146 28.2327L18.5221 30.2402L16.6997 31.0448H16.7037ZM19.2422 29.9345L16.9652 27.6615V26.5954C17.3957 26.8006 17.8664 26.9212 18.3612 26.9212H20.1193C20.6141 26.9212 21.0888 26.8006 21.5193 26.5914V27.6575L19.2422 29.9305V29.9345ZM21.7808 31.0448L19.9583 30.2402L21.9658 28.2327L23.6474 28.8764L21.7767 31.0448H21.7808Z" fill="#6524EB"/>
<path d="M26.3035 34.0862C26.1023 34.0862 25.9414 34.2471 25.9414 34.4483V38.4552C25.9414 38.6563 26.1023 38.8172 26.3035 38.8172C26.5046 38.8172 26.6656 38.6563 26.6656 38.4552V34.4483C26.6656 34.2471 26.5046 34.0862 26.3035 34.0862Z" fill="#6524EB"/>
<path d="M20.1647 14.981C17.3929 15.4879 15.152 14.6511 15.1319 14.643C14.9469 14.5706 14.7377 14.6631 14.6652 14.8522C14.5928 15.0413 14.6854 15.2465 14.8744 15.3189C14.9509 15.3471 16.3388 15.87 18.3222 15.87C18.9296 15.87 19.5975 15.8218 20.2975 15.693C20.4946 15.6568 20.6233 15.4677 20.5871 15.2706C20.5509 15.0735 20.3618 14.9448 20.1647 14.981Z" fill="#6524EB"/>
<path d="M36.0415 23.5418C35.9329 23.4895 35.8122 23.4654 35.6955 23.4654L34.7622 21.8562L36.0898 19.2131C36.3995 18.5935 36.1743 17.8332 35.5748 17.4872C35.4903 17.4389 35.3938 17.4269 35.3013 17.451C35.2087 17.4751 35.1283 17.5355 35.08 17.62L33.6961 20.0137L32.3122 17.62C32.2116 17.447 31.9903 17.3866 31.8173 17.4872C31.2179 17.8332 30.9886 18.5935 31.3024 19.2131L32.63 21.8562L31.7007 23.4654C31.58 23.4654 31.4633 23.4895 31.3507 23.5418C30.7834 23.8194 29.9265 24.2378 29.48 25.0143C28.4823 26.7401 28.9248 28.0275 29.8099 28.5425C30.0874 28.7034 30.3851 28.7838 30.6949 28.7838C30.9604 28.7838 31.23 28.7235 31.4955 28.6068C32.0708 28.3493 32.6018 27.8223 33.0323 27.0781C33.4829 26.3016 33.4185 25.3522 33.3783 24.7206C33.3662 24.5476 33.2938 24.3907 33.1811 24.266L33.4104 23.7712L33.7001 23.6022L33.9898 23.7712L34.2191 24.266C34.1064 24.3907 34.034 24.5476 34.0219 24.7206C33.9817 25.3482 33.9173 26.3016 34.3679 27.0781C34.7984 27.8223 35.3294 28.3493 35.9047 28.6068C36.1702 28.7235 36.4398 28.7838 36.7053 28.7838C37.0151 28.7838 37.3128 28.7034 37.5904 28.5425C38.4754 28.0315 38.922 26.7401 37.9202 25.0143C37.4697 24.2378 36.6128 23.8194 36.0495 23.5418H36.0415ZM35.4622 18.4004C35.5225 18.5533 35.5225 18.7303 35.4421 18.8872L34.3277 21.1079L34.1105 20.7338L35.4622 18.4045V18.4004ZM32.4007 26.708C32.0466 27.3195 31.6283 27.7459 31.1938 27.939C30.8317 28.0999 30.4777 28.0919 30.1679 27.9108C29.4679 27.5045 29.4438 26.5108 30.0995 25.3723C30.4374 24.785 31.1455 24.439 31.7007 24.1896L32.6501 24.7608C32.6863 25.3361 32.7386 26.1206 32.4007 26.708ZM32.9398 23.1959C32.8754 23.2321 32.8231 23.2884 32.7909 23.3568L32.5616 23.8556L32.3645 23.743L33.0081 22.6326L33.2133 23.039L32.9398 23.1999V23.1959ZM34.4444 23.1959L33.9656 22.9183L31.9461 18.8912C31.8656 18.7343 31.8656 18.5573 31.926 18.4045L35.0197 23.747L34.8225 23.8597L34.5932 23.3608C34.561 23.2924 34.5087 23.2361 34.4444 23.1999V23.1959ZM37.2202 27.9108C36.9105 28.0919 36.5564 28.0999 36.1944 27.939C35.7599 27.7459 35.3415 27.3195 34.9875 26.708C34.6495 26.1246 34.7018 25.3361 34.7582 24.7286L35.7237 24.1896C36.2386 24.443 36.9467 24.789 37.2886 25.3723C37.9484 26.5068 37.9202 27.5045 37.2202 27.9108Z" fill="#6524EB"/>
<path d="M36.4588 25.1592C36.2858 25.2598 36.2255 25.481 36.3261 25.654C36.7324 26.3581 36.8209 26.9897 36.5353 27.1586C36.3623 27.2592 36.3019 27.4805 36.4025 27.6535C36.4709 27.7701 36.5916 27.8345 36.7163 27.8345C36.7767 27.8345 36.841 27.8184 36.8973 27.7862C37.5813 27.392 37.6014 26.4104 36.9537 25.292C36.8531 25.119 36.6318 25.0586 36.4588 25.1592Z" fill="#6524EB"/>
<path d="M30.9645 25.0304C30.7915 24.9298 30.5703 24.9902 30.4697 25.1632C29.822 26.2856 29.8461 27.2632 30.53 27.6575C30.5864 27.6896 30.6507 27.7057 30.7111 27.7057C30.8358 27.7057 30.9565 27.6414 31.0249 27.5247C31.1254 27.3517 31.0651 27.1304 30.8921 27.0299C30.6024 26.8649 30.691 26.2293 31.0973 25.5253C31.1979 25.3523 31.1375 25.131 30.9645 25.0304Z" fill="#6524EB"/>
<path d="M33.692 15.1459C29.3029 15.1459 25.7305 18.7183 25.7305 23.1074C25.7305 27.4965 29.3029 31.069 33.692 31.069C38.0811 31.069 41.6536 27.4965 41.6536 23.1074C41.6536 18.7183 38.0811 15.1459 33.692 15.1459ZM33.692 30.3448C29.7012 30.3448 26.4546 27.0983 26.4546 23.1074C26.4546 19.1166 29.7012 15.87 33.692 15.87C37.6828 15.87 40.9294 19.1166 40.9294 23.1074C40.9294 27.0983 37.6828 30.3448 33.692 30.3448Z" fill="#6524EB"/>
</g>
<defs>
<clipPath id="clip0_1310_339">
<rect width="50" height="50" fill="white"/>
</clipPath>
</defs>
</svg>
