<svg width="30" height="30" viewBox="0 0 30 30" fill="none" xmlns="http://www.w3.org/2000/svg">
<path d="M7.71031 19.6695C5.09816 16.863 3.30164 14.2763 3.00341 12.9541C3.00341 12.9505 3.00341 12.9505 3.00341 12.9469C1.91472 10.2625 2.38181 7.08627 4.39392 4.8302C4.49094 4.71522 4.59154 4.60743 4.69933 4.49963L6.39526 2.80371C6.64318 2.55615 6.94499 2.43722 7.24322 2.43722C7.60612 2.43722 7.96183 2.61687 8.20616 2.97259L10.8578 6.78446C11.2854 7.40246 11.2243 8.33342 10.7213 8.89358C10.7033 8.91514 10.6854 8.9331 10.6674 8.95107L8.88165 10.7368C8.47563 11.1428 8.27083 11.6714 8.26364 12.2028C8.26364 12.2028 8.26364 12.2028 8.26005 12.2064C8.01932 12.8459 9.05771 14.6069 10.7967 16.5827L11.8136 15.5659C10.5416 14.1071 9.85896 12.9792 9.69368 12.5046L9.70087 12.2247C9.70087 12.045 9.77273 11.8794 9.89848 11.7537L11.6806 9.9679C11.7166 9.93557 11.7633 9.88886 11.8172 9.82418C12.7406 8.77142 12.8376 7.11861 12.0399 5.96524L9.38827 2.15337C8.88524 1.42039 8.10196 1 7.24322 1C6.55335 1 5.89223 1.2799 5.38201 1.79047L3.68609 3.48639C3.54237 3.62976 3.4238 3.75587 3.31242 3.88163C1.02723 6.45066 0.373297 10.1731 1.63087 13.3889C2.12311 15.2968 4.37596 18.1999 6.69348 20.6863L7.71031 19.6695Z" fill="white" stroke="white" stroke-width="0.2"/>
<path d="M29.0266 22.5631C28.9548 21.8013 28.538 21.1007 27.8805 20.648L24.0718 17.9999C23.5577 17.6442 22.9432 17.4609 22.2969 17.4609C21.5172 17.4609 20.7806 17.7268 20.2165 18.2155C20.1518 18.2694 20.0979 18.3197 20.0587 18.3628L18.2802 20.1414C18.1544 20.2671 17.9888 20.3354 17.8131 20.3354L17.5256 20.3426C17.0945 20.1917 16.1387 19.624 14.8955 18.5823L13.8715 19.6064C15.4848 20.9681 16.9076 21.8128 17.6119 21.8128C17.6945 21.8128 17.7667 21.8021 17.8278 21.7766C17.8314 21.773 17.8314 21.773 17.8314 21.773C18.3628 21.7654 18.895 21.5574 19.2974 21.155L21.0831 19.3688C21.105 19.3473 21.1194 19.3329 21.1442 19.3153C21.4532 19.0383 21.8772 18.8949 22.2976 18.8949C22.6389 18.8949 22.977 18.9883 23.2533 19.1788L27.0656 21.8304C27.7087 22.276 27.7802 23.0916 27.2308 23.6413L25.5346 25.3373C25.4268 25.4451 25.319 25.5457 25.204 25.6427C23.738 26.9509 21.8844 27.6045 20.0304 27.6045C19.0279 27.6045 18.029 27.4176 17.0876 27.0371C17.0841 27.0332 17.0841 27.0332 17.0805 27.0332C15.8229 26.7493 13.4191 25.1109 10.7746 22.7036L9.75781 23.7204C12.1472 25.8978 14.842 27.9386 16.6457 28.4057C17.7236 28.8297 18.8626 29.0417 20.0304 29.0417C22.2976 29.0417 24.471 28.2193 26.1529 26.7245C26.2819 26.6164 26.4044 26.4982 26.5514 26.3545L28.2477 24.6549C28.8111 24.0901 29.0949 23.3284 29.0266 22.5631Z" fill="white" stroke="white" stroke-width="0.2"/>
<path d="M19.4638 11.983C19.7441 11.7028 19.7441 11.2501 19.4638 10.9662C19.3956 10.8983 19.3129 10.844 19.2267 10.8085C19.1405 10.7761 19.0506 10.7578 18.9572 10.7578C18.8638 10.7578 18.7704 10.7761 18.6842 10.8085C18.5979 10.8444 18.5189 10.8983 18.447 10.9662L12.788 16.6253L11.7747 17.6421L7.68941 21.7274L2.83519 26.5816C2.55494 26.8619 2.55494 27.3146 2.83519 27.5949C2.97532 27.735 3.15857 27.8069 3.34541 27.8069C3.52865 27.8069 3.7119 27.735 3.85203 27.5949L8.71343 22.7335L9.72667 21.7202L13.8156 17.6313L19.4638 11.983Z" fill="white" stroke="white" stroke-width="0.2"/>
</svg>
