<svg width="24" height="24" viewBox="0 0 24 24" fill="none" xmlns="http://www.w3.org/2000/svg">
<circle cx="12" cy="12" r="11.5" fill="#6524EB" stroke="#C4B1EB"/>
<path d="M12 1C9.82441 1 7.69767 1.64514 5.88873 2.85383C4.07979 4.06253 2.66989 5.78049 1.83733 7.79048C1.00477 9.80047 0.786929 12.0122 1.21137 14.146C1.6358 16.2798 2.68345 18.2398 4.22183 19.7782C5.76021 21.3166 7.72022 22.3642 9.85401 22.7886C11.9878 23.2131 14.1995 22.9952 16.2095 22.1627C18.2195 21.3301 19.9375 19.9202 21.1462 18.1113C22.3549 16.3023 23 14.1756 23 12C22.9966 9.08367 21.8365 6.28778 19.7744 4.22563C17.7122 2.16347 14.9163 1.00344 12 1ZM12 19C11.8022 19 11.6089 18.9414 11.4444 18.8315C11.28 18.7216 11.1518 18.5654 11.0761 18.3827C11.0004 18.2 10.9806 17.9989 11.0192 17.8049C11.0578 17.6109 11.153 17.4327 11.2929 17.2929C11.4328 17.153 11.6109 17.0578 11.8049 17.0192C11.9989 16.9806 12.2 17.0004 12.3827 17.0761C12.5654 17.1518 12.7216 17.28 12.8315 17.4444C12.9414 17.6089 13 17.8022 13 18C13 18.2652 12.8946 18.5196 12.7071 18.7071C12.5196 18.8946 12.2652 19 12 19ZM14.34 12.244C13.9437 12.5055 13.6154 12.8578 13.3824 13.2715C13.1493 13.6852 13.0183 14.1485 13 14.623V15C13 15.2652 12.8946 15.5196 12.7071 15.7071C12.5196 15.8946 12.2652 16 12 16C11.7348 16 11.4804 15.8946 11.2929 15.7071C11.1054 15.5196 11 15.2652 11 15V14.623C11.0159 13.8315 11.2211 13.0553 11.5984 12.3594C11.9758 11.6635 12.5143 11.0681 13.169 10.623C13.4871 10.3944 13.731 10.0774 13.8706 9.71132C14.0101 9.34528 14.039 8.94632 13.9538 8.56397C13.8686 8.18162 13.673 7.83271 13.3913 7.56054C13.1095 7.28838 12.7541 7.10494 12.369 7.033C12.08 6.97875 11.7827 6.98889 11.498 7.06268C11.2134 7.13647 10.9486 7.27211 10.7224 7.45994C10.4962 7.64776 10.3142 7.88315 10.1893 8.14934C10.0644 8.41553 9.99981 8.70598 10 9C10 9.26522 9.89465 9.51957 9.70711 9.70711C9.51958 9.89464 9.26522 10 9 10C8.73479 10 8.48043 9.89464 8.2929 9.70711C8.10536 9.51957 8 9.26522 8 9C7.99998 8.31501 8.17587 7.6415 8.5108 7.04398C8.84574 6.44647 9.32851 5.94498 9.91286 5.58756C10.4972 5.23015 11.1635 5.02878 11.848 5.00275C12.5325 4.97673 13.2122 5.12692 13.822 5.43894C14.4318 5.75095 14.9513 6.21434 15.3306 6.7847C15.71 7.35505 15.9365 8.01327 15.9885 8.69628C16.0405 9.37929 15.9162 10.0642 15.6275 10.6854C15.3389 11.3066 14.8956 11.8433 14.34 12.244Z" fill="#EBE2FF"/>
</svg>
