<svg width="24" height="24" viewBox="0 0 24 24" fill="none" xmlns="http://www.w3.org/2000/svg">
<g clip-path="url(#clip0_1629_453)">
<path d="M12 23.5C18.3513 23.5 23.5 18.3513 23.5 12C23.5 5.64873 18.3513 0.5 12 0.5C5.64873 0.5 0.5 5.64873 0.5 12C0.5 18.3513 5.64873 23.5 12 23.5Z" fill="#6524EB" stroke="#C4B1EB"/>
<path d="M12 1C5.92195 1 1 5.92195 1 12C1 18.078 5.92195 23 12 23C18.078 23 23 18.078 23 12C23 5.92195 18.078 1 12 1ZM13.1279 19.6453H10.7357V17.253H13.1279V19.6453ZM13.1279 15.6297H10.7357L10.0202 6.33445L14.0077 4.38151L13.1279 15.6297Z" fill="#EBE2FF"/>
</g>
<defs>
<clipPath id="clip0_1629_453">
<rect width="24" height="24" fill="white"/>
</clipPath>
</defs>
</svg>
