<svg width="28" height="35" viewBox="0 0 28 35" fill="none" xmlns="http://www.w3.org/2000/svg">
<path d="M0 5.55396C0 4.12187 1.16094 2.96094 2.59302 2.96094H24.8189C26.251 2.96094 27.412 4.12187 27.412 5.55396V26.4637C27.412 27.8958 26.251 29.0567 24.8189 29.0567H16.3819C15.7608 29.0567 15.1604 29.2796 14.6898 29.6849L9.41906 34.224C7.70593 35.6993 5.10468 34.1258 5.61612 31.9235V31.9235C5.95654 30.4577 4.84363 29.0567 3.33881 29.0567H2.59302C1.16094 29.0567 0 27.8958 0 26.4637V5.55396Z" fill="#6524EB"/>
<path d="M11.4844 20.3714V7.60325H13.8299C14.0661 7.60325 14.2616 7.65661 14.4163 7.76331C14.5792 7.87002 14.6932 8.03009 14.7584 8.2435L14.9783 8.98226C15.2226 8.75242 15.4751 8.539 15.7357 8.342C15.9963 8.145 16.2732 7.98084 16.5664 7.8495C16.8677 7.70996 17.1894 7.60325 17.5315 7.52938C17.8817 7.44729 18.2604 7.40625 18.6676 7.40625C19.3599 7.40625 19.9707 7.52938 20.5001 7.77563C21.0376 8.01367 21.4896 8.35021 21.8561 8.78526C22.2226 9.21209 22.4995 9.72511 22.6868 10.3243C22.8741 10.9153 22.9678 11.5597 22.9678 12.2574V20.3714H19.1807V12.2574C19.1807 11.6336 19.0382 11.1493 18.7531 10.8045C18.4681 10.4516 18.0486 10.2751 17.4948 10.2751C17.0795 10.2751 16.6885 10.3654 16.3221 10.546C15.9556 10.7265 15.6054 10.9687 15.2714 11.2724V20.3714H11.4844Z" fill="white"/>
<path d="M9.26225 7.77344V20.3681H5.1875V7.77344H9.26225Z" fill="white"/>
<path d="M8.51814 24.4505C8.51814 25.2688 7.85475 25.9322 7.03641 25.9322C6.21808 25.9322 5.55469 25.2688 5.55469 24.4505C5.55469 23.6321 6.21808 22.9688 7.03641 22.9688C7.85475 22.9688 8.51814 23.6321 8.51814 24.4505Z" fill="white"/>
<path d="M9.26225 3.88894C9.26225 5.01415 8.35009 5.92631 7.22488 5.92631C6.09966 5.92631 5.1875 5.01415 5.1875 3.88894C5.1875 2.76373 6.09966 1.85156 7.22488 1.85156C8.35009 1.85156 9.26225 2.76373 9.26225 3.88894Z" fill="#FAFAFA"/>
<path d="M9.26285 3.88953C9.26285 2.76432 8.35068 1.85216 7.22547 1.85216C6.10026 1.85216 5.1881 2.76432 5.1881 3.88953C5.1881 5.01475 6.10026 5.92691 7.22547 5.92691C8.35068 5.92691 9.26285 5.01475 9.26285 3.88953ZM11.115 3.88953C11.115 6.03766 9.3736 7.77907 7.22547 7.77907C5.07734 7.77907 3.33594 6.03766 3.33594 3.88953C3.33594 1.7414 5.07734 0 7.22547 0C9.3736 0 11.115 1.7414 11.115 3.88953Z" fill="#6A30E2"/>
<path d="M15.0025 24.4505C15.0025 25.2688 14.3391 25.9322 13.5208 25.9322C12.7025 25.9322 12.0391 25.2688 12.0391 24.4505C12.0391 23.6321 12.7025 22.9688 13.5208 22.9688C14.3391 22.9688 15.0025 23.6321 15.0025 24.4505Z" fill="white"/>
<path d="M22.5963 24.4505C22.5963 25.2688 21.9329 25.9322 21.1145 25.9322C20.2962 25.9322 19.6328 25.2688 19.6328 24.4505C19.6328 23.6321 20.2962 22.9688 21.1145 22.9688C21.9329 22.9688 22.5963 23.6321 22.5963 24.4505Z" fill="white"/>
</svg>
