<svg width="50" height="50" viewBox="0 0 50 50" fill="none" xmlns="http://www.w3.org/2000/svg">
<g clip-path="url(#clip0_873_380)">
<rect width="50" height="50" fill="white"/>
<circle cx="25" cy="25" r="24.5" fill="#EBE2FF" stroke="#E0E5F2"/>
<path d="M13.4333 37.9962H31.362C31.4064 37.9962 31.4508 37.9897 31.4941 37.9756L32.1884 37.7536C35.3579 36.7386 37.4884 33.9061 37.4884 30.7042V26.1679C37.4884 26.0477 37.4385 25.9329 37.3508 25.8506C37.2631 25.7683 37.1504 25.7271 37.0248 25.7358C35.8874 25.817 34.931 25.7379 34.1523 25.5917V12.4333C34.1523 12.1939 33.9584 12 33.719 12H13.4333C13.1939 12 13 12.1939 13 12.4333V37.563C13 37.8024 13.1939 37.9962 13.4333 37.9962ZM36.622 26.6249V30.7031C36.622 33.5271 34.734 36.028 31.9243 36.927L31.3622 37.1068L30.8 36.927C27.9902 36.0279 26.1032 33.5257 26.1032 30.7031V26.6249C28.9865 26.7354 30.7337 25.8927 31.3621 25.5158C31.9903 25.8927 33.7395 26.7343 36.622 26.6249ZM13.8667 12.8664H33.2858V25.3857C32.1994 25.0683 31.6437 24.6665 31.6253 24.6535C31.4704 24.5354 31.2549 24.5354 31.0989 24.6546C31.0816 24.6676 29.3063 25.9923 25.7014 25.7356C25.5768 25.728 25.4631 25.7691 25.3753 25.8504C25.2876 25.9327 25.2378 26.0475 25.2378 26.1677V30.704C25.2378 33.3946 26.7456 35.8209 29.1069 37.1306L13.8665 37.1295L13.8667 12.8664Z" fill="#6524EB"/>
<path d="M19.7124 19.4966L23.5773 16.4161L27.4423 19.4966C27.5224 19.5594 27.6177 19.5908 27.712 19.5908C27.8398 19.5908 27.9654 19.5345 28.051 19.4273C28.2005 19.2399 28.1691 18.968 27.9817 18.8185L23.8461 15.5234C23.688 15.3978 23.4649 15.3978 23.3067 15.5234L19.1712 18.8185C18.9838 18.968 18.9534 19.2409 19.1018 19.4273C19.2502 19.6136 19.5243 19.645 19.7106 19.4966H19.7124Z" fill="#6524EB"/>
<path d="M26.7047 19.6937C26.4653 19.6937 26.2714 19.8876 26.2714 20.127V23.553H25.1178V20.6577C25.1178 20.4184 24.9239 20.2245 24.6845 20.2245H22.464C22.2246 20.2245 22.0308 20.4184 22.0308 20.6577V23.553H20.8783V20.127C20.8783 19.8876 20.6844 19.6937 20.445 19.6937C20.2056 19.6937 20.0117 19.8876 20.0117 20.127V23.9864C20.0117 24.2258 20.2056 24.4196 20.445 24.4196H22.4629H22.464H22.4651H24.6835H24.6845H24.6856H26.7047C26.944 24.4196 27.1379 24.2258 27.1379 23.9864V20.127C27.1379 19.8876 26.9441 19.6937 26.7047 19.6937ZM22.8974 21.091H24.2514V23.5531H22.8974V21.091Z" fill="#6524EB"/>
<path d="M16.777 27.4535H23.7765C24.0159 27.4535 24.2097 27.2596 24.2097 27.0202C24.2097 26.7808 24.0159 26.5869 23.7765 26.5869H16.777C16.5376 26.5869 16.3438 26.7808 16.3438 27.0202C16.3438 27.2596 16.5376 27.4535 16.777 27.4535Z" fill="#6524EB"/>
<path d="M16.777 29.7252H23.7765C24.0159 29.7252 24.2097 29.5313 24.2097 29.2919C24.2097 29.0525 24.0159 28.8586 23.7765 28.8586H16.777C16.5376 28.8586 16.3438 29.0525 16.3438 29.2919C16.3438 29.5313 16.5376 29.7252 16.777 29.7252Z" fill="#6524EB"/>
<path d="M16.777 32.0019H23.8089C24.0483 32.0019 24.2422 31.808 24.2422 31.5686C24.2422 31.3293 24.0483 31.1354 23.8089 31.1354H16.777C16.5376 31.1354 16.3438 31.3293 16.3438 31.5686C16.3438 31.808 16.5376 32.0019 16.777 32.0019Z" fill="#6524EB"/>
<path d="M24.3679 33.4078H16.777C16.5376 33.4078 16.3438 33.6017 16.3438 33.8411C16.3438 34.0805 16.5376 34.2744 16.777 34.2744H24.3679C24.6073 34.2744 24.8012 34.0805 24.8012 33.8411C24.8012 33.6017 24.6073 33.4078 24.3679 33.4078Z" fill="#6524EB"/>
<path d="M29.7789 30.5842C29.6099 30.4152 29.3358 30.4152 29.1658 30.5842C28.9968 30.7531 28.9968 31.0272 29.1658 31.1972L30.8404 32.8718C30.9249 32.9563 31.0354 32.9986 31.147 32.9986C31.2574 32.9986 31.369 32.9563 31.4535 32.8718L34.0228 30.3025C34.1918 30.1336 34.1918 29.8595 34.0228 29.6895C33.8538 29.5205 33.5798 29.5205 33.4097 29.6895L31.1459 31.9533L29.7778 30.5853L29.7789 30.5842Z" fill="#6524EB"/>
</g>
<defs>
<clipPath id="clip0_873_380">
<rect width="50" height="50" fill="white"/>
</clipPath>
</defs>
</svg>
