<svg width="50" height="50" viewBox="0 0 50 50" fill="none" xmlns="http://www.w3.org/2000/svg">
<g clip-path="url(#clip0_450_685)">
<rect width="50" height="50" fill="white"/>
<circle cx="25" cy="25" r="24.5" fill="#EBE2FF" stroke="#E0E5F2"/>
<path fill-rule="evenodd" clip-rule="evenodd" d="M11.463 23.1063L24.7064 13.1579C24.887 13.0228 25.1314 13.031 25.3009 13.1633L38.5375 23.1066C38.7403 23.2594 38.9903 23.3167 39.2279 23.2853C39.464 23.2539 39.6876 23.1352 39.8432 22.936C39.9988 22.7368 40.0571 22.4912 40.0252 22.2578C39.9932 22.0259 39.8724 21.8062 39.6696 21.6533L25.672 11.1373C25.5803 11.0677 25.4789 11.0185 25.3748 10.9885C25.2664 10.9571 25.1511 10.9462 25.0372 10.9544C25.0108 10.9558 24.9858 10.9558 24.9594 10.9544C24.8469 10.9462 24.7344 10.9585 24.6274 10.9899C24.5233 11.0199 24.4219 11.069 24.3302 11.1386L10.3575 21.6344C10.3422 21.6467 10.3269 21.659 10.3117 21.6699C10.1214 21.8214 10.0075 22.0343 9.9769 22.258C9.94634 22.4832 9.99912 22.7192 10.1436 22.9157C10.1547 22.9294 10.1658 22.943 10.1755 22.9567C10.3297 23.1436 10.5464 23.2555 10.7742 23.2855C11.0118 23.3169 11.2604 23.2596 11.4646 23.1067L11.463 23.1063ZM18.35 29.417H17.3346V33.3073H25.9345V29.417H24.919V31.8322C24.919 32.0956 24.7023 32.3084 24.4342 32.3084H18.8363C18.5683 32.3084 18.3516 32.0956 18.3516 31.8322V29.417H18.35ZM23.9479 30.1225V31.356H19.3194V30.1238C20.0945 29.941 20.8668 29.8509 21.6377 29.8496C22.4073 29.8496 23.1768 29.9396 23.9477 30.1211L23.9479 30.1225ZM19.3194 29.151C20.0917 28.9859 20.8654 28.9026 21.6377 28.9026C22.41 28.9026 23.1796 28.9845 23.9477 29.1482V28.9408C23.9477 28.6775 24.1644 28.4646 24.4325 28.4646H24.8979V26.4697C24.8979 26.3824 24.8604 26.3019 24.802 26.2446C24.7423 26.1859 24.6617 26.1504 24.5728 26.1504H18.6958C18.6069 26.1504 18.5249 26.1873 18.4666 26.2446C18.4069 26.3032 18.3708 26.3824 18.3708 26.4697V28.4646H18.8361C19.1042 28.4646 19.3209 28.6775 19.3209 28.9408V29.151L19.3194 29.151ZM25.4492 34.2611V34.7018C25.4492 34.9652 25.2325 35.178 24.9644 35.178C24.6963 35.178 24.4796 34.9652 24.4796 34.7018V34.2611H18.7886V34.7018C18.7886 34.9652 18.5719 35.178 18.3038 35.178C18.0357 35.178 17.819 34.9652 17.819 34.7018V34.2611H16.8494C16.5813 34.2611 16.3646 34.0482 16.3646 33.7849V28.9423C16.3646 28.679 16.5813 28.4661 16.8494 28.4661H17.3995V26.4712C17.3995 26.1205 17.5454 25.8026 17.7801 25.572C18.0149 25.3414 18.3385 25.1981 18.6955 25.1981H24.5725C24.9295 25.1981 25.2532 25.3414 25.4879 25.572C25.7227 25.8026 25.8685 26.1205 25.8685 26.4712V28.4661H26.4186C26.6867 28.4661 26.9034 28.679 26.9034 28.9423V33.7849C26.9034 34.0482 26.6867 34.2611 26.4186 34.2611H25.4492ZM33.1907 24.5732L33.4713 24.7765C33.4768 24.7806 33.4838 24.7847 33.4893 24.7902L38.365 28.3161L39.1359 27.2873L33.9616 23.5458L33.1906 24.5746L33.1907 24.5732ZM38.0386 29.2439C37.9886 29.2821 37.9386 29.323 37.89 29.3667C37.7691 29.4745 37.658 29.5932 37.5594 29.7255C37.3094 30.0585 37.1607 30.4337 37.1079 30.8144C37.0524 31.2115 37.0996 31.6168 37.2441 31.9906C37.3385 32.2362 37.2121 32.5105 36.9621 32.6033L36.9565 32.6047L36.4898 32.808V37.2139C36.4898 37.7051 36.2856 38.1526 35.9564 38.476C35.6272 38.7994 35.1716 39 34.6715 39L15.3314 38.9986C14.8313 38.9986 14.3757 38.7981 14.0465 38.4747C13.7173 38.1513 13.5131 37.7037 13.5131 37.2125V22.7624L12.0504 23.8608C11.6364 24.172 11.1294 24.2893 10.6474 24.2265C10.164 24.1638 9.70564 23.9195 9.38891 23.5129C9.0722 23.1049 8.95273 22.6082 9.01663 22.1347C9.08053 21.6599 9.32917 21.2096 9.74312 20.8985L23.7435 10.3824C23.9311 10.2419 24.1394 10.1395 24.3547 10.0768C24.5673 10.0154 24.7853 9.99079 25.0007 10.0031C25.216 9.99079 25.4355 10.0154 25.6466 10.0768C25.8633 10.1395 26.0702 10.2405 26.2578 10.3824L40.2568 20.8985C40.6721 21.211 40.9194 21.6613 40.9833 22.1347C41.0472 22.6082 40.9291 23.1049 40.611 23.5129C40.2929 23.9209 39.8345 24.1638 39.3525 24.2265C38.8705 24.2893 38.3649 24.1733 37.9495 23.8608L36.4868 22.7624V24.1897L39.8331 26.6103C40.0137 26.7413 40.1234 26.9324 40.1554 27.1329C40.1859 27.3335 40.1387 27.5464 40.0067 27.7224L39.0483 29.001C38.9149 29.1783 38.7219 29.2861 38.5177 29.3162C38.3579 29.3407 38.1884 29.3162 38.037 29.2425L38.0386 29.2439ZM33.1142 29.8197C33.1281 29.9138 33.1795 30.0012 33.2615 30.0612C33.3448 30.1212 33.4462 30.1431 33.5435 30.1281C33.6393 30.1144 33.7282 30.0639 33.7893 29.9834C33.8504 29.9016 33.8727 29.802 33.8574 29.7064C33.8435 29.6123 33.7921 29.525 33.7101 29.4649C33.6268 29.4049 33.5254 29.383 33.4282 29.3981C33.3323 29.4117 33.2434 29.4622 33.1823 29.5427C33.1212 29.6246 33.099 29.7242 33.1142 29.8197ZM29.9069 33.7372L30.607 27.8468C31.0168 27.8154 31.4196 27.713 31.7961 27.5397C32.2947 27.3105 32.7434 26.9598 33.0907 26.4959C33.2254 26.3158 33.3393 26.1261 33.4338 25.931L37.2259 28.6737C37.0648 28.8183 36.9134 28.982 36.7772 29.1649C36.43 29.6288 36.2216 30.1528 36.1466 30.689C36.091 31.0929 36.1105 31.5023 36.2022 31.8966L30.6822 34.3049L33.1297 31.0397C33.3131 31.0888 33.502 31.0983 33.6853 31.071C34.0257 31.0206 34.3465 30.8418 34.5674 30.5471C34.7869 30.2537 34.866 29.9003 34.8147 29.5674C34.7633 29.2331 34.5813 28.9178 34.2813 28.7009C33.9826 28.4853 33.6228 28.4075 33.2839 28.458C32.9436 28.5085 32.6227 28.6872 32.4018 28.982C32.1823 29.2753 32.1032 29.6288 32.1546 29.9617C32.1823 30.1432 32.249 30.3178 32.3518 30.4748L29.9069 33.7372ZM29.4429 35.8822L35.5187 33.231V37.2139C35.5187 37.4431 35.4229 37.6519 35.2687 37.802C35.1145 37.9535 34.902 38.0476 34.67 38.0476L15.3313 38.0462C15.0979 38.0462 14.8854 37.9521 14.7326 37.8006C14.5784 37.6492 14.4826 37.4404 14.4826 37.2125V22.0352L25.0006 14.1348L35.5186 22.0352V23.4898L34.4073 22.6861C34.2268 22.5564 34.0114 22.51 33.8073 22.5401C33.6031 22.5701 33.4086 22.6779 33.2752 22.8553L32.3182 24.1324C32.1862 24.3098 32.139 24.5213 32.1695 24.7219C32.2015 24.9238 32.3112 25.1135 32.4918 25.2445L32.6335 25.3468C32.6127 25.4014 32.589 25.4574 32.564 25.5106C32.496 25.6552 32.4126 25.7958 32.3126 25.9295C32.0626 26.2624 31.7431 26.5135 31.3889 26.6759C31.0263 26.8423 30.6249 26.9187 30.2235 26.8983C29.9609 26.8737 29.7262 27.0593 29.697 27.3172L28.7358 35.4045C28.7163 35.5682 28.7858 35.7374 28.9302 35.8425C29.0858 35.9544 29.2858 35.9612 29.4456 35.878L29.4429 35.8822Z" fill="#6524EB" stroke="white" stroke-width="0.2"/>
</g>
<defs>
<clipPath id="clip0_450_685">
<rect width="50" height="50" fill="white"/>
</clipPath>
</defs>
</svg>
