<svg width="50" height="50" viewBox="0 0 50 50" fill="none" xmlns="http://www.w3.org/2000/svg">
<g clip-path="url(#clip0_450_653)">
<rect width="50" height="50" fill="white"/>
<circle cx="25" cy="25" r="24.5" fill="#EBE2FF" stroke="#E0E5F2"/>
<path d="M22.4169 20.1953H21.3203V21.8409H22.4169V20.1953Z" fill="#6524EB"/>
<path d="M24.8075 20.1953H23.7109V21.8409H24.8075V20.1953Z" fill="#6524EB"/>
<path d="M27.1981 20.1953H26.1016V21.8409H27.1981V20.1953Z" fill="#6524EB"/>
<path d="M29.5966 20.1953H28.5V21.8409H29.5966V20.1953Z" fill="#6524EB"/>
<path d="M22.4169 24.5078H21.3203V26.153H22.4169V24.5078Z" fill="#6524EB"/>
<path d="M24.8075 24.5078H23.7109V26.153H24.8075V24.5078Z" fill="#6524EB"/>
<path d="M27.1981 24.5078H26.1016V26.153H27.1981V24.5078Z" fill="#6524EB"/>
<path d="M29.5966 24.5078H28.5V26.153H29.5966V24.5078Z" fill="#6524EB"/>
<path d="M22.4169 28.8203H21.3203V30.4652H22.4169V28.8203Z" fill="#6524EB"/>
<path d="M24.8075 28.8203H23.7109V30.4652H24.8075V28.8203Z" fill="#6524EB"/>
<path d="M27.1981 28.8203H26.1016V30.4652H27.1981V28.8203Z" fill="#6524EB"/>
<path d="M29.5966 28.8203H28.5V30.4652H29.5966V28.8203Z" fill="#6524EB"/>
<path d="M22.4169 33.1328H21.3203V34.7777H22.4169V33.1328Z" fill="#6524EB"/>
<path d="M24.8075 33.1328H23.7109V34.7777H24.8075V33.1328Z" fill="#6524EB"/>
<path d="M27.1981 33.1328H26.1016V34.7777H27.1981V33.1328Z" fill="#6524EB"/>
<path d="M29.5966 33.1328H28.5V34.7777H29.5966V33.1328Z" fill="#6524EB"/>
<path d="M12.6669 25.3438H11.5703V26.989H12.6669V25.3438Z" fill="#6524EB"/>
<path d="M15.0575 25.3438H13.9609V26.989H15.0575V25.3438Z" fill="#6524EB"/>
<path d="M17.456 25.3438H16.3594V26.989H17.456V25.3438Z" fill="#6524EB"/>
<path d="M12.6669 29.6562H11.5703V31.3018H12.6669V29.6562Z" fill="#6524EB"/>
<path d="M15.0575 29.6562H13.9609V31.3018H15.0575V29.6562Z" fill="#6524EB"/>
<path d="M17.456 29.6562H16.3594V31.3018H17.456V29.6562Z" fill="#6524EB"/>
<path d="M12.6669 33.9688H11.5703V35.6136H12.6669V33.9688Z" fill="#6524EB"/>
<path d="M15.0575 33.9688H13.9609V35.6136H15.0575V33.9688Z" fill="#6524EB"/>
<path d="M17.456 33.9688H16.3594V35.6136H17.456V33.9688Z" fill="#6524EB"/>
<path d="M41.8951 29.932C41.8951 27.725 40.0996 25.9295 37.8926 25.9295C37.6727 25.9295 37.4559 25.9529 37.242 25.9885C36.5395 24.7436 35.22 23.9594 33.7622 23.9594C33.138 23.9594 32.5318 24.1044 31.9857 24.3767V12.7671C31.9857 12.5933 31.9032 12.4298 31.7636 12.3263C31.6237 12.2231 31.4431 12.1917 31.2771 12.2428L19.3135 15.8983C19.0829 15.9687 18.9255 16.1818 18.9255 16.4227V21.6186L9.73781 18.2342C9.57003 18.1718 9.38231 18.1964 9.23452 18.2989C9.08745 18.4013 9 18.5694 9 18.7486V37.8942C9 38.1969 9.24558 38.4425 9.54828 38.4425H19.4723C19.476 38.4425 19.4793 38.4415 19.4829 38.4414H31.4374C31.7401 38.4414 31.9857 38.1958 31.9857 37.8931V31.5434C32.3703 31.7352 32.7855 31.8597 33.215 31.9189V37.8942C33.215 38.1969 33.4606 38.4425 33.7633 38.4425C34.066 38.4425 34.3116 38.1969 34.3116 37.8942V31.9218C34.3458 31.917 34.3789 31.907 34.413 31.9013C35.0289 32.9883 36.1126 33.7232 37.346 33.8922V37.8942C37.346 38.1969 37.5916 38.4425 37.8943 38.4425C38.197 38.4425 38.4426 38.1969 38.4426 37.8942V33.8886C40.3896 33.6194 41.8951 31.95 41.8951 29.932ZM18.924 37.3459H10.0966V19.535L18.924 22.7865V37.3459ZM30.8891 37.3448H20.022V16.8286L30.8891 13.5078V37.3448ZM31.9857 25.6671C32.4904 25.2716 33.1129 25.056 33.7622 25.056C34.7388 25.056 35.6312 25.5393 36.1638 26.3235C36.0751 26.3661 35.9885 26.4122 35.9037 26.4609C35.8748 26.4776 35.8473 26.4961 35.8188 26.5135C35.7608 26.5488 35.7032 26.5845 35.6473 26.6226C35.6137 26.6454 35.5815 26.6698 35.5488 26.6936C35.4998 26.7292 35.4512 26.7652 35.404 26.8029C35.3711 26.8293 35.3391 26.8566 35.307 26.8839C35.2621 26.9223 35.2179 26.9613 35.1747 27.0016C35.144 27.0302 35.1137 27.0591 35.084 27.0886C35.0414 27.1309 35.0002 27.1744 34.9595 27.2185C34.9321 27.2483 34.9046 27.2777 34.8781 27.3082C34.8359 27.3568 34.7957 27.4071 34.7559 27.4577C34.7339 27.4857 34.7111 27.5129 34.6898 27.5414C34.6387 27.61 34.5903 27.6805 34.5436 27.7523C34.5359 27.7642 34.5271 27.7755 34.5194 27.7876C34.4659 27.8719 34.4158 27.9585 34.3685 28.0468C34.3541 28.0736 34.3416 28.1014 34.3278 28.1285C34.2962 28.1909 34.2652 28.2537 34.2368 28.3179C34.2215 28.3525 34.2077 28.3878 34.1934 28.4229C34.1694 28.4814 34.1462 28.5401 34.1251 28.5998C34.1116 28.6378 34.0991 28.6761 34.0868 28.7146C34.0679 28.7734 34.0503 28.8327 34.0341 28.8925C34.0234 28.9317 34.0131 28.971 34.0036 29.0107C33.989 29.0722 33.9764 29.1343 33.9646 29.1967C33.9573 29.2353 33.9496 29.2737 33.9435 29.3127C33.9327 29.3813 33.9247 29.4505 33.9175 29.52C33.914 29.5533 33.9092 29.5863 33.9066 29.6198C33.8985 29.7231 33.8936 29.8271 33.8936 29.932C33.8936 30.0775 33.9031 30.2221 33.9187 30.366C33.924 30.4139 33.9332 30.4612 33.9402 30.5089C33.954 30.6038 33.9692 30.6983 33.9898 30.7922C33.9943 30.8127 33.9958 30.8336 34.0007 30.854C33.922 30.861 33.8432 30.8632 33.7645 30.8634C33.7641 30.8634 33.7637 30.8633 33.7633 30.8633C33.7624 30.8633 33.7615 30.8636 33.7606 30.8636C33.1217 30.8647 32.4894 30.6475 31.9857 30.2532V25.6671ZM37.8926 32.8344C36.7246 32.8344 35.6744 32.1391 35.2186 31.0664C35.0669 30.7016 34.9901 30.32 34.9901 29.932C34.9901 29.7704 35.0036 29.6111 35.0297 29.4554C35.2121 28.3649 36.0096 27.4474 37.0962 27.1392C37.3525 27.0642 37.6205 27.0261 37.8926 27.0261C39.4949 27.0261 40.7985 28.3296 40.7985 29.932C40.7985 31.5322 39.4949 32.8344 37.8926 32.8344Z" fill="#6524EB"/>
</g>
<defs>
<clipPath id="clip0_450_653">
<rect width="50" height="50" fill="white"/>
</clipPath>
</defs>
</svg>
