<svg width="17" height="17" viewBox="0 0 17 17" fill="none" xmlns="http://www.w3.org/2000/svg">
<path d="M11.5656 9.02307C12.2621 8.40242 12.753 7.58571 12.9734 6.68101C13.1938 5.7763 13.1333 4.82625 12.7998 3.95657C12.4664 3.08688 11.8758 2.33856 11.1062 1.81061C10.3365 1.28267 9.42416 1 8.48975 1C7.55533 1 6.64295 1.28267 5.87331 1.81061C5.10368 2.33856 4.51307 3.08688 4.17966 3.95657C3.84624 4.82625 3.78572 5.7763 4.00611 6.68101C4.2265 7.58571 4.71741 8.40242 5.41387 9.02307C4.12539 9.47258 3.00874 10.3095 2.21811 11.4184C1.42747 12.5272 1.00185 13.8533 1 15.2134C1 15.422 1.08318 15.6221 1.23123 15.7696C1.37929 15.9171 1.58009 16 1.78947 16C1.99885 16 2.19966 15.9171 2.34772 15.7696C2.49577 15.6221 2.57895 15.422 2.57895 15.2134C2.5803 13.889 3.10896 12.6193 4.04892 11.6828C4.98887 10.7463 6.26333 10.2196 7.59262 10.2182H9.40738C10.7367 10.2196 12.0111 10.7463 12.9511 11.6828C13.891 12.6193 14.4197 13.889 14.4211 15.2134C14.4211 15.422 14.5042 15.6221 14.6523 15.7696C14.8003 15.9171 15.0011 16 15.2105 16C15.4199 16 15.6207 15.9171 15.7688 15.7696C15.9168 15.6221 16 15.422 16 15.2134C15.9967 13.8508 15.568 12.5229 14.7735 11.4138C13.979 10.3046 12.8579 9.46915 11.5656 9.02307ZM8.48975 2.61307C9.08694 2.61307 9.67073 2.78951 10.1673 3.12007C10.6638 3.45063 11.0508 3.92048 11.2794 4.47018C11.5079 5.01989 11.5677 5.62477 11.4512 6.20833C11.3347 6.79189 11.0471 7.32793 10.6248 7.74866C10.2026 8.16938 9.66454 8.4559 9.07882 8.57198C8.4931 8.68806 7.88598 8.62848 7.33424 8.40079C6.7825 8.17309 6.31092 7.7875 5.97914 7.29278C5.64736 6.79806 5.47027 6.21643 5.47027 5.62143C5.47027 5.22637 5.54837 4.83517 5.70011 4.47018C5.85185 4.10519 6.07427 3.77355 6.35465 3.4942C6.92091 2.93002 7.68893 2.61307 8.48975 2.61307Z" fill="#B2B2B2" stroke="white" stroke-width="0.4"/>
</svg>
