<svg width="16" height="14" viewBox="0 0 16 14" fill="none" xmlns="http://www.w3.org/2000/svg">
<path d="M2.45703 0.870117H13.5537C14.8784 0.8761 15.9492 1.9518 15.9492 3.27734V10.6816L15.9355 10.9258C15.8084 12.1321 14.7916 13.0726 13.5537 13.0781H2.44531L2.2002 13.0645C0.991094 12.9364 0.0498047 11.9128 0.0498047 10.6709V3.27734C0.0498047 1.94755 1.12808 0.870117 2.45703 0.870117ZM13.5537 1.88672L2.44531 1.89746C1.68253 1.90379 1.06658 2.5244 1.06641 3.28711V10.6816C1.06641 11.3977 1.60748 11.9874 2.30371 12.0635L2.44531 12.0713H13.5547C14.3175 12.0649 14.9326 11.4454 14.9326 10.6816V3.27734C14.9326 2.56119 14.3917 1.97144 13.6953 1.89551L13.5547 1.88672H13.5537Z" fill="#B2B2B2" stroke="white" stroke-width="0.1"/>
<path d="M14.4131 1.47266C14.5869 1.29885 14.8562 1.27676 15.0537 1.40723L15.1328 1.47266C15.3066 1.64643 15.3286 1.91481 15.1982 2.1123L15.1328 2.19238L9.7002 7.62598C9.25075 8.07798 8.63848 8.33168 8.00195 8.3291L7.76465 8.31738C7.29384 8.27162 6.84755 8.08655 6.48242 7.78613L6.30664 7.62598L0.875 2.18945C0.694841 1.98855 0.703936 1.68181 0.894531 1.49121C1.06146 1.32461 1.31691 1.29737 1.5127 1.41406L1.5918 1.47266L7.02832 6.90625C7.2863 7.16513 7.63823 7.31152 8.00488 7.31152C8.32494 7.31145 8.63392 7.19959 8.87891 6.99805L8.97949 6.90625L14.4131 1.47266Z" fill="#B2B2B2" stroke="white" stroke-width="0.1"/>
<path d="M9.30078 6.65234C9.46751 6.48562 9.72261 6.45734 9.91895 6.57324L9.99902 6.63184L15.1338 11.7666C15.2291 11.8619 15.2822 11.9909 15.2822 12.126C15.2822 12.2271 15.2523 12.3246 15.1973 12.4072L15.1338 12.4844L15.1328 12.4854C15.0384 12.5811 14.9101 12.6348 14.7754 12.6348C14.6742 12.6348 14.5761 12.6046 14.4932 12.5488L14.416 12.4854V12.4844L9.28027 7.34961C9.12375 7.17377 9.11027 6.91733 9.2373 6.72852L9.30078 6.65234Z" fill="#B2B2B2" stroke="white" stroke-width="0.1"/>
<path d="M6.00488 6.61328C6.20413 6.41493 6.52513 6.41432 6.72461 6.6123V6.61328C6.8984 6.78707 6.92045 7.05544 6.79004 7.25293L6.72461 7.33301L1.58887 12.4697L1.58691 12.4707C1.49313 12.5707 1.36371 12.6275 1.22754 12.6299C1.0486 12.628 0.885411 12.534 0.794922 12.3838L0.760742 12.3164C0.691854 12.1501 0.715919 11.9625 0.819336 11.8203L0.868164 11.7627L6.00488 6.61328Z" fill="#B2B2B2" stroke="white" stroke-width="0.1"/>
</svg>
