<svg width="18" height="18" viewBox="0 0 18 18" fill="none" xmlns="http://www.w3.org/2000/svg">
<path d="M1.00016 6.12827V12.7768C0.994203 13.6955 1.73226 14.4444 2.65087 14.4534H8.83217C9.04247 14.4534 9.2131 14.2827 9.2131 14.0724C9.2131 13.8621 9.04247 13.6915 8.83217 13.6915H2.65087C2.15289 13.6836 1.75608 13.2749 1.76202 12.7768V6.12827C1.76103 5.82273 1.90983 5.53703 2.15883 5.36145L7.23796 1.90713C7.53458 1.70476 7.92542 1.70476 8.22204 1.90713L13.2981 5.35942C13.5491 5.53401 13.6989 5.82169 13.6979 6.12822V7.0369C13.6979 7.24721 13.8685 7.41783 14.0788 7.41783C14.2891 7.41783 14.4598 7.24721 14.4598 7.0369V6.12822C14.4608 5.57071 14.187 5.0489 13.7296 4.73146L8.65051 1.27715C8.09597 0.897202 7.36387 0.897202 6.80933 1.27715L1.72716 4.73324C1.27082 5.05068 0.999012 5.57249 1 6.12802L1.00016 6.12827Z" fill="#B2B2B2" stroke="#B2B2B2" stroke-width="0.2"/>
<path d="M13.2343 8.10159C12.2364 8.10258 11.2791 8.50038 10.5729 9.2067C9.86667 9.91303 9.46974 10.8703 9.46875 11.8692C9.46875 14.7351 12.8921 16.8472 13.0381 16.9343H13.0371C13.1591 17.0087 13.3119 17.0087 13.4329 16.9343C13.5778 16.846 17.0023 14.735 17.0023 11.8692C17.0013 10.8702 16.6035 9.91194 15.8982 9.20569C15.1919 8.50038 14.2336 8.10255 13.2347 8.10156L13.2343 8.10159ZM13.2333 16.1538C12.535 15.6786 10.2296 13.9515 10.2296 11.8693H10.2305C10.2305 10.2086 11.5757 8.86346 13.2354 8.86346C14.895 8.86346 16.2402 10.2086 16.2402 11.8693C16.2402 13.9466 13.9327 15.6776 13.2343 16.1538H13.2333Z" fill="#B2B2B2" stroke="#B2B2B2" stroke-width="0.2"/>
<path d="M13.2324 9.86719C12.422 9.86719 11.6899 10.3563 11.3793 11.1052C11.0688 11.8552 11.2405 12.7183 11.8138 13.2916C12.3882 13.866 13.2513 14.0376 14.0003 13.7271C14.7502 13.4166 15.2393 12.6845 15.2393 11.873C15.2383 10.7659 14.3405 9.86818 13.2324 9.86719ZM13.2324 13.1171C12.7295 13.1171 12.2761 12.8145 12.0837 12.3493C11.8902 11.884 11.9974 11.3493 12.3535 10.9932C12.7087 10.6371 13.2443 10.5309 13.7096 10.7234C14.1748 10.9168 14.4774 11.3702 14.4774 11.8741C14.4764 12.5605 13.9199 13.1171 13.2324 13.1171Z" fill="#B2B2B2" stroke="#B2B2B2" stroke-width="0.2"/>
</svg>
