<svg width="50" height="50" viewBox="0 0 50 50" fill="none" xmlns="http://www.w3.org/2000/svg">
<circle cx="25" cy="25" r="25" fill="#EBE2FF"/>
<path d="M30.6055 12.001C30.4906 12.0063 30.3779 12.0343 30.2738 12.0832C30.1696 12.1322 30.0762 12.2011 29.9987 12.2862C29.9213 12.3713 29.8613 12.4707 29.8223 12.579C29.7833 12.6872 29.766 12.8021 29.7714 12.917C29.7768 13.0319 29.8047 13.1446 29.8537 13.2488C29.9027 13.3529 29.9717 13.4463 30.0567 13.5238C30.1418 13.6012 30.2413 13.6611 30.3496 13.7001C30.4578 13.7391 30.5727 13.7564 30.6876 13.751H36.006L28.2676 21.4893C26.4381 19.9416 24.0778 19.001 21.5 19.001C15.7114 19.001 11 23.7124 11 29.501C11 35.2897 15.7114 40.0011 21.5 40.0011C27.2887 40.0011 32.0001 35.2897 32.0001 29.501C32.0001 26.9195 31.0635 24.5504 29.5118 22.7198L37.2501 14.9814V20.3135C37.2485 20.4294 37.2699 20.5446 37.3131 20.6522C37.3564 20.7598 37.4206 20.8577 37.502 20.9403C37.5834 21.0228 37.6804 21.0884 37.7874 21.1331C37.8943 21.1779 38.0091 21.2009 38.1251 21.2009C38.2411 21.2009 38.3559 21.1779 38.4628 21.1331C38.5698 21.0884 38.6668 21.0228 38.7482 20.9403C38.8297 20.8577 38.8939 20.7598 38.9371 20.6522C38.9803 20.5446 39.0017 20.4294 39.0001 20.3135V12.876C39.0001 12.6439 38.9079 12.4214 38.7438 12.2573C38.5797 12.0932 38.3572 12.001 38.1251 12.001H30.6876C30.6602 11.9997 30.6329 11.9997 30.6055 12.001ZM21.5 20.751C26.3429 20.751 30.2501 24.6582 30.2501 29.501C30.2501 34.3439 26.3429 38.2511 21.5 38.2511C16.6572 38.2511 12.75 34.3439 12.75 29.501C12.75 24.6582 16.6572 20.751 21.5 20.751Z" fill="#6524EB" stroke="#6524EB" stroke-width="0.5"/>
</svg>
