<svg width="50" height="50" viewBox="0 0 50 50" fill="none" xmlns="http://www.w3.org/2000/svg">
<g clip-path="url(#clip0_700_332)">
<rect width="50" height="50" fill="white"/>
<circle cx="25" cy="25" r="24.5" fill="#EBE2FF" stroke="#E0E5F2"/>
<path d="M39.9975 36.9804C39.7928 34.2241 37.9239 31.9416 35.4383 31.1123C36.486 30.4271 37.1814 29.2369 37.1814 27.8853C37.1814 25.7666 35.4745 24.0427 33.3767 24.0427C31.2789 24.0427 29.5719 25.7666 29.5719 27.8853C29.5719 29.2349 30.265 30.4234 31.3101 31.109C29.9969 31.5432 28.8403 32.3889 28.0049 33.5523C27.7027 33.3958 27.3875 33.2625 27.0617 33.1539C28.1095 32.4687 28.8048 31.2785 28.8048 29.9268C28.8048 27.8082 27.0979 26.0843 25.0001 26.0843C22.902 26.0843 21.1953 27.8082 21.1953 29.9268C21.1953 31.2785 21.8907 32.4687 22.9384 33.1539C22.6126 33.2625 22.2975 33.3958 21.9952 33.5523C21.1598 32.3886 20.0029 31.5432 18.6901 31.109C19.7352 30.4234 20.4283 29.2349 20.4283 27.8853C20.4283 25.7666 18.7213 24.0427 16.6235 24.0427C14.5254 24.0427 12.8187 25.7666 12.8187 27.8853C12.8187 29.2369 13.5141 30.4271 14.5619 31.1123C12.0762 31.9413 10.2073 34.2241 10.0026 36.9804C9.9834 37.2327 10.07 37.4833 10.2395 37.6676C10.4091 37.8522 10.6499 37.9581 10.9007 37.9581H18.5448C18.4622 38.3029 18.4058 38.6584 18.3789 39.0219C18.3603 39.2742 18.4466 39.5249 18.6161 39.7095C18.7857 39.8941 19.0265 40 19.2773 40H30.7225C30.973 40 31.2138 39.8941 31.3834 39.7095C31.5529 39.5249 31.6395 39.2742 31.6206 39.0219C31.5937 38.6584 31.5373 38.3029 31.4547 37.9581H39.0988C39.3492 37.9581 39.5901 37.8522 39.76 37.6676C39.9295 37.483 40.0161 37.2327 39.9975 36.9804ZM30.5128 27.8853C30.5128 26.2907 31.7974 24.9933 33.3763 24.9933C34.9552 24.9933 36.2399 26.2907 36.2399 27.8853C36.2399 29.4795 34.9562 30.7762 33.3777 30.7773C33.377 30.7773 33.3767 30.7773 33.376 30.7773C33.3757 30.7773 33.375 30.7773 33.3747 30.7773C31.7968 30.7766 30.5128 29.4795 30.5128 27.8853ZM22.1362 29.9272C22.1362 28.3326 23.4208 27.0352 24.9997 27.0352C26.5787 27.0352 27.8633 28.3326 27.8633 29.9272C27.8633 31.5218 26.5787 32.8192 24.9997 32.8192C23.4208 32.8192 22.1362 31.5218 22.1362 29.9272ZM13.7596 27.8853C13.7596 26.2907 15.0443 24.9933 16.6232 24.9933C18.2021 24.9933 19.4867 26.2907 19.4867 27.8853C19.4867 29.4795 18.2027 30.7766 16.6245 30.7773C16.6242 30.7773 16.6235 30.7773 16.6232 30.7773C16.6225 30.7773 16.6222 30.7773 16.6215 30.7773C15.0433 30.7766 13.7596 29.4795 13.7596 27.8853ZM18.8484 37.0075H10.9439C11.1867 34.0438 13.672 31.7285 16.6215 31.7278C16.6222 31.7278 16.6225 31.7278 16.6232 31.7278C16.6235 31.7278 16.6242 31.7278 16.6245 31.7278C18.435 31.7282 20.1081 32.5873 21.186 34.0468C20.1542 34.783 19.3341 35.8083 18.8484 37.0075ZM19.3208 39.0497C19.5633 36.0854 22.0496 33.7697 24.9997 33.7697C27.9499 33.7697 30.4362 36.0854 30.6787 39.0494L19.3208 39.0497ZM31.1508 37.0075C30.6654 35.808 29.8453 34.783 28.8131 34.0468C29.8911 32.5873 31.5642 31.7282 33.3747 31.7278C33.375 31.7278 33.3757 31.7278 33.376 31.7278C33.3767 31.7278 33.377 31.7278 33.3777 31.7278C36.3271 31.7285 38.8124 34.0438 39.0553 37.0075H31.1508ZM18.5172 21.1692C18.6762 21.1692 18.8374 21.1521 18.9983 21.1186C19.2518 21.5173 19.6924 21.7636 20.1642 21.7636C20.2322 21.7636 20.3012 21.7579 20.3699 21.7472L21.264 25.118C21.3731 25.5287 21.7424 25.8005 22.1448 25.8005C22.2228 25.8005 22.3018 25.7904 22.3807 25.769L23.2662 25.5294C23.5011 25.4658 23.6975 25.3136 23.8193 25.1002C23.9411 24.8871 23.9736 24.6391 23.9105 24.4019L23.0214 21.0502L28.5985 21.3015C28.8742 21.7505 29.3642 22.0286 29.8891 22.0286C30.0188 22.0286 30.1508 22.0115 30.2819 21.9764C31.0908 21.7576 31.5725 20.9145 31.3558 20.0976L30.7955 17.9854C31.3867 17.657 31.8339 17.0958 32.0118 16.4249C32.3687 15.08 31.5755 13.6925 30.2437 13.3323C30.0132 13.2699 29.7753 13.2425 29.5384 13.2482L28.9784 11.1369C28.7614 10.32 27.927 9.83382 27.1181 10.0523C26.4562 10.2315 26.0136 10.8286 25.9934 11.487L21.2603 14.5388L18.7953 15.206C18.4386 15.3025 18.14 15.534 17.9549 15.858C17.8421 16.055 17.7801 16.2718 17.7701 16.4926C16.585 16.8883 15.8953 18.1583 16.2224 19.3906C16.506 20.4615 17.4682 21.1692 18.5172 21.1692ZM22.1654 24.8429L21.2812 21.5103L22.1093 21.2861L22.9935 24.6187L22.1654 24.8429ZM26.1918 12.4869L28.274 20.3355L23.3011 20.1114L21.9959 15.1922L26.1918 12.4869ZM30.0002 14.2504C30.8306 14.4752 31.3253 15.3403 31.1027 16.179C31.0125 16.5194 30.8107 16.8146 30.5403 17.0234L29.7939 14.2095C29.8632 14.2185 29.9322 14.2319 30.0002 14.2504ZM27.0123 11.2428C27.0899 11.1071 27.214 11.0102 27.362 10.9704C27.4117 10.957 27.4618 10.9503 27.5113 10.9503C27.7664 10.9503 28.0003 11.1225 28.0693 11.3828L30.4468 20.3436C30.5291 20.6542 30.3459 20.9748 30.0384 21.0579C29.7308 21.1414 29.4133 20.9561 29.331 20.6455L26.9532 11.6847C26.9137 11.5353 26.9346 11.3785 27.0123 11.2428ZM18.7697 16.3335C18.8294 16.2293 18.9247 16.1549 19.0388 16.1241L21.1193 15.5611L22.3592 20.2347L20.2786 20.7976C20.1645 20.8284 20.0454 20.8123 19.9422 20.752C19.839 20.692 19.7654 20.5955 19.7349 20.4803L18.7249 16.6729C18.6944 16.5583 18.7103 16.4373 18.7697 16.3335ZM17.2764 18.0467C17.434 17.7709 17.6709 17.5612 17.9536 17.4392L18.6881 20.2075C17.9911 20.293 17.3179 19.849 17.1311 19.1444C17.0326 18.7731 17.0843 18.3831 17.2764 18.0467ZM33.0512 14.3445L34.3474 13.9937C34.5983 13.926 34.8564 14.0761 34.9237 14.3298C34.9911 14.5834 34.8421 14.8438 34.591 14.9118L33.2947 15.2626C33.2539 15.2737 33.2128 15.279 33.1726 15.279C32.9649 15.279 32.7748 15.139 32.7184 14.9265C32.6511 14.6732 32.8001 14.4125 33.0512 14.3445ZM31.9129 13.5179C31.7291 13.3323 31.7291 13.0314 31.9129 12.8457L32.8618 11.8875C33.0456 11.7018 33.3435 11.7018 33.5273 11.8875C33.7111 12.0731 33.7111 12.374 33.5273 12.5596L32.5784 13.5179C32.4865 13.6107 32.3661 13.6569 32.2457 13.6569C32.1252 13.6569 32.0048 13.6107 31.9129 13.5179ZM34.9237 17.1504C34.8673 17.3628 34.6772 17.5029 34.4695 17.5029C34.4291 17.5029 34.3882 17.4975 34.3474 17.4864L33.0512 17.1356C32.8001 17.0676 32.6511 16.8069 32.7184 16.5536C32.7858 16.3003 33.0436 16.1499 33.2947 16.2175L34.591 16.5684C34.8421 16.6364 34.9911 16.8967 34.9237 17.1504Z" fill="#6524EB"/>
</g>
<defs>
<clipPath id="clip0_700_332">
<rect width="50" height="50" fill="white"/>
</clipPath>
</defs>
</svg>
