<svg width="440" height="257" viewBox="0 0 440 257" fill="none" xmlns="http://www.w3.org/2000/svg">
<mask id="mask0_258_2834" style="mask-type:alpha" maskUnits="userSpaceOnUse" x="0" y="0" width="440" height="252">
<path d="M0 0H440V165.056C440 190.615 420.725 212.059 395.311 214.774L55.3107 251.092C25.7631 254.248 0 231.09 0 201.375V0Z" fill="#D9D9D9"/>
</mask>
<g mask="url(#mask0_258_2834)">
<path d="M0 0H440V165.056C440 190.615 420.725 212.059 395.311 214.774L55.3107 251.092C25.7631 254.248 0 231.09 0 201.375V0Z" fill="url(#paint0_linear_258_2834)"/>
</g>
<path d="M305.514 113.756C305.514 115.321 306.058 116.648 307.147 117.737C308.304 118.826 309.665 119.37 311.231 119.37H321.133V131.212H311.231C308.576 131.212 306.058 130.736 303.676 129.783C301.362 128.762 299.32 127.401 297.551 125.7C295.849 123.93 294.488 121.889 293.467 119.575C292.447 117.261 291.936 114.777 291.936 112.122V96.8093H284.586V85.4777H291.936V67H305.514V113.756Z" fill="black"/>
<path d="M252.685 79.3516C256.36 79.3516 259.831 80.0662 263.098 81.4954C266.364 82.8565 269.189 84.7622 271.571 87.2122C274.021 89.5943 275.927 92.3846 277.288 95.5833C278.717 98.782 279.432 102.219 279.432 105.894C279.432 109.637 278.717 113.142 277.288 116.409C275.927 119.676 274.021 122.534 271.571 124.984C269.189 127.366 266.364 129.272 263.098 130.701C259.831 132.062 256.36 132.743 252.685 132.743C247.649 132.743 243.463 131.382 240.128 128.659V128.557L245.232 119.165L245.335 119.267C247.172 120.084 249.044 120.492 250.949 120.492C252.923 120.492 254.795 120.118 256.564 119.37C258.334 118.621 259.865 117.6 261.158 116.307C262.519 114.946 263.574 113.38 264.323 111.611C265.071 109.841 265.446 107.936 265.446 105.894C265.446 103.92 265.071 102.083 264.323 100.381C263.574 98.6119 262.519 97.0806 261.158 95.7875C259.865 94.4944 258.334 93.4735 256.564 92.7249C254.795 91.9763 252.923 91.602 250.949 91.602C248.908 91.602 247.002 91.9763 245.232 92.7249C243.531 93.4735 242.034 94.4944 240.741 95.7875C239.448 97.0806 238.427 98.6119 237.678 100.381C236.929 102.083 236.555 103.92 236.555 105.894V151.629H222.773V80.1683H236.555V87.1101C240.23 81.9378 245.607 79.3516 252.685 79.3516Z" fill="black"/>
<path d="M163.586 131.215L177.266 112.635L189.72 118.352L180.226 131.215H163.586ZM198.908 105.898L217.692 131.215H200.95V131.113L182.37 106L163.688 80.1719H180.226L190.537 97.5266L200.95 80.1719H217.692L217.488 80.274L198.908 105.898Z" fill="black"/>
<path d="M140.98 79.3516C144.587 79.3516 147.99 80.0662 151.189 81.4954C154.387 82.8565 157.178 84.7281 159.56 87.1101C161.942 89.4922 163.813 92.2825 165.175 95.4812C166.604 98.68 167.318 102.117 167.318 105.792C167.318 107.766 167.114 109.671 166.706 111.509L166.604 111.713H140.674L134.14 101.3H153.537C152.584 98.4418 150.985 96.0938 148.739 94.2562C146.561 92.4186 143.975 91.4999 140.98 91.4999C139.142 91.4999 137.407 91.8742 135.774 92.6228C134.14 93.3715 132.711 94.3923 131.486 95.6854C130.329 96.9105 129.41 98.4077 128.73 100.177C128.049 101.879 127.709 103.75 127.709 105.792C127.709 107.357 128.015 108.991 128.628 110.692C129.24 112.326 130.125 113.823 131.282 115.184C132.439 116.545 133.834 117.702 135.467 118.655C137.101 119.54 138.938 119.982 140.98 119.982C142.818 119.982 144.485 119.744 145.982 119.267C147.548 118.723 149.011 117.566 150.372 115.796L150.474 115.694L150.678 115.796L162.52 121.003L162.316 121.207C159.866 124.61 156.735 127.264 152.924 129.17C149.181 131.075 145.2 132.028 140.98 132.028C137.305 132.028 133.834 131.348 130.567 129.987C127.368 128.625 124.578 126.754 122.196 124.372C119.814 121.99 117.908 119.199 116.479 116.001C115.118 112.802 114.438 109.399 114.438 105.792C114.438 102.117 115.118 98.68 116.479 95.4812C117.908 92.2825 119.814 89.4922 122.196 87.1101C124.578 84.7281 127.368 82.8565 130.567 81.4954C133.834 80.0662 137.305 79.3516 140.98 79.3516Z" fill="black"/>
<path d="M117.604 82.21L116.379 84.2517L111.173 93.5416L111.071 93.4395C108.825 92.1464 106.409 91.4999 103.823 91.4999C102.053 91.4999 100.386 91.8061 98.8205 92.4186C97.2552 92.9631 95.86 93.7798 94.635 94.8687C93.4099 95.8896 92.355 97.1146 91.4703 98.5438C90.6536 99.9731 90.1091 101.504 89.8369 103.138V131.212H75.9531V80.1683H89.8369V86.8039C93.444 81.8357 98.7184 79.3516 105.66 79.3516C109.744 79.3516 113.691 80.3044 117.502 82.21H117.604Z" fill="black"/>
<path d="M306.156 85.375H318.662V96.8597L306.156 85.375Z" fill="black"/>
<path d="M325.555 100.182C325.555 98.2091 327.154 96.6094 329.128 96.6094H359.754C361.727 96.6094 363.327 98.2091 363.327 100.182V128.995C363.327 130.968 361.727 132.568 359.754 132.568H348.128C347.272 132.568 346.445 132.875 345.796 133.433L338.534 139.688C336.173 141.721 332.589 139.553 333.293 136.518V136.518C333.762 134.498 332.229 132.568 330.155 132.568H329.128C327.154 132.568 325.555 130.968 325.555 128.995V100.182Z" fill="#6524EB"/>
<path d="M341.383 120.6V103.006H344.615C344.94 103.006 345.21 103.079 345.423 103.226C345.647 103.373 345.804 103.594 345.894 103.888L346.197 104.906C346.534 104.589 346.882 104.295 347.241 104.024C347.6 103.752 347.982 103.526 348.386 103.345C348.801 103.153 349.244 103.006 349.715 102.904C350.198 102.791 350.72 102.734 351.281 102.734C352.235 102.734 353.076 102.904 353.806 103.243C354.547 103.571 355.169 104.035 355.674 104.635C356.179 105.223 356.561 105.93 356.819 106.755C357.077 107.57 357.206 108.458 357.206 109.419V120.6H351.988V109.419C351.988 108.559 351.791 107.892 351.399 107.417C351.006 106.931 350.428 106.687 349.665 106.687C349.093 106.687 348.554 106.812 348.049 107.061C347.544 107.31 347.061 107.643 346.601 108.062V120.6H341.383Z" fill="white"/>
<path d="M338.318 103.242V120.597H332.703V103.242H338.318Z" fill="white"/>
<path d="M337.294 126.214C337.294 127.341 336.38 128.255 335.253 128.255C334.125 128.255 333.211 127.341 333.211 126.214C333.211 125.086 334.125 124.172 335.253 124.172C336.38 124.172 337.294 125.086 337.294 126.214Z" fill="white"/>
<path d="M338.318 97.8855C338.318 99.436 337.061 100.693 335.511 100.693C333.96 100.693 332.703 99.436 332.703 97.8855C332.703 96.335 333.96 95.0781 335.511 95.0781C337.061 95.0781 338.318 96.335 338.318 97.8855Z" fill="#FAFAFA"/>
<path d="M338.315 97.883C338.315 96.3325 337.058 95.0756 335.508 95.0756C333.958 95.0756 332.701 96.3325 332.701 97.883C332.701 99.4335 333.958 100.69 335.508 100.69C337.058 100.69 338.315 99.4335 338.315 97.883ZM340.868 97.883C340.868 100.843 338.468 103.243 335.508 103.243C332.548 103.243 330.148 100.843 330.148 97.883C330.148 94.923 332.548 92.5234 335.508 92.5234C338.468 92.5234 340.868 94.923 340.868 97.883Z" fill="#6A30E2"/>
<path d="M346.224 126.214C346.224 127.341 345.31 128.255 344.182 128.255C343.055 128.255 342.141 127.341 342.141 126.214C342.141 125.086 343.055 124.172 344.182 124.172C345.31 124.172 346.224 125.086 346.224 126.214Z" fill="white"/>
<path d="M356.693 126.214C356.693 127.341 355.779 128.255 354.651 128.255C353.523 128.255 352.609 127.341 352.609 126.214C352.609 125.086 353.523 124.172 354.651 124.172C355.779 124.172 356.693 125.086 356.693 126.214Z" fill="white"/>
<path d="M215.629 144.156L216.695 144.287C216.527 144.91 216.215 145.394 215.76 145.738C215.306 146.082 214.725 146.254 214.018 146.254C213.127 146.254 212.42 145.98 211.897 145.434C211.377 144.884 211.117 144.113 211.117 143.124C211.117 142.1 211.381 141.305 211.908 140.739C212.436 140.173 213.12 139.891 213.96 139.891C214.774 139.891 215.439 140.168 215.955 140.722C216.471 141.276 216.729 142.056 216.729 143.061C216.729 143.122 216.727 143.214 216.723 143.336H212.183C212.222 144.005 212.411 144.517 212.751 144.872C213.091 145.227 213.515 145.405 214.024 145.405C214.402 145.405 214.725 145.306 214.992 145.107C215.26 144.908 215.472 144.591 215.629 144.156ZM212.241 142.487H215.64C215.594 141.975 215.464 141.591 215.25 141.335C214.922 140.938 214.495 140.739 213.972 140.739C213.498 140.739 213.099 140.898 212.774 141.215C212.453 141.532 212.275 141.956 212.241 142.487Z" fill="black"/>
<path d="M209.678 143.886L210.693 144.018C210.582 144.717 210.298 145.266 209.839 145.663C209.384 146.057 208.824 146.254 208.159 146.254C207.326 146.254 206.656 145.982 206.147 145.44C205.643 144.893 205.391 144.112 205.391 143.095C205.391 142.438 205.5 141.863 205.717 141.37C205.935 140.877 206.266 140.508 206.709 140.263C207.156 140.015 207.642 139.891 208.165 139.891C208.826 139.891 209.367 140.059 209.787 140.395C210.208 140.728 210.477 141.201 210.596 141.817L209.592 141.971C209.497 141.563 209.327 141.255 209.082 141.049C208.842 140.842 208.549 140.739 208.205 140.739C207.685 140.739 207.263 140.926 206.938 141.301C206.614 141.671 206.451 142.26 206.451 143.066C206.451 143.884 206.608 144.478 206.921 144.849C207.235 145.22 207.643 145.405 208.148 145.405C208.553 145.405 208.891 145.281 209.163 145.033C209.434 144.784 209.606 144.402 209.678 143.886Z" fill="black"/>
<path d="M203.211 138.898V137.711H204.243V138.898H203.211ZM203.211 146.115V140.027H204.243V146.115H203.211Z" fill="black"/>
<path d="M199.144 146.119L196.828 140.031H197.917L199.224 143.677C199.366 144.071 199.496 144.48 199.614 144.904C199.706 144.583 199.834 144.197 199.998 143.746L201.351 140.031H202.411L200.107 146.119H199.144Z" fill="black"/>
<path d="M193.648 146.116V140.028H194.577V140.951C194.814 140.519 195.032 140.235 195.231 140.097C195.433 139.959 195.655 139.891 195.896 139.891C196.243 139.891 196.597 140.001 196.956 140.223L196.601 141.18C196.348 141.031 196.096 140.957 195.844 140.957C195.618 140.957 195.416 141.026 195.236 141.163C195.057 141.297 194.929 141.484 194.852 141.725C194.738 142.092 194.68 142.493 194.68 142.929V146.116H193.648Z" fill="black"/>
<path d="M191.41 144.156L192.476 144.287C192.308 144.91 191.996 145.394 191.542 145.738C191.087 146.082 190.506 146.254 189.799 146.254C188.909 146.254 188.202 145.98 187.678 145.434C187.158 144.884 186.898 144.113 186.898 143.124C186.898 142.1 187.162 141.305 187.69 140.739C188.217 140.173 188.901 139.891 189.742 139.891C190.556 139.891 191.221 140.168 191.737 140.722C192.253 141.276 192.51 142.056 192.51 143.061C192.51 143.122 192.509 143.214 192.505 143.336H187.965C188.003 144.005 188.192 144.517 188.532 144.872C188.872 145.227 189.296 145.405 189.805 145.405C190.183 145.405 190.506 145.306 190.774 145.107C191.041 144.908 191.253 144.591 191.41 144.156ZM188.022 142.487H191.421C191.375 141.975 191.246 141.591 191.031 141.335C190.703 140.938 190.277 140.739 189.753 140.739C189.279 140.739 188.88 140.898 188.555 141.215C188.234 141.532 188.056 141.956 188.022 142.487Z" fill="black"/>
<path d="M179.289 143.417L180.338 143.326C180.388 143.746 180.502 144.092 180.682 144.363C180.865 144.631 181.148 144.849 181.53 145.017C181.913 145.181 182.343 145.263 182.82 145.263C183.244 145.263 183.619 145.2 183.944 145.074C184.269 144.948 184.509 144.776 184.666 144.558C184.827 144.336 184.907 144.096 184.907 143.836C184.907 143.572 184.83 143.343 184.678 143.148C184.525 142.949 184.272 142.783 183.921 142.649C183.695 142.561 183.197 142.426 182.425 142.242C181.653 142.055 181.112 141.879 180.802 141.715C180.401 141.505 180.101 141.245 179.902 140.935C179.708 140.622 179.61 140.272 179.61 139.886C179.61 139.462 179.73 139.066 179.971 138.7C180.212 138.329 180.564 138.048 181.026 137.857C181.488 137.666 182.002 137.57 182.568 137.57C183.191 137.57 183.739 137.672 184.213 137.874C184.691 138.073 185.058 138.367 185.314 138.757C185.57 139.147 185.707 139.588 185.727 140.081L184.66 140.161C184.603 139.63 184.408 139.229 184.076 138.958C183.747 138.686 183.26 138.551 182.614 138.551C181.941 138.551 181.45 138.675 181.141 138.923C180.835 139.168 180.682 139.464 180.682 139.812C180.682 140.114 180.791 140.362 181.009 140.557C181.223 140.752 181.781 140.952 182.683 141.159C183.588 141.361 184.209 141.539 184.546 141.692C185.035 141.917 185.396 142.204 185.629 142.552C185.862 142.896 185.979 143.293 185.979 143.744C185.979 144.191 185.851 144.614 185.595 145.011C185.339 145.405 184.97 145.712 184.488 145.934C184.011 146.152 183.472 146.261 182.872 146.261C182.111 146.261 181.473 146.15 180.957 145.928C180.445 145.707 180.042 145.374 179.748 144.931C179.457 144.484 179.304 143.979 179.289 143.417Z" fill="black"/>
<path d="M175.484 145.198L175.633 146.109C175.343 146.17 175.083 146.201 174.854 146.201C174.479 146.201 174.189 146.142 173.983 146.023C173.776 145.905 173.631 145.75 173.547 145.559C173.463 145.364 173.421 144.957 173.421 144.338V140.836H172.664V140.033H173.421V138.525L174.447 137.906V140.033H175.484V140.836H174.447V144.395C174.447 144.69 174.464 144.879 174.498 144.963C174.537 145.047 174.596 145.114 174.676 145.163C174.76 145.213 174.879 145.238 175.032 145.238C175.146 145.238 175.297 145.225 175.484 145.198Z" fill="black"/>
<path d="M167.07 144.299L168.091 144.138C168.148 144.547 168.307 144.861 168.566 145.078C168.83 145.296 169.197 145.405 169.667 145.405C170.141 145.405 170.493 145.31 170.722 145.119C170.951 144.924 171.066 144.696 171.066 144.436C171.066 144.203 170.965 144.02 170.762 143.886C170.621 143.794 170.269 143.678 169.707 143.536C168.951 143.345 168.425 143.181 168.131 143.043C167.84 142.902 167.619 142.709 167.466 142.464C167.317 142.216 167.242 141.943 167.242 141.645C167.242 141.373 167.303 141.123 167.426 140.894C167.552 140.661 167.722 140.468 167.936 140.315C168.096 140.196 168.314 140.097 168.589 140.017C168.868 139.933 169.166 139.891 169.484 139.891C169.961 139.891 170.38 139.959 170.739 140.097C171.102 140.235 171.37 140.422 171.542 140.659C171.714 140.892 171.832 141.205 171.897 141.599L170.888 141.736C170.842 141.423 170.708 141.179 170.487 141.003C170.269 140.827 169.959 140.739 169.558 140.739C169.084 140.739 168.746 140.817 168.544 140.974C168.341 141.131 168.24 141.314 168.24 141.524C168.24 141.658 168.282 141.778 168.366 141.886C168.45 141.996 168.582 142.088 168.761 142.161C168.865 142.199 169.168 142.287 169.673 142.424C170.403 142.619 170.911 142.78 171.198 142.906C171.488 143.028 171.715 143.208 171.88 143.445C172.044 143.682 172.126 143.976 172.126 144.328C172.126 144.671 172.025 144.996 171.822 145.302C171.624 145.604 171.335 145.839 170.957 146.007C170.579 146.171 170.151 146.254 169.673 146.254C168.882 146.254 168.278 146.089 167.861 145.761C167.449 145.432 167.185 144.945 167.07 144.299Z" fill="black"/>
<path d="M164.992 138.898V137.711H166.024V138.898H164.992ZM164.992 146.115V140.027H166.024V146.115H164.992Z" fill="black"/>
<path d="M158.562 146.116V140.028H159.491V140.894C159.938 140.225 160.584 139.891 161.429 139.891C161.796 139.891 162.132 139.958 162.438 140.091C162.747 140.221 162.978 140.393 163.131 140.607C163.284 140.821 163.391 141.075 163.452 141.37C163.49 141.561 163.51 141.895 163.51 142.373V146.116H162.478V142.413C162.478 141.993 162.438 141.679 162.357 141.473C162.277 141.263 162.134 141.096 161.927 140.974C161.725 140.848 161.486 140.785 161.211 140.785C160.771 140.785 160.391 140.924 160.07 141.203C159.753 141.482 159.594 142.012 159.594 142.791V146.116H158.562Z" fill="black"/>
<path d="M151.766 143.072C151.766 141.945 152.079 141.11 152.706 140.567C153.229 140.116 153.868 139.891 154.62 139.891C155.457 139.891 156.141 140.166 156.673 140.716C157.204 141.263 157.469 142.019 157.469 142.986C157.469 143.77 157.351 144.387 157.114 144.838C156.881 145.285 156.539 145.633 156.088 145.881C155.641 146.129 155.152 146.254 154.62 146.254C153.768 146.254 153.078 145.98 152.551 145.434C152.027 144.887 151.766 144.1 151.766 143.072ZM152.826 143.072C152.826 143.852 152.996 144.436 153.336 144.826C153.676 145.212 154.104 145.405 154.62 145.405C155.132 145.405 155.559 145.21 155.899 144.82C156.239 144.431 156.409 143.836 156.409 143.038C156.409 142.285 156.237 141.715 155.893 141.329C155.553 140.94 155.129 140.745 154.62 140.745C154.104 140.745 153.676 140.938 153.336 141.324C152.996 141.71 152.826 142.293 152.826 143.072Z" fill="black"/>
<path d="M149.656 138.898V137.711H150.688V138.898H149.656ZM149.656 146.115V140.027H150.688V146.115H149.656Z" fill="black"/>
<path d="M148.758 145.198L148.907 146.109C148.616 146.17 148.357 146.201 148.127 146.201C147.753 146.201 147.462 146.142 147.256 146.023C147.05 145.905 146.904 145.75 146.82 145.559C146.736 145.364 146.694 144.957 146.694 144.338V140.836H145.938V140.033H146.694V138.525L147.72 137.906V140.033H148.758V140.836H147.72V144.395C147.72 144.69 147.737 144.879 147.772 144.963C147.81 145.047 147.869 145.114 147.95 145.163C148.034 145.213 148.152 145.238 148.305 145.238C148.42 145.238 148.571 145.225 148.758 145.198Z" fill="black"/>
<path d="M140.086 148.449V140.028H141.026V140.819C141.248 140.51 141.498 140.279 141.777 140.126C142.056 139.969 142.394 139.891 142.792 139.891C143.311 139.891 143.77 140.024 144.167 140.292C144.565 140.559 144.865 140.938 145.067 141.427C145.27 141.912 145.371 142.445 145.371 143.026C145.371 143.649 145.258 144.211 145.033 144.712C144.811 145.208 144.487 145.591 144.058 145.858C143.634 146.122 143.187 146.254 142.717 146.254C142.373 146.254 142.064 146.181 141.788 146.036C141.517 145.891 141.294 145.707 141.118 145.485V148.449H140.086ZM141.02 143.107C141.02 143.89 141.179 144.469 141.496 144.843C141.813 145.218 142.197 145.405 142.648 145.405C143.107 145.405 143.499 145.212 143.823 144.826C144.152 144.436 144.316 143.835 144.316 143.021C144.316 142.245 144.156 141.664 143.835 141.278C143.518 140.892 143.137 140.699 142.694 140.699C142.255 140.699 141.865 140.905 141.525 141.318C141.188 141.727 141.02 142.323 141.02 143.107Z" fill="black"/>
<path d="M137.832 144.156L138.898 144.287C138.73 144.91 138.418 145.394 137.964 145.738C137.509 146.082 136.928 146.254 136.221 146.254C135.33 146.254 134.623 145.98 134.1 145.434C133.58 144.884 133.32 144.113 133.32 143.124C133.32 142.1 133.584 141.305 134.111 140.739C134.639 140.173 135.323 139.891 136.164 139.891C136.978 139.891 137.643 140.168 138.158 140.722C138.674 141.276 138.932 142.056 138.932 143.061C138.932 143.122 138.93 143.214 138.927 143.336H134.387C134.425 144.005 134.614 144.517 134.954 144.872C135.294 145.227 135.718 145.405 136.227 145.405C136.605 145.405 136.928 145.306 137.195 145.107C137.463 144.908 137.675 144.591 137.832 144.156ZM134.444 142.487H137.843C137.797 141.975 137.667 141.591 137.453 141.335C137.125 140.938 136.699 140.739 136.175 140.739C135.701 140.739 135.302 140.898 134.977 141.215C134.656 141.532 134.478 141.956 134.444 142.487Z" fill="black"/>
<path d="M131.889 143.886L132.904 144.018C132.793 144.717 132.508 145.266 132.05 145.663C131.595 146.057 131.035 146.254 130.37 146.254C129.537 146.254 128.867 145.982 128.358 145.44C127.854 144.893 127.602 144.112 127.602 143.095C127.602 142.438 127.71 141.863 127.928 141.37C128.146 140.877 128.477 140.508 128.92 140.263C129.367 140.015 129.852 139.891 130.376 139.891C131.037 139.891 131.578 140.059 131.998 140.395C132.419 140.728 132.688 141.201 132.807 141.817L131.803 141.971C131.708 141.563 131.538 141.255 131.293 141.049C131.052 140.842 130.76 140.739 130.416 140.739C129.896 140.739 129.474 140.926 129.149 141.301C128.824 141.671 128.662 142.26 128.662 143.066C128.662 143.884 128.819 144.478 129.132 144.849C129.445 145.22 129.854 145.405 130.359 145.405C130.764 145.405 131.102 145.281 131.373 145.033C131.645 144.784 131.817 144.402 131.889 143.886Z" fill="black"/>
<path d="M125.668 144.156L126.734 144.287C126.566 144.91 126.254 145.394 125.799 145.738C125.345 146.082 124.764 146.254 124.057 146.254C123.166 146.254 122.459 145.98 121.936 145.434C121.416 144.884 121.156 144.113 121.156 143.124C121.156 142.1 121.42 141.305 121.947 140.739C122.475 140.173 123.159 139.891 124 139.891C124.814 139.891 125.478 140.168 125.994 140.722C126.51 141.276 126.768 142.056 126.768 143.061C126.768 143.122 126.766 143.214 126.763 143.336H122.222C122.261 144.005 122.45 144.517 122.79 144.872C123.13 145.227 123.554 145.405 124.063 145.405C124.441 145.405 124.764 145.306 125.031 145.107C125.299 144.908 125.511 144.591 125.668 144.156ZM122.28 142.487H125.679C125.633 141.975 125.503 141.591 125.289 141.335C124.961 140.938 124.535 140.739 124.011 140.739C123.537 140.739 123.138 140.898 122.813 141.215C122.492 141.532 122.314 141.956 122.28 142.487Z" fill="black"/>
<path d="M113.281 146.115V137.711H117.007C117.756 137.711 118.326 137.787 118.716 137.94C119.105 138.089 119.417 138.355 119.65 138.737C119.883 139.119 120 139.541 120 140.004C120 140.6 119.807 141.103 119.421 141.512C119.035 141.92 118.439 142.18 117.632 142.291C117.926 142.433 118.15 142.572 118.303 142.71C118.628 143.008 118.935 143.38 119.226 143.827L120.688 146.115H119.289L118.177 144.366C117.852 143.862 117.584 143.476 117.374 143.208C117.164 142.941 116.975 142.754 116.807 142.647C116.642 142.54 116.474 142.465 116.302 142.423C116.176 142.396 115.97 142.383 115.683 142.383H114.393V146.115H113.281ZM114.393 141.42H116.784C117.292 141.42 117.689 141.368 117.976 141.265C118.263 141.158 118.481 140.99 118.63 140.761C118.779 140.527 118.853 140.275 118.853 140.004C118.853 139.606 118.708 139.28 118.417 139.024C118.131 138.768 117.676 138.64 117.053 138.64H114.393V141.42Z" fill="black"/>
<path d="M107.148 146.115V137.711H108.261V146.115H107.148Z" fill="black"/>
<path d="M98.3281 146.115L101.555 137.711H102.754L106.193 146.115H104.926L103.946 143.569H100.432L99.509 146.115H98.3281ZM100.753 142.664H103.602L102.725 140.336C102.457 139.629 102.259 139.048 102.129 138.594C102.022 139.133 101.871 139.668 101.676 140.199L100.753 142.664Z" fill="black"/>
<path d="M94.3708 144.156L95.437 144.287C95.2689 144.91 94.9574 145.394 94.5026 145.738C94.0479 146.082 93.467 146.254 92.76 146.254C91.8695 146.254 91.1625 145.98 90.639 145.434C90.1192 144.884 89.8594 144.113 89.8594 143.124C89.8594 142.1 90.1231 141.305 90.6504 140.739C91.1778 140.173 91.8619 139.891 92.7026 139.891C93.5166 139.891 94.1816 140.168 94.6975 140.722C95.2134 141.276 95.4714 142.056 95.4714 143.061C95.4714 143.122 95.4695 143.214 95.4657 143.336H90.9256C90.9638 144.005 91.153 144.517 91.4931 144.872C91.8332 145.227 92.2574 145.405 92.7657 145.405C93.144 145.405 93.467 145.306 93.7345 145.107C94.002 144.908 94.2141 144.591 94.3708 144.156ZM90.9829 142.487H94.3822C94.3364 141.975 94.2064 141.591 93.9924 141.335C93.6638 140.938 93.2377 140.739 92.7141 140.739C92.2402 140.739 91.8409 140.898 91.516 141.215C91.195 141.532 91.0173 141.956 90.9829 142.487Z" fill="black"/>
<path d="M83.7812 146.115V137.711H84.8131V140.726C85.2946 140.168 85.9022 139.889 86.636 139.889C87.0869 139.889 87.4786 139.979 87.8111 140.159C88.1436 140.334 88.3805 140.579 88.5219 140.892C88.6672 141.206 88.7398 141.661 88.7398 142.257V146.115H87.7079V142.257C87.7079 141.741 87.5952 141.366 87.3697 141.133C87.1481 140.896 86.8328 140.778 86.4239 140.778C86.1182 140.778 85.8296 140.858 85.5583 141.019C85.2908 141.175 85.0997 141.389 84.9851 141.661C84.8704 141.932 84.8131 142.306 84.8131 142.784V146.115H83.7812Z" fill="black"/>
<path d="M78.9953 146.115V138.703H76.2266V137.711H82.8876V138.703H80.1074V146.115H78.9953Z" fill="black"/>
<defs>
<linearGradient id="paint0_linear_258_2834" x1="220" y1="0" x2="220" y2="257" gradientUnits="userSpaceOnUse">
<stop stop-color="#E4E5FF" stop-opacity="0.5"/>
<stop offset="0.439288" stop-color="#FBFBDF" stop-opacity="0.5"/>
<stop offset="1" stop-color="#E0D2FF"/>
</linearGradient>
</defs>
</svg>
