<svg width="50" height="50" viewBox="0 0 50 50" fill="none" xmlns="http://www.w3.org/2000/svg">
<g clip-path="url(#clip0_2288_296)">
<rect width="50" height="50" fill="white"/>
<circle cx="25" cy="25" r="24.5" fill="#EBE2FF" stroke="#E6EAF4"/>
<path d="M33.6008 16V30.2464H9.46094V16H33.6008ZM9.85667 29.8507H33.205V16.3957H9.85667V29.8507Z" fill="#6524EB" stroke="#6524EB" stroke-width="0.3" stroke-miterlimit="10"/>
<path d="M15.598 32.2249C15.598 31.2412 14.8005 30.4441 13.8172 30.4441C12.8338 30.4441 12.0364 31.2412 12.0364 32.2249C12.0364 33.2086 12.8338 34.0057 13.8172 34.0057C14.8005 34.0057 15.598 33.2086 15.598 32.2249ZM14.015 32.2249C14.015 32.1154 13.9265 32.027 13.8172 32.027C13.7079 32.027 13.6193 32.1154 13.6193 32.2249C13.6193 32.3343 13.7079 32.4227 13.8172 32.4227C13.9265 32.4227 14.015 32.3343 14.015 32.2249ZM14.4108 32.2249C14.4108 32.5531 14.1448 32.8185 13.8172 32.8185C13.4896 32.8185 13.2236 32.5531 13.2236 32.2249C13.2236 31.8966 13.4896 31.6313 13.8172 31.6313C14.1448 31.6313 14.4108 31.8966 14.4108 32.2249ZM15.9937 32.2249C15.9937 33.4272 15.019 34.4014 13.8172 34.4014C12.6153 34.4014 11.6406 33.4272 11.6406 32.2249C11.6406 31.0226 12.6153 30.0483 13.8172 30.0483C15.019 30.0483 15.9937 31.0226 15.9937 32.2249Z" fill="#6524EB" stroke="#6524EB" stroke-width="0.3" stroke-miterlimit="10"/>
<path d="M20.3441 32.2249C20.3441 31.2412 19.5466 30.4441 18.5633 30.4441C17.5799 30.4441 16.7825 31.2412 16.7825 32.2249C16.7825 33.2086 17.5799 34.0057 18.5633 34.0057C19.5466 34.0057 20.3441 33.2086 20.3441 32.2249ZM18.7611 32.2249C18.7611 32.1154 18.6726 32.027 18.5633 32.027C18.454 32.027 18.3654 32.1154 18.3654 32.2249C18.3654 32.3343 18.454 32.4227 18.5633 32.4227C18.6726 32.4227 18.7611 32.3343 18.7611 32.2249ZM19.1569 32.2249C19.1569 32.5531 18.8909 32.8185 18.5633 32.8185C18.2357 32.8185 17.9697 32.5531 17.9697 32.2249C17.9697 31.8966 18.2357 31.6313 18.5633 31.6313C18.8909 31.6313 19.1569 31.8966 19.1569 32.2249ZM20.7398 32.2249C20.7398 33.4272 19.7651 34.4014 18.5633 34.4014C17.3614 34.4014 16.3867 33.4272 16.3867 32.2249C16.3867 31.0226 17.3614 30.0483 18.5633 30.0483C19.7651 30.0483 20.7398 31.0226 20.7398 32.2249Z" fill="#6524EB" stroke="#6524EB" stroke-width="0.3" stroke-miterlimit="10"/>
<path d="M37.7581 32.2249C37.7581 31.2411 36.9611 30.4441 35.9773 30.4441C34.9936 30.4441 34.1965 31.2411 34.1965 32.2249C34.1965 33.2086 34.9936 34.0057 35.9773 34.0057C36.9611 34.0057 37.7581 33.2086 37.7581 32.2249ZM36.1752 32.2249C36.1752 32.1153 36.0869 32.027 35.9773 32.027C35.8678 32.027 35.7795 32.1153 35.7795 32.2249C35.7795 32.3344 35.8678 32.4227 35.9773 32.4227C36.0869 32.4227 36.1752 32.3344 36.1752 32.2249ZM36.5709 32.2249C36.5709 32.553 36.3054 32.8185 35.9773 32.8185C35.6492 32.8185 35.3837 32.553 35.3837 32.2249C35.3837 31.8968 35.6492 31.6313 35.9773 31.6313C36.3054 31.6313 36.5709 31.8968 36.5709 32.2249ZM38.1539 32.2249C38.1539 33.4272 37.1796 34.4014 35.9773 34.4014C34.775 34.4014 33.8008 33.4272 33.8008 32.2249C33.8008 31.0226 34.775 30.0483 35.9773 30.0483C37.1796 30.0483 38.1539 31.0226 38.1539 32.2249Z" fill="#6524EB" stroke="#6524EB" stroke-width="0.3" stroke-miterlimit="10"/>
<path d="M39.4646 24.7246L39.5388 24.7841V30.2726L33.207 30.22V19.7188L39.4646 24.7246ZM33.6028 29.8274L39.1431 29.8734V24.9742L33.6028 20.5419V29.8274ZM38.5537 25.1014H33.9985V21.7152L38.5537 25.1014ZM34.3942 24.7056H37.358L34.3942 22.5024V24.7056Z" fill="#6524EB" stroke="#6524EB" stroke-width="0.3" stroke-miterlimit="10"/>
</g>
<defs>
<clipPath id="clip0_2288_296">
<rect width="50" height="50" fill="white"/>
</clipPath>
</defs>
</svg>
