<svg width="50" height="50" viewBox="0 0 50 50" fill="none" xmlns="http://www.w3.org/2000/svg">
<g clip-path="url(#clip0_1310_327)">
<rect width="50" height="50" fill="white"/>
<circle cx="25" cy="25" r="24.5" fill="#EBE2FF" stroke="#E6EAF4"/>
<path fill-rule="evenodd" clip-rule="evenodd" d="M26.8324 34.1337C26.5683 33.8712 26.4049 33.5073 26.4049 33.1059C26.4049 32.567 26.9428 31.8434 27.3326 31.3198C27.4178 31.2059 27.4946 31.1017 27.5589 31.0101C27.584 30.9712 27.6176 30.9365 27.6595 30.9087C27.8271 30.7948 28.0563 30.8379 28.1708 31.0045C28.2351 31.099 28.3133 31.2045 28.4 31.3212C28.7897 31.8448 29.3277 32.5684 29.3277 33.1073C29.3277 33.5087 29.1642 33.8712 28.9001 34.1351C28.6361 34.3976 28.2701 34.5601 27.8663 34.5601C27.4625 34.5601 27.0979 34.3976 26.8324 34.1351L26.8324 34.1337ZM27.1411 33.1059C27.1411 33.3045 27.2222 33.4851 27.3535 33.6156C27.4848 33.7462 27.6651 33.8268 27.8662 33.8268C28.066 33.8268 28.2476 33.7462 28.379 33.6156C28.5103 33.4851 28.5913 33.3059 28.5913 33.1059C28.5913 32.8226 28.1876 32.2642 27.8677 31.8323C27.5463 32.2642 27.144 32.8226 27.144 33.1059H27.1411ZM26.9581 29.8725C26.6829 29.692 26.3811 29.5503 26.0598 29.4545C25.7482 29.3614 25.4185 29.3114 25.079 29.3114C24.1374 29.3114 23.2851 29.6906 22.6676 30.3045C22.0501 30.9184 21.6687 31.7656 21.6687 32.7017C21.6687 33.6378 22.0501 34.4851 22.6676 35.099C23.2851 35.7129 24.1374 36.0921 25.079 36.0921C25.4185 36.0921 25.7482 36.0421 26.0598 35.949C26.3811 35.8532 26.6829 35.7115 26.9581 35.5309C27.1272 35.4198 27.1733 35.1934 27.0615 35.024C26.9497 34.8559 26.722 34.8101 26.5515 34.9212C26.3378 35.0615 26.1017 35.1726 25.8488 35.2476C25.6057 35.3198 25.3473 35.3587 25.079 35.3587C24.3414 35.3587 23.6721 35.0615 23.1887 34.5809C22.7053 34.1003 22.4063 33.4351 22.4063 32.7017C22.4063 31.9684 22.7053 31.3031 23.1887 30.8225C23.6721 30.342 24.3414 30.0447 25.079 30.0447C25.3487 30.0447 25.6071 30.0836 25.8488 30.1559C26.1003 30.2309 26.3364 30.342 26.5515 30.4823C26.7206 30.5934 26.9497 30.5475 27.0615 30.3795C27.1733 30.2114 27.1272 29.9837 26.9581 29.8725ZM30.0625 40.0628C30.2427 39.9323 30.381 39.742 30.4551 39.5114C30.8323 38.3295 31.2598 35.3503 31.2598 32.3558C31.2598 30.6086 31.1131 28.8655 30.7247 27.4918C30.3587 26.196 29.7845 25.2432 28.9267 24.9723C28.759 24.9196 28.5802 24.8918 28.386 24.8918H22.6116C22.4174 24.8918 22.2371 24.9196 22.0709 24.9723C21.2117 25.2432 20.6389 26.196 20.2728 27.4918C19.8845 28.8654 19.7378 30.6085 19.7378 32.3558C19.7378 35.3489 20.1653 38.3296 20.5425 39.5114C20.6165 39.742 20.7548 39.9323 20.9351 40.0628C21.1153 40.1934 21.3389 40.267 21.582 40.267H29.4154C29.6599 40.267 29.8837 40.1934 30.0625 40.0628ZM28.7674 22.7376H22.2276L22.1605 24.1987C22.3044 24.1737 22.4553 24.1598 22.6104 24.1598H28.3848C28.5399 24.1598 28.6894 24.1723 28.8346 24.1987L28.7674 22.7376ZM22.2623 22.0042H28.7352L28.1735 9.7332H22.8255L22.2638 22.0042H22.2623ZM21.5092 22.382L21.4142 24.4598C20.5284 24.9432 19.9375 25.9737 19.563 27.2946C19.1537 28.7418 19 30.5515 19 32.3556C19 35.4209 19.4457 38.4986 19.8397 39.7306C19.9612 40.1125 20.1945 40.4292 20.5005 40.6514C20.8065 40.8736 21.1795 41 21.5833 41H29.4167C29.8191 41 30.1935 40.8736 30.4995 40.6514C30.804 40.4292 31.0374 40.1125 31.1603 39.7306C31.5529 38.4972 32 35.4208 32 32.3556C32 30.5514 31.8463 28.7417 31.437 27.2946C31.0639 25.9737 30.473 24.9445 29.5858 24.4598L29.4908 22.382V22.3709C29.4908 22.3556 29.4894 22.3403 29.488 22.3251L28.8956 9.37776V9.36665C28.8956 9.16387 28.7308 9 28.5268 9H22.4759V9.00139C22.2803 9.00139 22.1169 9.15417 22.1085 9.35139L21.5147 22.3264C21.5133 22.3417 21.5119 22.357 21.5119 22.3723V22.3834L21.5092 22.382Z" fill="#6524EB"/>
</g>
<defs>
<clipPath id="clip0_1310_327">
<rect width="50" height="50" fill="white"/>
</clipPath>
</defs>
</svg>
