<svg width="50" height="50" viewBox="0 0 50 50" fill="none" xmlns="http://www.w3.org/2000/svg">
<g clip-path="url(#clip0_1292_326)">
<rect width="50" height="50" fill="white"/>
<circle cx="25" cy="25" r="24.5" fill="#EBE2FF" stroke="#E6EAF4"/>
<path d="M34.3539 31.5848C34.3641 31.5393 34.3772 31.4952 34.3806 31.4482C34.4033 31.1362 34.273 30.8314 34.0327 30.6323L32.8002 29.6062L31.7837 27.0583C31.5429 26.4624 31.0875 26.006 30.5284 25.7555C31.0192 25.2231 31.3298 24.4556 31.3298 23.6015C31.3298 21.9983 30.2431 20.6946 28.9073 20.6946C27.5716 20.6946 26.4849 21.9983 26.4849 23.6015C26.4849 24.4392 26.7834 25.1925 27.2572 25.7235C26.7214 25.943 26.2655 26.3475 25.9985 26.8781L24.3188 30.2418C24.1512 30.5718 24.0625 30.9458 24.0625 31.3242V39.5895C24.0625 39.8574 24.2795 40.074 24.547 40.074H28.4229C28.6903 40.074 28.9073 39.8574 28.9073 39.5895V33.1216C28.9073 32.9641 28.933 32.8096 28.9844 32.6589L29.9664 29.7094L30.6544 31.0853C30.6835 31.143 30.7237 31.1948 30.7726 31.2365L32.0013 32.2893C31.9145 32.4603 31.8525 32.6478 31.8264 32.8488C31.8176 32.9399 31.8142 34.2475 31.8142 34.2601H32.7832C32.7832 34.2093 32.7871 33.0383 32.789 32.9564C32.836 32.5945 33.1461 32.3222 33.5099 32.3222C33.7023 32.3222 33.8903 32.3992 34.0249 32.5344C34.1596 32.6686 34.2367 32.8561 34.2367 33.0489V40.074H35.2056V33.0489C35.2056 32.6003 35.0249 32.1633 34.71 31.8489C34.6034 31.7423 34.4818 31.658 34.3539 31.5848ZM28.9073 21.6635C29.7087 21.6635 30.3608 22.5327 30.3608 23.6015C30.3608 24.6703 29.7087 25.5394 28.9073 25.5394C28.106 25.5394 27.4539 24.6703 27.4539 23.6015C27.4539 22.5327 28.106 21.6635 28.9073 21.6635ZM32.6665 31.5834L31.477 30.5645L30.3094 28.2298C30.2217 28.0544 30.0352 27.9497 29.8414 27.9633C29.6462 27.9769 29.4781 28.1072 29.4165 28.2937L28.0658 32.3498C27.9815 32.5974 27.9384 32.8571 27.9384 33.1216V39.105H26.9694V33.2912H26.0004V39.105H25.0315V31.3242C25.0315 31.0974 25.0833 30.875 25.1836 30.6779L26.8643 27.3126C27.1104 26.8238 27.6215 26.5084 28.1661 26.5084H29.5323C30.1302 26.5084 30.6612 26.8664 30.8845 27.4192L31.9455 30.079C31.9756 30.1541 32.0235 30.2205 32.0856 30.2719L33.3864 31.3644C33.1272 31.3838 32.8825 31.4579 32.6665 31.5834Z" fill="#6524EB" stroke="#EBE2FF" stroke-width="0.2"/>
<path d="M22.2409 31.5845C22.2511 31.539 22.2642 31.4949 22.2676 31.4479C22.2903 31.1359 22.16 30.8312 21.9197 30.6321L20.6872 29.6059L19.6707 27.058C19.4299 26.4621 18.9745 26.0057 18.4154 25.7552C18.9062 25.2228 19.2168 24.4554 19.2168 23.6012C19.2168 21.9981 18.1301 20.6943 16.7943 20.6943C16.5255 20.6943 16.2677 20.7495 16.026 20.8469C15.8748 20.2055 15.3012 19.7253 14.6142 19.7253C13.8128 19.7253 13.1607 20.3775 13.1607 21.1788C13.1607 21.9467 13.761 22.5707 14.5163 22.6226C14.4247 22.9288 14.3719 23.2572 14.3719 23.6012C14.3719 24.4389 14.6704 25.1923 15.1442 25.7233C14.6084 25.9427 14.1525 26.3473 13.8855 26.8778L12.2058 30.2416C12.0449 30.557 11.9568 30.915 11.95 31.2779L10.9883 36.5961C10.9626 36.737 11.0009 36.8829 11.0929 36.9924C11.185 37.1028 11.3216 37.1668 11.465 37.1668H11.9495V39.5892C11.9495 39.8571 12.1666 40.0737 12.434 40.0737H16.3099C16.5773 40.0737 16.7943 39.8571 16.7943 39.5892V37.1668H17.2788C17.43 37.1668 17.5719 37.096 17.6635 36.9764C17.7551 36.8562 17.7856 36.7007 17.7459 36.5549L16.7953 33.0613C16.8011 32.9246 16.8258 32.7899 16.8709 32.6586L17.8529 29.7091L18.5409 31.085C18.57 31.1427 18.6102 31.1945 18.6591 31.2362L19.8878 32.289C19.8011 32.46 19.739 32.6475 19.7129 32.8486C19.7046 32.9396 19.7012 34.2473 19.7012 34.2599H20.6702C20.6702 34.209 20.6741 33.038 20.676 32.9561C20.723 32.5942 21.0331 32.3219 21.3969 32.3219C21.5893 32.3219 21.7773 32.399 21.912 32.5341C22.0466 32.6683 22.1237 32.8558 22.1237 33.0487V40.0737H23.0926V33.0487C23.0926 32.6 22.9119 32.163 22.597 31.8486C22.4904 31.742 22.3688 31.6577 22.2409 31.5845ZM18.2478 23.6012C18.2478 24.67 17.5957 25.5392 16.7943 25.5392C15.993 25.5392 15.3409 24.67 15.3409 23.6012C15.3409 22.5324 15.993 21.6633 16.7943 21.6633C17.5957 21.6633 18.2478 22.5324 18.2478 23.6012ZM14.1297 21.1788C14.1297 20.9114 14.3472 20.6943 14.6142 20.6943C14.8811 20.6943 15.0986 20.9114 15.0986 21.1788C15.0986 21.4462 14.8811 21.6633 14.6142 21.6633C14.3472 21.6633 14.1297 21.4462 14.1297 21.1788ZM12.9185 37.1668H13.8874V39.1047H12.9185V37.1668ZM15.8254 39.1047H14.8564V37.1668H15.8254V39.1047ZM20.5535 31.5831L19.364 30.5642L18.1964 28.2295C18.1088 28.0541 17.9242 27.9495 17.7284 27.963C17.5332 27.9766 17.3651 28.1069 17.3035 28.2934L15.9528 32.3495C15.8685 32.5971 15.8254 32.8568 15.8254 33.1213C15.8254 33.1645 15.8312 33.2071 15.8423 33.2487L16.6446 36.1978H12.0449L12.9107 31.4101C12.916 31.382 12.9185 31.353 12.9185 31.3239C12.9185 31.0972 12.9703 30.8748 13.0706 30.6776L14.7513 27.3124C14.9974 26.8235 15.5085 26.5081 16.0531 26.5081H17.4193C18.0172 26.5081 18.5482 26.8662 18.7715 27.419L19.8325 30.0788C19.8626 30.1539 19.9105 30.2202 19.9726 30.2716L21.2734 31.3641C21.0142 31.3835 20.7695 31.4576 20.5535 31.5831Z" fill="#6524EB" stroke="#EBE2FF" stroke-width="0.2"/>
<path d="M40.7939 13.4673L35.4645 10.0759C35.3056 9.97469 35.1031 9.97469 34.9442 10.0759L29.6149 13.4673C29.4332 13.5831 29.3499 13.8045 29.4099 14.0114C29.47 14.2183 29.6594 14.3607 29.875 14.3607H30.844V20.6924C30.844 20.9604 31.0611 21.1769 31.3285 21.1769H39.0802C39.3477 21.1769 39.5647 20.9604 39.5647 20.6924V14.3607H40.5337C40.7493 14.3607 40.9387 14.2183 40.9988 14.0114C41.0589 13.8045 40.9755 13.5831 40.7939 13.4673ZM35.2044 11.059L38.87 13.3913H31.5388L35.2044 11.059ZM36.1733 20.208H34.2354V18.5433C34.2354 17.9769 34.67 17.5167 35.2044 17.5167C35.7388 17.5167 36.1733 17.9769 36.1733 18.5433V20.208ZM38.5958 20.208H37.1423V18.5433C37.1423 17.443 36.2731 16.5477 35.2044 16.5477C34.1356 16.5477 33.2664 17.443 33.2664 18.5433V20.2084H31.813V14.3607H38.5958V20.208Z" fill="#6524EB" stroke="#EBE2FF" stroke-width="0.2"/>
</g>
<defs>
<clipPath id="clip0_1292_326">
<rect width="50" height="50" fill="white"/>
</clipPath>
</defs>
</svg>
