<svg width="50" height="50" viewBox="0 0 50 50" fill="none" xmlns="http://www.w3.org/2000/svg">
<g clip-path="url(#clip0_450_716)">
<rect width="50" height="50" fill="white"/>
<circle cx="25" cy="25" r="24.5" fill="#EBE2FF" stroke="#E0E5F2"/>
<path fill-rule="evenodd" clip-rule="evenodd" d="M11.3039 20.4954L10.0578 18.0468C9.92518 17.7858 10.0284 17.4672 10.2887 17.3331C10.549 17.2004 10.8674 17.3046 11.0003 17.5655L11.4223 18.3948C12.4923 11.8548 18.1529 7 24.829 7C29.0733 7 33.0317 8.96992 35.6072 12.3277L35.5941 11.3687C35.5902 11.0733 35.8287 10.8312 36.1232 10.8312C36.4121 10.8312 36.648 11.064 36.652 11.3545L36.6894 14.1029C36.6946 14.4844 36.308 14.7443 35.9584 14.5998L33.4248 13.5502C33.1548 13.4385 33.0265 13.1284 33.1379 12.8576C33.2497 12.5868 33.5589 12.4581 33.8289 12.5698L34.7518 12.9528C32.3969 9.89998 28.7304 8.06035 24.829 8.06035C18.5607 8.06035 13.4142 12.5712 12.4587 18.6004L13.1207 17.8014C13.3073 17.5767 13.6409 17.5454 13.8656 17.7331C14.0902 17.9203 14.1209 18.255 13.9342 18.4797L12.1817 20.5928C11.939 20.8863 11.4757 20.8337 11.3039 20.4954ZM38.9421 19.1478V19.0825C38.9421 18.7604 38.6907 18.4981 38.3699 18.4851L28.1354 18.0682H22.3515C22.183 18.0682 22.0489 18.1232 21.9296 18.2434L17.2701 22.9142H19.395L21.9702 20.877C22.4408 19.6411 23.635 18.7608 25.0311 18.7608C27.1943 18.7608 28.7601 20.8325 28.1895 22.9142H28.5379V20.276C28.5379 19.9834 28.7748 19.7461 29.0668 19.7461H38.3457C38.6745 19.7461 38.9421 19.4771 38.9421 19.1478ZM22.8132 22.0451C22.8132 23.2712 23.8082 24.2681 25.0311 24.2681C26.254 24.2681 27.249 23.2712 27.249 22.0451C27.249 20.8194 26.254 19.8216 25.0311 19.8216C23.8082 19.8216 22.8132 20.8194 22.8132 22.0451ZM21.7728 22.3847C21.7914 22.5656 21.8257 22.743 21.8727 22.9142H21.1028L21.7728 22.3847ZM38.1595 25.0143C38.1595 25.5871 37.6947 26.0528 37.1233 26.0528H28.5758C28.2837 26.0528 28.0469 26.2905 28.0469 26.5832V31.6606C28.0469 31.8643 28.1634 32.0502 28.3466 32.1378L31.7879 33.7974C32.0391 33.9189 32.1954 34.1191 32.2526 34.3926L33.3087 39.4459C33.4485 40.1139 33.0195 40.7721 32.3525 40.9124C31.6853 41.0522 31.0293 40.6224 30.8895 39.9535L30.082 36.0896C30.0472 35.9234 29.9354 35.784 29.7811 35.7148L26.675 34.3148C26.6069 34.2844 26.5329 34.2683 26.4582 34.2683H23.604C23.5293 34.2683 23.4553 34.2844 23.387 34.3148L20.281 35.7148C20.1268 35.784 20.0148 35.9234 19.9802 36.0896L19.1727 39.9535C19.0329 40.6224 18.3769 41.0522 17.7097 40.9124C17.0427 40.7721 16.6137 40.1139 16.7535 39.4459L17.8097 34.3926C17.8667 34.1191 18.0231 33.9189 18.2743 33.7974L21.7156 32.1378C21.8988 32.0502 22.0153 31.8643 22.0153 31.6606V26.5832C22.0153 26.2905 21.7785 26.0528 21.4863 26.0528H12.9389C12.3675 26.0528 11.9026 25.5871 11.9026 25.0143C11.9026 24.4415 12.3675 23.975 12.9389 23.975H22.383C23.6945 25.7784 26.3677 25.7784 27.6792 23.975H37.1233C37.6947 23.975 38.1595 24.4415 38.1595 25.0143ZM25.0311 12.237C23.8082 12.237 22.8132 13.2347 22.8132 14.4609C22.8132 15.6865 23.8082 16.6843 25.0311 16.6843C26.254 16.6843 27.249 15.6865 27.249 14.4609C27.249 13.2347 26.254 12.237 25.0311 12.237ZM38.4128 17.4252L28.1677 17.0074H27.0967C27.8345 16.4046 28.3068 15.4873 28.3068 14.4609C28.3068 12.6498 26.8374 11.1766 25.0311 11.1766C23.2248 11.1766 21.7553 12.6498 21.7553 14.4609C21.7553 15.4873 22.2277 16.4046 22.9653 17.0074H22.3515C21.9031 17.0074 21.4987 17.175 21.1815 17.4931L15.774 22.9142H12.9389C11.7843 22.9142 10.8448 23.8561 10.8448 25.0143C10.8448 26.1716 11.7843 27.1135 12.9389 27.1135H20.9574V31.3268L17.8157 32.842C17.2687 33.1057 16.8987 33.5789 16.7742 34.1749L15.7181 39.2283C15.4196 40.6566 16.5242 42 17.9637 42C19.0259 42 19.9817 41.2538 20.2081 40.1715L20.9604 36.5709L23.7173 35.3287H26.3447L29.1018 36.5709L29.8541 40.1715C30.1135 41.4124 31.3314 42.21 32.5694 41.9504C33.8073 41.6899 34.6035 40.4691 34.344 39.2283L33.2879 34.1749C33.1635 33.5789 32.7937 33.1057 32.2465 32.842L29.1048 31.3268V27.1135H37.1233C38.2781 27.1135 39.2174 26.1716 39.2174 25.0143C39.2174 23.8561 38.2781 22.9142 37.1233 22.9142H29.5959V20.8064H38.3457C39.2578 20.8064 40 20.062 40 19.1478V19.0825C40 18.1897 39.3029 17.4614 38.4128 17.4252Z" fill="#6524EB" stroke="#EBE2FF" stroke-width="0.3"/>
</g>
<defs>
<clipPath id="clip0_450_716">
<rect width="50" height="50" fill="white"/>
</clipPath>
</defs>
</svg>
