<svg width="29" height="29" viewBox="0 0 29 29" fill="none" xmlns="http://www.w3.org/2000/svg">
<path d="M18.1882 6.04427C19.3685 6.27454 20.4531 6.85175 21.3034 7.70203C22.1537 8.5523 22.7309 9.63697 22.9612 10.8172M18.1882 1.21094C20.6403 1.48334 22.9268 2.5814 24.6725 4.32482C26.4181 6.06824 27.519 8.35341 27.7945 10.8051M26.5862 20.4476V24.0726C26.5875 24.4091 26.5186 24.7422 26.3838 25.0506C26.249 25.3589 26.0512 25.6357 25.8033 25.8632C25.5553 26.0907 25.2625 26.2639 24.9437 26.3717C24.6249 26.4795 24.2872 26.5196 23.952 26.4893C20.2338 26.0853 16.6621 24.8147 13.5241 22.7797C10.6045 20.9245 8.12928 18.4492 6.27408 15.5297C4.23197 12.3774 2.96112 8.78839 2.5645 5.05344C2.5343 4.71929 2.57401 4.38252 2.6811 4.06457C2.78819 3.74661 2.96031 3.45444 3.1865 3.20665C3.4127 2.95886 3.68801 2.76088 3.99491 2.62532C4.30181 2.48976 4.63357 2.41959 4.96908 2.41927H8.59408C9.18049 2.4135 9.74899 2.62116 10.1936 3.00354C10.6383 3.38592 10.9287 3.91694 11.0107 4.4976C11.1637 5.65768 11.4475 6.79673 11.8566 7.89302C12.0192 8.32551 12.0543 8.79554 11.958 9.24742C11.8616 9.69929 11.6377 10.1141 11.3128 10.4426L9.77825 11.9772C11.4984 15.0023 14.0031 17.5071 17.0282 19.2272L18.5628 17.6926C18.8914 17.3677 19.3061 17.1438 19.758 17.0475C20.2099 16.9511 20.6799 16.9863 21.1124 17.1489C22.2087 17.5579 23.3477 17.8417 24.5078 17.9947C25.0948 18.0775 25.6309 18.3731 26.0141 18.8254C26.3973 19.2777 26.6009 19.855 26.5862 20.4476Z" stroke="#EBFFEE" stroke-width="2" stroke-linecap="round" stroke-linejoin="round"/>
</svg>
