<svg width="24" height="24" viewBox="0 0 24 24" fill="none" xmlns="http://www.w3.org/2000/svg">
<circle cx="12" cy="12" r="12" fill="#24252C"/>
<path d="M17.6253 9.75105C17.6255 9.54548 17.5774 9.34275 17.4849 9.15918C17.3924 8.97561 17.258 8.81634 17.0927 8.6942C16.9273 8.57206 16.7356 8.49046 16.533 8.45599C16.3303 8.42152 16.1224 8.43513 15.9259 8.49572C15.7295 8.55632 15.5501 8.66221 15.402 8.80486C15.254 8.94752 15.1416 9.12294 15.0738 9.31701C15.006 9.51107 14.9847 9.71835 15.0117 9.92214C15.0387 10.1259 15.1131 10.3205 15.2291 10.4903L13.9733 12.0371L12.8441 9.44168C13.05 9.26834 13.1977 9.03587 13.2671 8.77578C13.3365 8.51569 13.3242 8.24056 13.2319 7.98768C13.1397 7.7348 12.9719 7.5164 12.7514 7.36208C12.5308 7.20777 12.2681 7.125 11.9989 7.125C11.7298 7.125 11.4671 7.20777 11.2465 7.36208C11.026 7.5164 10.8582 7.7348 10.7659 7.98768C10.6737 8.24056 10.6614 8.51569 10.7308 8.77578C10.8002 9.03587 10.9478 9.26834 11.1538 9.44168L10.0274 12.0357L8.77159 10.4889C8.93291 10.2525 9.01255 9.96988 8.99839 9.68406C8.98424 9.39824 8.87705 9.12488 8.69316 8.90561C8.50928 8.68634 8.25877 8.53318 7.97978 8.46945C7.7008 8.40573 7.40863 8.43493 7.14778 8.5526C6.88692 8.67028 6.67168 8.86999 6.53482 9.12132C6.39796 9.37264 6.347 9.66181 6.38969 9.94477C6.43237 10.2277 6.56637 10.489 6.77127 10.6888C6.97618 10.8885 7.24076 11.0159 7.52472 11.0514L8.20347 15.1243C8.23265 15.2994 8.32299 15.4585 8.45844 15.5733C8.59388 15.688 8.76563 15.751 8.94316 15.751H15.0575C15.2351 15.751 15.4068 15.688 15.5423 15.5733C15.6777 15.4585 15.768 15.2994 15.7972 15.1243L16.4755 11.0532C16.7929 11.0136 17.0849 10.8594 17.2967 10.6196C17.5084 10.3798 17.6253 10.0709 17.6253 9.75105ZM12.0003 7.87605C12.1116 7.87605 12.2203 7.90904 12.3129 7.97085C12.4054 8.03266 12.4775 8.12051 12.52 8.22329C12.5626 8.32607 12.5737 8.43917 12.552 8.54829C12.5303 8.6574 12.4768 8.75763 12.3981 8.8363C12.3194 8.91496 12.2192 8.96854 12.1101 8.99024C12.001 9.01195 11.8879 9.00081 11.7851 8.95823C11.6823 8.91566 11.5944 8.84356 11.5326 8.75106C11.4708 8.65856 11.4378 8.5498 11.4378 8.43855C11.4378 8.28937 11.4971 8.14629 11.6026 8.0408C11.7081 7.93531 11.8512 7.87605 12.0003 7.87605ZM7.12534 9.75105C7.12534 9.6398 7.15833 9.53104 7.22014 9.43854C7.28195 9.34604 7.3698 9.27394 7.47258 9.23137C7.57537 9.18879 7.68847 9.17765 7.79758 9.19936C7.9067 9.22106 8.00692 9.27464 8.08559 9.3533C8.16426 9.43197 8.21783 9.5322 8.23953 9.64131C8.26124 9.75043 8.2501 9.86353 8.20753 9.96631C8.16495 10.0691 8.09285 10.1569 8.00035 10.2188C7.90785 10.2806 7.7991 10.3135 7.68784 10.3135C7.53866 10.3135 7.39558 10.2543 7.2901 10.1488C7.18461 10.0433 7.12534 9.90023 7.12534 9.75105ZM16.3128 10.3135C16.2016 10.3135 16.0928 10.2806 16.0003 10.2188C15.9078 10.1569 15.8357 10.0691 15.7932 9.96631C15.7506 9.86353 15.7394 9.75043 15.7612 9.64131C15.7829 9.5322 15.8364 9.43197 15.9151 9.3533C15.9938 9.27464 16.094 9.22106 16.2031 9.19936C16.3122 9.17765 16.4253 9.18879 16.5281 9.23137C16.6309 9.27394 16.7187 9.34604 16.7805 9.43854C16.8424 9.53104 16.8753 9.6398 16.8753 9.75105C16.8753 9.90023 16.8161 10.0433 16.7106 10.1488C16.6051 10.2543 16.462 10.3135 16.3128 10.3135Z" fill="white"/>
</svg>
