<svg width="50" height="50" viewBox="0 0 50 50" fill="none" xmlns="http://www.w3.org/2000/svg">
<g clip-path="url(#clip0_873_518)">
<rect width="50" height="50" fill="white"/>
<circle cx="25" cy="25" r="24.5" fill="#EBE2FF" stroke="#E0E5F2"/>
<path d="M36.2811 35.9676C36.6225 35.7242 36.8594 35.3608 36.9445 34.9502C37.0296 34.5396 36.9565 34.1121 36.7398 33.753L35.9584 32.4622L32.0607 26.024C32.1492 25.9386 32.2378 25.85 32.3232 25.7614C32.3422 25.7434 32.3602 25.7244 32.377 25.7044C32.5099 25.5684 32.6396 25.4165 32.7852 25.2362C32.8073 25.2077 32.8294 25.1824 32.8389 25.1666C32.9623 25.0147 33.0731 24.8502 33.1553 24.7173C33.1719 24.6954 33.1867 24.6721 33.1996 24.6477L33.2407 24.5908C33.3356 24.4358 33.4306 24.2744 33.5318 24.1036L33.5856 23.9992C33.67 23.8347 33.7522 23.667 33.8324 23.4961C33.8444 23.4682 33.855 23.4397 33.864 23.4107C34.1109 22.8431 34.2904 22.2485 34.3987 21.639C34.3987 21.639 34.3987 21.6074 34.3987 21.5694C34.3987 21.4682 34.424 21.3701 34.4335 21.253L34.4556 21.06C34.4556 20.9809 34.4556 20.905 34.4746 20.8417C34.4936 20.7785 34.4746 20.6456 34.4746 20.5475V20.4684C34.4746 20.3514 34.4746 20.2375 34.4746 20.1204C34.4746 20.0034 34.4746 19.88 34.4556 19.7629C34.4366 19.6458 34.4335 19.513 34.4177 19.3959C34.4018 19.2789 34.3892 19.1744 34.3702 19.0574C34.3512 18.9403 34.3322 18.8359 34.3069 18.7252V18.6651C34.2816 18.5575 34.2595 18.4563 34.231 18.3487C34.2025 18.2411 34.1519 18.0671 34.1044 17.9343C34.057 17.8014 34.0475 17.7444 34.0127 17.6495C33.9557 17.4945 33.8893 17.3331 33.8229 17.1876L33.7817 17.0959C33.7628 17.0516 33.7438 17.0073 33.7216 16.963C33.6046 16.7194 33.4875 16.5011 33.3641 16.2923C32.56 14.9553 31.373 13.8906 29.9568 13.2361C28.8443 12.7274 27.6297 12.4817 26.407 12.5179C25.2008 11.3149 23.6652 10.496 21.9941 10.1647C20.323 9.83335 18.5912 10.0044 17.0171 10.6562C15.4431 11.308 14.0974 12.4114 13.1497 13.8272C12.2021 15.2429 11.695 16.9077 11.6924 18.6113C11.6924 22.8697 18.4534 32.9558 19.8233 34.9584C13.0718 35.376 10.0156 36.7618 10.0156 39.3022C10.0156 39.3862 10.049 39.4666 10.1083 39.526C10.1676 39.5853 10.2481 39.6186 10.332 39.6186C10.4159 39.6186 10.4964 39.5853 10.5557 39.526C10.615 39.4666 10.6484 39.3862 10.6484 39.3022C10.6484 36.7111 15.2864 35.4551 24.8315 35.4551C34.3765 35.4551 39.0146 36.7206 39.0146 39.3022C39.0146 39.3862 39.0479 39.4666 39.1072 39.526C39.1666 39.5853 39.2471 39.6186 39.331 39.6186C39.4149 39.6186 39.4953 39.5853 39.5547 39.526C39.614 39.4666 39.6473 39.3862 39.6473 39.3022C39.6315 37.7995 38.5558 36.7016 36.2811 35.9676ZM35.8477 35.5057C35.6137 35.6459 35.3338 35.6879 35.069 35.6227C34.8041 35.5576 34.5757 35.3904 34.4335 35.1577L33.8007 34.139L34.3069 33.8448L35.5724 33.0728L36.2052 34.0915C36.2746 34.2079 36.3204 34.3367 36.34 34.4708C36.3595 34.6048 36.3525 34.7414 36.3193 34.8727C36.2861 35.004 36.2274 35.1275 36.1465 35.2361C36.0655 35.3447 35.964 35.4364 35.8477 35.5057ZM29.71 13.8182C31.0125 14.4189 32.1039 15.3978 32.8421 16.6276C32.956 16.8175 33.0636 17.0168 33.1585 17.2414L33.2059 17.3521L33.2534 17.4534C33.3135 17.5894 33.3736 17.7286 33.4242 17.8678C33.4527 17.9532 33.4812 18.0418 33.5097 18.1367C33.5381 18.2316 33.5919 18.3867 33.6267 18.5195C33.6615 18.6524 33.6742 18.7062 33.6932 18.7948V18.8517C33.7153 18.9561 33.7374 19.0574 33.7533 19.1681C33.7691 19.2788 33.7849 19.3769 33.7976 19.4845C33.8102 19.5921 33.8229 19.7123 33.8292 19.823C33.8355 19.9337 33.8292 20.0382 33.8482 20.1394C33.8672 20.2406 33.8482 20.345 33.8482 20.4558V20.5475C33.8482 20.6329 33.8482 20.7184 33.8482 20.8164C33.8482 20.9145 33.8482 20.9398 33.8482 20.9999L33.826 21.2024C33.826 21.291 33.826 21.3764 33.7976 21.4555C33.7691 21.5346 33.7817 21.5283 33.7786 21.5473C33.6801 22.1136 33.5166 22.6667 33.2914 23.1956L33.2724 23.2462C33.1996 23.4044 33.1205 23.5626 33.0414 23.7176L32.9908 23.8125C32.9054 23.9644 32.8168 24.1131 32.7345 24.2428C32.7187 24.2649 32.7029 24.2871 32.6902 24.3092L32.6554 24.3598C32.5605 24.499 32.4593 24.6414 32.3391 24.7933C32.3292 24.8093 32.3176 24.8242 32.3043 24.8376L32.279 24.8692C32.1651 25.0147 32.0448 25.1508 31.9151 25.2868L31.8708 25.3343C31.719 25.4893 31.5893 25.6158 31.4532 25.7361C31.3971 25.7849 31.36 25.852 31.3485 25.9255C31.3369 25.9989 31.3516 26.0741 31.3899 26.1379L35.256 32.5318L33.4938 33.5948L29.6246 27.1946C29.5962 27.1479 29.5562 27.1094 29.5085 27.0828C29.4608 27.0562 29.4071 27.0424 29.3525 27.0427C29.3134 27.0424 29.2747 27.0499 29.2386 27.0648C29.0899 27.1218 28.9444 27.1693 28.802 27.2135L28.6723 27.2515C28.5204 27.2926 28.3749 27.3338 28.2515 27.3622C28.2231 27.359 28.1945 27.359 28.1661 27.3622C27.853 27.4283 27.536 27.4737 27.217 27.4983H27.1758C27.0335 27.4983 26.8911 27.4983 26.7519 27.4983H26.5747C26.4387 27.4983 26.3026 27.4983 26.1761 27.4983L25.9894 27.4793C25.7621 27.4595 25.536 27.4267 25.3124 27.3812L25.2238 27.3622L25.0846 27.3369H25.0688C24.9644 27.3148 24.8631 27.2863 24.7524 27.2578C24.6606 27.2357 24.5721 27.2072 24.4771 27.1756C24.3822 27.1439 24.2842 27.1155 24.1861 27.0775C24.088 27.0395 23.9931 27.0016 23.895 26.9604L23.8381 26.9351C23.7495 26.9003 23.6609 26.8624 23.5786 26.8212C23.4236 26.7453 23.2623 26.6662 23.1199 26.5808L22.9174 26.4669C22.8035 26.3941 22.6865 26.3214 22.5726 26.2423L22.5219 26.2043L22.3891 26.1126C22.253 26.0082 22.1201 25.9037 21.9936 25.7962L21.9335 25.7519L21.8955 25.7203C21.7721 25.6095 21.6519 25.4956 21.5412 25.3786C21.5292 25.3613 21.5154 25.3454 21.5 25.3311C21.1314 24.9457 20.8058 24.5213 20.5288 24.0656C20.387 23.8329 20.2592 23.5921 20.146 23.3443C19.7404 22.4424 19.525 21.4667 19.5132 20.4779C19.516 20.4569 19.516 20.4356 19.5132 20.4146C19.5132 20.2849 19.5132 20.1552 19.5132 20.0097C19.515 19.996 19.515 19.9822 19.5132 19.9685C19.5132 19.7914 19.5385 19.5984 19.5702 19.3706V19.3042C19.5702 19.2725 19.5702 19.244 19.5702 19.2282C19.5986 19.0542 19.6334 18.8486 19.6841 18.6461V18.6113C19.7283 18.4341 19.7853 18.2443 19.8581 18.026C19.8581 17.9849 19.8865 17.9437 19.9055 17.8931C19.9688 17.7191 20.0447 17.5166 20.1333 17.3268C20.2124 17.156 20.3042 16.9788 20.4054 16.7985L20.4908 16.6593C20.5946 16.4806 20.7076 16.3074 20.8293 16.1404V16.1151C20.9401 15.9632 21.0666 15.7987 21.209 15.6469L21.3071 15.533C21.4467 15.3756 21.5946 15.2256 21.75 15.0837C21.8987 14.9477 22.0664 14.8116 22.2372 14.6788C22.2762 14.6454 22.3174 14.6148 22.3606 14.587L22.4175 14.5459C22.4466 14.5217 22.4772 14.4995 22.5093 14.4794C22.6327 14.3877 22.7624 14.3054 22.8921 14.2263C23.5128 13.8498 24.187 13.5692 24.8916 13.3943C25.3347 13.2859 25.787 13.2192 26.2425 13.195C27.432 13.1145 28.623 13.3286 29.71 13.8182ZM19.3519 23.0817C18.7473 22.9482 18.1762 22.6933 17.6732 22.3324C17.1701 21.9716 16.7456 21.5123 16.4253 20.9825C16.1051 20.4527 15.8958 19.8633 15.8101 19.2502C15.7245 18.637 15.7642 18.0129 15.927 17.4156C16.0898 16.8183 16.3722 16.2602 16.7571 15.7753C17.142 15.2904 17.6214 14.8888 18.1662 14.5947C18.711 14.3006 19.3098 14.1203 19.9264 14.0646C20.543 14.0089 21.1645 14.079 21.7531 14.2706L21.7152 14.3054C21.595 14.4035 21.4811 14.4984 21.3735 14.5965C21.2248 14.7325 21.0571 14.8907 20.8863 15.0932L20.7819 15.2134C20.6269 15.3874 20.4845 15.5646 20.3579 15.7386V15.7608C20.244 15.9189 20.1301 16.0771 20.0004 16.3081L19.915 16.4536C19.7979 16.6593 19.6999 16.8491 19.6145 17.0357C19.5202 17.2357 19.4367 17.4406 19.3645 17.6495C19.3417 17.7033 19.3216 17.7582 19.3044 17.814C19.2316 18.0323 19.1747 18.2316 19.1272 18.4183V18.4531C19.0703 18.6841 19.0292 18.9119 18.9975 19.1175V19.1871C18.9975 19.2156 18.9975 19.2472 18.9975 19.2694C18.9659 19.5003 18.9437 19.7091 18.9342 19.9021C18.9342 19.9021 18.9342 19.9243 18.9342 19.9337C18.9342 20.1014 18.9342 20.2723 18.9342 20.4399C18.9314 20.4641 18.9314 20.4885 18.9342 20.5127C18.9342 20.7089 18.9469 20.905 18.9722 21.1012C18.9722 21.1391 18.9722 21.1771 18.9722 21.2151C18.9944 21.4017 19.0197 21.5884 19.0545 21.7751L19.0735 21.8731C19.1114 22.0535 19.1525 22.2306 19.2 22.4078V22.4521C19.2538 22.6356 19.3139 22.8159 19.3772 22.9963L19.3519 23.0817ZM20.3168 10.6197C22.2546 10.6116 24.1279 11.3152 25.5813 12.597H25.5591H25.5149C25.2807 12.635 25.0466 12.6793 24.8125 12.7362C24.0454 12.9261 23.3115 13.2311 22.6358 13.641C22.5378 13.698 22.446 13.7613 22.3543 13.8214C21.71 13.5481 21.0167 13.4092 20.3168 13.4133C18.9935 13.4094 17.7185 13.9104 16.7518 14.8141C15.7851 15.7179 15.1995 16.9563 15.1144 18.2769C15.0293 19.5975 15.451 20.9008 16.2937 21.9212C17.1363 22.9415 18.3364 23.6021 19.6493 23.7682C19.7505 23.9802 19.8612 24.189 19.9878 24.401C20.2834 24.8773 20.6292 25.3207 21.0192 25.7234C21.0311 25.7417 21.0449 25.7586 21.0603 25.774C21.1932 25.9132 21.3387 26.0556 21.4874 26.1853L21.5507 26.2391L21.5886 26.2707C21.7278 26.391 21.8734 26.5049 22.0221 26.6188L22.1739 26.7263L22.2245 26.7611C22.3448 26.8465 22.4682 26.9256 22.5915 27.0016L22.8162 27.1376C22.9775 27.2294 23.1325 27.3148 23.3097 27.397C23.4078 27.4445 23.5122 27.4888 23.6071 27.5268L23.6577 27.5489C23.7653 27.5932 23.8697 27.6375 23.9741 27.6755C24.0785 27.7134 24.1861 27.7545 24.2905 27.7862L24.5373 27.8589C22.8098 30.8645 20.9875 33.5853 20.3263 34.5566C18.9153 32.497 12.3252 22.5881 12.3252 18.6113C12.3277 16.4926 13.1705 14.4613 14.6686 12.9631C16.1668 11.465 18.1981 10.6222 20.3168 10.6197ZM20.8452 34.9046C21.5317 33.8986 23.4078 31.0923 25.1668 28.014C25.4125 28.0637 25.6607 28.0997 25.9103 28.1215L26.1065 28.1437C26.252 28.1437 26.3944 28.1437 26.5336 28.1437H26.7329C26.8848 28.1437 27.0493 28.1437 27.1758 28.1437H27.2201C27.5829 28.1176 27.9435 28.0658 28.299 27.9887H28.3496C28.5109 27.9539 28.6659 27.9096 28.8305 27.8653L28.9665 27.8273L29.2006 27.7514L33.111 34.1928L33.8355 35.3918C31.5513 35.0059 28.5647 34.8224 24.8157 34.8224C23.3793 34.8224 22.06 34.8477 20.8452 34.9046Z" fill="#6524EB"/>
<path d="M23.8666 15.6628C22.6272 16.4152 21.7365 17.6281 21.3896 19.0358C21.0427 20.4436 21.2679 21.9315 22.0158 23.1736L22.0443 23.221C22.473 23.9124 23.0515 24.4988 23.737 24.9369C24.4226 25.3749 25.1977 25.6535 26.0053 25.752H26.154H26.1856C26.3565 25.7678 26.5273 25.7773 26.6982 25.7773C27.6896 25.7777 28.6619 25.5039 29.5076 24.9864C30.4302 24.4287 31.1675 23.6107 31.6268 22.6354C32.086 21.66 32.2468 20.5706 32.089 19.5041C31.9311 18.4376 31.4616 17.4416 30.7395 16.6411C30.0173 15.8406 29.0748 15.2713 28.0301 15.0048L27.8118 14.9953H27.758C26.5271 14.7486 25.2488 14.9341 24.1387 15.5204L23.8666 15.6628ZM24.183 16.207H24.2051C24.537 16.7405 24.7553 17.3367 24.8466 17.9584C24.9379 18.58 24.9001 19.2138 24.7357 19.8203C24.5712 20.4267 24.2836 20.9927 23.8908 21.4831C23.498 21.9735 23.0083 22.3777 22.4524 22.6705C22.4271 22.6294 22.405 22.5851 22.3828 22.5408C22.3607 22.4965 22.3101 22.3984 22.2784 22.3257C22.2468 22.2529 22.2151 22.177 22.1867 22.1042C22.1582 22.0314 22.1297 21.9555 22.1044 21.8827C22.0791 21.81 22.057 21.7309 22.038 21.655C22.019 21.579 21.9968 21.5063 21.9779 21.4303C21.9589 21.3544 21.9462 21.2753 21.9336 21.1962C21.9209 21.1171 21.9083 21.0475 21.8988 20.9716C21.8865 20.8941 21.8792 20.8159 21.8766 20.7375C21.8766 20.6615 21.8766 20.5888 21.8766 20.5128C21.8766 20.4369 21.8766 20.3547 21.8766 20.2756C21.8766 20.1965 21.8766 20.1269 21.8766 20.0541C21.8766 19.9813 21.8924 19.8959 21.9019 19.8168C21.9114 19.7377 21.9019 19.6713 21.9272 19.5985C21.9525 19.5258 21.9589 19.4435 21.9747 19.3644C21.9905 19.2853 22.0032 19.222 22.0221 19.1493C22.0411 19.0765 22.0664 18.9974 22.0886 18.9215C22.1107 18.8455 22.1297 18.7823 22.155 18.7127C22.1803 18.6431 22.2151 18.564 22.2468 18.4912C22.2784 18.4184 22.3006 18.3552 22.3322 18.2887C22.3638 18.2223 22.405 18.1432 22.4429 18.0736C22.4809 18.004 22.5094 17.9439 22.5473 17.8838C22.5853 17.8237 22.6359 17.7446 22.6834 17.675C22.7308 17.6054 22.7593 17.5547 22.8004 17.4978C22.8416 17.4408 22.908 17.3617 22.9618 17.2953C23.0156 17.2289 23.0472 17.1877 23.0947 17.134C23.1421 17.0802 23.2212 17.0042 23.2845 16.9378L23.4237 16.7986C23.4996 16.729 23.5819 16.6657 23.661 16.5993L23.7907 16.4917C23.9046 16.3841 24.0375 16.2924 24.183 16.207ZM30.8269 17.8426C31.4895 18.9409 31.6895 20.2573 31.3828 21.5028C31.0762 22.7483 30.288 23.8214 29.1912 24.4865C28.445 24.9411 27.5878 25.1809 26.714 25.1794C28.201 22.2434 28.9571 20.032 28.9571 18.6114C28.9579 17.6767 28.8062 16.748 28.5078 15.8621C29.4749 16.2538 30.2887 16.9488 30.8269 17.8426ZM27.6315 15.5995H27.6821H27.7359C28.1207 16.5492 28.3174 17.5646 28.3149 18.5893C28.3149 19.9497 27.5429 22.1422 26.018 25.1098C25.9389 25.1098 25.8598 25.0813 25.7807 25.0686L25.5276 25.018C25.4358 24.9959 25.3441 24.9642 25.2555 24.9358C25.1669 24.9073 25.0942 24.8915 25.0182 24.863C24.9423 24.8345 24.8411 24.7871 24.7525 24.7491C24.6639 24.7111 24.6038 24.689 24.531 24.651C24.4582 24.6131 24.3602 24.5561 24.2779 24.5087C24.1956 24.4612 24.1387 24.4327 24.0723 24.3884C24.0058 24.3441 23.9109 24.2745 23.8287 24.2144C23.7464 24.1543 23.7021 24.1259 23.642 24.0752C23.5819 24.0246 23.4901 23.9392 23.4142 23.8696C23.3383 23.8 23.3003 23.7683 23.2465 23.7146C23.1927 23.6608 23.1042 23.5564 23.0377 23.4773C22.9713 23.3982 22.9333 23.3665 22.8859 23.3064C22.8384 23.2463 22.8226 23.2147 22.7909 23.1704C23.4111 22.8349 23.9566 22.377 24.3945 21.8244C24.8324 21.2718 25.1536 20.6361 25.3385 19.9557C25.5233 19.2753 25.5681 18.5644 25.4701 17.8662C25.3721 17.168 25.1334 16.497 24.7683 15.8938C25.6697 15.5077 26.6672 15.4051 27.6283 15.5995H27.6315Z" fill="#6524EB"/>
</g>
<defs>
<clipPath id="clip0_873_518">
<rect width="50" height="50" fill="white"/>
</clipPath>
</defs>
</svg>
