<svg width="28" height="28" viewBox="0 0 28 28" fill="none" xmlns="http://www.w3.org/2000/svg">
<path d="M26.2079 12.2925C25.2165 12.2925 24.413 13.0915 24.413 14.0774C24.413 19.785 19.7421 24.4301 14.0028 24.4301C8.26351 24.4301 3.59253 19.785 3.59253 14.0774C3.59253 8.36986 8.26351 3.72471 14.0028 3.72471C15.7542 3.72471 17.4706 4.16677 18.9961 4.99509L16.9503 7.02965C16.4553 7.5219 16.8072 8.36419 17.507 8.36419H24.3458C24.7805 8.36419 25.1324 8.01417 25.1324 7.58188L25.131 0.78372C25.131 0.0878753 24.2841 -0.262153 23.7891 0.2301L21.582 2.42502C21.4852 2.3288 21.3772 2.24234 21.2552 2.16843C19.0733 0.850638 16.5634 0.154793 14 0.154793C6.28205 0.154793 0 6.40211 0 14.0774C0 21.7527 6.28205 28 14 28C21.7179 28 28 21.7527 28 14.0774C28 13.0915 27.1965 12.2924 26.2051 12.2924L26.2079 12.2925Z" fill="#6524EB"/>
</svg>
