<svg width="50" height="50" viewBox="0 0 50 50" fill="none" xmlns="http://www.w3.org/2000/svg">
<g clip-path="url(#clip0_400_158)">
<rect width="50" height="50" fill="white"/>
<circle cx="25" cy="25" r="24.5" fill="#EBE2FF" stroke="#E6EAF4"/>
<path d="M31.4012 23.9973C32.2004 23.9973 32.9175 23.7315 33.567 23.1998C34.5406 22.4024 35.2741 21.0577 35.9434 19.751L39.9479 12.0975C40.0548 11.8921 39.9923 11.6366 39.8048 11.5106L38.7556 10.8133C38.6619 10.7511 38.5467 10.7287 38.4382 10.7546C38.3297 10.7805 38.2343 10.8495 38.1751 10.9496L33.8728 18.0733C33.5883 18.0216 33.3794 17.8835 33.2282 17.6487L37.3576 10.392C37.4744 10.1866 37.4136 9.92078 37.2211 9.79131L36.2196 9.12503C36.0272 8.99729 35.7723 9.05253 35.6457 9.25104L31.1396 16.259C30.8748 16.2158 30.666 16.076 30.4999 15.8274L34.8005 8.70373C34.9255 8.49659 34.8663 8.22388 34.6706 8.09268L33.6213 7.39534C33.4339 7.27106 33.1855 7.31939 33.0539 7.50926L28.1694 14.5777C27.3274 15.7705 26.4837 17.0409 26.2124 18.3062C25.9312 19.6163 26.2815 20.8056 27.2682 21.9328L26.7913 22.6853L17.6723 7.20904C17.6048 7.09512 17.493 7.01917 17.3664 7.00363C17.2398 6.98637 17.1131 7.03125 17.021 7.12446C15.9816 8.1774 15.6051 9.88455 15.9011 12.1991C16.3846 15.9621 18.4781 20.3016 19.6836 22.5526C20.9827 24.9778 22.3445 27.0559 23.3279 28.1575L15.2483 40.9259C15.023 41.2815 14.949 41.6906 15.0345 42.1066C15.1184 42.5243 15.3454 42.8661 15.6891 43.094L16.6791 43.7533C16.9209 43.9139 17.1873 43.9967 17.4603 43.9967C17.5738 43.9967 17.6889 43.9829 17.8057 43.9536C18.2004 43.8569 18.521 43.6135 18.7315 43.2511L26.3391 30.153L27.8127 30.9971L34.0339 43.2198C34.223 43.5926 34.5453 43.8464 34.9631 43.9534C35.0847 43.9845 35.2048 44 35.3249 44C35.5946 44 35.856 43.9206 36.0945 43.7652L37.0911 43.1162C37.4348 42.8918 37.6651 42.5535 37.7539 42.1392C37.841 41.7301 37.7752 41.3349 37.5582 40.9655L28.7482 26.0102L30.0473 23.7731C30.5243 23.9233 30.9749 24.0027 31.4025 24.0027L31.4012 23.9973ZM18.0127 42.7865C17.9173 42.9487 17.7924 43.0454 17.6147 43.0885C17.4371 43.1317 17.2842 43.1041 17.1313 43.0022L16.1412 42.3428C15.9866 42.241 15.8978 42.1064 15.86 41.9182C15.8222 41.7318 15.8518 41.5695 15.9521 41.4107L23.9563 28.7599C24.027 28.8134 24.0928 28.8617 24.1553 28.8962L25.5992 29.7231L18.0127 42.7849L18.0127 42.7865ZM36.9303 41.9406C36.8908 42.1271 36.8003 42.26 36.6458 42.3601L35.6491 43.0091C35.4946 43.1092 35.34 43.1351 35.1624 43.0903C34.9782 43.0419 34.8516 42.947 34.7759 42.7985L28.4953 30.4601C28.4558 30.3842 28.3983 30.322 28.3259 30.2806L24.5566 28.1229C23.2032 27.3479 17.5426 18.3669 16.7351 12.0784C16.5164 10.3678 16.6924 9.06455 17.2581 8.19111L36.8383 41.4261C36.9386 41.5969 36.9666 41.7592 36.9288 41.9405L36.9303 41.9406ZM28.2487 25.1625L27.2767 23.5123L28.1516 22.1297C28.1599 22.1159 28.1615 22.1004 28.1681 22.0866C28.1812 22.0589 28.1927 22.0331 28.1993 22.0037C28.2059 21.9761 28.2108 21.9502 28.2141 21.9226C28.2158 21.895 28.2158 21.8673 28.2141 21.8397C28.2108 21.8121 28.2059 21.7845 28.1977 21.7586C28.1895 21.7327 28.1796 21.7068 28.1681 21.6827C28.1549 21.6568 28.1385 21.6326 28.1204 21.6102C28.1105 21.5981 28.1072 21.5825 28.0957 21.5722C26.0384 19.4611 27.058 17.6401 28.8489 15.1025L28.8506 15.1008L28.8522 15.099L33.5048 8.36728L33.8649 8.60722L29.6464 15.5944C29.6366 15.6099 29.6349 15.6272 29.6284 15.6444C29.6152 15.672 29.6037 15.6997 29.5971 15.729C29.5905 15.7566 29.5889 15.7842 29.5872 15.8119C29.5856 15.8395 29.5856 15.8671 29.5889 15.8947C29.5938 15.9258 29.602 15.9534 29.6119 15.9828C29.6185 16 29.6168 16.0173 29.6251 16.0328C29.9885 16.7785 30.5773 17.1703 31.3272 17.1703H31.3535C31.3667 17.1703 31.3765 17.1634 31.3897 17.1617C31.4193 17.1582 31.4456 17.1513 31.4736 17.1427C31.4982 17.1341 31.5229 17.1254 31.5459 17.1116C31.569 17.0978 31.5903 17.0823 31.6101 17.065C31.6331 17.046 31.6528 17.0253 31.6709 17.0029C31.6791 16.9925 31.6906 16.9874 31.6972 16.9753L36.1144 10.1052L36.4236 10.3106L32.3747 17.4259C32.3681 17.438 32.3681 17.4501 32.3615 17.4622C32.3484 17.4898 32.3402 17.5174 32.3336 17.5468C32.327 17.5744 32.3221 17.6003 32.3204 17.6279C32.3188 17.6555 32.3204 17.6814 32.3254 17.7107C32.3286 17.7418 32.3352 17.7694 32.3451 17.7988C32.35 17.8109 32.3484 17.8247 32.3533 17.8367C32.6724 18.5704 33.2677 18.9691 34.0735 18.9915H34.085C34.1015 18.9915 34.1146 18.9846 34.1294 18.9829C34.1574 18.9795 34.1837 18.9743 34.21 18.9656C34.2363 18.957 34.2593 18.9449 34.284 18.9311C34.307 18.9173 34.3268 18.9035 34.3482 18.8862C34.3712 18.8673 34.3893 18.8448 34.409 18.8207C34.4189 18.8086 34.432 18.7999 34.4402 18.7861L38.6587 11.799L39.0189 12.0389L35.2052 19.3283V19.33L35.2035 19.3318C33.7826 22.1143 32.6479 23.8594 29.9506 22.8082C29.9375 22.803 29.9243 22.8047 29.9111 22.8013C29.8832 22.7927 29.8552 22.7892 29.8273 22.7875C29.801 22.7858 29.7746 22.7858 29.7483 22.7892C29.722 22.7927 29.6957 22.7996 29.671 22.8082C29.6447 22.8168 29.6217 22.8272 29.5987 22.841C29.5757 22.8548 29.5559 22.8703 29.5345 22.8893C29.5132 22.9083 29.4934 22.929 29.4753 22.9532C29.4671 22.9653 29.4556 22.9705 29.4474 22.9843C29.4359 23.005 29.4293 23.0257 29.4211 23.0464C29.4178 23.0533 29.4112 23.0585 29.4096 23.0671C29.4079 23.0706 29.4096 23.074 29.4079 23.0792C29.3931 23.1224 29.3849 23.1672 29.3832 23.2138L28.2485 25.1661L28.2487 25.1625Z" fill="#6524EB"/>
</g>
<defs>
<clipPath id="clip0_400_158">
<rect width="50" height="50" fill="white"/>
</clipPath>
</defs>
</svg>
