<svg width="113" height="77" viewBox="0 0 113 77" fill="none" xmlns="http://www.w3.org/2000/svg">
<g filter="url(#filter0_d_316_258)">
<path d="M25.4219 10.5926C25.4219 10.2653 25.6872 10 26.0145 10H93.8518C94.2547 10 94.5812 10.3266 94.5812 10.7294V10.7485C94.5812 10.8185 94.5245 10.8752 94.4545 10.8752V10.8752C94.3083 10.8752 94.1665 10.9258 94.0533 11.0184L64.4114 35.2697C61.8431 37.3709 58.1524 37.3802 55.5736 35.2919L25.6415 11.0531C25.5026 10.9406 25.4219 10.7714 25.4219 10.5926V10.5926Z" fill="#FF0000"/>
</g>
<path d="M56.0541 17.1166C56.3242 16.8465 56.7621 16.8465 57.0322 17.1166L60.6927 20.7772L64.3532 17.1166C64.6233 16.8465 65.0612 16.8465 65.3313 17.1166C65.6014 17.3867 65.6014 17.8246 65.3313 18.0947L61.6708 21.7552L65.3313 25.4157C65.6014 25.6858 65.6014 26.1237 65.3313 26.3938C65.0612 26.6639 64.6233 26.6639 64.3532 26.3938L60.6927 22.7333L57.0322 26.3938C56.7621 26.6639 56.3242 26.6639 56.0541 26.3938C55.784 26.1237 55.784 25.6858 56.0541 25.4157L59.7147 21.7552L56.0541 18.0947C55.784 17.8246 55.784 17.3867 56.0541 17.1166Z" fill="#BCBCBC"/>
<defs>
<filter id="filter0_d_316_258" x="0.421875" y="0" width="119.156" height="76.8516" filterUnits="userSpaceOnUse" color-interpolation-filters="sRGB">
<feFlood flood-opacity="0" result="BackgroundImageFix"/>
<feColorMatrix in="SourceAlpha" type="matrix" values="0 0 0 0 0 0 0 0 0 0 0 0 0 0 0 0 0 0 127 0" result="hardAlpha"/>
<feOffset dy="15"/>
<feGaussianBlur stdDeviation="12.5"/>
<feComposite in2="hardAlpha" operator="out"/>
<feColorMatrix type="matrix" values="0 0 0 0 0 0 0 0 0 0 0 0 0 0 0 0 0 0 0.1 0"/>
<feBlend mode="normal" in2="BackgroundImageFix" result="effect1_dropShadow_316_258"/>
<feBlend mode="normal" in="SourceGraphic" in2="effect1_dropShadow_316_258" result="shape"/>
</filter>
</defs>
</svg>
