<svg width="119" height="81" viewBox="0 0 119 81" fill="none" xmlns="http://www.w3.org/2000/svg">
<g filter="url(#filter0_d_316_258)">
<path d="M25.5625 10.7013C25.5625 10.314 25.8728 10 26.2555 10H105.582C106.053 10 106.435 10.3865 106.435 10.8632V10.8859C106.435 10.9687 106.369 11.0358 106.287 11.0358L-nan -nanL-nan -nanL106.287 11.0358C106.116 11.0358 105.95 11.0957 105.818 11.2053L73.1317 38.2694C68.9776 41.709 63.0081 41.7242 58.8369 38.3058L25.8194 11.2463C25.6569 11.1132 25.5625 10.9129 25.5625 10.7013V10.7013Z" fill="white"/>
</g>
<path d="M57.796 15.6097C58.2116 15.2238 58.8854 15.2238 59.3009 15.6097L64.9332 20.8397L70.5654 15.6097C70.981 15.2238 71.6548 15.2238 72.0703 15.6097C72.4859 15.9956 72.4859 16.6212 72.0703 17.0071L66.4381 22.2371L72.0703 27.467C72.4859 27.8529 72.4859 28.4785 72.0703 28.8644C71.6548 29.2503 70.981 29.2503 70.5654 28.8644L64.9332 23.6345L59.3009 28.8644C58.8854 29.2503 58.2116 29.2503 57.796 28.8644C57.3805 28.4785 57.3805 27.8529 57.796 27.467L63.4283 22.2371L57.796 17.0071C57.3805 16.6212 57.3805 15.9956 57.796 15.6097Z" fill="#BCBCBC"/>
<defs>
<filter id="filter0_d_316_258" x="0.5625" y="0" width="130.875" height="80.8594" filterUnits="userSpaceOnUse" color-interpolation-filters="sRGB">
<feFlood flood-opacity="0" result="BackgroundImageFix"/>
<feColorMatrix in="SourceAlpha" type="matrix" values="0 0 0 0 0 0 0 0 0 0 0 0 0 0 0 0 0 0 127 0" result="hardAlpha"/>
<feOffset dy="15"/>
<feGaussianBlur stdDeviation="12.5"/>
<feComposite in2="hardAlpha" operator="out"/>
<feColorMatrix type="matrix" values="0 0 0 0 0 0 0 0 0 0 0 0 0 0 0 0 0 0 0.1 0"/>
<feBlend mode="normal" in2="BackgroundImageFix" result="effect1_dropShadow_316_258"/>
<feBlend mode="normal" in="SourceGraphic" in2="effect1_dropShadow_316_258" result="shape"/>
</filter>
</defs>
</svg>
