<svg xmlns="http://www.w3.org/2000/svg" width="3582" height="1042"><path d="m2161.844 151.797 3.027-.022c83.901-.458 164.844 24.53 228.129 81.225l2.965 2.629c5.947 5.357 11.675 10.913 17.347 16.559l1.994 1.979c4.433 4.447 8.623 9.053 12.694 13.833l1.54 1.807c14.474 17.15 26.874 35.409 37.46 55.193l1.425 2.663c40.205 75.968 48.62 165.641 23.61 247.923C2477.151 622.77 2453.304 666.337 2420 703l-1.735 1.922c-7.699 8.5-15.633 16.523-24.265 24.078l-1.493 1.325C2343.818 773.461 2281.378 800.38 2217 808l-2.915.35C2145.33 816.234 2076.22 802.885 2021 760c.612-4.28 2.129-7.485 4.176-11.277.32-.6.642-1.198.973-1.815 1.048-1.952 2.106-3.899 3.164-5.846q1.1-2.04 2.198-4.082c2.154-3.998 4.32-7.99 6.489-11.98l1.722-3.171a4639 4639 0 0 1 7.352-13.477A3975 3975 0 0 0 2056.5 691c17.344-32.036 17.344-32.036 23.125-42.312l1.852-3.301C2083 643 2083 643 2085 642c1.967.784 3.899 1.657 5.813 2.563 38.817 17.405 85.268 16.914 124.908 2.444 24.45-9.468 45.42-22.858 64.279-41.007l2.059-1.867c32.792-30.68 48.34-77.664 50.07-121.39.754-42.532-13.81-86.179-43.055-117.516-1.887-2.027-3.67-4.106-5.449-6.227-29.513-33.624-75.385-51.924-119.236-54.86-44.819-2.637-90.52 11.695-124.42 41.489a321 321 0 0 0-7.52 6.995 310 310 0 0 1-4.191 3.888c-12.107 11.457-21.68 25.693-29.258 40.488l-1.108 2.159c-11.77 23.22-19.06 47.81-19.03 73.99l-.01 2.995q-.01 4.96-.01 9.92l-.015 7.187q-.016 7.812-.024 15.622-.012 11.614-.034 23.23-.035 19.538-.06 39.077-.024 19.344-.056 38.687l-.004 2.43-.02 12.221q-.071 43.268-.132 86.536-.058 42.033-.125 84.065l-.004 2.618-.124 79.044-.004 2.462-.116 76.852L1978 1042h-171V162h171l1 82 10-13c3.858-4.472 7.913-8.739 12-13l2.715-2.875c6.894-7.127 14.35-13.218 22.285-19.125l2.586-1.93c38.246-27.572 86.213-42.05 133.258-42.273M786.625 151.797l2.96-.021c3.139-.018 6.277-.024 9.415-.026l3.253-.002c16.428.016 32.518.454 48.747 3.252l3.02.52c7.051 1.263 14.02 2.786 20.98 4.48l3.02.733c50.461 12.555 99.419 37.93 137.77 73.24 1.95 1.788 3.94 3.505 5.96 5.214 9.102 7.958 17.631 16.636 25.121 26.125 2.245 2.835 4.588 5.568 6.941 8.313C1092.778 320.478 1117.408 381.652 1124 442l.286 2.469c1.07 10.663.957 21.389.964 32.094l.003 3.17c-.036 54.832-.036 54.832-8.253 71.267-40.637.55-81.274.972-121.915 1.226q-7.204.044-14.407.092l-2.897.02c-15.462.104-30.922.293-46.383.514q-23.813.334-47.627.406c-9.791.033-19.577.137-29.366.332-6.722.127-13.44.165-20.163.134-3.876-.015-7.742.007-11.616.137-22.526.716-22.526.716-29.3-5.194-4.718-5.7-7.943-11.963-10.938-18.695-2.066-4.424-4.693-8.413-7.388-12.472q-1.458-2.294-2.906-4.594l-1.5-2.375c-3.693-5.865-7.357-11.749-11.028-17.629a3932 3932 0 0 0-13.005-20.675c-4.713-7.45-9.372-14.933-14.032-22.417-4.368-6.998-8.81-13.942-13.38-20.81-3.149-4.785-3.149-4.785-3.149-7h238c-9.696-24.239-19.807-45.442-37-65l-2.496-2.863c-4.865-5.473-9.82-10.524-15.504-15.137l-1.467-1.218c-31.81-26.337-70.038-37.772-111.248-34.571-41.309 3.998-80.797 24.892-107.672 56.605-23.612 29.617-39.424 67.893-39.851 106.067l-.03 2.207c-.175 16.35.074 31.993 4.268 47.91l.666 2.573C653.82 556.883 675.276 592.719 707 617c1.005.81 2.01 1.62 3.047 2.453 33.156 26.541 72.097 34.84 113.925 30.726 35.854-4.013 64.737-16.568 87.84-45.054l2.27-2.867C916 600 916 600 918 599c2.636.989 5.16 2.05 7.723 3.207l2.41 1.066c2.646 1.173 5.288 2.356 7.93 3.54l5.578 2.474q5.804 2.574 11.606 5.157a4643 4643 0 0 0 23.734 10.452q6.354 2.786 12.707 5.577l5.117 2.246 2.58 1.133 10.713 4.702A52161 52161 0 0 1 1066 664c-10.268 21.427-33.034 42.916-51 58l-1.592 1.347C996.128 737.906 977.825 750.186 958 761l-2.385 1.327C920.433 781.904 881.787 793.606 842 799l-2.479.36c-81.522 11.52-169.411-12.266-235.002-61.31-6.717-5.113-13.185-10.472-19.519-16.05l-2.348-2.012C569.785 708.754 557.434 696.533 547 683a658 658 0 0 0-2.703-3.258C530.549 663.168 519.219 644.92 509 626l-1.425-2.626C485.352 581.974 474.228 534.859 473 488l-.066-2.353c-1.181-49.106 7.7-99.231 29.066-143.647l1.132-2.388C514.923 314.842 529.696 292.25 547 271l1.275-1.592c6.902-8.576 14.532-16.422 22.288-24.22l1.463-1.48A226 226 0 0 1 593 225l2.215-1.757c53.643-42.236 122.433-71.112 191.41-71.446"/><path fill="#6524EB" d="M3352.75 298.75c9.574 6.838 15.855 16.71 18.25 28.25.027 2.333.03 4.667 0 7l1.905-.011q23.054-.134 46.108-.196c7.433-.02 14.866-.049 22.299-.095q9.73-.061 19.46-.074c3.427-.006 6.854-.017 10.281-.047 33.101-.253 59.034 7.343 83.447 30.486 18.453 18.921 27.662 44.177 27.64 70.377l.01 3.473q.01 5.757.011 11.514.007 4.13.015 8.26.02 11.22.024 22.44l.012 14.03q.019 19.446.026 38.894v5.03l.003 7.582q.008 20.276.045 40.55.035 20.85.037 41.699-.001 11.692.025 23.385.023 9.961.012 19.923-.006 5.074.011 10.147c.117 33.697-6.829 60.366-30.559 85.196-15.84 15.428-39.055 27.53-61.591 27.571l-3.444.014h-3.754q-2.006.004-4.01.01-5.504.014-11.007.017-5.938.007-11.878.022c-9.56.02-19.121.03-28.682.039q-6.763.007-13.526.015a69099 69099 0 0 1-56.666.044l-2.93.002c-15.643.008-31.286.033-46.929.066q-24.12.049-48.24.054c-9.021.002-18.041.01-27.061.036q-11.53.034-23.06.02c-3.915-.004-7.83-.002-11.745.017-32.807.155-60.47-5.41-84.672-28.869-19.11-19.139-29.729-44.432-29.89-71.496.005-1.032.008-2.064.012-3.128l-.011-3.437c-.01-3.762-.007-7.524-.003-11.286q-.006-4.07-.015-8.14-.018-9.872-.012-19.745a14261 14261 0 0 0-.01-23.048q-.013-21.823-.003-43.646c.006-13.276-.006-26.553-.025-39.83q-.03-20.5-.024-41.003c.002-7.66 0-15.318-.014-22.977q-.019-9.783-.002-19.564.01-4.98-.005-9.96c-.095-32.785 6.289-61.733 29.635-86.111 14.684-14.005 31.904-23.053 51.75-27.25l2.502-.536c4.92-.653 9.779-.594 14.736-.578h3.401c3.701 0 7.402.009 11.103.016l7.71.005q9.1.005 18.2.021 10.363.016 20.727.022 21.31.016 42.621.05l.162-2.226.236-2.954.225-2.913c1.377-10.607 7.648-19.072 15.752-25.72 15.404-11.348 35.298-11.293 51.375-1.437"/><path d="M1080 162c26.486-.561 52.97-.984 79.46-1.243 12.302-.124 24.6-.292 36.898-.568 10.725-.24 21.446-.394 32.173-.447 5.678-.031 11.348-.104 17.024-.28 34.517-1.025 34.517-1.025 42.678 4.876 4.97 5.585 7.627 11.7 9.807 18.786 1.365 4.09 3.478 7.502 5.815 11.095q1.09 1.816 2.165 3.64l2.168 3.641 2.406 4.047 4.95 8.324q5.392 9.067 10.774 18.138l3.551 5.98a14560 14560 0 0 1 10.745 18.113q3.004 5.076 6.011 10.148l1.19 2.008c5.993 10.109 12.075 20.16 18.197 30.19a857 857 0 0 1 14.528 24.745c4.53 7.997 9.256 15.871 14.006 23.74 2.885 4.78 5.758 9.565 8.56 14.395l1.401 2.415a794 794 0 0 1 2.525 4.397c1.876 3.524 1.876 3.524 4.968 5.86l.793-2.135c1.295-3.073 2.834-5.837 4.523-8.713l.994-1.696q1.621-2.762 3.253-5.519l2.3-3.91c5.787-9.817 11.683-19.564 17.618-29.29 5.409-8.872 10.728-17.795 16.019-26.737a2815 2815 0 0 1 19.042-31.709c5.723-9.39 11.357-18.828 16.958-28.291 4.587-7.75 9.176-15.497 13.848-23.195l1.928-3.19a338 338 0 0 1 4.312-6.9c3.416-5.396 6.492-10.582 8.769-16.561 3.412-8.946 7.53-18.525 15.643-24.154 13.021-5.738 29.8-3.573 43.624-3.042 5.753.19 11.506.205 17.26.24 10.874.094 21.738.34 32.607.641 12.383.337 24.767.501 37.154.651 25.456.313 50.905.84 76.355 1.51l-1 2h-2l-.852 1.783c-1.054 2.035-2.187 3.828-3.511 5.694l-1.418 2.003c-.505.708-1.01 1.416-1.532 2.145l-1.61 2.266A2837 2837 0 0 1 1728 185l-1.61 2.248c-6.715 9.363-13.52 18.658-20.368 27.925a1196 1196 0 0 0-12.475 17.253c-4.587 6.45-9.24 12.851-13.878 19.264a4813 4813 0 0 0-4.896 6.79 2600 2600 0 0 1-18.54 25.412c-5.597 7.585-11.117 15.224-16.624 22.874q-4.05 5.62-8.109 11.234l-3.25 4.5-6.5 9-1.625 2.25-3.252 4.502a8139 8139 0 0 0-8.088 11.213 2368 2368 0 0 1-16.973 23.285 1320 1320 0 0 0-14.265 19.676c-4.587 6.45-9.24 12.851-13.878 19.264a4813 4813 0 0 0-4.896 6.79 2549 2549 0 0 1-18.525 25.39 1786 1786 0 0 0-13.81 18.993l-1.5 2.086-1.446 2.029a101 101 0 0 1-3.234 4.142l-1.696 2.087-1.558 1.847c-1.219 1.952-1.219 1.952-.84 4.437.885 2.655 1.889 4.276 3.645 6.443l1.747 2.192 1.881 2.312a2357 2357 0 0 1 3.876 4.878l1.921 2.423c2.329 2.982 4.534 6.037 6.704 9.136 3.997 5.686 8.13 11.26 12.312 16.813a2248 2248 0 0 1 16.554 22.241q4.316 5.87 8.622 11.747a1524 1524 0 0 0 18.824 25.136c4.764 6.223 9.45 12.477 13.963 18.884 3.584 5.07 7.303 10.032 11.037 14.991a2251 2251 0 0 1 16.554 22.242q4.316 5.87 8.622 11.747a1524 1524 0 0 0 18.824 25.136c4.764 6.223 9.45 12.477 13.963 18.884 3.584 5.07 7.303 10.032 11.037 14.991a2251 2251 0 0 1 16.554 22.242q4.316 5.87 8.622 11.747a1494 1494 0 0 0 20.982 27.945C1745 788.03 1745 788.03 1745 791h-207l-4-7a81 81 0 0 0-2.777-3.77c-.507-.65-1.013-1.302-1.535-1.973l-1.626-2.07a585 585 0 0 1-13.437-18 1009 1009 0 0 0-14.062-19.125 2841 2841 0 0 1-19.83-26.703q-4.362-5.933-8.733-11.859-5.29-7.174-10.57-14.355c-5.446-7.405-10.905-14.8-16.43-22.145-6.13-8.15-12.177-16.36-18.218-24.577q-4.387-5.964-8.782-11.923-5.29-7.175-10.57-14.355c-5.446-7.405-10.905-14.8-16.43-22.145-6.13-8.15-12.177-16.36-18.218-24.577q-5.263-7.152-10.534-14.3-4.361-5.916-8.713-11.838A2834 2834 0 0 0 1335.5 516c-11.126-14.805-22.072-29.736-32.891-44.766-2.7-3.748-5.404-7.49-8.109-11.234a9445 9445 0 0 1-9.715-13.465 2368 2368 0 0 0-16.973-23.285 1320 1320 0 0 1-14.265-19.676 1967 1967 0 0 0-8.86-12.324l-1.66-2.297-3.354-4.639q-4.089-5.656-8.173-11.314l-3.25-4.5-34.125-47.25-3.252-4.502a8139 8139 0 0 1-8.088-11.213 2368 2368 0 0 0-16.973-23.285 1320 1320 0 0 1-14.265-19.676 1967 1967 0 0 0-8.86-12.324l-1.66-2.297-3.354-4.639q-4.089-5.656-8.173-11.314l-3.25-4.5-21.127-29.253-3.228-4.468a6737 6737 0 0 1-10.235-14.199 4065 4065 0 0 1-3.348-4.656c-2.164-3.005-4.331-5.947-6.683-8.81C1080 164 1080 164 1080 162M2659 0h168l.028 53.555.023 37.677q.026 37.867.066 75.735l.002 2.497a535091 535091 0 0 0 .091 82.727q.046 42.476.062 84.951a86287 86287 0 0 0 .096 99.656l.004 2.453q.024 19.528.02 39.056-.002 19.642.04 39.286.026 11.662.011 23.326c-.007 5.815.007 11.63.03 17.444q.008 3.519-.004 7.038c-.078 23.276 3.733 41.997 20.328 59.494 11.178 10.58 27.437 18.162 42.891 18.263l3.43.03 3.75.017 4.027.03q5.383.04 10.765.069 5.055.03 10.108.069c9.848.068 19.696.128 29.544.19L3019 644v147l-67.875.188-21.273.082c-8.706.014-8.706.014-12.807.016q-4.212.005-8.424.03c-26.45.15-51.899-1.845-77.621-8.316l-2.337-.585c-40.847-10.5-83.951-36.677-110.663-69.415l-1.268-1.517C2703.94 696.158 2693.211 679.7 2684 662l-1.16-2.203c-17.2-33.082-24.4-69.456-24.18-106.502q0-3.078-.002-6.158c0-5.49.017-10.98.038-16.47.019-5.768.02-11.537.024-17.305q.017-16.329.064-32.658c.04-14.736.056-29.473.073-44.209.029-23.165.088-46.33.143-69.495h-91V227h91zM415 155l3.071.52C451.226 161.261 482.988 171.8 513 187c-1.265 3.344-2.698 6.363-4.547 9.422l-1.539 2.568-1.664 2.76c-6.71 11.242-13.123 22.635-19.484 34.077-2.911 5.23-5.84 10.451-8.766 15.673l-3.5 6.25-7 12.5-1.751 3.128-3.486 6.22q-4.5 8.03-8.974 16.074C440.524 316.808 440.524 316.808 434 327l-2.973-1.54C386.954 302.874 337.807 295.653 290 311c-24.187 8.015-45.185 19.581-63.852 37.008-1.952 1.81-3.965 3.491-6.023 5.18-20.724 18.18-34.738 43.92-43.125 69.812l-.72 2.203c-5.198 16.63-5.006 33.348-4.945 50.57.01 4.244-.01 8.487-.026 12.73q-.035 10.99-.023 21.98c.01 10.593-.008 21.186-.032 31.78q-.057 25.787-.058 51.576a34189 34189 0 0 1-.043 50.06l-.005 3.156-.042 24.44c-.068 39.835-.083 79.67-.106 119.505H0V162h171l1 79 8-10c1.5-1.727 3.016-3.44 4.563-5.125a298 298 0 0 0 7.875-8.937C223.232 181.883 270.23 163.208 315 155l2.952-.543c31.021-5.354 66.08-4.89 97.048.543"/><path fill="#FEFEFE" d="M3324 369h7c2.03 10.301 3.709 20.576 5 31l.566 4.285.559 4.277.508 3.88c.332 3.22.437 6.324.367 9.558l3.242-.176c14.368-.52 27.796 1.953 41.758 5.176l2.35.534c23.602 5.582 49.342 16.48 67.65 32.466l2.59 2.258c2.5 2.219 4.975 4.45 7.41 6.742l1.616 1.519c4.622 4.466 8.484 9.288 12.259 14.481l1.842 2.522c5.227 7.244 9.978 14.654 14.283 22.478l1.89 3.406c14.901 28.247 20.456 64.552 12.11 95.594l-.57 2.204C3495.56 652.5 3475.621 687.726 3440 712l-2.372 1.64c-33.147 22.884-67.95 40.333-107.628 48.36l-3.09.628c-15.494 3.067-31.02 5.086-46.722 6.684l-2.543.265c-10.924 1.12-21.66 1.654-32.645 1.423 2.944-7.94 5.937-15.859 9-23.754l.804-2.073a8143 8143 0 0 1 4.056-10.431l1.53-3.937 1.377-3.532c1.156-3.07 2.22-6.154 3.233-9.273l-1.59-.375c-21.513-5.727-41.088-18.83-57.41-33.625l-2.922-2.523c-6.445-5.644-11.907-11.654-17.078-18.477l-1.23-1.61c-8.911-11.734-15.609-23.935-21.02-37.64l-.961-2.375c-5.816-15.353-7.49-30.894-7.289-47.187l.015-2.631c.117-17.772 1.772-34.92 8.485-51.557l.824-2.117c.977-2.342 2.057-4.605 3.176-6.883l.862-1.784c19.043-39.044 53.951-63.986 94.37-77.99 9.8-3.296 19.651-5.783 29.83-7.601l2.81-.508c6.416-1.066 12.63-1.3 19.128-1.117l.352-3.125c.792-6.326 1.93-12.596 3.023-18.875l.675-3.893c1.574-9.05 3.203-18.088 4.95-27.107"/><path d="M1247 561c13.267 5.605 26.361 11.522 39.375 17.688 11.231 5.319 22.49 10.566 33.813 15.687a5282 5282 0 0 1 41.852 19.18c7.232 3.346 14.465 6.686 21.73 9.96l3.435 1.554q3.075 1.389 6.159 2.76l2.66 1.202 2.278 1.018C1400 631 1400 631 1401 633c-6.716 9.365-13.475 18.69-20.412 27.893-5.662 7.517-11.231 15.102-16.806 22.684q-4.387 5.964-8.782 11.923l-3.5 4.75-35 47.5-5.237 7.105q-4.498 6.099-8.974 12.211l-1.86 2.536q-1.733 2.363-3.46 4.73a190 190 0 0 1-3.208 4.248c-1.813 2.375-1.813 2.375-3.145 5.004-2.186 3.602-4.289 6.714-8.499 7.984-5.904.94-11.886.683-17.844.567q-3.03-.004-6.062.005a1235 1235 0 0 1-16.418-.126c-5.724-.063-11.448-.068-17.172-.08a5078 5078 0 0 1-32.5-.214 7404 7404 0 0 0-37.009-.217c-25.371-.104-50.742-.28-76.112-.503 1.34-3.474 2.717-6.234 4.984-9.195l1.813-2.39 1.953-2.54q2.055-2.704 4.105-5.41l2.103-2.766c3.072-4.06 6.091-8.158 9.104-12.261l1.736-2.36 3.468-4.72q4.363-5.931 8.734-11.858l1.748-2.373q4.389-5.96 8.787-11.912c5.74-7.771 11.45-15.56 17.09-23.403a1050 1050 0 0 1 13.79-18.71c5.661-7.515 11.23-15.098 16.803-22.679q3.516-4.778 7.037-9.555l3.492-4.74q4.39-5.96 8.788-11.913c5.74-7.771 11.45-15.56 17.09-23.403 4.519-6.28 9.108-12.5 13.766-18.677 5.789-7.683 11.48-15.438 17.174-23.19 1.468-1.99 2.95-3.969 4.435-5.945"/><path fill="#6525EB" d="m3253.237 499.694 3.654-.026q4.935-.029 9.87-.035 3.094-.006 6.189-.017 10.83-.037 21.663-.042c6.692-.003 13.384-.033 20.077-.075q8.662-.051 17.326-.05c3.436-.002 6.872-.01 10.308-.039 20.929-.147 38.282.91 54.426 15.84 11.572 12.376 16.83 27.141 16.562 43.84-1.226 15.349-8.247 28.42-19.312 38.91-12.483 10.515-26.655 14.312-42.647 14.275l-3.429.015c-3.72.014-7.439.013-11.158.01l-7.805.014q-8.17.01-16.34.002c-6.266-.006-12.53.006-18.795.027-6.062.02-12.124.023-18.186.02q-3.843 0-7.687.015c-3.596.013-7.192.006-10.788-.006l-3.16.023c-16.992-.119-31.268-5.614-43.31-17.543-8.708-9.213-15.34-20.897-15.695-33.852l-.152-2.953c-.507-17.113 5.538-30.762 17.109-43.14 11.646-11.236 25.5-15.204 41.28-15.213"/><path d="M2834 226h155v142c-3.391-1.696-4.794-2.583-7.25-5.187-2.38-2.517-4.878-4.821-7.492-7.09-4.144-3.598-8.147-7.327-12.133-11.098-5.161-4.861-10.355-9.672-15.645-14.395-3.539-3.182-7.03-6.416-10.524-9.649q-5.465-5.055-10.956-10.081a3715 3715 0 0 1-12.5-11.5 5144 5144 0 0 0-17.016-15.641q-4.494-4.117-8.986-8.236-3.73-3.42-7.463-6.838A4824 4824 0 0 1 2863.5 254a4711 4711 0 0 0-12.625-11.625l-2.93-2.687q-3.06-2.794-6.14-5.563l-1.555-1.4q-2.13-1.916-4.266-3.827L2834 227zM459 870l26.625-.187 8.315-.083c31.539-.186 31.539-.186 40.447 7.54 6.252 6.706 9.165 14.468 8.86 23.664-.88 7.386-3.967 13.82-9.247 19.066-5.192 3.702-11.008 5.93-17 8l1.434.89c11.836 8.03 18.809 21.937 26.173 33.87a350 350 0 0 0 2.864 4.527l1.388 2.166 1.25 1.927C551 973 551 973 551 975c-6.06 1.36-12.087 2.406-18 0-5.566-5.16-8.845-12.432-12.37-19.053-2.437-4.406-5.265-8.482-8.192-12.572l-1.445-2.094C507.48 936.3 503.723 932.396 498 930c-2.705-.364-2.705-.364-5.64-.414l-2.923-.108-3.687-.103L474 929v46h-15zm15 13v33c4.944.07 9.887.129 14.832.165q2.516.022 5.033.061c15.117.32 15.117.32 29.072-4.976 3.155-3.442 4.954-6.745 5.16-11.492-.358-5.192-1.526-8.82-5.097-12.758-5.748-3.926-10.933-4.555-17.75-4.39-.899.005-1.797.01-2.723.017-2.843.022-5.685.072-8.527.123q-2.909.03-5.816.055c-4.73.04-9.455.118-14.184.195M1342.25 877.234c5.72 5.772 9.524 12.464 9.875 20.703L1352 900c-3.155.936-5.966 1.106-9.25 1.063l-2.703-.028L1338 901l-.664-2.23c-2.075-6.385-3.607-10.146-9.336-13.77-8.533-3.977-19.136-3.987-28-1-4.355 2.296-7.081 4.416-9 9-.531 4.175-.352 6.343 1.645 10.07 2.748 3.418 4.318 4.127 8.48 5.367l1.9.589c4.43 1.337 8.91 2.48 13.393 3.63l3.439.893q3.383.87 6.778 1.689c10.145 2.579 19.507 6.694 25.365 15.762 3.556 6.233 3.842 12.976 3 20-.968 3.252-2.317 6.062-4 9l-1.687 3.188c-5.666 6.89-14.526 11.486-23.313 12.812-15.47.898-30.167.74-43-9-5.764-5.18-9.61-12.363-11-20v-7l14-1 1.563 6.125c1.938 6.198 3.706 9.736 9.437 12.875 9.196 4.803 19.13 5.48 29.227 3.305 5.957-1.911 9.353-4.06 12.773-9.305 1.612-3.223 1.45-6.505 1-10-2.606-5.647-6.434-7.757-12-10-4.752-1.488-9.556-2.749-14.375-4-28.352-7.406-28.352-7.406-36.75-20.25-2.07-8.869-1.897-16.678 2.703-24.664 5.715-8.384 13.827-12.479 23.508-14.527 13.268-1.949 28.566-.068 39.164 8.675M318.379 869.902q2.091.01 4.183.035l2.155.014q2.64.02 5.283.049c4.151 7.792 7.488 15.87 10.76 24.056 1.625 4.064 3.264 8.123 4.9 12.182l1.047 2.602a5408 5408 0 0 0 11.733 28.827 25891 25891 0 0 1 5.662 13.837l1.04 2.543a970 970 0 0 0 4.49 10.82l1.391 3.285 1.178 2.746C373 973 373 973 373 975h-16c-3.581-6.911-6.612-13.83-9.312-21.125L344 944h-42c-3.578 9.827-3.578 9.827-7.15 19.656l-1.346 3.684-.704 1.947c-1.686 4.599-1.686 4.599-2.8 5.713-2.53.073-5.033.092-7.562.063l-2.155-.014q-2.64-.02-5.283-.049c2.084-7.368 4.606-14.495 7.36-21.637l1.277-3.34q2.053-5.357 4.113-10.71l2.833-7.39q2.846-7.422 5.698-14.843a9264 9264 0 0 0 6.303-16.453q2.096-5.486 4.197-10.97l1.931-5.053q1.32-3.455 2.647-6.909l.777-2.04c2.171-5.635 2.171-5.635 6.243-5.753M322 884l-.96 3.207c-3.516 11.516-7.547 22.797-11.788 34.066l-1.275 3.391-1.154 3.045c-.88 2.042-.88 2.042-.823 3.291h33c-.815-5.087-.815-5.087-2.275-9.799l-.77-2.063-.826-2.17-.856-2.285q-1.349-3.594-2.71-7.183-1.353-3.591-2.7-7.183-.838-2.228-1.68-4.455A271 271 0 0 1 323 884zM1485.793 898.555c5.279 1.065 10.847.579 16.207.445 4.587 10.48 8.372 21.222 12.188 32q1.413 3.99 2.833 7.98.877 2.463 1.746 4.928l.8 2.248.695 1.963c.79 2.013 1.771 3.947 2.738 5.881l20-55h14c-.856 4.282-1.966 7.88-3.484 11.95l-.764 2.055q-1.246 3.343-2.502 6.683-.87 2.324-1.737 4.652a5107 5107 0 0 1-12.763 33.722l-.86 2.252q-1.2 3.143-2.406 6.284l-1.383 3.61C1530 973 1530 973 1529 975h-12c-3.66-6.909-6.421-14.05-9.168-21.363l-1.455-3.846q-1.9-5.024-3.792-10.052-1.549-4.11-3.105-8.22-3.211-8.49-6.41-16.981l-1.141-3.03A178 178 0 0 1 1490 906l-4 8-2.562-1c-5.166-1.503-8.743-1.782-13.688.5-5.331 4.847-6.487 11.755-6.876 18.775a596 596 0 0 0-.19 8.155l-.063 3q-.097 4.723-.184 9.445l-.13 6.422q-.16 7.852-.307 15.703h-13v-76h12l1 7 1.137-1.46c6.443-7.953 12.977-9.204 22.656-5.985M838 900c9.766 6.95 14.81 15.274 17 27 1.41 13.473-.125 26.865-8.305 38.066-5.666 6.463-12.475 10.439-21.03 11.25-9.838.326-14.961-1.538-22.665-7.316v34h-14V899h13l1 6 1.54-1.242c9.649-7.554 22.211-9.955 33.46-3.758m-31.64 16.262c-3.98 6.917-4.564 12.628-4.61 20.488l-.062 2.633c-.055 9.152 2.282 15.302 8.558 21.984 3.795 3.533 7.494 4.1 12.637 3.946 5.289-.781 9.083-3.348 12.93-6.938 6.506-8.924 6.207-20.824 5.187-31.375-1.378-7.456-4.201-12.027-10.098-16.758-8.71-5.688-18.81-1.883-24.543 6.02M762.813 903.188c7.105 5.554 10.786 14.082 12.875 22.625.461 4.707.312 9.457.312 14.187h-56c3.085 12.974 3.085 12.974 11.625 21.938 6.032 2.698 11.79 2.895 18.063.875 5.765-3.155 8.675-6.845 11.312-12.813 9.41-.185 9.41-.185 14 1-.33 6.257-3.212 11.166-7 16-9.883 8.859-20.165 9.833-32.865 9.187-9.137-.799-16.254-5.3-22.135-12.187-7.715-11.883-8.804-26.086-6.312-39.777C709.45 914.355 714.57 906.877 723 901c12.632-6.925 27.869-5.34 39.813 2.188m-38.438 13.824C721.394 921.322 721 923.678 721 929h40c-.967-8.706-1.402-11.5-7.312-17.25-10.472-6.819-21.856-4.18-29.313 5.262M1717 901c9.295 6.539 14.255 13.995 16.313 25.125.719 4.765.687 8.933.687 13.875h-56c2.977 13.259 2.977 13.259 12 22 5.113 2.272 10.576 3.119 15.96 1.36 1.705-.734 3.375-1.544 5.04-2.36l3-1c1.084-1.749 1.084-1.749 2-4l3-6c9.41-.185 9.41-.185 14 1-.558 7.44-4.39 12.742-9.687 17.75-9.743 7.87-20.229 8.494-32.313 7.25-8.75-1.586-15.314-6.238-21-13-4.916-8.363-6.197-15.609-6.25-25.125l-.062-2.727c-.065-11.281 3.285-20.306 10.624-28.836 12.01-10.333 28.405-13.269 42.688-5.312m-32.875 13.063c-3.605 3.906-6.125 9.512-6.125 14.937h41c-.949-7.59-1.77-12.349-7.57-17.355-8.877-5.718-19.518-4.502-27.305 2.418M1419.219 901.324c9.265 6.586 14.052 14.73 16.031 25.801.7 4.449.75 8.267.75 12.875h-56c3 13.266 3 13.266 12 22 4.484 2.491 8.997 2.534 14 2 6.106-1.76 9.462-4.906 13-10a97 97 0 0 0 2-4c9.41-.185 9.41-.185 14 1-.38 7.396-4.969 13.345-10.187 18.313-9.328 7.263-20.465 7.923-31.813 6.687-8.83-1.636-15.105-6.348-21-13-1.752-2.573-3.001-5.057-4-8l-1.07-3.074c-3.189-11.474-2.521-27.424 3.07-37.926 4.896-8.324 11.517-12.724 20.313-16.375 9.892-1.677 20.1-1.556 28.906 3.7m-32.094 12.114L1385 916l-1.687 1.75c-1.993 3.153-1.993 3.153-3.313 11.25h41c-.949-7.59-1.77-12.349-7.57-17.355-8.474-5.46-18.686-4.667-26.305 1.793M226.25 902.508c9.003 7.332 13.293 16.028 14.75 27.492v10h-56c2.977 13.259 2.977 13.259 12 22 6.045 2.687 11.496 2.806 17.688.813 5.765-3.155 8.675-6.845 11.312-12.813 9.41-.185 9.41-.185 14 1-.518 6.903-3.97 11.648-8.375 16.75-9.525 8.164-19.46 9.043-31.474 8.437-8.07-.7-14.354-4.233-20.14-9.769-9.41-11.312-10.123-24.376-9.011-38.418 2.041-10.629 6.521-19.164 15-26 12.412-7.068 28.18-7.58 40.25.508m-33.3 10.3C188.145 918.07 186 921.752 186 929h40c-.957-8.612-1.322-11.336-7-17-7.847-5.406-18.74-5.639-26.05.809M613.375 903.813c7.97 6.519 10.651 14.317 12.625 24.187v12h-56c3.774 14.302 3.774 14.302 14 23 5.78 1.762 11.674 1.909 17.25-.562 5.045-2.82 7.946-7.026 9.75-12.438 5.126-.103 9.95-.036 15 1-2.565 8.666-5.62 15.675-13.535 20.566-9.928 5.132-20.797 6.032-31.746 3.75-8.75-2.961-16.304-8.04-20.719-16.316-5.773-14.033-5.693-29.407-.004-43.46 3.532-7.162 9.429-13.167 16.754-16.477 12.725-4.16 25.558-2.966 36.625 4.75m-40.187 14.5c-1.67 3.43-1.67 3.43-2.188 10.687h41c-1.959-8.815-3.414-14.06-11-19-11.187-3.995-20.48-1.044-27.812 8.313M96 870h14l1 35 6-5c7.779-4.174 17.453-4.267 25.813-1.875 5.765 2.24 10.47 5.717 13.062 11.438 1.591 4.862 2.25 9.122 2.239 14.237v3.457l-.016 3.7-.005 3.812a5169 5169 0 0 1-.024 9.997q-.014 5.109-.02 10.216-.017 10.009-.049 20.018-3.22.039-6.437.063l-3.622.035C145 975 145 975 144 974a89 89 0 0 1-.158-5.067l-.03-3.278-.023-3.573-.086-7.428q-.063-5.879-.104-11.758c-.028-3.771-.074-7.543-.122-11.314l-.01-3.542c-.088-7.95-.088-7.95-3.467-15.04-4.927-3.605-10.118-3.808-16-3-4.67 1.415-7.39 3.233-10.437 7.063-2.05 3.853-2.692 6.641-2.752 10.943l-.051 3.084-.041 3.324-.056 3.41c-.079 4.825-.147 9.65-.215 14.476q-.08 5.275-.167 10.552l-.04 3.336-.052 3.064-.038 2.712C110 974 110 974 109 975H96zM989.188 902.688A108 108 0 0 1 993 906c.63.565 1.26 1.13 1.91 1.71 7.748 7.798 9.446 17.731 9.528 28.352-.168 11.172-1.859 21.293-9.438 29.938-8.29 7.969-17.494 10.61-28.74 10.473-9.49-.389-17.387-3.866-24.26-10.473-8.96-10.22-9.89-23.03-9.164-36.048.772-9.19 4.37-18.333 11.086-24.804 12.709-10 31.681-12.011 45.265-2.46M952 916c-5.914 9.346-6.138 20.194-4.574 30.922 1.59 6.283 4.68 10.844 9.574 15.078 5.208 3.086 10.07 3.9 16 3 6.964-2.135 11.534-6.58 15.035-12.855 3.529-8.485 3.371-20.502.84-29.27-2.27-5.498-5.798-9.52-10.75-12.75-9.999-3.6-18.643-1.955-26.125 5.875"/><path fill="#FDFCFE" d="M3342 309c7.722 5.612 12.951 11.52 15 21 .748 8.375-1.399 17.068-6.5 23.875-5.964 6.084-13.659 9.46-22.125 9.75-7.634-.393-15.208-2.623-20.996-7.867-5.516-7.032-9.25-15.8-8.379-24.758 2.174-9.461 7.07-16.422 15-22 8.666-4.435 19.376-4.627 28 0"/><path d="M1172.313 901.813c6.5 5.29 8.329 9.037 9.687 17.187l-13 2c-4-6.75-4-6.75-4-9-7.225-2.774-13.371-3.646-21-2-2.47 1.186-4.1 2.1-6 4-.584 3.373-.584 3.373 0 7 5.216 4.656 11.74 5.806 18.375 7.5 19.262 4.951 19.262 4.951 24.063 11.125.473.59.946 1.18 1.433 1.79 3.604 5.062 2.703 11.648 2.129 17.585-2.324 6.48-7.255 10.967-13.195 14.191-10.057 4.414-22.745 4.596-33.118 1.059-7.135-3.137-11.258-7.292-14.687-14.25-.881-2.671-1.456-5.231-2-8 4.71-1.766 9.03-2.486 14-3l.664 2.047c2.056 5.784 3.537 9.174 9.336 11.953 5.765 1.755 12.309 1.975 17.938-.312 3.696-2.038 5.501-3.05 6.874-7.063.234-3.264-.187-4.777-1.812-7.625-2.942-1.535-2.942-1.535-6.562-2.5l-1.989-.613c-3.654-1.115-7.334-2.137-11.012-3.172l-2.275-.649a269 269 0 0 0-4.35-1.191c-6.958-1.937-13.128-5.469-16.812-11.875-2.386-6.268-2.29-11.52-.047-17.809 3.003-6.286 9.164-10.161 15.547-12.441 10.965-2.332 21.984-1.315 31.813 4.063M3 870h83v13H52l.016 8.338q.023 13.603.036 27.205.007 8.25.023 16.502.016 7.956.02 15.912.003 3.042.01 6.084.01 4.246.009 8.492l.01 2.568c-.01 5.785-.01 5.785-1.124 6.899H37v-92H3zM1071.938 902.688c8.154 9.143 7.217 21.67 7.195 33.19l.003 3.314q0 3.435-.006 6.87c-.005 3.522 0 7.043.007 10.565q0 3.345-.004 6.69l.006 3.203-.01 2.935-.002 2.594C1079 974 1079 974 1078 975a153 153 0 0 1-6.562.063l-3.63-.028L1065 975l-.018-2.003q-.098-10.343-.244-20.684-.051-3.856-.084-7.714c-.034-3.701-.086-7.402-.142-11.103l-.02-3.47c-.111-6.088-.487-10.677-3.492-16.026-4.077-3.822-8.194-4.352-13.586-4.281-5.156.6-8.98 2.997-12.789 6.406-4.053 7.17-3.942 15.867-4.04 23.914-.018 1.007-.038 2.014-.058 3.051-.059 3.178-.106 6.357-.152 9.535l-.117 6.512q-.142 7.93-.258 15.863h-13v-76h12l1 7 1.469-1.207c12.799-10.116 26.272-10.261 40.468-2.106M691.875 903.625c3.885 3.679 6.395 8.344 8.125 13.375v5l-13 2-1.625-4.187c-2.147-4.75-3.887-7.103-8.375-9.813-6.222-1.847-11.325-.974-17 2-5.24 3.096-7.398 7.281-9 13-1.726 11.319-2.053 24.29 5 34 5.16 4.192 9.23 5.388 15.844 5.277 5.291-.68 9.087-3.04 12.531-7.027 1.885-3.77 2.773-7.13 3.625-11.25 1.772.114 3.542.242 5.313.375.986.07 1.972.14 2.988.21C699 947 699 947 702 949c-2.495 10.482-6.424 17.938-15.656 23.809-9.154 4.653-20.621 4.797-30.344 1.629-8.867-3.842-13.822-9.462-17.809-18.208-5.091-13.806-4.307-29.876 1.809-43.23 4.23-7.837 11.33-12.793 19.813-15.375 11.282-2.184 22.718-1.088 32.062 6M1646.184 901.113c6.246 4.003 9.3 10.043 11.816 16.887v4l-13 1-2.187-4.25c-2.528-4.478-4.606-7.854-9.813-9.309-5.77-.971-10.855-.284-16 2.559-5.802 5.033-7.92 10.527-9 18-.579 10.724-.499 21.569 7 30 4.468 3.463 9.153 4.68 14.762 4.379 4.568-.773 8.535-2.337 11.554-5.957 2.378-3.896 3.604-8.012 4.684-12.422l13 2c-.491 9.008-3.743 15.18-10.312 21.375-8.847 7.256-17.59 7.574-28.688 6.625-8.264-1.622-14.535-5.623-20-12-7.459-11.16-8.298-24.411-6.535-37.434 1.792-9.005 4.98-16.99 12.223-22.941 12.39-8.26 27.193-9.294 40.496-2.512M1213 873v26h13v10h-13q.104 10.599.262 21.198.051 3.606.084 7.213c.034 3.453.086 6.906.142 10.359l.02 3.267.06 3.033.033 2.671c.48 2.716 1.214 3.62 3.399 5.259 2.283.361 2.283.361 4.688.188l2.449-.083L1226 962q.54 2.967 1.063 5.938l.597 3.34.34 2.722c-2.574 2.574-8.56 1.92-12 2-5.635-.534-10.013-1.771-14-6-1.803-3.687-2.245-6.626-2.227-10.708v-3.397l.032-3.633.008-3.745q.015-4.91.05-9.82c.02-3.345.03-6.69.04-10.035A6406 6406 0 0 1 1200 909h-10v-10h10l-.316-3.945c-.767-13.62-.767-13.62 2.25-17.617 2.324-1.488 4.46-2.544 7.066-3.438 2-1 2-1 4-1M884 873v26h13v10h-13q.104 10.599.262 21.198.051 3.606.084 7.213c.034 3.453.086 6.906.142 10.359l.02 3.267.06 3.033.033 2.671c.48 2.716 1.214 3.62 3.399 5.259 2.283.361 2.283.361 4.688.188l2.449-.083L897 962q.54 2.967 1.063 5.938l.597 3.34L899 974c-2.574 2.574-8.56 1.92-12 2-5.674-.538-9.932-1.809-14-6-2.059-3.283-2.244-5.845-2.227-9.687v-3.457l.032-3.715.008-3.817q.016-5.01.05-10.022c.02-3.412.03-6.824.04-10.236q.033-10.032.097-20.066h-10v-10h10l-.316-3.945c-.767-13.62-.767-13.62 2.25-17.617 2.324-1.488 4.46-2.544 7.066-3.438 2-1 2-1 4-1M384 870h14v105h-14z"/><path fill="#FCFBFE" d="M3287 528c4.196 1.733 6.542 4.212 9 8 .6 2.925.608 5.795.602 8.773l.026 2.552q.017 2.665.003 5.33c-.006 2.705.04 5.406.092 8.11q.006 2.598.004 5.196l.055 2.428c-.089 5.484-1.495 8.28-5.27 12.251-3.512 3.158-6.43 3.532-11.012 3.298-4.574-.646-6.639-2.235-9.5-5.938-3.061-4.169-3.442-7.684-3.398-12.715l-.01-2.222q-.002-2.319.017-4.637c.016-2.353 0-4.704-.02-7.057q.004-2.26.013-4.521l-.019-2.113c.088-6.19 1.904-10.038 5.98-14.61 4.058-3.145 8.545-2.87 13.437-2.125"/><path fill="#FDFCFE" d="M3242 528c4.532 2.225 6.845 4.476 9 9 .287 2.796.421 5.36.398 8.152l.01 2.357q.002 2.46-.017 4.92c-.016 2.497 0 4.993.02 7.49q-.004 2.4-.013 4.796l.019 2.245c-.074 5.524-1.381 9.45-4.792 13.79-3.56 2.738-6.041 3.269-10.562 3.125-4.12-.676-6.866-2.124-10.063-4.875-2.941-4.712-3.455-8.816-3.434-14.25l-.015-2.353q-.01-2.45.003-4.9c.008-2.49-.02-4.977-.052-7.466q-.003-2.39.002-4.781l-.034-2.235c.069-5.148 1.315-8.036 4.53-12.015 4.365-3.852 9.46-3.8 15-3"/><path d="M1566 899h14v76h-13c-1.662-1.662-1.12-3.665-1.124-5.884l.01-2.114v-2.217c0-2.43.009-4.86.016-7.289l.005-5.04q.006-6.645.024-13.292.014-6.776.02-13.553.017-13.305.049-26.611M907 899h14q.034 14.643.052 29.285.007 6.798.023 13.596.016 6.555.02 13.11.003 2.508.01 5.014.01 3.498.009 6.997l.01 2.114c-.01 4.77-.01 4.77-1.124 5.884h-13zM1096 899h13v76h-13zM1566 870h14v16h-14zM907 870h14q.04 3.719.063 7.438l.025 2.142c.009 1.807-.036 3.614-.088 5.42-1 1-1 1-3.941 1.098L907 886zM1096 870h13v16h-13z"/></svg>