<svg width="306" height="86" viewBox="0 0 306 86" fill="none" xmlns="http://www.w3.org/2000/svg">
<path d="M230.728 47.6866C230.728 49.2599 231.275 50.5938 232.369 51.6882C233.532 52.7827 234.9 53.3299 236.474 53.3299H246.427V65.2321H236.474C233.806 65.2321 231.275 64.7533 228.881 63.7956C226.555 62.7696 224.503 61.4015 222.724 59.6914C221.014 57.9129 219.646 55.8608 218.62 53.5351C217.594 51.2094 217.081 48.7127 217.081 46.0449V30.6541H209.693V19.2649H217.081V0.693359H230.728V47.6866Z" fill="black"/>
<path d="M177.63 13.1094C181.324 13.1094 184.813 13.8276 188.096 15.2641C191.379 16.6322 194.218 18.5475 196.612 21.01C199.075 23.4041 200.99 26.2087 202.358 29.4236C203.795 32.6386 204.513 36.093 204.513 39.7868C204.513 43.549 203.795 47.0718 202.358 50.3551C200.99 53.6385 199.075 56.5114 196.612 58.974C194.218 61.3681 191.379 63.2834 188.096 64.7199C184.813 66.0879 181.324 66.772 177.63 66.772C172.568 66.772 168.361 65.4039 165.01 62.6678V62.5652L170.14 53.1255L170.242 53.2281C172.089 54.0489 173.971 54.4593 175.886 54.4593C177.87 54.4593 179.751 54.0831 181.529 53.3307C183.308 52.5782 184.847 51.5522 186.147 50.2525C187.515 48.8844 188.575 47.3112 189.327 45.5327C190.08 43.7542 190.456 41.8389 190.456 39.7868C190.456 37.8031 190.08 35.9562 189.327 34.2461C188.575 32.4676 187.515 30.9285 186.147 29.6288C184.847 28.3292 183.308 27.3031 181.529 26.5507C179.751 25.7982 177.87 25.422 175.886 25.422C173.834 25.422 171.918 25.7982 170.14 26.5507C168.43 27.3031 166.925 28.3292 165.625 29.6288C164.326 30.9285 163.299 32.4676 162.547 34.2461C161.795 35.9562 161.418 37.8031 161.418 39.7868V85.754H147.566V13.9302H161.418V20.9074C165.112 15.7087 170.516 13.1094 177.63 13.1094Z" fill="black"/>
<path d="M88.0762 65.2343L101.825 46.5601L114.343 52.306L104.801 65.2343H88.0762ZM123.578 39.7882L142.458 65.2343H125.63V65.1317L106.956 39.8908L88.1788 13.9316H104.801L115.164 31.3745L125.63 13.9316H142.458L142.253 14.0342L123.578 39.7882Z" fill="black"/>
<path d="M65.3555 13.1094C68.9809 13.1094 72.4011 13.8276 75.6162 15.2641C78.8312 16.6322 81.6358 18.5133 84.0299 20.9074C86.4241 23.3015 88.3052 26.1061 89.6733 29.321C91.1098 32.536 91.828 35.9904 91.828 39.6842C91.828 41.6679 91.6228 43.5832 91.2124 45.4301L91.1098 45.6353H65.0477L58.4808 35.1695H77.9761C77.0185 32.2966 75.4109 29.9367 73.1536 28.0898C70.9647 26.2429 68.3653 25.3194 65.3555 25.3194C63.5086 25.3194 61.7643 25.6956 60.1225 26.4481C58.4808 27.2005 57.0443 28.2266 55.8131 29.5262C54.6502 30.7575 53.7267 32.2624 53.0427 34.0409C52.3586 35.751 52.0166 37.6321 52.0166 39.6842C52.0166 41.2574 52.3244 42.8991 52.9401 44.6092C53.5557 46.2509 54.445 47.7558 55.6078 49.1239C56.7707 50.4919 58.173 51.6548 59.8147 52.6124C61.4564 53.5017 63.3033 53.9463 65.3555 53.9463C67.2024 53.9463 68.8783 53.7069 70.3832 53.2281C71.9565 52.6808 73.4272 51.518 74.7953 49.7395L74.8979 49.6369L75.1031 49.7395L87.0055 54.9724L86.8003 55.1776C84.3377 58.5977 81.1911 61.2655 77.3605 63.1808C73.5982 65.0961 69.5966 66.0537 65.3555 66.0537C61.6616 66.0537 58.173 65.3697 54.8896 64.0016C51.6746 62.6336 48.87 60.7525 46.4758 58.3583C44.0817 55.9642 42.1664 53.1597 40.7299 49.9447C39.3618 46.7297 38.6777 43.3095 38.6777 39.6842C38.6777 35.9904 39.3618 32.536 40.7299 29.321C42.1664 26.1061 44.0817 23.3015 46.4758 20.9074C48.87 18.5133 51.6746 16.6322 54.8896 15.2641C58.173 13.8276 61.6616 13.1094 65.3555 13.1094Z" fill="black"/>
<path d="M41.8635 15.9823L40.6323 18.0344L35.3993 27.3715L35.2967 27.2689C33.0394 25.9692 30.611 25.3194 28.0116 25.3194C26.2331 25.3194 24.5572 25.6272 22.9839 26.2429C21.4106 26.7901 20.0083 27.6109 18.777 28.7054C17.5458 29.7314 16.4855 30.9627 15.5962 32.3992C14.7754 33.8356 14.2281 35.3747 13.9545 37.0164V65.2329H0V13.9302H13.9545V20.5996C17.58 15.6061 22.8813 13.1094 29.8586 13.1094C33.9628 13.1094 37.9303 14.067 41.7609 15.9823H41.8635Z" fill="black"/>
<path d="M231.379 19.1621H243.948V30.7052L231.379 19.1621Z" fill="black"/>
<path d="M140.388 78.2417L141.46 78.3742C141.291 79.0003 140.978 79.4861 140.52 79.8318C140.063 80.1775 139.479 80.3504 138.769 80.3504C137.874 80.3504 137.163 80.0757 136.637 79.5265C136.115 78.9734 135.854 78.1994 135.854 77.2046C135.854 76.1752 136.119 75.3763 136.649 74.8078C137.179 74.2393 137.866 73.9551 138.711 73.9551C139.529 73.9551 140.198 74.2336 140.716 74.7905C141.235 75.3474 141.494 76.131 141.494 77.1412C141.494 77.2027 141.492 77.2948 141.488 77.4178H136.925C136.964 78.0899 137.154 78.6046 137.496 78.9618C137.837 79.3191 138.264 79.4977 138.775 79.4977C139.155 79.4977 139.479 79.3978 139.748 79.1981C140.017 78.9983 140.23 78.6795 140.388 78.2417ZM136.983 76.5651H140.399C140.353 76.0504 140.223 75.6643 140.008 75.407C139.677 75.0075 139.249 74.8078 138.723 74.8078C138.247 74.8078 137.845 74.9672 137.519 75.286C137.196 75.6048 137.017 76.0311 136.983 76.5651Z" fill="black"/>
<path d="M134.405 77.9709L135.425 78.1034C135.314 78.8063 135.028 79.3575 134.567 79.7569C134.11 80.1526 133.547 80.3504 132.879 80.3504C132.041 80.3504 131.367 80.0777 130.856 79.5322C130.349 78.983 130.096 78.1975 130.096 77.1758C130.096 76.5151 130.205 75.937 130.424 75.4416C130.643 74.9461 130.975 74.5754 131.421 74.3296C131.87 74.0799 132.358 73.9551 132.884 73.9551C133.549 73.9551 134.092 74.1241 134.515 74.4621C134.937 74.7963 135.208 75.2725 135.327 75.891L134.319 76.0465C134.223 75.6355 134.052 75.3263 133.806 75.1189C133.564 74.9115 133.27 74.8078 132.925 74.8078C132.402 74.8078 131.978 74.996 131.651 75.3724C131.325 75.745 131.162 76.3365 131.162 77.147C131.162 77.9689 131.319 78.5662 131.634 78.9388C131.949 79.3114 132.36 79.4977 132.867 79.4977C133.274 79.4977 133.614 79.3728 133.887 79.1232C134.16 78.8735 134.332 78.4894 134.405 77.9709Z" fill="black"/>
<path d="M127.91 72.9602V71.7676H128.947V72.9602H127.91ZM127.91 80.214V74.0952H128.947V80.214H127.91Z" fill="black"/>
<path d="M123.824 80.2144L121.496 74.0957H122.591L123.904 77.76C124.047 78.1557 124.177 78.5666 124.296 78.993C124.388 78.6704 124.517 78.2824 124.682 77.8292L126.042 74.0957H127.108L124.792 80.2144H123.824Z" fill="black"/>
<path d="M118.299 80.2121V74.0934H119.232V75.021C119.47 74.5869 119.689 74.3008 119.889 74.1625C120.093 74.0242 120.315 73.9551 120.557 73.9551C120.907 73.9551 121.262 74.0665 121.623 74.2892L121.266 75.2514C121.013 75.1016 120.759 75.0267 120.506 75.0267C120.279 75.0267 120.075 75.0959 119.895 75.2341C119.714 75.3686 119.586 75.5568 119.509 75.7988C119.394 76.1675 119.336 76.5708 119.336 77.0087V80.2121H118.299Z" fill="black"/>
<path d="M116.048 78.2417L117.12 78.3742C116.951 79.0003 116.638 79.4861 116.181 79.8318C115.723 80.1775 115.14 80.3504 114.429 80.3504C113.534 80.3504 112.823 80.0757 112.297 79.5265C111.775 78.9734 111.514 78.1994 111.514 77.2046C111.514 76.1752 111.779 75.3763 112.309 74.8078C112.839 74.2393 113.526 73.9551 114.371 73.9551C115.19 73.9551 115.858 74.2336 116.376 74.7905C116.895 75.3474 117.154 76.131 117.154 77.1412C117.154 77.2027 117.152 77.2948 117.149 77.4178H112.585C112.624 78.0899 112.814 78.6046 113.156 78.9618C113.498 79.3191 113.924 79.4977 114.435 79.4977C114.815 79.4977 115.14 79.3978 115.409 79.1981C115.677 78.9983 115.891 78.6795 116.048 78.2417ZM112.643 76.5651H116.06C116.013 76.0504 115.883 75.6643 115.668 75.407C115.337 75.0075 114.909 74.8078 114.383 74.8078C113.907 74.8078 113.505 74.9672 113.179 75.286C112.856 75.6048 112.678 76.0311 112.643 76.5651Z" fill="black"/>
<path d="M103.861 77.4998L104.916 77.4076C104.966 77.8301 105.081 78.1777 105.261 78.4505C105.446 78.7193 105.73 78.9383 106.114 79.1073C106.498 79.2724 106.93 79.355 107.41 79.355C107.837 79.355 108.213 79.2916 108.54 79.1649C108.866 79.0381 109.108 78.8653 109.266 78.6464C109.427 78.4236 109.508 78.1816 109.508 77.9204C109.508 77.6554 109.431 77.4249 109.277 77.229C109.124 77.0293 108.87 76.8622 108.517 76.7278C108.29 76.6394 107.789 76.5031 107.013 76.3187C106.237 76.1305 105.694 75.9538 105.382 75.7886C104.979 75.5774 104.678 75.3162 104.478 75.0051C104.282 74.6901 104.184 74.3386 104.184 73.9507C104.184 73.5244 104.305 73.1268 104.547 72.7581C104.789 72.3855 105.142 72.1032 105.607 71.9111C106.072 71.7191 106.588 71.623 107.157 71.623C107.783 71.623 108.334 71.7248 108.811 71.9284C109.291 72.1281 109.659 72.4239 109.917 72.8157C110.174 73.2075 110.312 73.6511 110.332 74.1466L109.26 74.2273C109.202 73.6934 109.006 73.29 108.672 73.0173C108.342 72.7446 107.852 72.6083 107.203 72.6083C106.527 72.6083 106.033 72.7331 105.722 72.9828C105.415 73.2286 105.261 73.5263 105.261 73.8758C105.261 74.1792 105.371 74.4289 105.59 74.6248C105.805 74.8207 106.366 75.0223 107.272 75.2298C108.183 75.4333 108.807 75.6119 109.145 75.7656C109.636 75.9922 109.999 76.2803 110.234 76.6298C110.468 76.9755 110.585 77.375 110.585 77.8282C110.585 78.2776 110.456 78.702 110.199 79.1015C109.942 79.4971 109.571 79.8063 109.087 80.0291C108.607 80.2481 108.065 80.3575 107.462 80.3575C106.698 80.3575 106.057 80.2461 105.538 80.0234C105.023 79.8006 104.618 79.4664 104.322 79.0209C104.03 78.5715 103.877 78.0644 103.861 77.4998Z" fill="black"/>
<path d="M100.04 79.2857L100.19 80.2018C99.8977 80.2632 99.6365 80.294 99.406 80.294C99.0296 80.294 98.7377 80.2344 98.5302 80.1154C98.3228 79.9963 98.1769 79.8407 98.0924 79.6487C98.0079 79.4528 97.9656 79.0437 97.9656 78.4215V74.9012H97.2051V74.0946H97.9656V72.5793L98.9969 71.957V74.0946H100.04V74.9012H98.9969V78.4791C98.9969 78.7748 99.0142 78.965 99.0488 79.0495C99.0872 79.134 99.1467 79.2012 99.2274 79.2511C99.3119 79.3011 99.431 79.326 99.5846 79.326C99.6999 79.326 99.8516 79.3126 100.04 79.2857Z" fill="black"/>
<path d="M91.5762 78.3857L92.6017 78.2244C92.6594 78.6354 92.8188 78.9503 93.08 79.1693C93.345 79.3882 93.7137 79.4977 94.1862 79.4977C94.6625 79.4977 95.0159 79.4016 95.2463 79.2096C95.4768 79.0137 95.592 78.7852 95.592 78.524C95.592 78.2897 95.4902 78.1053 95.2866 77.9709C95.1445 77.8787 94.7911 77.7615 94.2265 77.6194C93.466 77.4274 92.9378 77.2622 92.6421 77.1239C92.3501 76.9818 92.1274 76.7878 91.9737 76.542C91.8239 76.2923 91.749 76.0177 91.749 75.7181C91.749 75.4454 91.8105 75.1938 91.9334 74.9633C92.0601 74.729 92.2311 74.5351 92.4462 74.3814C92.6075 74.2624 92.8264 74.1625 93.103 74.0818C93.3834 73.9973 93.683 73.9551 94.0018 73.9551C94.4819 73.9551 94.9025 74.0242 95.2636 74.1625C95.6285 74.3008 95.8974 74.489 96.0702 74.7271C96.2431 74.9614 96.3621 75.2764 96.4274 75.672L95.4134 75.8103C95.3673 75.4953 95.2329 75.2495 95.0101 75.0728C94.7911 74.8961 94.48 74.8078 94.0767 74.8078C93.6004 74.8078 93.2605 74.8865 93.0569 75.044C92.8533 75.2015 92.7515 75.3859 92.7515 75.5971C92.7515 75.7315 92.7938 75.8525 92.8783 75.9601C92.9628 76.0715 93.0953 76.1637 93.2758 76.2366C93.3796 76.2751 93.6849 76.3634 94.1919 76.5017C94.9256 76.6976 95.4364 76.8589 95.7245 76.9856C96.0165 77.1086 96.245 77.2891 96.4102 77.5272C96.5753 77.7654 96.6579 78.0611 96.6579 78.4145C96.6579 78.7602 96.5561 79.0867 96.3525 79.394C96.1528 79.6974 95.8628 79.9336 95.4825 80.1026C95.1023 80.2678 94.6721 80.3504 94.1919 80.3504C93.3968 80.3504 92.79 80.1852 92.3713 79.8549C91.9564 79.5246 91.6914 79.0348 91.5762 78.3857Z" fill="black"/>
<path d="M89.4941 72.9602V71.7676H90.5312V72.9602H89.4941ZM89.4941 80.214V74.0952H90.5312V80.214H89.4941Z" fill="black"/>
<path d="M83.0371 80.2121V74.0934H83.9705V74.9633C84.4199 74.2912 85.069 73.9551 85.9179 73.9551C86.2867 73.9551 86.6247 74.0223 86.932 74.1567C87.2431 74.2873 87.4755 74.4602 87.6291 74.6753C87.7828 74.8904 87.8903 75.1458 87.9518 75.4416C87.9902 75.6336 88.0094 75.9697 88.0094 76.4498V80.2121H86.9723V76.4902C86.9723 76.0676 86.932 75.7527 86.8513 75.5453C86.7706 75.334 86.6266 75.1669 86.4192 75.044C86.2156 74.9173 85.9755 74.8539 85.699 74.8539C85.2572 74.8539 84.8751 74.9941 84.5524 75.2745C84.2336 75.5549 84.0742 76.0868 84.0742 76.8704V80.2121H83.0371Z" fill="black"/>
<path d="M76.2012 77.1527C76.2012 76.0196 76.5161 75.1804 77.1461 74.6349C77.6723 74.1817 78.3138 73.9551 79.0705 73.9551C79.9116 73.9551 80.5992 74.2316 81.1331 74.7847C81.667 75.334 81.934 76.0945 81.934 77.0663C81.934 77.8537 81.8149 78.474 81.5768 78.9273C81.3424 79.3767 80.9987 79.7262 80.5454 79.9759C80.096 80.2255 79.6044 80.3504 79.0705 80.3504C78.2139 80.3504 77.5206 80.0757 76.9905 79.5265C76.4643 78.9772 76.2012 78.186 76.2012 77.1527ZM77.2671 77.1527C77.2671 77.9363 77.438 78.524 77.7799 78.9158C78.1217 79.3037 78.5519 79.4977 79.0705 79.4977C79.5852 79.4977 80.0134 79.3018 80.3553 78.91C80.6971 78.5182 80.8681 77.9209 80.8681 77.1182C80.8681 76.3615 80.6952 75.7892 80.3495 75.4012C80.0077 75.0094 79.5813 74.8135 79.0705 74.8135C78.5519 74.8135 78.1217 75.0075 77.7799 75.3955C77.438 75.7834 77.2671 76.3692 77.2671 77.1527Z" fill="black"/>
<path d="M74.082 72.9602V71.7676H75.1191V72.9602H74.082ZM74.082 80.214V74.0952H75.1191V80.214H74.082Z" fill="black"/>
<path d="M73.1706 79.2857L73.3204 80.2018C73.0285 80.2632 72.7673 80.294 72.5369 80.294C72.1604 80.294 71.8685 80.2344 71.6611 80.1154C71.4537 79.9963 71.3077 79.8407 71.2232 79.6487C71.1387 79.4528 71.0965 79.0437 71.0965 78.4215V74.9012H70.3359V74.0946H71.0965V72.5793L72.1278 71.957V74.0946H73.1706V74.9012H72.1278V78.4791C72.1278 78.7748 72.1451 78.965 72.1797 79.0495C72.2181 79.134 72.2776 79.2012 72.3583 79.2511C72.4428 79.3011 72.5618 79.326 72.7155 79.326C72.8307 79.326 72.9824 79.3126 73.1706 79.2857Z" fill="black"/>
<path d="M64.4609 82.557V74.0934H65.4058V74.8884C65.6286 74.5773 65.8802 74.3449 66.1606 74.1913C66.441 74.0338 66.7809 73.9551 67.1804 73.9551C67.7028 73.9551 68.1637 74.0895 68.5632 74.3584C68.9627 74.6273 69.2642 75.0075 69.4678 75.4992C69.6714 75.987 69.7731 76.5228 69.7731 77.1066C69.7731 77.7327 69.6598 78.2974 69.4332 78.8005C69.2104 79.2999 68.8839 79.684 68.4537 79.9528C68.0274 80.2179 67.578 80.3504 67.1055 80.3504C66.7598 80.3504 66.4487 80.2774 66.1721 80.1314C65.8994 79.9855 65.6747 79.8011 65.498 79.5783V82.557H64.4609ZM65.4001 77.1873C65.4001 77.9747 65.5595 78.5566 65.8783 78.933C66.1971 79.3095 66.5831 79.4977 67.0364 79.4977C67.4973 79.4977 67.891 79.3037 68.2175 78.9158C68.5478 78.524 68.713 77.919 68.713 77.1009C68.713 76.3211 68.5517 75.7373 68.229 75.3494C67.9102 74.9614 67.528 74.7675 67.0825 74.7675C66.6407 74.7675 66.249 74.9749 65.9071 75.3897C65.5691 75.8007 65.4001 76.3999 65.4001 77.1873Z" fill="black"/>
<path d="M62.1984 78.2417L63.2701 78.3742C63.1011 79.0003 62.7881 79.4861 62.331 79.8318C61.8739 80.1775 61.29 80.3504 60.5794 80.3504C59.6845 80.3504 58.9739 80.0757 58.4476 79.5265C57.9253 78.9734 57.6641 78.1994 57.6641 77.2046C57.6641 76.1752 57.9291 75.3763 58.4592 74.8078C58.9892 74.2393 59.6768 73.9551 60.5218 73.9551C61.34 73.9551 62.0083 74.2336 62.5269 74.7905C63.0454 75.3474 63.3047 76.131 63.3047 77.1412C63.3047 77.2027 63.3028 77.2948 63.2989 77.4178H58.7357C58.7741 78.0899 58.9643 78.6046 59.3061 78.9618C59.648 79.3191 60.0743 79.4977 60.5852 79.4977C60.9655 79.4977 61.29 79.3978 61.5589 79.1981C61.8278 78.9983 62.041 78.6795 62.1984 78.2417ZM58.7933 76.5651H62.21C62.1639 76.0504 62.0333 75.6643 61.8182 75.407C61.4878 75.0075 61.0596 74.8078 60.5333 74.8078C60.0571 74.8078 59.6557 74.9672 59.3292 75.286C59.0065 75.6048 58.8279 76.0311 58.7933 76.5651Z" fill="black"/>
<path d="M56.2218 77.9709L57.2416 78.1034C57.1302 78.8063 56.844 79.3575 56.3831 79.7569C55.926 80.1526 55.3633 80.3504 54.695 80.3504C53.8576 80.3504 53.1835 80.0777 52.6726 79.5322C52.1656 78.983 51.9121 78.1975 51.9121 77.1758C51.9121 76.5151 52.0216 75.937 52.2405 75.4416C52.4595 74.9461 52.7917 74.5754 53.2373 74.3296C53.6867 74.0799 54.1745 73.9551 54.7007 73.9551C55.3652 73.9551 55.9087 74.1241 56.3313 74.4621C56.7538 74.7963 57.0246 75.2725 57.1436 75.891L56.1354 76.0465C56.0393 75.6355 55.8684 75.3263 55.6226 75.1189C55.3806 74.9115 55.0868 74.8078 54.7411 74.8078C54.2187 74.8078 53.7942 74.996 53.4677 75.3724C53.1413 75.745 52.978 76.3365 52.978 77.147C52.978 77.9689 53.1355 78.5662 53.4505 78.9388C53.7654 79.3114 54.1764 79.4977 54.6834 79.4977C55.0906 79.4977 55.4305 79.3728 55.7032 79.1232C55.976 78.8735 56.1488 78.4894 56.2218 77.9709Z" fill="black"/>
<path d="M49.9641 78.2417L51.0357 78.3742C50.8667 79.0003 50.5537 79.4861 50.0966 79.8318C49.6395 80.1775 49.0557 80.3504 48.3451 80.3504C47.4501 80.3504 46.7395 80.0757 46.2133 79.5265C45.6909 78.9734 45.4297 78.1994 45.4297 77.2046C45.4297 76.1752 45.6947 75.3763 46.2248 74.8078C46.7549 74.2393 47.4424 73.9551 48.2874 73.9551C49.1056 73.9551 49.7739 74.2336 50.2925 74.7905C50.811 75.3474 51.0703 76.131 51.0703 77.1412C51.0703 77.2027 51.0684 77.2948 51.0645 77.4178H46.5013C46.5398 78.0899 46.7299 78.6046 47.0717 78.9618C47.4136 79.3191 47.84 79.4977 48.3508 79.4977C48.7311 79.4977 49.0557 79.3978 49.3245 79.1981C49.5934 78.9983 49.8066 78.6795 49.9641 78.2417ZM46.559 76.5651H49.9756C49.9295 76.0504 49.7989 75.6643 49.5838 75.407C49.2535 75.0075 48.8252 74.8078 48.299 74.8078C47.8227 74.8078 47.4213 74.9672 47.0948 75.286C46.7721 75.6048 46.5935 76.0311 46.559 76.5651Z" fill="black"/>
<path d="M37.5195 80.214V71.7676H41.2646C42.0174 71.7676 42.5897 71.8444 42.9815 71.998C43.3733 72.1478 43.6864 72.4148 43.9207 72.7989C44.155 73.183 44.2721 73.6074 44.2721 74.0722C44.2721 74.6714 44.0782 75.1765 43.6902 75.5875C43.3023 75.9985 42.7031 76.2597 41.8926 76.371C42.1884 76.5132 42.4131 76.6534 42.5667 76.7916C42.8932 77.0912 43.2024 77.4657 43.4943 77.9151L44.9635 80.214H43.5577L42.4399 78.4567C42.1135 77.9497 41.8446 77.5618 41.6333 77.2929C41.4221 77.024 41.2319 76.8358 41.0629 76.7283C40.8978 76.6207 40.7287 76.5458 40.5559 76.5036C40.4291 76.4767 40.2217 76.4632 39.9336 76.4632H38.6373V80.214H37.5195ZM38.6373 75.4953H41.0399C41.5507 75.4953 41.9502 75.4434 42.2383 75.3397C42.5264 75.2322 42.7453 75.0632 42.8951 74.8327C43.0449 74.5984 43.1198 74.3449 43.1198 74.0722C43.1198 73.6727 42.9739 73.3443 42.6819 73.087C42.3939 72.8296 41.9368 72.7009 41.3107 72.7009H38.6373V75.4953Z" fill="black"/>
<path d="M31.3613 80.214V71.7676H32.4791V80.214H31.3613Z" fill="black"/>
<path d="M22.4844 80.214L25.7282 71.7676H26.9323L30.3893 80.214H29.116L28.1308 77.6559H24.5989L23.6713 80.214H22.4844ZM24.9215 76.7455H27.7851L26.9035 74.4064C26.6347 73.6958 26.4349 73.1119 26.3043 72.6549C26.1968 73.1964 26.045 73.7342 25.8492 74.2681L24.9215 76.7455Z" fill="black"/>
<path d="M18.5129 78.2417L19.5846 78.3742C19.4156 79.0003 19.1025 79.4861 18.6454 79.8318C18.1883 80.1775 17.6045 80.3504 16.8939 80.3504C15.9989 80.3504 15.2883 80.0757 14.7621 79.5265C14.2397 78.9734 13.9785 78.1994 13.9785 77.2046C13.9785 76.1752 14.2435 75.3763 14.7736 74.8078C15.3037 74.2393 15.9912 73.9551 16.8363 73.9551C17.6544 73.9551 18.3228 74.2336 18.8413 74.7905C19.3599 75.3474 19.6191 76.131 19.6191 77.1412C19.6191 77.2027 19.6172 77.2948 19.6134 77.4178H15.0502C15.0886 78.0899 15.2787 78.6046 15.6206 78.9618C15.9624 79.3191 16.3888 79.4977 16.8997 79.4977C17.2799 79.4977 17.6045 79.3978 17.8734 79.1981C18.1422 78.9983 18.3554 78.6795 18.5129 78.2417ZM15.1078 76.5651H18.5244C18.4783 76.0504 18.3477 75.6643 18.1326 75.407C17.8023 75.0075 17.374 74.8078 16.8478 74.8078C16.3715 74.8078 15.9701 74.9672 15.6436 75.286C15.321 75.6048 15.1424 76.0311 15.1078 76.5651Z" fill="black"/>
<path d="M7.87109 80.214V71.7676H8.90818V74.7981C9.39216 74.2374 10.0029 73.957 10.7404 73.957C11.1936 73.957 11.5873 74.0472 11.9215 74.2278C12.2557 74.4044 12.4938 74.6503 12.6359 74.9652C12.7819 75.2802 12.8549 75.7373 12.8549 76.3365V80.214H11.8178V76.3365C11.8178 75.8179 11.7045 75.4415 11.4779 75.2072C11.2551 74.9691 10.9382 74.85 10.5272 74.85C10.2199 74.85 9.92991 74.9307 9.65719 75.092C9.38832 75.2495 9.19626 75.4646 9.08103 75.7373C8.9658 76.01 8.90818 76.3864 8.90818 76.8665V80.214H7.87109Z" fill="black"/>
<path d="M3.06215 80.214V72.7643H0.279297V71.7676H6.97429V72.7643H4.17991V80.214H3.06215Z" fill="black"/>
<path d="M286.558 74.0796C290.824 72.4409 294.555 69.658 297.342 66.0366C300.129 62.4153 301.863 58.0957 302.355 53.5528C302.846 49.0098 302.076 44.4193 300.128 40.2858C298.18 36.1523 295.13 32.6358 291.313 30.1229C287.497 27.61 283.062 26.1979 278.495 26.0418C273.928 25.8858 269.406 26.9918 265.427 29.2384C261.448 31.4849 258.165 34.785 255.94 38.7759C253.714 42.7668 252.632 47.294 252.812 51.8599L256.645 51.7087C256.492 47.8474 257.407 44.0189 259.29 40.6438C261.172 37.2688 263.948 34.478 267.313 32.5782C270.678 30.6783 274.502 29.743 278.364 29.8749C282.226 30.0069 285.977 31.2011 289.204 33.3262C292.432 35.4513 295.011 38.4251 296.658 41.9207C298.306 45.4163 298.957 49.2984 298.542 53.1403C298.126 56.9822 296.659 60.6351 294.303 63.6976C291.946 66.7601 288.79 69.1136 285.183 70.4994L286.558 74.0796Z" fill="#6524EB"/>
<path d="M260.715 50.7812C260.715 41.3546 268.357 33.7129 277.783 33.7129C287.21 33.7129 294.852 41.3546 294.852 50.7812C294.852 60.2077 287.21 67.8495 277.783 67.8495C268.357 67.8495 260.715 60.2077 260.715 50.7812Z" fill="#6524EB"/>
<path d="M275.227 56.8437V44.3644H277.519C277.75 44.3644 277.941 44.4166 278.092 44.5209C278.251 44.6252 278.363 44.7816 278.427 44.9902L278.641 45.7122C278.88 45.4876 279.127 45.279 279.382 45.0865C279.636 44.8939 279.907 44.7335 280.194 44.6051C280.488 44.4687 280.803 44.3644 281.137 44.2922C281.479 44.212 281.849 44.1719 282.247 44.1719C282.924 44.1719 283.521 44.2922 284.038 44.5329C284.564 44.7656 285.006 45.0945 285.364 45.5197C285.722 45.9369 285.993 46.4383 286.176 47.0239C286.359 47.6016 286.45 48.2314 286.45 48.9133V56.8437H282.749V48.9133C282.749 48.3036 282.61 47.8302 282.331 47.4933C282.052 47.1483 281.642 46.9758 281.101 46.9758C280.695 46.9758 280.313 47.0641 279.955 47.2406C279.597 47.4171 279.254 47.6537 278.928 47.9506V56.8437H275.227Z" fill="white"/>
<path d="M273.053 44.5332V56.843H269.07V44.5332H273.053Z" fill="white"/>
<path d="M273.044 41.264C273.044 42.3612 272.154 43.2506 271.057 43.2506C269.96 43.2506 269.07 42.3612 269.07 41.264C269.07 40.1668 269.96 39.2773 271.057 39.2773C272.154 39.2773 273.044 40.1668 273.044 41.264Z" fill="white"/>
<path d="M273.044 41.2659C273.044 40.1687 272.154 39.2793 271.057 39.2793C269.96 39.2794 269.07 40.1688 269.07 41.2659C269.07 42.3288 269.905 43.1968 270.955 43.25L271.057 43.2527C272.12 43.2527 272.988 42.4179 273.041 41.3683L273.044 41.2659ZM273.237 41.2659C273.237 42.4699 272.261 43.4461 271.057 43.4461C269.853 43.446 268.877 42.4699 268.877 41.2659C268.877 40.062 269.853 39.086 271.057 39.0859C272.261 39.0859 273.237 40.0619 273.237 41.2659Z" fill="#6524EB"/>
<path d="M279.156 60.6183C279.156 59.5639 278.301 58.7092 277.247 58.7092C276.193 58.7092 275.338 59.5639 275.338 60.6183C275.338 61.6726 276.193 62.5273 277.247 62.5273C278.301 62.5273 279.156 61.6726 279.156 60.6183Z" fill="white"/>
<path d="M286.127 60.6183C286.127 59.5639 285.272 58.7092 284.218 58.7092C283.163 58.7092 282.309 59.5639 282.309 60.6183C282.309 61.6726 283.163 62.5273 284.218 62.5273C285.272 62.5273 286.127 61.6726 286.127 60.6183Z" fill="white"/>
<path d="M286.129 60.6201C286.129 61.6415 285.327 62.4756 284.318 62.5267L284.22 62.5292C283.165 62.5292 282.311 61.6744 282.311 60.6201L282.313 60.5219C282.363 59.5458 283.145 58.7631 284.121 58.7136L284.22 58.7111C285.241 58.7112 286.075 59.5132 286.126 60.5219L286.129 60.6201ZM286.516 60.6201C286.516 59.3522 285.488 58.3244 284.22 58.3243C282.952 58.3243 281.924 59.3521 281.924 60.6201C281.924 61.888 282.952 62.916 284.22 62.916C285.488 62.916 286.516 61.888 286.516 60.6201Z" fill="#6524EB"/>
<path d="M272.916 60.6183C272.916 59.5639 272.061 58.7092 271.007 58.7092C269.952 58.7092 269.098 59.5639 269.098 60.6183C269.098 61.6726 269.952 62.5273 271.007 62.5273C272.061 62.5273 272.916 61.6726 272.916 60.6183Z" fill="white"/>
<path d="M249.881 49.6237C249.881 48.0215 251.18 46.7227 252.782 46.7227H256.65V56.9732C256.65 57.8277 255.957 58.5204 255.103 58.5204H252.782C251.18 58.5204 249.881 57.2215 249.881 55.6193V49.6237Z" fill="#6524EB"/>
<path d="M305.973 49.2409C305.973 47.6387 304.674 46.3398 303.072 46.3398H299.203V56.2035C299.203 57.0581 299.896 57.7508 300.751 57.7508H303.072C304.674 57.7508 305.973 56.4519 305.973 54.8497V49.2409Z" fill="#6524EB"/>
<path d="M287.215 73.3182C287.215 75.1875 285.699 76.7028 283.83 76.7028C281.961 76.7028 280.445 75.1875 280.445 73.3182C280.445 71.4489 281.961 69.9336 283.83 69.9336C285.699 69.9336 287.215 71.4489 287.215 73.3182Z" fill="#6524EB"/>
<path d="M286.822 73.3163C286.822 71.6607 285.48 70.3185 283.824 70.3185C282.169 70.3185 280.826 71.6607 280.826 73.3163C280.826 74.972 282.169 76.3141 283.824 76.3141C285.48 76.3141 286.822 74.972 286.822 73.3163ZM287.596 73.3163C287.596 75.3992 285.907 77.0877 283.824 77.0877C281.741 77.0877 280.053 75.3992 280.053 73.3163C280.053 71.2334 281.741 69.5449 283.824 69.5449C285.907 69.5449 287.596 71.2334 287.596 73.3163Z" fill="white"/>
</svg>
