<?xml version="1.0" encoding="UTF-8"?>
<svg version="1.1" xmlns="http://www.w3.org/2000/svg" width="3582" height="1042">
<path d="M0 0 C0.99912415 -0.00705963 1.99824829 -0.01411926 3.02764893 -0.02139282 C86.92851886 -0.47943628 167.8709733 24.50883128 231.15625 81.203125 C232.13464844 82.07066406 233.11304687 82.93820313 234.12109375 83.83203125 C240.06846426 89.18865624 245.79616098 94.74549032 251.46875 100.390625 C252.12665527 101.04385742 252.78456055 101.69708984 253.46240234 102.37011719 C257.89512967 106.81740743 262.08568683 111.42297576 266.15625 116.203125 C266.91893188 117.09777466 266.91893188 117.09777466 267.69702148 118.01049805 C282.17042469 135.16057049 294.56976977 153.41902973 305.15625 173.203125 C305.62659668 174.08194336 306.09694336 174.96076172 306.58154297 175.86621094 C346.78579592 251.83379142 355.20041686 341.50760096 330.19140625 423.7890625 C315.30704143 470.97273966 291.46001051 514.54059064 258.15625 551.203125 C257.58374512 551.83734375 257.01124023 552.4715625 256.42138672 553.125 C248.72244364 561.62507516 240.78849477 569.64849291 232.15625 577.203125 C231.66366699 577.64043945 231.17108398 578.07775391 230.66357422 578.52832031 C181.97469011 621.66399728 119.53423442 648.58283141 55.15625 656.203125 C53.71354736 656.37666504 53.71354736 656.37666504 52.24169922 656.55371094 C-16.51480398 664.43632416 -85.62445652 651.08696527 -140.84375 608.203125 C-140.2314439 603.9229318 -138.71507238 600.71825995 -136.66796875 596.92578125 C-136.34692169 596.32685562 -136.02587463 595.72792999 -135.69509888 595.1108551 C-134.64674476 593.1589983 -133.58915564 591.21231885 -132.53125 589.265625 C-131.79790543 587.90506304 -131.06508135 586.54422042 -130.33276367 585.18310547 C-128.17877537 581.18486431 -126.01269806 577.19326566 -123.84375 573.203125 C-123.2755957 572.15656738 -122.70744141 571.11000977 -122.12207031 570.03173828 C-119.67889982 565.5351668 -117.22756719 561.0431484 -114.76953125 556.5546875 C-111.60885071 550.7809638 -108.47570459 544.99246751 -105.34375 539.203125 C-87.99935543 507.16755666 -87.99935543 507.16755666 -82.21875 496.890625 C-81.60773437 495.80136719 -80.99671875 494.71210937 -80.3671875 493.58984375 C-78.84375 491.203125 -78.84375 491.203125 -76.84375 490.203125 C-74.87671638 490.98688878 -72.94512828 491.85976802 -71.03125 492.765625 C-32.21326765 510.1715713 14.23752606 509.6799169 53.87695312 495.20996094 C78.32778286 485.74255723 99.29658757 472.35163877 118.15625 454.203125 C118.83558594 453.58695313 119.51492188 452.97078125 120.21484375 452.3359375 C153.00741061 421.65682089 168.55495986 374.67209389 170.28515625 330.9453125 C171.03925491 288.41414798 156.47558889 244.7673904 127.23046875 213.4296875 C125.34300832 211.40360004 123.56004289 209.32415595 121.78125 207.203125 C92.26796473 173.57954201 46.39579776 155.2787826 2.54541016 152.34375 C-42.27371732 149.70571429 -87.97428512 164.03818318 -121.875 193.83203125 C-124.42519549 196.11875305 -126.91990797 198.45958199 -129.39550781 200.82666016 C-130.77667712 202.13937637 -132.18080691 203.42780818 -133.5859375 204.71484375 C-145.69285982 216.17255429 -155.26590313 230.40773929 -162.84375 245.203125 C-163.20952148 245.91549316 -163.57529297 246.62786133 -163.95214844 247.36181641 C-175.72258584 270.58203806 -183.01199166 295.17172699 -182.9824152 321.35301304 C-182.98667853 322.83494248 -182.98667853 322.83494248 -182.99102798 324.34680989 C-182.99934208 327.65338003 -183.00064061 330.95991498 -183.00196838 334.26649475 C-183.00653597 336.6625225 -183.01153628 339.05854945 -183.01693195 341.45457548 C-183.0276675 346.6618284 -183.03535028 351.86907659 -183.04033089 357.07633781 C-183.04775344 364.81929932 -183.06084038 372.56224406 -183.07507664 380.30519567 C-183.09886644 393.33117073 -183.11807933 406.35714878 -183.13467598 419.38313484 C-183.15112169 432.27889477 -183.16960642 445.17464913 -183.19080925 458.07040215 C-183.19212686 458.87247827 -183.19344446 459.6745544 -183.194802 460.50093587 C-183.20150416 464.57434129 -183.20824271 468.64774666 -183.21499526 472.721152 C-183.26274743 501.56661871 -183.30593558 530.41209063 -183.34643555 559.25756836 C-183.38578906 587.27905658 -183.42721247 615.3005405 -183.47143555 643.32202148 C-183.47279808 644.18589612 -183.47416061 645.04977076 -183.47556442 645.93982342 C-183.4892499 654.61527545 -183.50297743 663.29072743 -183.51673577 671.96617935 C-183.54476167 689.63878369 -183.5725069 707.31138848 -183.6000824 724.98399353 C-183.6013506 725.79653601 -183.6026188 726.60907848 -183.60392542 727.44624346 C-183.64277926 752.34958233 -183.68044359 777.25292281 -183.7169342 802.15626526 C-183.7179706 802.86324369 -183.71900699 803.57022212 -183.72007478 804.29862415 C-183.76203382 832.9334567 -183.80273363 861.56829108 -183.84375 890.203125 C-240.27375 890.203125 -296.70375 890.203125 -354.84375 890.203125 C-354.84375 599.803125 -354.84375 309.403125 -354.84375 10.203125 C-298.41375 10.203125 -241.98375 10.203125 -183.84375 10.203125 C-183.51375 37.263125 -183.18375 64.323125 -182.84375 92.203125 C-179.54375 87.913125 -176.24375 83.623125 -172.84375 79.203125 C-168.98612774 74.73147052 -164.93031537 70.46407572 -160.84375 66.203125 C-159.94785156 65.254375 -159.05195312 64.305625 -158.12890625 63.328125 C-151.23499557 56.20138034 -143.77891712 50.10982579 -135.84375 44.203125 C-134.99039062 43.56632812 -134.13703125 42.92953125 -133.2578125 42.2734375 C-95.01188585 14.7007927 -47.04457619 0.22277887 0 0 Z " fill="#000000" transform="translate(2161.84375,151.796875)"/>
<path d="M0 0 C0.97710938 -0.00701431 1.95421875 -0.01402863 2.9609375 -0.02125549 C6.09900579 -0.03866259 9.23688519 -0.04510831 12.375 -0.046875 C13.4484668 -0.04754974 14.52193359 -0.04822449 15.62792969 -0.04891968 C32.05587971 -0.03251748 48.14636941 0.40555582 64.375 3.203125 C65.37176758 3.37473145 66.36853516 3.54633789 67.39550781 3.72314453 C74.44625914 4.98631948 81.4158618 6.50949916 88.375 8.203125 C89.37176758 8.44514648 90.36853516 8.68716797 91.39550781 8.93652344 C141.85635725 21.491144 190.81369214 46.86613604 229.1640625 82.17578125 C231.11482911 83.9645584 233.10480395 85.68155619 235.125 87.390625 C244.22702502 95.34797344 252.75643469 104.0259649 260.24609375 113.515625 C262.49135885 116.3500147 264.83408438 119.08309506 267.1875 121.828125 C306.15169886 168.68152023 330.78186138 229.85473602 337.375 290.203125 C337.4692627 291.01789307 337.56352539 291.83266113 337.66064453 292.67211914 C338.73120539 303.33463717 338.6178616 314.0607555 338.625 324.765625 C338.62600708 325.81192078 338.62701416 326.85821655 338.62805176 327.93621826 C338.59238448 382.76835603 338.59238448 382.76835603 330.375 399.203125 C289.73765474 399.75297367 249.10079587 400.17561139 208.46047118 400.42869291 C203.65796755 400.45870832 198.85547123 400.48977221 194.05297852 400.52148438 C193.09692583 400.52777983 192.14087315 400.53407528 191.15584917 400.5405615 C175.69367643 400.6448754 160.2336545 400.83403071 144.77275597 401.05479211 C128.8972737 401.27957526 113.02291424 401.41260533 97.14590603 401.46124887 C87.35465709 401.49411611 77.56948653 401.59770802 67.78011049 401.79312021 C61.05841165 401.92042581 54.33983325 401.9582381 47.61701768 401.92715806 C43.74071607 401.91183681 39.87498518 401.93450875 36.00058937 402.0640564 C13.47451109 402.78036027 13.47451109 402.78036027 6.70125318 396.87001228 C1.98264939 391.16989584 -1.24214052 384.90710387 -4.23723114 378.17521381 C-6.30284867 373.75142327 -8.92957594 369.7618982 -11.625 365.703125 C-12.5970901 364.17399323 -13.56621762 362.64297065 -14.53125 361.109375 C-15.02625 360.325625 -15.52125 359.541875 -16.03125 358.734375 C-19.72431917 352.8689122 -23.38837033 346.98524081 -27.05859375 341.10546875 C-31.3715326 334.19947465 -35.70846034 327.3092292 -40.06420898 320.43017578 C-44.77699422 312.97999602 -49.43622753 305.49663269 -54.09594727 298.01318359 C-58.46373063 291.0149774 -62.90676036 284.07072284 -67.47680664 277.20263672 C-70.625 272.41767347 -70.625 272.41767347 -70.625 270.203125 C7.915 270.203125 86.455 270.203125 167.375 270.203125 C157.67943666 245.96421666 147.56799859 224.76129799 130.375 205.203125 C129.55128906 204.25824219 128.72757813 203.31335938 127.87890625 202.33984375 C123.01367487 196.8673841 118.05864032 191.81565484 112.375 187.203125 C111.64869385 186.60032715 111.64869385 186.60032715 110.90771484 185.98535156 C79.09757771 159.64844334 40.87012621 148.21267463 -0.34033203 151.4140625 C-41.6488366 155.41239255 -81.13695809 176.30643397 -108.01171875 208.01953125 C-131.62353712 237.63623906 -147.43555625 275.91240514 -147.86328125 314.0859375 C-147.8730751 314.81424774 -147.88286896 315.54255798 -147.89295959 316.29293823 C-148.06750737 332.64307926 -147.81914437 348.28566551 -143.625 364.203125 C-143.40537598 365.05213379 -143.18575195 365.90114258 -142.95947266 366.77587891 C-132.80534575 405.08561034 -111.349893 440.92206164 -79.625 465.203125 C-78.61953125 466.01265625 -77.6140625 466.8221875 -76.578125 467.65625 C-43.42206863 494.19742813 -4.4814134 502.49543723 37.34667969 498.38256836 C73.20073036 494.36941389 102.08359141 481.81440215 125.1875 453.328125 C125.93644531 452.38195312 126.68539063 451.43578125 127.45703125 450.4609375 C129.375 448.203125 129.375 448.203125 131.375 447.203125 C134.01103789 448.19214499 136.53563652 449.25252791 139.09765625 450.41015625 C139.89276108 450.761884 140.68786591 451.11361176 141.50706482 451.47599792 C144.15378735 452.64871102 146.79551943 453.83227224 149.4375 455.015625 C151.29650771 455.84132223 153.15588854 456.66617985 155.015625 457.49023438 C158.88573903 459.20588012 162.75420818 460.92515944 166.62158203 462.64697266 C174.52024243 466.16037599 182.43803222 469.62996149 190.35617065 473.09918213 C194.59256092 474.95589102 198.82744426 476.81603092 203.0625 478.67578125 C204.76821983 479.4246632 206.47394904 480.17352378 208.1796875 480.92236328 C209.03143555 481.29629211 209.88318359 481.67022095 210.76074219 482.05548096 C214.33128762 483.62292973 217.90190037 485.19022512 221.47251892 486.75750732 C240.77703286 495.23101383 260.08077165 503.70621612 279.375 512.203125 C269.10695316 533.62997532 246.34079335 555.11863813 228.375 570.203125 C227.84970703 570.6475293 227.32441406 571.09193359 226.78320312 571.54980469 C209.50330721 586.10883302 191.20018097 598.38869513 171.375 609.203125 C170.19454102 609.86006348 170.19454102 609.86006348 168.99023438 610.53027344 C133.80754071 630.10750104 95.16234817 641.80914457 55.375 647.203125 C54.55692871 647.32171875 53.73885742 647.4403125 52.89599609 647.5625 C-28.62626462 659.08362707 -116.515288 635.29752683 -182.10644531 586.25366211 C-188.8228398 581.13987958 -195.29137608 575.78128199 -201.625 570.203125 C-202.39972656 569.53925781 -203.17445313 568.87539063 -203.97265625 568.19140625 C-216.83975983 556.95751993 -229.19122354 544.73565461 -239.625 531.203125 C-240.52241094 530.11418518 -241.42372765 529.02845689 -242.328125 527.9453125 C-256.07588812 511.3712268 -267.40601468 493.12238754 -277.625 474.203125 C-278.09534668 473.3363916 -278.56569336 472.4696582 -279.05029297 471.57666016 C-301.27253826 430.17746864 -312.39672397 383.06185572 -313.625 336.203125 C-313.64691406 335.42678711 -313.66882813 334.65044922 -313.69140625 333.85058594 C-314.87232898 284.74388229 -305.9903217 234.61897509 -284.625 190.203125 C-284.06474121 189.02121582 -284.06474121 189.02121582 -283.49316406 187.81542969 C-271.70201716 163.0451852 -256.92917285 140.45254938 -239.625 119.203125 C-238.99368164 118.41518555 -238.99368164 118.41518555 -238.34960938 117.61132812 C-231.4481777 109.03489459 -223.81767763 101.18863773 -216.0625 93.390625 C-215.57962524 92.90248322 -215.09675049 92.41434143 -214.59924316 91.91140747 C-207.95747124 85.21368139 -201.04395784 79.03346816 -193.625 73.203125 C-192.894021 72.62344971 -192.16304199 72.04377441 -191.40991211 71.4465332 C-137.7665438 29.21012475 -68.9772483 0.33412386 0 0 Z " fill="#000000" transform="translate(786.625,151.796875)"/>
<path d="M0 0 C9.57359871 6.8382848 15.85480824 16.70953062 18.25 28.25 C18.2770442 30.5831766 18.28044423 32.91686529 18.25 35.25 C18.87854606 35.24631283 19.50709211 35.24262566 20.15468502 35.23882675 C35.52412952 35.15007792 50.89348357 35.08409855 66.2631216 35.04275131 C73.69609784 35.02221916 81.12890193 34.9942801 88.56176758 34.94824219 C95.04830509 34.90808519 101.5347178 34.88249948 108.02137619 34.87364602 C111.44877445 34.86847945 114.87581599 34.85653786 118.30309868 34.82707977 C151.40400381 34.57426161 177.33694825 42.16988836 201.75 65.3125 C220.20283356 84.2344734 229.41173891 109.49040811 229.39044189 135.68992615 C229.39489858 137.40930668 229.39489858 137.40930668 229.3994453 139.16342217 C229.40811151 143.00145228 229.40963881 146.83945112 229.41113281 150.67749023 C229.41522663 153.43085411 229.42076714 156.18421473 229.42617798 158.93757629 C229.43973439 166.41733476 229.44578218 173.89708786 229.45018864 181.37685657 C229.45295634 186.05338895 229.45719471 190.72991928 229.46169281 195.40645027 C229.47388332 208.37117476 229.48418218 221.33589761 229.4875679 234.30062771 C229.48778747 235.12972324 229.48800703 235.95881877 229.48823325 236.81303841 C229.48845153 237.6440497 229.48866981 238.47506098 229.4888947 239.33125442 C229.48933816 241.01502574 229.48978472 242.69879705 229.49023438 244.38256836 C229.4904558 245.21776625 229.49067723 246.05296414 229.49090537 246.91347105 C229.49484881 260.4302153 229.51228991 273.94690549 229.5355939 287.46362888 C229.5593629 301.36308242 229.57177232 315.2625089 229.57293582 329.16198307 C229.57384961 336.95702724 229.57952676 344.75200101 229.59775543 352.54702568 C229.6132317 359.18819345 229.61823296 365.82926907 229.61001733 372.47045147 C229.60613683 375.85276342 229.6085766 379.2347409 229.62107468 382.61705399 C229.73822671 416.3141798 222.79195895 442.98254441 199.0625 467.8125 C183.22126029 483.24086789 160.00726397 495.34301776 137.47072983 495.38422108 C136.33429716 495.38867892 135.19786449 495.39313676 134.02699447 495.39772969 C132.78830053 495.39754533 131.54960659 495.39736097 130.27337646 495.39717102 C128.9363406 495.40047315 127.59930573 495.40419945 126.26227212 495.4083125 C122.59366467 495.41830148 118.92507358 495.4220443 115.25645447 495.42470181 C111.29707143 495.42861425 107.33770123 495.4381921 103.37832642 495.44691467 C93.81743986 495.46665537 84.25655229 495.47674348 74.69565046 495.48564246 C70.18719818 495.49003038 65.67874707 495.49539598 61.17029572 495.50063133 C46.17168802 495.51764327 31.17308104 495.53213486 16.17446518 495.53938007 C12.28427886 495.54128981 8.39409255 495.54321016 4.50390625 495.54516602 C3.53708043 495.54564976 2.57025461 495.5461335 1.57413104 495.5466319 C-14.0688246 495.55492256 -29.71170354 495.58024332 -45.35462573 495.61274669 C-61.43498059 495.64588493 -77.51529656 495.66383504 -93.59568572 495.66702431 C-102.61596544 495.66918345 -111.63613339 495.67784403 -120.6563797 495.70348549 C-128.34275908 495.72528533 -136.02899954 495.73319768 -143.71540633 495.72351871 C-147.63060178 495.71900035 -151.54551118 495.72071458 -155.46066666 495.74028015 C-188.26809818 495.89488706 -215.93058342 490.33046995 -240.1328125 466.87109375 C-259.24296857 447.73241506 -269.86170647 422.43875958 -270.02214891 395.37507272 C-270.01836958 394.34285207 -270.01459026 393.31063141 -270.01069641 392.24713135 C-270.01452196 391.11279089 -270.01834751 389.97845043 -270.02228898 388.80973601 C-270.03252251 385.04791347 -270.02864526 381.28624631 -270.0246582 377.52441406 C-270.02792002 374.81119349 -270.03413118 372.0979813 -270.04014587 369.38476562 C-270.05283878 362.80281625 -270.05469331 356.22090778 -270.05234561 349.63894823 C-270.05055602 344.2832785 -270.05232577 338.92762109 -270.05657005 333.57195282 C-270.05716524 332.80707205 -270.05776043 332.04219129 -270.05837366 331.25413232 C-270.05958553 329.69980369 -270.06079966 328.14547506 -270.06201603 326.59114644 C-270.07287098 312.0424686 -270.07073894 297.49381398 -270.06463119 282.94513485 C-270.05946525 269.66870474 -270.0707126 256.39234808 -270.08972941 243.11593249 C-270.10915534 229.44793193 -270.1173554 215.77996603 -270.11360615 202.11195159 C-270.11170113 194.45278616 -270.11411298 186.7936832 -270.12832069 179.13452911 C-270.14029639 172.61320292 -270.14157073 166.09197763 -270.12953053 159.57064989 C-270.12368447 156.2509592 -270.12408229 152.93160183 -270.13453293 149.61190033 C-270.230245 116.82632758 -263.84629308 87.87779351 -240.5 63.5 C-225.81637791 49.49503271 -208.59587945 40.44679888 -188.75 36.25 C-187.9243454 36.07308121 -187.0986908 35.89616241 -186.24801636 35.71388245 C-181.32842551 35.06148074 -176.46942823 35.11956134 -171.51220703 35.13647461 C-170.38967026 35.13632858 -169.26713348 35.13618256 -168.11058044 35.1360321 C-164.40963797 35.13672735 -160.70874616 35.14450163 -157.0078125 35.15234375 C-154.43805977 35.15420931 -151.86830668 35.15563256 -149.29855347 35.15663147 C-143.23198853 35.16005619 -137.16544442 35.16793332 -131.09888732 35.17798096 C-124.1895714 35.18917495 -117.2802546 35.19466082 -110.37093186 35.19967639 C-96.16394487 35.21011685 -81.95697308 35.22769578 -67.75 35.25 C-67.69666504 34.51539551 -67.64333008 33.78079102 -67.58837891 33.02392578 C-67.51022949 32.0492334 -67.43208008 31.07454102 -67.3515625 30.0703125 C-67.27760254 29.10883301 -67.20364258 28.14735352 -67.12744141 27.15673828 C-65.75013159 16.54984909 -59.47878703 8.08458535 -51.375 1.4375 C-35.97109641 -9.91135888 -16.07698768 -9.8562437 0 0 Z " fill="#6524EB" transform="translate(3352.75,298.75)"/>
<path d="M0 0 C26.48560298 -0.56145669 52.97031063 -0.98424547 79.46067238 -1.24349213 C91.76194163 -1.36708634 104.05950737 -1.53545476 116.35839844 -1.81054688 C127.08262607 -2.0503031 137.80417212 -2.20471438 148.53100526 -2.25812387 C154.20892074 -2.28933798 159.87916808 -2.36224035 165.55461502 -2.53752136 C200.07187453 -3.56317663 200.07187453 -3.56317663 208.23327827 2.3377533 C213.2024009 7.92327521 215.85992156 14.03855916 218.0398922 21.1237793 C219.4049273 25.21305156 221.51770754 28.62590874 223.85546875 32.21875 C224.5816422 33.429414 225.303661 34.6425903 226.01953125 35.859375 C226.74217913 37.07292165 227.46483561 38.28646318 228.1875 39.5 C228.98968906 40.84889546 229.79176899 42.19785583 230.59375 43.546875 C232.24356596 46.32185982 233.89382873 49.09657811 235.54443359 51.87109375 C239.13945892 57.91485284 242.7285904 63.96211028 246.31808472 70.00915527 C247.50158996 72.00267817 248.68543414 73.9959994 249.86938477 75.98925781 C253.4542624 82.02497553 257.03757945 88.06159591 260.61372375 94.10249329 C262.61652543 97.48556281 264.62049288 100.86794073 266.625 104.25 C267.0177713 104.91278961 267.4105426 105.57557922 267.81521606 106.25845337 C273.80849726 116.36651082 279.89004977 126.41788573 286.01220703 136.44827271 C290.99611319 144.62058986 295.83281756 152.85902521 300.5402832 161.19311523 C305.07026409 169.19006833 309.79639788 177.06442005 314.54614258 184.93237305 C317.4312991 189.71298634 320.3041914 194.49776992 323.10546875 199.328125 C323.56808105 200.12508789 324.03069336 200.92205078 324.50732422 201.74316406 C325.3533372 203.20604173 326.19508371 204.67139841 327.03173828 206.13964844 C328.90806935 209.66401956 328.90806935 209.66401956 332 212 C332.26159912 211.29560791 332.52319824 210.59121582 332.79272461 209.86547852 C334.08772408 206.79178613 335.62721936 204.02834092 337.31640625 201.15234375 C337.80830193 200.31246918 337.80830193 200.31246918 338.31013489 199.45562744 C339.39049954 197.61401395 340.47626649 195.77565711 341.5625 193.9375 C342.32965246 192.63390729 343.09674122 191.33027709 343.86376953 190.02661133 C349.64990188 180.21022392 355.5460398 170.46330085 361.48071289 160.73608398 C366.88964056 151.86456815 372.20852961 142.94199311 377.5 134 C383.78023027 123.38856002 390.122927 112.81900445 396.54199219 102.29101562 C402.26452093 92.90157183 407.89922465 83.46251526 413.5 74 C418.08717017 66.25083593 422.67563365 58.5031027 427.34765625 50.8046875 C427.98385517 49.75238512 428.62005409 48.70008274 429.27553177 47.61589241 C430.68559819 45.29479139 432.12226258 43.00166926 433.5882206 40.71450996 C437.00402991 35.3189278 440.07955098 30.13295136 442.35701478 24.15395987 C445.76895243 15.20787794 449.8862257 5.62900734 458 0 C471.02132629 -5.73799772 487.80045836 -3.57295226 501.62441301 -3.04181814 C507.37682741 -2.85291971 513.12982021 -2.83655633 518.88485718 -2.80105591 C529.75781123 -2.70818294 540.62160341 -2.46259708 551.49053991 -2.16057122 C563.8739424 -1.82401134 576.25780787 -1.66000769 588.64465261 -1.50970817 C614.10149541 -1.19699271 639.55023242 -0.67012207 665 0 C664.67 0.66 664.34 1.32 664 2 C663.34 2 662.68 2 662 2 C661.71874268 2.5882959 661.43748535 3.1765918 661.14770508 3.78271484 C660.09444515 5.81753864 658.96129994 7.61125615 657.63671875 9.4765625 C657.1689502 10.13769043 656.70118164 10.79881836 656.21923828 11.47998047 C655.71376465 12.18783691 655.20829102 12.89569336 654.6875 13.625 C653.89061768 14.74672607 653.89061768 14.74672607 653.07763672 15.89111328 C651.38925497 18.26374696 649.69567899 20.63257687 648 23 C647.20311768 24.1127832 647.20311768 24.1127832 646.39013672 25.24804688 C639.67461677 34.61121084 632.86926482 43.90581743 626.0222168 53.1730957 C621.8073457 58.88491391 617.65931543 64.64000299 613.546875 70.42578125 C608.96009787 76.87525511 604.30666647 83.27707393 599.66894531 89.68994141 C598.03481701 91.95180829 596.4036287 94.21576308 594.7734375 96.48046875 C588.64502803 104.98992059 582.46380502 113.45739685 576.23291016 121.89208984 C570.63567826 129.4766884 565.11591373 137.1158833 559.60888672 144.76611328 C556.90987872 148.51359784 554.20461116 152.25655845 551.5 156 C550.41663696 157.49997854 549.33330362 158.99997854 548.25 160.5 C546.08333333 163.5 543.91666667 166.5 541.75 169.5 C540.94574585 170.61362915 540.94574585 170.61362915 540.12524414 171.74975586 C539.04121584 173.2506555 537.95706858 174.75146922 536.87280273 176.25219727 C534.17412345 179.98773967 531.47748688 183.72472254 528.78515625 187.46484375 C523.17096822 195.25915847 517.52114617 203.024536 511.8125 210.75 C506.99713071 217.26722873 502.24135527 223.82113315 497.546875 230.42578125 C492.96009787 236.87525511 488.30666647 243.27707393 483.66894531 249.68994141 C482.03481701 251.95180829 480.4036287 254.21576308 478.7734375 256.48046875 C472.65025943 264.98265665 466.47583177 273.44405926 460.24829102 281.87011719 C455.59869442 288.16827206 451.00389619 294.50457456 446.4375 300.86328125 C445.695 301.89582031 445.695 301.89582031 444.9375 302.94921875 C444.46054688 303.61872559 443.98359375 304.28823242 443.4921875 304.97802734 C442.45207435 306.3874215 441.37005012 307.76642725 440.2578125 309.11962891 C439.41863281 310.15289307 439.41863281 310.15289307 438.5625 311.20703125 C437.79099609 312.12125854 437.79099609 312.12125854 437.00390625 313.05395508 C435.78521427 315.00563371 435.78521427 315.00563371 436.16430664 317.49121094 C437.04876941 320.14640795 438.05301178 321.76705531 439.80859375 323.93359375 C440.6737561 325.01906494 440.6737561 325.01906494 441.55639648 326.12646484 C442.17716064 326.88910645 442.7979248 327.65174805 443.4375 328.4375 C444.73132244 330.06208756 446.02297609 331.68840461 447.3125 333.31640625 C447.94671875 334.11578613 448.5809375 334.91516602 449.234375 335.73876953 C451.56296222 338.72098398 453.76758524 341.7763153 455.9375 344.875 C459.93529473 350.56112306 464.06857747 356.13509316 468.25 361.6875 C473.22002858 368.28896455 478.16555746 374.90660218 483.0625 381.5625 C483.63726074 382.34343018 484.21202148 383.12436035 484.80419922 383.92895508 C487.68204781 387.84164925 490.55532886 391.75765875 493.42578125 395.67578125 C499.61925938 404.11879809 505.88380562 412.49873554 512.25 420.8125 C517.01408732 427.03467144 521.70043388 433.28910816 526.21289062 439.69580078 C529.79676816 444.76506227 533.51617462 449.72798119 537.25 454.6875 C542.21992576 461.28904287 547.16555655 467.90660094 552.0625 474.5625 C552.63726074 475.34343018 553.21202148 476.12436035 553.80419922 476.92895508 C556.68204781 480.84164925 559.55532886 484.75765875 562.42578125 488.67578125 C568.61925938 497.11879809 574.88380562 505.49873554 581.25 513.8125 C586.01408732 520.03467144 590.70043388 526.28910816 595.21289062 532.69580078 C598.79676816 537.76506227 602.51617462 542.72798119 606.25 547.6875 C611.21992576 554.28904287 616.16555655 560.90660094 621.0625 567.5625 C621.63726074 568.34343018 622.21202148 569.12436035 622.80419922 569.92895508 C625.68204781 573.84164925 628.55532886 577.75765875 631.42578125 581.67578125 C638.31760005 591.07069613 645.29781513 600.38918921 652.40771484 609.62060547 C665 626.02971479 665 626.02971479 665 629 C596.69 629 528.38 629 458 629 C456.68 626.69 455.36 624.38 454 622 C453.10811409 620.71920772 452.18713679 619.45752484 451.22265625 618.23046875 C450.71621582 617.57908936 450.20977539 616.92770996 449.68798828 616.2565918 C449.15157715 615.5737915 448.61516602 614.89099121 448.0625 614.1875 C443.46979045 608.26450181 438.9870985 602.28232096 434.625 596.1875 C430.01383835 589.75341857 425.32375865 583.38634334 420.5625 577.0625 C413.89334873 568.20451224 407.29885334 559.29427852 400.73388672 550.35888672 C397.82628379 546.40320388 394.91289158 542.45178908 392 538.5 C388.47427063 533.71652547 384.94961073 528.93228047 381.4296875 524.14453125 C375.98363105 516.73980537 370.52542234 509.34575634 365 502 C358.86971479 493.8501105 352.82289741 485.6397739 346.78222656 477.42333984 C343.8576926 473.44677489 340.92870168 469.47349592 338 465.5 C334.47428716 460.71651327 330.94961075 455.93228049 327.4296875 451.14453125 C321.98363105 443.73980537 316.52542234 436.34575634 311 429 C304.86971479 420.8501105 298.82289741 412.6397739 292.78222656 404.42333984 C289.27464562 399.65399074 285.7610183 394.88909438 282.24829102 390.12353516 C279.34134427 386.17929 276.43622871 382.23372455 273.53515625 378.28515625 C267.56256586 370.16028104 261.55900376 362.0606878 255.5 354 C244.37427141 339.19491924 233.42833593 324.26400634 222.60888672 309.23388672 C219.90987882 305.48640231 217.20468506 301.74338799 214.5 298 C211.25868547 293.51389621 208.01858046 289.02695169 204.78515625 284.53515625 C199.17096822 276.74084153 193.52114617 268.975464 187.8125 261.25 C182.99713071 254.73277127 178.24135527 248.17886685 173.546875 241.57421875 C170.61457267 237.45110426 167.65151724 233.35034806 164.6875 229.25 C164.13956787 228.49195068 163.59163574 227.73390137 163.02709961 226.95288086 C161.90927547 225.40666903 160.79135496 223.86052687 159.67333984 222.31445312 C156.94736861 218.54406981 154.22378466 214.77196306 151.5 211 C150.41667856 209.49999141 149.33334521 207.99999142 148.25 206.5 C115.75 161.5 115.75 161.5 114.12524414 159.25024414 C113.04121584 157.7493445 111.95706858 156.24853078 110.87280273 154.74780273 C108.17412345 151.01226033 105.47748688 147.27527746 102.78515625 143.53515625 C97.17096822 135.74084153 91.52114617 127.975464 85.8125 120.25 C80.99713071 113.73277127 76.24135527 107.17886685 71.546875 100.57421875 C68.61457267 96.45110426 65.65151724 92.35034806 62.6875 88.25 C62.13956787 87.49195068 61.59163574 86.73390137 61.02709961 85.95288086 C59.90927547 84.40666903 58.79135496 82.86052687 57.67333984 81.31445312 C54.94736861 77.54406981 52.22378466 73.77196306 49.5 70 C48.41667856 68.49999141 47.33334521 66.99999142 46.25 65.5 C26.75 38.5 26.75 38.5 25.12280273 36.24682617 C24.04696023 34.75728525 22.97095298 33.2678633 21.89477539 31.77856445 C19.07042142 27.86953518 16.24954718 23.95805486 13.43359375 20.04296875 C12.84835937 19.23021484 12.263125 18.41746094 11.66015625 17.58007812 C10.54320723 16.02876004 9.42725953 14.47672031 8.3125 12.92382812 C6.14763281 9.91890433 3.98088534 6.97672862 1.62890625 4.11328125 C0 2 0 2 0 0 Z " fill="#000000" transform="translate(1080,162)"/>
<path d="M0 0 C55.44 0 110.88 0 168 0 C168.0093457 17.67312744 168.01869141 35.34625488 168.02832031 53.55493164 C168.03514664 65.35669486 168.04204022 77.15845777 168.04986572 88.96022034 C168.05036092 89.70999557 168.05085612 90.45977081 168.05136632 91.23226651 C168.06811092 116.47723233 168.09032475 141.72219024 168.11663818 166.96714783 C168.11792445 168.20320084 168.11792445 168.20320084 168.1192367 169.46422463 C168.13790336 187.37376091 168.15745599 205.28329613 168.17792095 223.19283045 C168.18795192 231.97596556 168.19778717 240.75910088 168.20751953 249.54223633 C168.20897724 250.85326098 168.20897724 250.85326098 168.2104644 252.19077097 C168.2418582 280.50798298 168.2603335 308.82518546 168.27209247 337.14241186 C168.2842471 366.24783998 168.30946879 395.35322835 168.35107614 424.45862998 C168.35695002 428.57181492 168.3626749 432.68500007 168.36830902 436.79818535 C168.36942248 437.60770019 168.37053594 438.41721502 168.37168314 439.25126061 C168.38920663 452.26968819 168.3930006 465.28808511 168.39162921 478.3065229 C168.39054382 491.40204359 168.40399677 504.497486 168.43216428 517.59297699 C168.44845017 525.36834768 168.4537144 533.14354105 168.44297175 540.91892236 C168.43616887 546.73362419 168.45027909 552.54812868 168.47233662 558.36278575 C168.47801555 560.70892559 168.47701214 563.05509354 168.46851245 565.40122486 C168.39143608 588.67723703 172.20206008 607.39782422 188.796875 624.89453125 C199.97476458 635.47531134 216.23358857 643.05682767 231.68843079 643.15821838 C232.82045331 643.16799241 233.95247583 643.17776644 235.11880207 643.18783665 C236.35617209 643.1936069 237.59354212 643.19937716 238.8684082 643.20532227 C240.21066939 643.21504407 241.55292756 643.22518989 242.89518261 643.23572445 C246.48334316 643.26271873 250.07151588 643.28392438 253.65972137 643.30391693 C257.02915314 643.32357164 260.39854449 643.34846561 263.76794434 643.3729248 C273.61609444 643.44137083 283.46430143 643.50142466 293.3125 643.5625 C326.3228125 643.7790625 326.3228125 643.7790625 360 644 C360 692.51 360 741.02 360 791 C337.60125 791.061875 315.2025 791.12375 292.125 791.1875 C281.59489014 791.22846802 281.59489014 791.22846802 270.85205078 791.27026367 C262.14624023 791.28381348 262.14624023 791.28381348 258.04489136 791.28633118 C255.2367919 791.2890778 252.42887011 791.30012036 249.62081909 791.31672668 C223.17076037 791.46596985 197.72200855 789.4709764 172 783 C171.22865723 782.80680176 170.45731445 782.61360352 169.66259766 782.41455078 C128.81633998 771.91587795 85.71189403 745.73835793 59 713 C58.37254883 712.24904053 58.37254883 712.24904053 57.73242188 711.48291016 C44.93902503 696.15841358 34.21057494 679.70145409 25 662 C24.6174707 661.27296875 24.23494141 660.5459375 23.84082031 659.796875 C6.64003103 626.71505009 -0.56060828 590.34139155 -0.34057617 553.29516602 C-0.33972674 551.24253858 -0.34021118 549.18991024 -0.34190369 547.13728333 C-0.34275274 541.64700182 -0.32530687 536.15692319 -0.30418181 530.6666882 C-0.28523003 524.89856617 -0.28365018 519.13043779 -0.28010559 513.36228943 C-0.27083883 502.47614295 -0.24629895 491.59008852 -0.21605712 480.70398229 C-0.17602159 465.96768846 -0.16001478 451.23136885 -0.14255047 436.49503422 C-0.11447303 413.32995407 -0.05466802 390.16506803 0 367 C-30.03 367 -60.06 367 -91 367 C-91 320.8 -91 274.6 -91 227 C-60.97 227 -30.94 227 0 227 C0 152.09 0 77.18 0 0 Z " fill="#000000" transform="translate(2659,0)"/>
<path d="M0 0 C1.01352539 0.17160645 2.02705078 0.34321289 3.07128906 0.52001953 C36.22562755 6.26123042 67.98773721 16.80082442 98 32 C96.73537711 35.34442081 95.3015833 38.36341938 93.453125 41.421875 C92.69140991 42.69285034 92.69140991 42.69285034 91.91430664 43.98950195 C91.36508545 44.90046631 90.81586426 45.81143066 90.25 46.75 C83.54018597 57.99187317 77.12703223 69.38473116 70.76611328 80.82666016 C67.85504359 86.05724958 64.92673072 91.27816295 62 96.5 C60.83324906 98.58328614 59.66658243 100.6666195 58.5 102.75 C56.16666667 106.91666667 53.83333333 111.08333333 51.5 115.25 C50.9220166 116.2822168 50.3440332 117.31443359 49.74853516 118.37792969 C48.58710845 120.45169746 47.42532719 122.5252667 46.26318359 124.59863281 C43.26333965 129.95170826 40.27058499 135.30857054 37.2890625 140.671875 C25.52436729 161.80820886 25.52436729 161.80820886 19 172 C18.01902344 171.49210938 17.03804688 170.98421875 16.02734375 170.4609375 C-28.04573625 147.87320841 -77.19231939 140.65218239 -125 156 C-149.18688097 164.01458778 -170.18458275 175.58116363 -188.8515625 193.0078125 C-190.80447845 194.8186982 -192.81694159 196.49905208 -194.875 198.1875 C-215.59863884 216.36759363 -229.61270832 242.10874565 -238 268 C-238.23734686 268.72709242 -238.47469373 269.45418484 -238.71923292 270.20331037 C-243.91818311 286.83240781 -243.72555793 303.55144856 -243.6648711 320.77379549 C-243.65548982 325.01686887 -243.67523335 329.25982864 -243.69119263 333.50286865 C-243.7148802 340.82972968 -243.7206801 348.15642266 -243.71384621 355.48331642 C-243.70399256 366.07634617 -243.72186868 376.66919133 -243.74621352 387.26219114 C-243.78498493 404.45433928 -243.80175903 421.64643414 -243.80444336 438.83862305 C-243.80709648 455.52549985 -243.82032552 472.21231417 -243.84741211 488.89916992 C-243.84908963 489.94061553 -243.85076714 490.98206113 -243.85249549 492.05506569 C-243.86569927 500.20153046 -243.87951055 508.34799417 -243.89351356 516.4944576 C-243.96183144 556.32965095 -243.97722869 596.16470426 -244 636 C-300.43 636 -356.86 636 -415 636 C-415 428.43 -415 220.86 -415 7 C-358.57 7 -302.14 7 -244 7 C-243.67 33.07 -243.34 59.14 -243 86 C-240.36 82.7 -237.72 79.4 -235 76 C-233.50016549 74.27320145 -231.98435386 72.55980857 -230.4375 70.875 C-227.75359054 67.93918777 -225.12707616 64.97766658 -222.5625 61.9375 C-191.76793291 26.88336694 -144.7701199 8.20841009 -100 0 C-99.02595215 -0.17934082 -98.0519043 -0.35868164 -97.04833984 -0.54345703 C-66.02697311 -5.89710164 -30.96848527 -5.43353259 0 0 Z " fill="#000000" transform="translate(415,155)"/>
<path d="M0 0 C2.31 0 4.62 0 7 0 C9.03043044 10.30105041 10.70895087 20.57557854 12 31 C12.18776373 32.42852228 12.37659365 33.85690477 12.56640625 35.28515625 C12.75282846 36.71090819 12.93903178 38.13668877 13.125 39.5625 C13.29257813 40.84253906 13.46015625 42.12257813 13.6328125 43.44140625 C13.9651257 46.66201606 14.06976304 49.76598459 14 53 C15.06992188 52.94199219 16.13984375 52.88398438 17.2421875 52.82421875 C31.60985783 52.30411485 45.03825604 54.77716216 59 58 C59.77520996 58.1762793 60.55041992 58.35255859 61.34912109 58.53417969 C84.95219625 64.11602564 110.6924147 75.01479372 129 91 C129.85464844 91.74507813 130.70929687 92.49015625 131.58984375 93.2578125 C134.09075641 95.47666734 136.5652193 97.70866374 139 100 C139.53334961 100.50128418 140.06669922 101.00256836 140.61621094 101.51904297 C145.23809884 105.98532474 149.09984514 110.8072403 152.875 116 C153.48287354 116.83233154 154.09074707 117.66466309 154.71704102 118.5222168 C159.94400521 125.76568183 164.69507057 133.1760309 169 141 C169.93585937 142.68609375 169.93585937 142.68609375 170.890625 144.40625 C185.7912591 172.65266943 191.34556017 208.95756479 183 240 C182.71793701 241.09078857 182.71793701 241.09078857 182.43017578 242.20361328 C171.55906029 283.50001461 151.62121056 318.72642344 116 343 C115.21737793 343.54124512 114.43475586 344.08249023 113.62841797 344.64013672 C80.48138223 367.52353335 45.67873486 384.97251029 6 393 C4.9800293 393.2072168 3.96005859 393.41443359 2.90917969 393.62792969 C-12.58374195 396.69496209 -28.11028798 398.7137459 -43.8125 400.3125 C-44.65140778 400.39976349 -45.49031555 400.48702698 -46.35464478 400.57693481 C-57.27863077 401.69788296 -68.01585877 402.23063565 -79 402 C-76.05576154 394.05996762 -73.06274911 386.14126507 -70 378.24609375 C-69.6019516 377.21986153 -69.6019516 377.21986153 -69.19586182 376.17289734 C-67.84617472 372.69498042 -66.49411422 369.21800186 -65.13964844 365.74194336 C-64.62953372 364.4295339 -64.11944166 363.11711564 -63.609375 361.8046875 C-63.15530273 360.63921387 -62.70123047 359.47374023 -62.23339844 358.27294922 C-61.07671497 355.20357105 -60.01387048 352.11910095 -59 349 C-59.52464844 348.87625 -60.04929687 348.7525 -60.58984375 348.625 C-82.10278755 342.89776039 -101.67830712 329.79426173 -118 315 C-118.96421875 314.16726563 -119.9284375 313.33453125 -120.921875 312.4765625 C-127.36678189 306.83281807 -132.82905816 300.82277048 -138 294 C-138.40605469 293.46890625 -138.81210938 292.9378125 -139.23046875 292.390625 C-148.14147545 280.65551464 -154.83888756 268.45502859 -160.25 254.75 C-160.56727051 253.96616943 -160.88454102 253.18233887 -161.21142578 252.37475586 C-167.02731124 237.02210183 -168.7013715 221.48135369 -168.5 205.1875 C-168.49512573 204.31935669 -168.49025146 203.45121338 -168.48522949 202.5567627 C-168.36848453 184.78458663 -166.71334154 167.63624876 -160 151 C-159.72800781 150.30132813 -159.45601562 149.60265625 -159.17578125 148.8828125 C-158.19927029 146.54095364 -157.1187695 144.27785503 -156 142 C-155.71560059 141.4112207 -155.43120117 140.82244141 -155.13818359 140.21582031 C-136.09543506 101.17195643 -101.18663443 76.23001508 -60.76757812 62.2265625 C-50.96714642 58.9298311 -41.11701557 56.44253395 -30.9375 54.625 C-30.01066406 54.45726074 -29.08382812 54.28952148 -28.12890625 54.11669922 C-21.71191846 53.05141489 -15.49806951 52.81638108 -9 53 C-8.88398438 51.96875 -8.76796875 50.9375 -8.6484375 49.875 C-7.85629788 43.5490008 -6.71891107 37.27938091 -5.625 31 C-5.40239502 29.71520752 -5.17979004 28.43041504 -4.95043945 27.10668945 C-3.3756912 18.05631367 -1.74694369 9.01877433 0 0 Z " fill="#FEFEFE" transform="translate(3324,369)"/>
<path d="M0 0 C13.2671534 5.60525897 26.3610635 11.52235274 39.375 17.6875 C50.60624639 23.00699432 61.86438538 28.25378721 73.1875 33.375 C87.16978592 39.70079857 101.11366385 46.10676342 115.0402832 52.55419922 C122.27168142 55.90101507 129.50530013 59.24056919 136.76953125 62.515625 C137.90318115 63.02834961 139.03683105 63.54107422 140.20483398 64.06933594 C142.25529001 64.99468614 144.3080482 65.91495911 146.36352539 66.82910156 C147.24129639 67.22581055 148.11906738 67.62251953 149.0234375 68.03125 C150.15144775 68.53495117 150.15144775 68.53495117 151.30224609 69.04882812 C153 70 153 70 154 72 C147.28383248 81.36470486 140.52480618 90.69030974 133.58837891 99.89331055 C127.92642055 107.41030283 122.3565321 114.99456953 116.78222656 122.57666016 C113.85769254 126.55322518 110.92864567 130.52646271 108 134.5 C106.83331112 136.08331696 105.66664447 137.66665031 104.5 139.25 C92.83333333 155.08333333 81.16666667 170.91666667 69.5 186.75 C68.9220166 187.5344751 68.3440332 188.3189502 67.74853516 189.12719727 C66.58701801 190.70340295 65.42523605 192.27941353 64.26318359 193.85522461 C61.26547839 197.92101479 58.27307259 201.99055172 55.2890625 206.06640625 C54.36867188 207.32130859 54.36867188 207.32130859 53.4296875 208.6015625 C52.27429104 210.17710312 51.12049274 211.75381774 49.96875 213.33203125 C48.91880962 214.76238481 47.85032431 216.17937553 46.76074219 217.57976723 C44.94814904 219.9552791 44.94814904 219.9552791 43.61621094 222.58360863 C41.42986726 226.18615409 39.3272169 229.29798988 35.11707687 230.56798792 C29.21259094 231.50787078 23.23065729 231.25149569 17.2734375 231.13525391 C15.25258017 231.13243129 13.23171259 231.13402018 11.21086121 231.13967896 C5.73746582 231.14254392 0.26626954 231.08382689 -5.20661545 231.01393938 C-10.93067979 230.95135202 -16.65479668 230.94554632 -22.37915039 230.9336853 C-33.21311373 230.90262546 -44.0460659 230.82059388 -54.87958431 230.72019041 C-67.21554675 230.60834857 -79.55155794 230.55341705 -91.88790131 230.50323606 C-117.2591611 230.39875893 -142.62952385 230.22290933 -168 230 C-166.65997714 226.52595784 -165.28275872 223.76605321 -163.015625 220.8046875 C-162.41741943 220.01634521 -161.81921387 219.22800293 -161.20288086 218.41577148 C-160.55843018 217.57731689 -159.91397949 216.7388623 -159.25 215.875 C-157.88078271 214.07216703 -156.51231026 212.26876816 -155.14453125 210.46484375 C-154.10353271 209.09561768 -154.10353271 209.09561768 -153.04150391 207.69873047 C-149.97010509 203.6385484 -146.95089237 199.54082455 -143.9375 195.4375 C-143.36483398 194.65874512 -142.79216797 193.87999023 -142.20214844 193.07763672 C-141.04577529 191.50493023 -139.8896871 189.93201418 -138.73388672 188.35888672 C-135.82628363 184.40320367 -132.91276697 180.45188116 -130 176.5 C-129.1347168 175.3253418 -129.1347168 175.3253418 -128.25195312 174.12695312 C-125.32557864 170.15427714 -122.39715707 166.18313858 -119.46484375 162.21484375 C-113.72576358 154.44399909 -108.01586072 146.65500166 -102.375 138.8125 C-97.84829464 132.52140061 -93.2496836 126.2913639 -88.58496094 120.10205078 C-82.92397558 112.5867322 -77.35539278 105.00388079 -71.78222656 97.42333984 C-69.43867626 94.2367535 -67.09217267 91.05234918 -64.74536133 87.86816406 C-63.58093608 86.28823331 -62.41671109 84.70815495 -61.25268555 83.12792969 C-58.32605558 79.15493656 -55.39739887 75.18346582 -52.46484375 71.21484375 C-46.72576358 63.44399909 -41.01586072 55.65500166 -35.375 47.8125 C-30.85626587 41.53247883 -26.26702036 35.31240563 -21.60913086 29.13500977 C-15.82011309 21.45237911 -10.12947089 13.69738614 -4.43530273 5.94433594 C-2.96694013 3.95521537 -1.4858939 1.97604878 0 0 Z " fill="#000000" transform="translate(1247,561)"/>
<path d="M0 0 C1.20602371 -0.00832352 2.41204742 -0.01664703 3.65461731 -0.02522278 C6.94433362 -0.04511277 10.23390312 -0.05594995 13.52367139 -0.06104922 C15.5868921 -0.06470979 17.65008911 -0.07095869 19.7133007 -0.07805061 C26.93420335 -0.10250636 34.15503464 -0.11558738 41.37597656 -0.11914062 C48.06866025 -0.12276691 54.76088287 -0.15260656 61.45342594 -0.19454521 C67.22873642 -0.22944533 73.00389564 -0.24469249 78.77931064 -0.24538666 C82.21550483 -0.24617319 85.65122907 -0.25461803 89.0873127 -0.28338432 C110.0163003 -0.43096007 127.36907228 0.62643945 143.51342773 15.55639648 C155.08503149 27.93274007 160.34337221 42.69767606 160.07592773 59.39624023 C158.84922969 74.74529954 151.82813722 87.81554551 140.76342773 98.30639648 C128.28079903 108.82132017 114.10865214 112.61876678 98.1159668 112.58105469 C96.98461304 112.58616562 95.85325928 112.59127655 94.68762207 112.59654236 C90.9680443 112.61037928 87.2486531 112.60948572 83.52905273 112.60717773 C80.9274692 112.61106842 78.32588629 112.61540386 75.7243042 112.62016296 C70.2773678 112.62835495 64.83048331 112.62748268 59.38354492 112.62207031 C53.11864533 112.61604007 46.85397087 112.62832498 40.58910966 112.64964038 C34.52733564 112.66949429 28.46566557 112.6724165 22.403862 112.66890526 C19.8412193 112.66941614 17.27857283 112.67460981 14.71595001 112.68471718 C11.11994989 112.6971586 7.52445976 112.69024308 3.9284668 112.67871094 C2.88595764 112.68635468 1.84344849 112.69399841 0.76934814 112.70187378 C-16.22327436 112.58241155 -30.49946719 107.08762313 -42.54125977 95.15795898 C-51.24926702 85.94513972 -57.88195433 74.26177169 -58.23657227 61.30639648 C-58.2868457 60.33186523 -58.33711914 59.35733398 -58.38891602 58.35327148 C-58.89580745 41.24061683 -52.85035234 27.59179792 -41.27954102 15.21264648 C-29.63358985 3.9772205 -15.77864761 0.00931518 0 0 Z " fill="#6525EB" transform="translate(3253.236572265625,499.693603515625)"/>
<path d="M0 0 C51.15 0 102.3 0 155 0 C155 46.86 155 93.72 155 142 C151.60854693 140.30427347 150.2059289 139.41745372 147.75 136.8125 C145.3691584 134.29611543 142.87176657 131.99161174 140.2578125 129.72265625 C136.11392624 126.12494873 132.11094816 122.39594054 128.125 118.625 C122.96403572 113.76380822 117.76953779 108.95253542 112.48046875 104.23046875 C108.94109824 101.0478222 105.45030143 97.81357073 101.95629883 94.58129883 C98.31300679 91.21116033 94.66095985 87.8509348 91 84.5 C86.82400369 80.67671073 82.65847196 76.84234165 78.5 73 C72.84114233 67.77184474 67.16617151 62.56155894 61.48388672 57.35888672 C58.48728269 54.61471132 55.49261017 51.8684281 52.49755859 49.12255859 C50.01071125 46.84274634 47.52343204 44.56340942 45.03515625 42.28515625 C39.84702938 37.53392427 34.66729362 32.77388777 29.5 28 C25.29788848 24.11819235 21.09122704 20.24147496 16.875 16.375 C15.90820312 15.488125 14.94140625 14.60125 13.9453125 13.6875 C11.90480494 11.82560451 9.85948311 9.97093933 7.8046875 8.125 C7.03535889 7.43204834 7.03535889 7.43204834 6.25048828 6.72509766 C4.83041619 5.44735625 3.4074801 4.17279997 1.984375 2.8984375 C1.32953125 2.27195313 0.6746875 1.64546875 0 1 C0 0.67 0 0.34 0 0 Z " fill="#000000" transform="translate(2834,226)"/>
<path d="M0 0 C8.78625 -0.061875 17.5725 -0.12375 26.625 -0.1875 C29.36893066 -0.21481201 32.11286133 -0.24212402 34.93994141 -0.27026367 C66.4789553 -0.45561692 66.4789553 -0.45561692 75.38671875 7.26953125 C81.63922984 13.9762199 84.55201774 21.73787866 84.24609375 30.93359375 C83.36641172 38.32013019 80.28016657 44.7542693 75 50 C69.80788034 53.70178902 63.99180461 55.93010386 58 58 C58.47308594 58.29390625 58.94617188 58.5878125 59.43359375 58.890625 C71.26987871 66.91991772 78.24268608 80.82664017 85.60742188 92.75976562 C86.55009964 94.27624725 87.50493335 95.78522835 88.47070312 97.28710938 C88.92896484 98.00189453 89.38722656 98.71667969 89.859375 99.453125 C90.27155273 100.08895508 90.68373047 100.72478516 91.10839844 101.37988281 C92 103 92 103 92 105 C85.93980327 106.36045233 79.91345674 107.40644162 74 105 C68.43415925 99.8391664 65.15454215 92.56791525 61.63037109 85.94677734 C59.19297426 81.54135959 56.36504325 77.46490995 53.4375 73.375 C52.96070801 72.68414307 52.48391602 71.99328613 51.99267578 71.28149414 C48.48063935 66.29975361 44.72295031 62.3960373 39 60 C36.29465143 59.63611114 36.29465143 59.63611114 33.359375 59.5859375 C32.39483398 59.55032715 31.43029297 59.5147168 30.43652344 59.47802734 C29.2199707 59.44402832 28.00341797 59.4100293 26.75 59.375 C22.8725 59.25125 18.995 59.1275 15 59 C15 74.18 15 89.36 15 105 C10.05 105 5.1 105 0 105 C0 70.35 0 35.7 0 0 Z M15 13 C15 23.89 15 34.78 15 46 C19.94438823 46.06931385 24.88705387 46.12890982 29.83154297 46.16479492 C31.50933583 46.17977234 33.18709028 46.20016154 34.86474609 46.22631836 C49.98248835 46.54653345 49.98248835 46.54653345 63.9375 41.25 C67.09229833 37.80840182 68.89090836 34.50474415 69.09765625 29.7578125 C68.73927527 24.56565885 67.5714043 20.93770218 64 17 C58.25174662 13.07393185 53.06732332 12.4448643 46.25 12.609375 C45.35128174 12.61503479 44.45256348 12.62069458 43.52661133 12.62652588 C40.68384292 12.64874081 37.84238105 12.69890751 35 12.75 C33.06121625 12.77008431 31.12241254 12.78833168 29.18359375 12.8046875 C24.45483295 12.84513883 19.72886167 12.92345368 15 13 Z " fill="#000000" transform="translate(459,870)"/>
<path d="M0 0 C5.72013164 5.77120424 9.52439026 12.46379605 9.875 20.703125 C9.83375 21.38375 9.7925 22.064375 9.75 22.765625 C6.59493858 23.70182313 3.78413498 23.8713373 0.5 23.828125 C-0.39203125 23.81910156 -1.2840625 23.81007813 -2.203125 23.80078125 C-2.87859375 23.78917969 -3.5540625 23.77757812 -4.25 23.765625 C-4.46914062 23.02957031 -4.68828125 22.29351563 -4.9140625 21.53515625 C-6.98879531 15.15071421 -8.52125738 11.38993156 -14.25 7.765625 C-22.78296421 3.78839592 -33.38646618 3.77899948 -42.25 6.765625 C-46.60451264 9.06164075 -49.33112671 11.18164992 -51.25 15.765625 C-51.78142347 19.94109515 -51.60180954 22.10880245 -49.60546875 25.8359375 C-46.85725919 29.2541086 -45.28692444 29.96227282 -41.125 31.203125 C-40.49827393 31.39720947 -39.87154785 31.59129395 -39.22583008 31.79125977 C-34.79485504 33.1287856 -30.31466456 34.27184226 -25.83203125 35.421875 C-24.69717285 35.71650635 -23.56231445 36.0111377 -22.39306641 36.31469727 C-20.13788403 36.89450571 -17.87849709 37.45826611 -15.61474609 38.00366211 C-5.46952538 40.58255235 3.89186862 44.6980883 9.75 53.765625 C13.30571097 59.99825906 13.5921953 66.74116092 12.75 73.765625 C11.78188718 77.01749115 10.43281739 79.8280239 8.75 82.765625 C8.193125 83.8175 7.63625 84.869375 7.0625 85.953125 C1.39721185 92.84334032 -7.46296179 97.43994367 -16.25 98.765625 C-31.71970206 99.66324969 -46.41683589 99.5050799 -59.25 89.765625 C-65.0136339 84.58580746 -68.86018924 77.40270394 -70.25 69.765625 C-70.25 67.455625 -70.25 65.145625 -70.25 62.765625 C-65.63 62.435625 -61.01 62.105625 -56.25 61.765625 C-55.734375 63.786875 -55.21875 65.808125 -54.6875 67.890625 C-52.74935566 74.08864909 -50.98075343 77.62710022 -45.25 80.765625 C-36.0537481 85.56828044 -26.11931473 86.24593738 -16.0234375 84.0703125 C-10.06619743 82.15949965 -6.67017356 80.00989113 -3.25 74.765625 C-1.63825689 71.54213878 -1.80005995 68.26081147 -2.25 64.765625 C-4.85627409 59.1186978 -8.68388154 57.00843715 -14.25 54.765625 C-19.00175399 53.27717603 -23.80604849 52.01679294 -28.625 50.765625 C-56.97718667 43.3593395 -56.97718667 43.3593395 -65.375 30.515625 C-67.44440667 21.64673928 -67.27199672 13.83716707 -62.671875 5.8515625 C-56.9567202 -2.532758 -48.84469576 -6.62725773 -39.1640625 -8.67578125 C-25.89567716 -10.62411293 -10.59808056 -8.74341646 0 0 Z " fill="#000000" transform="translate(1342.25,877.234375)"/>
<path d="M0 0 C1.39456452 0.00667256 2.78911118 0.01863093 4.18359375 0.03515625 C5.2499707 0.04192383 5.2499707 0.04192383 6.33789062 0.04882812 C8.09899388 0.06064761 9.86005411 0.07858362 11.62109375 0.09765625 C15.77215184 7.88988983 19.10916226 15.9669679 22.38140869 24.15335083 C24.00618095 28.21763451 25.64510764 32.27622107 27.28125 36.3359375 C27.62681946 37.19458908 27.97238892 38.05324066 28.32843018 38.93791199 C32.203793 48.56130248 36.13002647 58.16380444 40.06069946 67.76470947 C41.22168298 70.60053044 42.38177149 73.43671624 43.54174805 76.27294922 C44.26866872 78.04917359 44.99563667 79.82537861 45.72265625 81.6015625 C46.06591446 82.44092346 46.40917267 83.28028442 46.76283264 84.14508057 C48.2428258 87.75875104 49.7294149 91.36878965 51.25292969 94.96435547 C51.94177246 96.59074951 51.94177246 96.59074951 52.64453125 98.25 C53.03302246 99.15613037 53.42151367 100.06226074 53.82177734 100.99584961 C54.62109375 103.09765625 54.62109375 103.09765625 54.62109375 105.09765625 C49.34109375 105.09765625 44.06109375 105.09765625 38.62109375 105.09765625 C35.03997341 98.18628214 32.00917291 91.26813727 29.30859375 83.97265625 C27.48328125 79.08453125 27.48328125 79.08453125 25.62109375 74.09765625 C11.76109375 74.09765625 -2.09890625 74.09765625 -16.37890625 74.09765625 C-19.95702682 83.92455151 -19.95702682 83.92455151 -23.52905273 93.75366211 C-23.97321533 94.96932861 -24.41737793 96.18499512 -24.875 97.4375 C-25.1073938 98.08013794 -25.3397876 98.72277588 -25.57922363 99.3848877 C-27.26483445 103.98358445 -27.26483445 103.98358445 -28.37890625 105.09765625 C-30.90940027 105.17079192 -33.41195462 105.19013152 -35.94140625 105.16015625 C-36.65232422 105.15564453 -37.36324219 105.15113281 -38.09570312 105.14648438 C-39.85680638 105.13466489 -41.61786661 105.11672888 -43.37890625 105.09765625 C-41.29503928 97.72984255 -38.77327043 90.60262627 -36.01953125 83.4609375 C-35.59776611 82.35849197 -35.17600098 81.25604645 -34.74145508 80.12019348 C-33.37413378 76.54881718 -32.00167607 72.97944138 -30.62890625 69.41015625 C-29.68430334 66.94720524 -28.73996933 64.48415108 -27.79589844 62.02099609 C-25.89849435 57.07230515 -23.99891967 52.12445552 -22.09765625 47.17724609 C-19.99134373 41.69524469 -17.8911095 36.21095692 -15.79522705 30.72496033 C-14.39783473 27.06757473 -12.9982256 23.41104052 -11.59802246 19.75473022 C-10.9534586 18.07063562 -10.30965604 16.38624944 -9.66662598 14.7015686 C-8.78681901 12.39771179 -7.90366675 10.09516721 -7.01953125 7.79296875 C-6.76324951 7.11966019 -6.50696777 6.44635162 -6.24291992 5.75263977 C-4.07153273 0.11767436 -4.07153273 0.11767436 0 0 Z M3.62109375 14.09765625 C3.30398438 15.15597656 2.986875 16.21429687 2.66015625 17.3046875 C-0.85533466 28.82095084 -4.8861626 40.1013546 -9.12646484 51.37036133 C-9.7580249 53.04908325 -9.7580249 53.04908325 -10.40234375 54.76171875 C-10.78310059 55.7667041 -11.16385742 56.77168945 -11.55615234 57.80712891 C-12.43524818 59.84887556 -12.43524818 59.84887556 -12.37890625 61.09765625 C-1.48890625 61.09765625 9.40109375 61.09765625 20.62109375 61.09765625 C19.80640504 56.01081315 19.80640504 56.01081315 18.34594727 51.29882812 C18.0922084 50.61792114 17.83846954 49.93701416 17.57704163 49.23547363 C17.30411789 48.5196814 17.03119415 47.80388916 16.75 47.06640625 C16.46760971 46.3122644 16.18521942 45.55812256 15.89427185 44.78112793 C14.99582107 42.38468053 14.08999858 39.99110512 13.18359375 37.59765625 C12.28228709 35.2036584 11.38252195 32.80908906 10.48362732 30.41418457 C9.92551796 28.9287494 9.3657635 27.44393094 8.80409241 25.95983887 C7.3220552 22.03159928 5.91973855 18.09156476 4.62109375 14.09765625 C4.29109375 14.09765625 3.96109375 14.09765625 3.62109375 14.09765625 Z " fill="#000000" transform="translate(318.37890625,869.90234375)"/>
<path d="M0 0 C5.27866459 1.06507569 10.84688651 0.57913026 16.20703125 0.4453125 C20.79360838 10.92587423 24.57912498 21.66691382 28.39453125 32.4453125 C29.33726968 35.10599948 30.28099265 37.76631634 31.2278595 40.42553711 C31.81242879 42.06740179 32.39464949 43.71010515 32.97416687 45.35375977 C33.23816788 46.09553467 33.50216888 46.83730957 33.77416992 47.6015625 C34.1179493 48.57319336 34.1179493 48.57319336 34.46867371 49.56445312 C35.25884293 51.57729529 36.23998409 53.51121819 37.20703125 55.4453125 C43.80703125 37.2953125 50.40703125 19.1453125 57.20703125 0.4453125 C61.82703125 0.4453125 66.44703125 0.4453125 71.20703125 0.4453125 C70.35065048 4.72721637 69.24103455 8.32560958 67.72265625 12.39453125 C67.47052368 13.07285004 67.21839111 13.75116882 66.95861816 14.45004272 C66.12867074 16.67911553 65.29304368 18.90600798 64.45703125 21.1328125 C63.87776745 22.68345177 63.29866819 24.23415252 62.71972656 25.78491211 C58.5102219 37.04280411 54.24590326 48.2799437 49.95703125 59.5078125 C49.67331665 60.25090668 49.38960205 60.99400085 49.09729004 61.75961304 C48.29671873 63.85460057 47.49446739 65.94893454 46.69140625 68.04296875 C46.00643066 69.82973022 46.00643066 69.82973022 45.30761719 71.65258789 C44.20703125 74.4453125 44.20703125 74.4453125 43.20703125 76.4453125 C39.24703125 76.4453125 35.28703125 76.4453125 31.20703125 76.4453125 C27.54608816 69.53647492 24.78589067 62.3957088 22.0390625 55.08203125 C21.55428346 53.80014385 21.06914424 52.51839261 20.58366394 51.23677063 C19.31607961 47.88735899 18.0536753 44.5360181 16.79229736 41.18426514 C15.75977116 38.4432306 14.72360537 35.70357899 13.68724537 32.96399212 C11.5466036 27.30513421 9.40879352 21.64520526 7.27661133 15.9831543 C6.90006912 14.983582 6.52352692 13.9840097 6.13557434 12.95414734 C5.46027525 11.12955363 4.82226869 9.29102482 4.20703125 7.4453125 C2.88703125 10.0853125 1.56703125 12.7253125 0.20703125 15.4453125 C-0.63859375 15.1153125 -1.48421875 14.7853125 -2.35546875 14.4453125 C-7.52054599 12.94274458 -11.09814657 12.66308688 -16.04296875 14.9453125 C-21.37415255 19.79184323 -22.52996962 26.70076107 -22.91905212 33.71987915 C-23.00393903 36.43818907 -23.06170647 39.15578228 -23.109375 41.875 C-23.1301561 42.86533234 -23.15093719 43.85566467 -23.17234802 44.87600708 C-23.23747195 48.02404168 -23.29655504 51.17215617 -23.35546875 54.3203125 C-23.39868934 56.4609456 -23.44230474 58.60157076 -23.48632812 60.7421875 C-23.59311507 65.97648165 -23.69448623 71.21085578 -23.79296875 76.4453125 C-28.08296875 76.4453125 -32.37296875 76.4453125 -36.79296875 76.4453125 C-36.79296875 51.3653125 -36.79296875 26.2853125 -36.79296875 0.4453125 C-32.83296875 0.4453125 -28.87296875 0.4453125 -24.79296875 0.4453125 C-24.46296875 2.7553125 -24.13296875 5.0653125 -23.79296875 7.4453125 C-23.41785156 6.96320312 -23.04273438 6.48109375 -22.65625 5.984375 C-16.21322616 -1.96797181 -9.6791175 -3.21881659 0 0 Z " fill="#000000" transform="translate(1485.79296875,898.5546875)"/>
<path d="M0 0 C9.7655276 6.95024037 14.80907551 15.27375632 17 27 C18.40957911 40.47327869 16.87509756 53.86544429 8.6953125 65.06640625 C3.02913064 71.52898694 -3.77968979 75.50486519 -12.3359375 76.31640625 C-22.17344119 76.64152631 -27.2962791 74.77779068 -35 69 C-35 80.22 -35 91.44 -35 103 C-39.62 103 -44.24 103 -49 103 C-49 68.68 -49 34.36 -49 -1 C-44.71 -1 -40.42 -1 -36 -1 C-35.67 0.98 -35.34 2.96 -35 5 C-34.49210938 4.59007812 -33.98421875 4.18015625 -33.4609375 3.7578125 C-23.81099694 -3.79588629 -11.24874994 -6.19667979 0 0 Z M-31.640625 16.26171875 C-35.61922883 23.17854438 -36.20416706 28.88965 -36.25 36.75 C-36.270625 37.61882813 -36.29125 38.48765625 -36.3125 39.3828125 C-36.36746566 48.53459422 -34.02979674 54.68513291 -27.75390625 61.3671875 C-23.95914218 64.89995226 -20.25983741 65.46774981 -15.1171875 65.3125 C-9.82804813 64.53181522 -6.03419699 61.96525053 -2.1875 58.375 C4.31894057 49.45062543 4.02020466 37.55112864 3 27 C1.6215781 19.5443847 -1.20100607 14.97308918 -7.09765625 10.2421875 C-15.80827384 4.55435096 -25.90786339 8.35869738 -31.640625 16.26171875 Z " fill="#000000" transform="translate(838,900)"/>
<path d="M0 0 C7.1050346 5.55453544 10.78690504 14.08279337 12.875 22.625 C13.33654345 27.33274316 13.1875 32.08218626 13.1875 36.8125 C-5.2925 36.8125 -23.7725 36.8125 -42.8125 36.8125 C-39.72737995 49.78668172 -39.72737995 49.78668172 -31.1875 58.75 C-25.15530273 61.44861457 -19.39801513 61.64512352 -13.125 59.625 C-7.35939425 56.47023459 -4.4493295 52.78006149 -1.8125 46.8125 C7.59752278 46.62798975 7.59752278 46.62798975 12.1875 47.8125 C11.85815932 54.06997301 8.97564358 58.97803451 5.1875 63.8125 C-4.69536387 72.67131712 -14.97729548 73.64537213 -27.67724609 72.99902344 C-36.81450984 72.2008449 -43.93105566 67.69982517 -49.8125 60.8125 C-57.52720506 48.92921348 -58.61686697 34.72626626 -56.125 21.03515625 C-53.36169046 11.16783845 -48.24251688 3.68963595 -39.8125 -2.1875 C-27.18002573 -9.11236812 -11.94352022 -7.52676986 0 0 Z M-38.4375 13.82421875 C-41.41873737 18.13515575 -41.8125 20.49049896 -41.8125 25.8125 C-28.6125 25.8125 -15.4125 25.8125 -1.8125 25.8125 C-2.7798364 17.10647236 -3.21483356 14.31293221 -9.125 8.5625 C-19.59635363 1.74394415 -30.98043943 4.38206104 -38.4375 13.82421875 Z " fill="#000000" transform="translate(762.8125,903.1875)"/>
<path d="M0 0 C9.29514161 6.5385595 14.25459221 13.99549867 16.3125 25.125 C17.03193652 29.89044189 17 34.05823278 17 39 C-1.48 39 -19.96 39 -39 39 C-36.02308785 52.25901205 -36.02308785 52.25901205 -27 61 C-21.88736217 63.27228348 -16.42430496 64.11869724 -11.0390625 62.359375 C-9.33545283 61.6261759 -7.6653626 60.81635422 -6 60 C-5.01 59.67 -4.02 59.34 -3 59 C-1.91568906 57.25132517 -1.91568906 57.25132517 -1 55 C0 53 1 51 2 49 C11.41002278 48.81548975 11.41002278 48.81548975 16 50 C15.44193783 57.440829 11.60998949 62.74204941 6.3125 67.75 C-3.42965032 75.61935248 -13.91570194 76.24384686 -26 75 C-34.75024149 73.41382177 -41.31418055 68.76151502 -47 62 C-51.91611357 53.63695623 -53.19683551 46.39144427 -53.25 36.875 C-53.270625 35.97523438 -53.29125 35.07546875 -53.3125 34.1484375 C-53.3773357 22.86702526 -50.02650672 13.84161592 -42.6875 5.3125 C-30.67826619 -5.02102677 -14.2833219 -7.95662526 0 0 Z M-32.875 13.0625 C-36.48018874 16.9688182 -39 22.57471362 -39 28 C-25.47 28 -11.94 28 2 28 C1.05136229 20.41089833 0.22992033 15.65119989 -5.5703125 10.64453125 C-14.44654024 4.92658919 -25.08808349 6.14261411 -32.875 13.0625 Z " fill="#000000" transform="translate(1717,901)"/>
<path d="M0 0 C9.26482587 6.58563182 14.05247742 14.73072484 16.03125 25.80078125 C16.73054328 30.24973333 16.78125 34.06759187 16.78125 38.67578125 C-1.69875 38.67578125 -20.17875 38.67578125 -39.21875 38.67578125 C-36.21832092 51.94196216 -36.21832092 51.94196216 -27.21875 60.67578125 C-22.7346476 63.16694925 -18.22128614 63.20961471 -13.21875 62.67578125 C-7.1129503 60.91648303 -3.7569668 57.76949893 -0.21875 52.67578125 C0.47468338 51.35617056 1.14922562 50.02588028 1.78125 48.67578125 C11.19127278 48.491271 11.19127278 48.491271 15.78125 49.67578125 C15.40198708 57.07140824 10.81255114 63.0209886 5.59375 67.98828125 C-3.73383568 75.25206272 -14.87049734 75.91167381 -26.21875 74.67578125 C-35.04831642 73.03987385 -41.32418287 68.32775086 -47.21875 61.67578125 C-48.97059807 59.10260603 -50.21974246 56.61850998 -51.21875 53.67578125 C-51.57195312 52.66128906 -51.92515625 51.64679687 -52.2890625 50.6015625 C-55.47760126 39.12770028 -54.81002125 23.17808006 -49.21875 12.67578125 C-44.32289844 4.35153497 -37.70161655 -0.04831188 -28.90625 -3.69921875 C-19.01404119 -5.37586431 -8.80493101 -5.25505566 0 0 Z M-32.09375 12.11328125 C-32.795 12.95890625 -33.49625 13.80453125 -34.21875 14.67578125 C-34.775625 15.25328125 -35.3325 15.83078125 -35.90625 16.42578125 C-37.89881561 19.57925516 -37.89881561 19.57925516 -39.21875 27.67578125 C-25.68875 27.67578125 -12.15875 27.67578125 1.78125 27.67578125 C0.83261229 20.08667958 0.01117033 15.32698114 -5.7890625 10.3203125 C-14.26276246 4.86167322 -24.47470791 5.6536586 -32.09375 12.11328125 Z " fill="#000000" transform="translate(1419.21875,901.32421875)"/>
<path d="M0 0 C9.00290963 7.33191504 13.29301911 16.02804837 14.75 27.4921875 C14.75 30.7921875 14.75 34.0921875 14.75 37.4921875 C-3.73 37.4921875 -22.21 37.4921875 -41.25 37.4921875 C-38.27308785 50.75119955 -38.27308785 50.75119955 -29.25 59.4921875 C-23.20502167 62.17884454 -17.75410713 62.29859488 -11.5625 60.3046875 C-5.79689425 57.14992209 -2.8868295 53.45974899 -0.25 47.4921875 C9.16002278 47.30767725 9.16002278 47.30767725 13.75 48.4921875 C13.23230379 55.39480369 9.78088603 60.14063526 5.375 65.2421875 C-4.14973551 73.40624651 -14.08564141 74.28512394 -26.09863281 73.67871094 C-34.16903646 72.97900731 -40.45317014 69.44599866 -46.23828125 63.91015625 C-55.64953935 52.59837225 -56.36211797 39.53376012 -55.25 25.4921875 C-53.20888639 14.86359072 -48.7285231 6.32810045 -40.25 -0.5078125 C-27.83760621 -7.57627689 -12.06965937 -8.08834812 0 0 Z M-33.30078125 10.30078125 C-38.1044152 15.56190415 -40.25 19.24312371 -40.25 26.4921875 C-27.05 26.4921875 -13.85 26.4921875 -0.25 26.4921875 C-1.20690199 17.88006958 -1.57245542 15.15640451 -7.25 9.4921875 C-15.0974252 4.08618347 -25.99008009 3.85343908 -33.30078125 10.30078125 Z " fill="#000000" transform="translate(226.25,902.5078125)"/>
<path d="M0 0 C7.96958434 6.51908739 10.65101509 14.31757543 12.625 24.1875 C12.625 28.1475 12.625 32.1075 12.625 36.1875 C-5.855 36.1875 -24.335 36.1875 -43.375 36.1875 C-39.60085925 50.489095 -39.60085925 50.489095 -29.375 59.1875 C-23.59434251 60.94989558 -17.70068644 61.09604285 -12.125 58.625 C-7.08032598 55.80562131 -4.17893972 51.59931916 -2.375 46.1875 C2.75083611 46.08498328 7.57497778 46.15159801 12.625 47.1875 C10.0603562 55.85312875 7.00576701 62.86286584 -0.91015625 67.75390625 C-10.83753861 72.88573424 -21.70659936 73.78508347 -32.65625 71.50390625 C-41.40541074 68.5424628 -48.96017419 63.4632001 -53.375 55.1875 C-59.14765762 41.1543867 -59.06751241 25.78076595 -53.37890625 11.7265625 C-49.8470831 4.56514947 -43.95049498 -1.43913218 -36.625 -4.75 C-23.90020883 -8.91002788 -11.06706835 -7.71591868 0 0 Z M-40.1875 14.5 C-41.85733977 17.93066054 -41.85733977 17.93066054 -42.375 25.1875 C-28.845 25.1875 -15.315 25.1875 -1.375 25.1875 C-3.3337989 16.37290496 -4.78940768 11.12695546 -12.375 6.1875 C-23.56235578 2.19201579 -32.85415229 5.14365982 -40.1875 14.5 Z " fill="#000000" transform="translate(613.375,903.8125)"/>
<path d="M0 0 C4.62 0 9.24 0 14 0 C14.33 11.55 14.66 23.1 15 35 C17.97 32.525 17.97 32.525 21 30 C28.77889037 25.82561378 38.45327477 25.7325812 46.8125 28.125 C52.57824325 30.36432678 57.28255021 33.84166128 59.875 39.5625 C61.4664338 44.42521438 62.12486667 48.6851331 62.11352539 53.80004883 C62.11344986 54.94085403 62.11337433 56.08165924 62.11329651 57.2570343 C62.10813522 58.47803329 62.10297394 59.69903229 62.09765625 60.95703125 C62.0962413 62.21513107 62.09482635 63.4732309 62.09336853 64.76945496 C62.08872573 68.10178529 62.07975228 71.43404632 62.06866455 74.76635742 C62.05840503 78.17170617 62.05386121 81.5770621 62.04882812 84.98242188 C62.0378083 91.65496698 62.021077 98.32747949 62 105 C59.85423363 105.02685938 57.70837355 105.04633088 55.5625 105.0625 C54.36753906 105.07410156 53.17257813 105.08570313 51.94140625 105.09765625 C49 105 49 105 48 104 C47.89262277 102.31355076 47.85375788 100.62268656 47.84228516 98.93286133 C47.83202301 97.85116165 47.82176086 96.76946198 47.81118774 95.65498352 C47.80388641 94.47590927 47.79658508 93.29683502 47.7890625 92.08203125 C47.76098596 89.60611327 47.73232145 87.1302019 47.703125 84.65429688 C47.66189194 80.73494709 47.62502168 76.81571965 47.59863281 72.89624023 C47.57101028 69.12457451 47.52512547 65.35347772 47.4765625 61.58203125 C47.47330963 60.41307816 47.47005676 59.24412506 47.46670532 58.03974915 C47.37884383 50.09055781 47.37884383 50.09055781 44 43 C39.07315477 39.3949913 33.88189404 39.19214727 28 40 C23.33023142 41.4153237 20.61085602 43.23251423 17.5625 47.0625 C15.51256216 50.91638314 14.87067496 53.7044347 14.81054688 58.00634766 C14.79382935 59.02395172 14.77711182 60.04155579 14.7598877 61.08999634 C14.74631226 62.18693817 14.73273682 63.28388 14.71875 64.4140625 C14.70034058 65.53944427 14.68193115 66.66482605 14.66296387 67.8243103 C14.58413946 72.64937678 14.51635591 77.47458372 14.44775391 82.29980469 C14.3961816 85.81713094 14.3388842 89.33433122 14.28125 92.8515625 C14.26767456 93.9525528 14.25409912 95.05354309 14.2401123 96.18789673 C14.22339478 97.19919647 14.20667725 98.21049622 14.18945312 99.25244141 C14.17692505 100.1471817 14.16439697 101.041922 14.15148926 101.96377563 C14 104 14 104 13 105 C8.71 105 4.42 105 0 105 C0 70.35 0 35.7 0 0 Z " fill="#000000" transform="translate(96,870)"/>
<path d="M0 0 C1.29652177 1.07388672 2.56774169 2.17901946 3.8125 3.3125 C4.44285156 3.87710938 5.07320312 4.44171875 5.72265625 5.0234375 C13.47076356 12.82089582 15.16893989 22.75390458 15.25 33.375 C15.08284754 44.54616116 13.3918314 54.66759366 5.8125 63.3125 C-2.47729682 71.28140146 -11.6810054 73.92245502 -22.92724609 73.78515625 C-32.41675487 73.39653626 -40.31474287 69.91921491 -47.1875 63.3125 C-56.14742267 53.09290567 -57.07711209 40.28221736 -56.3515625 27.26464844 C-55.57924729 18.07501682 -51.98196101 8.9315539 -45.265625 2.4609375 C-32.55651643 -7.53886498 -13.58412494 -9.55052462 0 0 Z M-37.1875 13.3125 C-43.10195405 22.65809566 -43.32503071 33.50632596 -41.76171875 44.234375 C-40.17130293 50.51798107 -37.08178483 55.07823284 -32.1875 59.3125 C-26.97965333 62.39863136 -22.11736076 63.21220301 -16.1875 62.3125 C-9.223183 60.17745391 -4.65359489 55.73285876 -1.15234375 49.45703125 C2.37616098 40.97220824 2.21857654 28.95587229 -0.3125 20.1875 C-2.5818532 14.68991196 -6.11034439 10.6671667 -11.0625 7.4375 C-21.06145503 3.83787619 -29.705737 5.48274802 -37.1875 13.3125 Z " fill="#000000" transform="translate(989.1875,902.6875)"/>
<path d="M0 0 C7.72192576 5.61179834 12.95109657 11.51916502 15 21 C15.74777502 29.37508022 13.60125866 38.06829096 8.5 44.875 C2.53590643 50.95867439 -5.15860203 54.33512333 -13.625 54.625 C-21.25874995 54.23188473 -28.83312869 52.00160991 -34.62109375 46.7578125 C-40.13730588 39.72581404 -43.87098733 30.95872686 -43 22 C-40.82645299 12.53867774 -35.93062819 5.57820384 -28 0 C-19.33384262 -4.43457423 -8.62438109 -4.62700242 0 0 Z " fill="#FDFCFE" transform="translate(3342,309)"/>
<path d="M0 0 C6.50064624 5.29122368 8.32919684 9.03768102 9.6875 17.1875 C5.3975 17.8475 1.1075 18.5075 -3.3125 19.1875 C-7.3125 12.4375 -7.3125 12.4375 -7.3125 10.1875 C-14.53765059 7.41341832 -20.6839765 6.54140958 -28.3125 8.1875 C-30.78290021 9.3732921 -32.41189443 10.28689443 -34.3125 12.1875 C-34.89664702 15.56056618 -34.89664702 15.56056618 -34.3125 19.1875 C-29.09616323 23.84332918 -22.5729327 24.9938406 -15.9375 26.6875 C3.32465747 31.63868836 3.32465747 31.63868836 8.125 37.8125 C8.59808594 38.40289063 9.07117187 38.99328125 9.55859375 39.6015625 C13.16236472 44.66429957 12.26102389 51.25022432 11.6875 57.1875 C9.36383467 63.66772185 4.43294334 68.15483057 -1.5078125 71.37890625 C-11.56463385 75.79222082 -24.25291265 75.97439582 -34.625 72.4375 C-41.76063271 69.30000043 -45.88370527 65.14520026 -49.3125 58.1875 C-50.19374017 55.51652465 -50.76862926 52.95629647 -51.3125 50.1875 C-46.60276351 48.42134882 -42.28166636 47.70155169 -37.3125 47.1875 C-36.98378906 48.20070313 -36.98378906 48.20070313 -36.6484375 49.234375 C-34.59220173 55.01858293 -33.11125145 58.4089316 -27.3125 61.1875 C-21.54740728 62.94209344 -15.00355766 63.16235003 -9.375 60.875 C-5.67801239 58.83788438 -3.87303234 57.82597915 -2.5 53.8125 C-2.26686197 50.54856763 -2.68758312 49.0355686 -4.3125 46.1875 C-7.25493803 44.65216434 -7.25493803 44.65216434 -10.875 43.6875 C-11.85907837 43.38404663 -11.85907837 43.38404663 -12.86303711 43.07446289 C-16.51713534 41.95935441 -20.19749107 40.93703536 -23.875 39.90234375 C-24.62579834 39.68835938 -25.37659668 39.474375 -26.15014648 39.25390625 C-27.59688986 38.84495081 -29.04685662 38.44717603 -30.50024414 38.0625 C-37.45811197 36.12581693 -43.62838808 32.5934558 -47.3125 26.1875 C-49.6983314 19.91927023 -49.60332869 14.66788171 -47.359375 8.37890625 C-44.35611142 2.09222391 -38.19570424 -1.7827842 -31.8125 -4.0625 C-20.84789804 -6.39405329 -9.82850355 -5.37786044 0 0 Z " fill="#000000" transform="translate(1172.3125,901.8125)"/>
<path d="M0 0 C27.39 0 54.78 0 83 0 C83 4.29 83 8.58 83 13 C71.78 13 60.56 13 49 13 C49.00523682 15.75142334 49.01047363 18.50284668 49.01586914 21.33764648 C49.03240391 30.40608302 49.04347077 39.4745202 49.05181217 48.5429678 C49.05704131 54.04370862 49.06413951 59.54443405 49.07543945 65.04516602 C49.08626725 70.3489656 49.0922766 75.65275035 49.09487724 80.95656013 C49.09673169 82.98485612 49.10035267 85.01315126 49.10573006 87.04144096 C49.11293906 89.87196514 49.113991 92.70242718 49.11352539 95.53295898 C49.11712067 96.38028091 49.12071594 97.22760284 49.12442017 98.1006012 C49.11405216 103.88594784 49.11405216 103.88594784 48 105 C43.38 105 38.76 105 34 105 C34 74.64 34 44.28 34 13 C22.78 13 11.56 13 0 13 C0 8.71 0 4.42 0 0 Z " fill="#000000" transform="translate(3,870)"/>
<path d="M0 0 C8.15459032 9.14302551 7.21775919 21.67061216 7.1953125 33.19140625 C7.19626923 34.28468735 7.19722595 35.37796844 7.19821167 36.50437927 C7.19888764 38.79434263 7.19707434 41.08430798 7.19287109 43.37426758 C7.18746772 46.89603893 7.19285956 50.41768545 7.19921875 53.93945312 C7.19855878 56.16927112 7.19727929 58.39908903 7.1953125 60.62890625 C7.19733673 61.68606339 7.19936096 62.74322052 7.20144653 63.83241272 C7.19671829 65.28544044 7.19671829 65.28544044 7.19189453 66.76782227 C7.19109894 67.62368423 7.19030334 68.4795462 7.18948364 69.36134338 C7.0625 71.3125 7.0625 71.3125 6.0625 72.3125 C3.87610547 72.38508946 1.68749611 72.39623783 -0.5 72.375 C-2.29630859 72.36146484 -2.29630859 72.36146484 -4.12890625 72.34765625 C-5.51916016 72.33025391 -5.51916016 72.33025391 -6.9375 72.3125 C-6.94336624 71.65152817 -6.94923248 70.99055634 -6.95527649 70.30955505 C-7.01933355 63.41466882 -7.10378545 56.52024401 -7.19995117 49.62573242 C-7.23315442 47.05450534 -7.26120058 44.48320618 -7.28393555 41.91186523 C-7.31756514 38.21046302 -7.3698877 34.5097186 -7.42578125 30.80859375 C-7.43217117 29.66353867 -7.4385611 28.51848358 -7.44514465 27.33872986 C-7.55666411 21.25072061 -7.93294935 16.66175132 -10.9375 11.3125 C-15.01448058 7.49033071 -19.1311626 6.96099235 -24.5234375 7.03125 C-29.67948015 7.631954 -33.50283631 10.02885354 -37.3125 13.4375 C-41.36553391 20.6082523 -41.254188 29.3046259 -41.3515625 37.3515625 C-41.37092865 38.35843109 -41.3902948 39.36529968 -41.4102478 40.40267944 C-41.46945608 43.58087002 -41.51619152 46.759098 -41.5625 49.9375 C-41.60073397 52.10808767 -41.63978874 54.27866104 -41.6796875 56.44921875 C-41.77510849 61.73686143 -41.85935332 67.02457496 -41.9375 72.3125 C-46.2275 72.3125 -50.5175 72.3125 -54.9375 72.3125 C-54.9375 47.2325 -54.9375 22.1525 -54.9375 -3.6875 C-50.9775 -3.6875 -47.0175 -3.6875 -42.9375 -3.6875 C-42.6075 -1.3775 -42.2775 0.9325 -41.9375 3.3125 C-41.4528125 2.91417969 -40.968125 2.51585937 -40.46875 2.10546875 C-27.66947899 -8.01087815 -14.19661153 -8.15550024 0 0 Z " fill="#000000" transform="translate(1071.9375,902.6875)"/>
<path d="M0 0 C3.88451261 3.67858664 6.39468619 8.3435345 8.125 13.375 C8.125 15.025 8.125 16.675 8.125 18.375 C3.835 19.035 -0.455 19.695 -4.875 20.375 C-5.41125 18.993125 -5.9475 17.61125 -6.5 16.1875 C-8.64676595 11.43768683 -10.3871265 9.08465947 -14.875 6.375 C-21.09701543 4.52801954 -26.20013289 5.40067272 -31.875 8.375 C-37.11475884 11.47122114 -39.27276404 15.65612808 -40.875 21.375 C-42.60098941 32.69398851 -42.92830186 45.66525978 -35.875 55.375 C-30.71518131 59.56735269 -26.64419448 60.763382 -20.03125 60.65234375 C-14.73970725 59.97172865 -10.94355438 57.6122735 -7.5 53.625 C-5.6149963 49.8549926 -4.72745404 46.49519452 -3.875 42.375 C-2.10344346 42.48929397 -0.33273771 42.61683037 1.4375 42.75 C2.42363281 42.81960938 3.40976562 42.88921875 4.42578125 42.9609375 C7.125 43.375 7.125 43.375 10.125 45.375 C7.63029075 55.85715552 3.70060836 63.31333599 -5.53125 69.18359375 C-14.68482311 73.83666008 -26.15239209 73.98084635 -35.875 70.8125 C-44.74163616 66.97073411 -49.69661852 61.3507414 -53.68359375 52.60546875 C-58.77530225 38.79942637 -57.99137982 22.72876817 -51.875 9.375 C-47.64508578 1.53838776 -40.54465271 -3.41769558 -32.0625 -6 C-20.77988751 -8.18373145 -9.34357953 -7.08823275 0 0 Z " fill="#000000" transform="translate(691.875,903.625)"/>
<path d="M0 0 C6.24650348 4.00295781 9.30011733 10.04317539 11.81640625 16.88671875 C11.81640625 18.20671875 11.81640625 19.52671875 11.81640625 20.88671875 C5.38140625 21.38171875 5.38140625 21.38171875 -1.18359375 21.88671875 C-1.90546875 20.48421875 -2.62734375 19.08171875 -3.37109375 17.63671875 C-5.89892403 13.15844561 -7.97628 9.78251146 -13.18359375 8.328125 C-18.95306628 7.3565298 -24.03826172 8.04324579 -29.18359375 10.88671875 C-34.98541874 15.9199259 -37.10314677 21.41362711 -38.18359375 28.88671875 C-38.76215381 39.61026212 -38.68245008 50.45526354 -31.18359375 58.88671875 C-26.71602932 62.34956891 -22.0308389 63.56593222 -16.421875 63.265625 C-11.85405227 62.49236356 -7.88672559 60.92845543 -4.8671875 57.30859375 C-2.48936772 53.41282997 -1.26350968 49.29637547 -0.18359375 44.88671875 C4.10640625 45.54671875 8.39640625 46.20671875 12.81640625 46.88671875 C12.325074 55.89447658 9.07380092 62.06627403 2.50390625 68.26171875 C-6.3421051 75.51776074 -15.08471233 75.83524791 -26.18359375 74.88671875 C-34.44732729 73.26457846 -40.71883179 69.26410696 -46.18359375 62.88671875 C-53.64227489 51.72605161 -54.48174123 38.47555605 -52.71875 25.453125 C-50.92623171 16.44810708 -47.73796781 8.462521 -40.49609375 2.51171875 C-28.10590452 -5.7484074 -13.30256346 -6.78216563 0 0 Z " fill="#000000" transform="translate(1646.18359375,901.11328125)"/>
<path d="M0 0 C0 8.58 0 17.16 0 26 C4.29 26 8.58 26 13 26 C13 29.3 13 32.6 13 36 C8.71 36 4.42 36 0 36 C0.0687439 43.06618887 0.15664637 50.13177845 0.26245117 57.19750977 C0.29574176 59.60206467 0.32376067 62.00669851 0.34643555 64.41137695 C0.3799051 67.86443779 0.43221797 71.31677261 0.48828125 74.76953125 C0.49467117 75.84773636 0.5010611 76.92594147 0.50764465 78.03681946 C0.53733589 79.53803596 0.53733589 79.53803596 0.56762695 81.06958008 C0.57873001 81.95116287 0.58983307 82.83274567 0.60127258 83.74104309 C1.08073741 86.45741104 1.81473506 87.36185168 4 89 C6.28330101 89.36146457 6.28330101 89.36146457 8.6875 89.1875 C9.49574219 89.16042969 10.30398438 89.13335938 11.13671875 89.10546875 C12.05904297 89.05326172 12.05904297 89.05326172 13 89 C13.36098063 90.97793521 13.71361348 92.95739573 14.0625 94.9375 C14.25972656 96.03964844 14.45695312 97.14179687 14.66015625 98.27734375 C14.77230469 99.17582031 14.88445312 100.07429687 15 101 C12.42596919 103.57403081 6.44018981 102.91916003 3 103 C-2.63502589 102.46579265 -7.01292352 101.22871748 -11 97 C-12.80256399 93.31317507 -13.24548205 90.37427422 -13.22705078 86.29174805 C-13.22689972 85.17096359 -13.22674866 84.05017914 -13.22659302 82.89543152 C-13.21627045 81.6963063 -13.20594788 80.49718109 -13.1953125 79.26171875 C-13.1924826 78.02581497 -13.18965271 76.78991119 -13.18673706 75.51655579 C-13.17745218 72.24335003 -13.15950633 68.97034356 -13.1373291 65.69720459 C-13.11680817 62.35219152 -13.10789268 59.00716974 -13.09765625 55.66210938 C-13.07561795 49.10799526 -13.04215661 42.55401392 -13 36 C-16.3 36 -19.6 36 -23 36 C-23 32.7 -23 29.4 -23 26 C-19.7 26 -16.4 26 -13 26 C-13.10441406 24.69804688 -13.20882813 23.39609375 -13.31640625 22.0546875 C-14.08264235 8.43477451 -14.08264235 8.43477451 -11.06640625 4.4375 C-8.74151276 2.94956817 -6.60581107 1.89368972 -4 1 C-2 0 -2 0 0 0 Z " fill="#000000" transform="translate(1213,873)"/>
<path d="M0 0 C0 8.58 0 17.16 0 26 C4.29 26 8.58 26 13 26 C13 29.3 13 32.6 13 36 C8.71 36 4.42 36 0 36 C0.0687439 43.06618887 0.15664637 50.13177845 0.26245117 57.19750977 C0.29574176 59.60206467 0.32376067 62.00669851 0.34643555 64.41137695 C0.3799051 67.86443779 0.43221797 71.31677261 0.48828125 74.76953125 C0.49467117 75.84773636 0.5010611 76.92594147 0.50764465 78.03681946 C0.53733589 79.53803596 0.53733589 79.53803596 0.56762695 81.06958008 C0.57873001 81.95116287 0.58983307 82.83274567 0.60127258 83.74104309 C1.08073741 86.45741104 1.81473506 87.36185168 4 89 C6.28330101 89.36146457 6.28330101 89.36146457 8.6875 89.1875 C9.49574219 89.16042969 10.30398438 89.13335938 11.13671875 89.10546875 C12.05904297 89.05326172 12.05904297 89.05326172 13 89 C13.36098063 90.97793521 13.71361348 92.95739573 14.0625 94.9375 C14.25972656 96.03964844 14.45695313 97.14179687 14.66015625 98.27734375 C14.77230469 99.17582031 14.88445313 100.07429687 15 101 C12.42596919 103.57403081 6.44018981 102.91916003 3 103 C-2.67376844 102.46211981 -6.93225486 101.19101014 -11 97 C-13.05898456 93.71696612 -13.24404689 91.15459742 -13.22705078 87.31347656 C-13.22689972 86.17259583 -13.22674866 85.03171509 -13.22659302 83.85626221 C-13.21627045 82.63010193 -13.20594788 81.40394165 -13.1953125 80.140625 C-13.1924826 78.88111023 -13.18965271 77.62159546 -13.18673706 76.32391357 C-13.17744121 72.98326098 -13.15948583 69.64288331 -13.1373291 66.30230713 C-13.11683208 62.89036428 -13.10772712 59.47839298 -13.09765625 56.06640625 C-13.07559907 49.37752832 -13.04212367 42.68878003 -13 36 C-16.3 36 -19.6 36 -23 36 C-23 32.7 -23 29.4 -23 26 C-19.7 26 -16.4 26 -13 26 C-13.10441406 24.69804688 -13.20882812 23.39609375 -13.31640625 22.0546875 C-14.08264235 8.43477451 -14.08264235 8.43477451 -11.06640625 4.4375 C-8.74151276 2.94956817 -6.60581107 1.89368972 -4 1 C-2 0 -2 0 0 0 Z " fill="#000000" transform="translate(884,873)"/>
<path d="M0 0 C4.62 0 9.24 0 14 0 C14 34.65 14 69.3 14 105 C9.38 105 4.76 105 0 105 C0 70.35 0 35.7 0 0 Z " fill="#000000" transform="translate(384,870)"/>
<path d="M0 0 C4.1963157 1.73326083 6.54175622 4.21212423 9 8 C9.59928164 10.92502278 9.60830498 13.79463892 9.6015625 16.7734375 C9.61013275 17.6154068 9.618703 18.4573761 9.62753296 19.32485962 C9.63899014 21.10162774 9.6400416 22.87848965 9.63134766 24.65527344 C9.62503415 27.36036984 9.67193354 30.0610705 9.72265625 32.765625 C9.72720377 34.49739035 9.72860851 36.22916739 9.7265625 37.9609375 C9.74498199 38.76220062 9.76340149 39.56346375 9.78237915 40.38900757 C9.69297114 45.87325329 8.28743128 48.6690475 4.51278687 52.64004517 C0.99952084 55.79837713 -1.91761139 56.17230008 -6.5 55.9375 C-11.07378395 55.29169994 -13.13883225 53.70268768 -16 50 C-19.06117786 45.83120191 -19.4421419 42.31634438 -19.3984375 37.28515625 C-19.40130768 36.5517955 -19.40417786 35.81843475 -19.40713501 35.06285095 C-19.40916949 33.51723454 -19.40368279 31.97159203 -19.39111328 30.42602539 C-19.37507253 28.07313812 -19.39096952 25.72197434 -19.41015625 23.36914062 C-19.40817326 21.86197541 -19.40432842 20.35481126 -19.3984375 18.84765625 C-19.40451019 18.15060074 -19.41058289 17.45354523 -19.4168396 16.73536682 C-19.32868686 10.54453813 -17.51258741 6.69704929 -13.4375 2.125 C-9.3794926 -1.01995573 -4.89164734 -0.74562799 0 0 Z " fill="#FCFBFE" transform="translate(3287,528)"/>
<path d="M0 0 C4.53202503 2.22481229 6.84486884 4.47576669 9 9 C9.28734449 11.79591612 9.42125949 14.36069912 9.3984375 17.15234375 C9.40130768 17.93009659 9.40417786 18.70784943 9.40713501 19.50917053 C9.40917025 21.14894339 9.40367823 22.78874082 9.39111328 24.4284668 C9.37507272 26.92617642 9.39096809 29.42226274 9.41015625 31.91992188 C9.4081733 33.51823271 9.40432854 35.11654254 9.3984375 36.71484375 C9.40754654 37.82604836 9.40754654 37.82604836 9.4168396 38.95970154 C9.34264524 44.48441583 8.03572766 48.40907389 4.625 52.75 C1.06555838 55.48803201 -1.41596191 56.01854089 -5.9375 55.875 C-10.05749713 55.19869858 -12.8027005 53.75116469 -16 51 C-18.94117635 46.28781626 -19.45522018 42.18428103 -19.43359375 36.75 C-19.4388356 35.97366211 -19.44407745 35.19732422 -19.44947815 34.39746094 C-19.45587292 32.76368399 -19.45459445 31.12986084 -19.44604492 29.49609375 C-19.43752387 27.00697414 -19.46634591 24.52014401 -19.49804688 22.03125 C-19.49965897 20.43750068 -19.4990812 18.84374733 -19.49609375 17.25 C-19.50732773 16.51233398 -19.51856171 15.77466797 -19.53013611 15.01464844 C-19.4612444 9.86718459 -18.2146656 6.97903085 -15 3 C-10.63453818 -0.85187808 -5.54054055 -0.79911643 0 0 Z " fill="#FDFCFE" transform="translate(3242,528)"/>
<path d="M0 0 C4.62 0 9.24 0 14 0 C14 25.08 14 50.16 14 76 C9.71 76 5.42 76 1 76 C-0.66165207 74.33834793 -0.11959725 72.3348397 -0.12442017 70.11598206 C-0.12082489 69.41827194 -0.11722961 68.72056183 -0.11352539 68.00170898 C-0.11367142 67.27004517 -0.11381744 66.53838135 -0.1139679 65.7845459 C-0.11326867 63.35503216 -0.10547585 60.92559417 -0.09765625 58.49609375 C-0.0957921 56.81600486 -0.09436819 55.13591543 -0.09336853 53.45582581 C-0.08954307 49.02526357 -0.07971256 44.5947339 -0.06866455 40.16418457 C-0.05845103 35.64657024 -0.05387104 31.12895066 -0.04882812 26.61132812 C-0.03809031 17.74086877 -0.02049329 8.87044219 0 0 Z " fill="#000000" transform="translate(1566,899)"/>
<path d="M0 0 C4.62 0 9.24 0 14 0 C14.02255193 9.761514 14.04091561 19.52301083 14.05181217 29.28454494 C14.05704078 33.81674094 14.06413801 38.34891827 14.07543945 42.88110352 C14.08626914 47.2512283 14.09227701 51.62133508 14.09487724 55.99147224 C14.09673135 57.66250963 14.10035168 59.33354597 14.10573006 61.00457573 C14.11294159 63.33697551 14.1139909 65.66929993 14.11352539 68.00170898 C14.11712067 68.6994191 14.12071594 69.39712921 14.12442017 70.11598206 C14.11405216 74.88594784 14.11405216 74.88594784 13 76 C8.71 76 4.42 76 0 76 C0 50.92 0 25.84 0 0 Z " fill="#000000" transform="translate(907,899)"/>
<path d="M0 0 C4.29 0 8.58 0 13 0 C13 25.08 13 50.16 13 76 C8.71 76 4.42 76 0 76 C0 50.92 0 25.84 0 0 Z " fill="#000000" transform="translate(1096,899)"/>
<path d="M0 0 C4.62 0 9.24 0 14 0 C14 5.28 14 10.56 14 16 C9.38 16 4.76 16 0 16 C0 10.72 0 5.44 0 0 Z " fill="#000000" transform="translate(1566,870)"/>
<path d="M0 0 C4.62 0 9.24 0 14 0 C14.02685095 2.47923801 14.04676547 4.9581884 14.0625 7.4375 C14.07087891 8.14455078 14.07925781 8.85160156 14.08789062 9.58007812 C14.09653588 11.38693559 14.05220011 13.19387603 14 15 C13 16 13 16 10.05859375 16.09765625 C6.70572917 16.06510417 3.35286458 16.03255208 0 16 C0 10.72 0 5.44 0 0 Z " fill="#000000" transform="translate(907,870)"/>
<path d="M0 0 C4.29 0 8.58 0 13 0 C13 5.28 13 10.56 13 16 C8.71 16 4.42 16 0 16 C0 10.72 0 5.44 0 0 Z " fill="#000000" transform="translate(1096,870)"/>
</svg>
