<svg width="50" height="50" viewBox="0 0 50 50" fill="none" xmlns="http://www.w3.org/2000/svg">
<circle cx="25" cy="25" r="25" fill="#EBE2FF"/>
<path d="M39.6907 27.5819H30.5569V26.0596C30.5569 23.015 28.0732 20.5312 25.0286 20.5312C21.984 20.5312 19.5403 23.015 19.5403 26.0596V27.5819H10.3665C10.046 27.5819 9.76562 27.8623 9.76562 28.1828C9.76562 28.5033 10.046 28.7837 10.3665 28.7837H13.5714V37.1964C13.5714 37.5168 13.8518 37.7973 14.1723 37.7973C14.4927 37.7973 14.7732 37.5168 14.7732 37.1964V28.7837H35.3241V37.1964C35.3241 37.5168 35.6045 37.7973 35.925 37.7973C36.2455 37.7973 36.5259 37.5168 36.5259 37.1964V28.7837H39.7308C40.0512 28.7837 40.3317 28.5033 40.3317 28.1828C40.3317 27.8623 40.0512 27.5819 39.6907 27.5819ZM20.7422 26.0596C20.7422 23.696 22.6651 21.7331 25.0687 21.7331C27.4723 21.7331 29.3952 23.656 29.3952 26.0596V27.5819H20.7422V26.0596Z" fill="#6524EB"/>
<path d="M25.0253 20.0506C26.9482 20.0506 28.5506 18.4883 28.5506 16.5253C28.5506 14.5624 26.9883 13 25.0253 13C23.0624 13 21.5 14.5624 21.5 16.5253C21.5 18.4883 23.1024 20.0506 25.0253 20.0506ZM25.0253 14.2419C26.3072 14.2419 27.3488 15.2834 27.3488 16.5654C27.3488 17.8473 26.3072 18.8889 25.0253 18.8889C23.7434 18.8889 22.7018 17.8473 22.7018 16.5654C22.7018 15.2834 23.7434 14.2419 25.0253 14.2419Z" fill="#6524EB"/>
</svg>
