<svg width="27" height="30" viewBox="0 0 27 30" fill="none" xmlns="http://www.w3.org/2000/svg">
<path d="M14.2959 0.111328L21.5166 0.894531C21.8149 0.926487 22.0888 1.0204 22.3262 1.16992C22.5617 1.31799 22.7577 1.51587 22.9062 1.75586L22.9111 1.76465L22.9121 1.76758L22.915 1.77246C23.0649 2.02164 23.1495 2.28697 23.167 2.55859C23.1845 2.82883 23.1353 3.10214 23.0176 3.36914L19.1201 12.2012C19.0713 12.3118 19.0611 12.4286 19.083 12.5391L19.1152 12.6465C19.1577 12.75 19.2298 12.8416 19.3252 12.9072L19.4277 12.9639L20.3623 13.3633C20.6499 13.4865 20.8874 13.6641 21.0703 13.8867V13.8877C21.254 14.1099 21.378 14.3739 21.4346 14.6689C21.4911 14.9644 21.4742 15.2521 21.3877 15.5215C21.3011 15.7921 21.1452 16.0414 20.9258 16.2529L12.1807 24.6914C11.8636 24.9971 11.4605 25.1732 11.043 25.2119C10.6252 25.2506 10.1951 25.1528 9.82617 24.9131C9.50215 24.7011 9.26611 24.4096 9.13379 24.0811L9.08398 23.9375C8.96571 23.5536 8.98511 23.1291 9.15918 22.7334L11.1621 18.2109C11.2047 18.1159 11.2197 18.0155 11.21 17.9189L11.1924 17.8242C11.1586 17.7013 11.0792 17.5903 10.9658 17.5107H10.9668L7.64844 15.1396C7.2984 14.8896 7.06257 14.5452 6.95703 14.168C6.85274 13.7906 6.8787 13.3796 7.05273 12.9941L10.2734 5.85938L10.3408 5.71094L10.1777 5.71777H10.1758L10.165 5.71875L10.1543 5.72168C7.77673 6.37683 5.69604 7.71284 4.15625 9.49805C2.40759 11.5258 1.35552 14.1348 1.35547 16.9844C1.35547 20.2195 2.7159 23.1477 4.91406 25.2656C7.11073 27.3836 10.1453 28.6943 13.4971 28.6943C16.8489 28.6943 19.8845 27.3838 22.0811 25.2656L22.0801 25.2646C24.278 23.1465 25.6387 20.2194 25.6387 16.9844C25.6387 16.0346 25.525 15.1195 25.3096 14.25C25.0878 13.3538 24.7545 12.4924 24.3252 11.6777C24.1702 11.3838 24.2895 11.0215 24.5996 10.8682C24.9115 10.7152 25.2919 10.8367 25.4482 11.1328C25.915 12.0186 26.2815 12.9714 26.5303 13.9736C26.7717 14.9473 26.9004 15.9565 26.9004 16.9834C26.9004 20.5485 25.4012 23.7777 22.9756 26.1152C20.551 28.4528 17.2008 29.9004 13.5 29.9004C9.79916 29.9004 6.44879 28.4539 4.02441 26.1152C1.5999 23.7775 0.0996174 20.5485 0.0996094 16.9834C0.0996094 13.8492 1.26253 10.9718 3.19531 8.73145C5.13056 6.48792 7.83986 4.88619 10.9277 4.30762L10.9795 4.29785L11.001 4.25098L12.3887 1.1748C12.5521 0.811958 12.8234 0.523688 13.1572 0.338867H13.1582C13.494 0.15266 13.8888 0.067029 14.2959 0.111328ZM14.1523 1.31055C14.0194 1.29662 13.8903 1.3217 13.7832 1.37988H13.7822C13.6754 1.43942 13.5857 1.53486 13.5322 1.65527L13.4414 1.86133V1.86035L8.20117 13.4707V13.4717C8.14477 13.5978 8.13579 13.7315 8.16895 13.8564V13.8574C8.20364 13.981 8.28064 14.0934 8.39453 14.1748L11.7119 16.5459C12.0611 16.7961 12.2958 17.1375 12.4014 17.5146V17.5156C12.5066 17.8878 12.4827 18.2955 12.3135 18.6787L10.3096 23.2021V23.2031C10.2677 23.2999 10.2513 23.4025 10.2627 23.502L10.2832 23.6006C10.3216 23.7257 10.4065 23.8381 10.5283 23.916C10.6506 23.9946 10.7887 24.0272 10.9219 24.0156C11.0542 24.004 11.1832 23.946 11.2861 23.8467L20.0303 15.4082C20.0842 15.3561 20.1286 15.2975 20.1592 15.2344L20.1855 15.1699C20.213 15.0829 20.2175 14.986 20.1973 14.8857H20.1982C20.1795 14.7871 20.1397 14.6977 20.0791 14.627C20.0206 14.5565 19.9421 14.5005 19.8516 14.4609L19.8506 14.46L18.916 14.0605C18.4504 13.8616 18.1131 13.502 17.9404 13.082C17.7692 12.6636 17.7637 12.1808 17.9609 11.7324L21.8584 2.90137C21.8978 2.81267 21.9148 2.72231 21.9102 2.63477V2.63281L21.9014 2.56738C21.888 2.50231 21.8613 2.43787 21.8232 2.37598L21.7588 2.27051L21.748 2.2793C21.7137 2.24041 21.677 2.20576 21.6348 2.17969C21.5976 2.15657 21.5567 2.13751 21.5127 2.12305L21.373 2.09375L14.1523 1.31055Z" fill="#24252C" stroke="white" stroke-width="0.2"/>
</svg>
