<svg width="23" height="23" viewBox="0 0 23 23" fill="none" xmlns="http://www.w3.org/2000/svg">
<circle cx="11.5" cy="11.5" r="11.5" transform="rotate(180 11.5 11.5)" fill="#E2E2E2"/>
<path fill-rule="evenodd" clip-rule="evenodd" d="M16.8438 11.503C16.8438 11.7117 16.6676 11.8809 16.4504 11.8809L7.17268 11.8809L9.64806 14.2592C9.80167 14.4068 9.80167 14.6461 9.64806 14.7937C9.49444 14.9413 9.24538 14.9413 9.09176 14.7937L5.94488 11.7702C5.79126 11.6226 5.79126 11.3833 5.94488 11.2357L9.09176 8.21226C9.24538 8.06467 9.49444 8.06467 9.64805 8.21226C9.80167 8.35985 9.80167 8.59915 9.64805 8.74674L7.17268 11.125L16.4504 11.125C16.6676 11.125 16.8438 11.2942 16.8438 11.503Z" fill="white"/>
</svg>
