<svg width="32" height="32" viewBox="0 0 32 32" fill="none" xmlns="http://www.w3.org/2000/svg">
<circle cx="16" cy="16" r="16" transform="rotate(-180 16 16)" fill="#E2E2E2"/>
<path fill-rule="evenodd" clip-rule="evenodd" d="M23.4375 16.0058C23.4375 16.2962 23.1925 16.5317 22.8902 16.5317H9.9821L13.4261 19.8406C13.6398 20.0459 13.6398 20.3789 13.4261 20.5842C13.2124 20.7896 12.8658 20.7896 12.6521 20.5842L8.27385 16.3776C8.06012 16.1723 8.06012 15.8394 8.27385 15.634L12.6521 11.4274C12.8658 11.2221 13.2124 11.2221 13.4261 11.4274C13.6398 11.6328 13.6398 11.9657 13.4261 12.1711L9.9821 15.48H22.8902C23.1925 15.48 23.4375 15.7154 23.4375 16.0058Z" fill="white"/>
</svg>
