<svg width="32" height="32" viewBox="0 0 32 32" fill="none" xmlns="http://www.w3.org/2000/svg">
<ellipse cx="16" cy="16" rx="16" ry="16" transform="rotate(180 16 16)" fill="#E2E2E2"/>
<path fill-rule="evenodd" clip-rule="evenodd" d="M23.4336 16.0058C23.4336 16.2962 23.1886 16.5317 22.8863 16.5317L9.97819 16.5317L13.4222 19.8406C13.6359 20.0459 13.6359 20.3789 13.4222 20.5842C13.2085 20.7896 12.8619 20.7896 12.6482 20.5842L8.26995 16.3776C8.05622 16.1723 8.05622 15.8394 8.26995 15.634L12.6482 11.4274C12.8619 11.2221 13.2085 11.2221 13.4222 11.4274C13.6359 11.6328 13.6359 11.9657 13.4222 12.1711L9.97819 15.48L22.8863 15.48C23.1886 15.48 23.4336 15.7154 23.4336 16.0058Z" fill="white"/>
</svg>
