<svg width="27" height="33" viewBox="0 0 27 33" fill="none" xmlns="http://www.w3.org/2000/svg">
<path fill-rule="evenodd" clip-rule="evenodd" d="M4.49124 21.3262L7.46661 19.329L10.3173 21.1637L13.5833 18.4609L16.7692 21.1056L19.6989 19.2147L22.5861 21.1615L26.0003 19.4555C26.0043 19.5879 26.0102 19.7195 26.0102 19.8529C26.0102 26.7394 20.4116 32.3218 13.5051 32.3218C6.59859 32.3218 1 26.7394 1 19.8529C1 19.7658 1.00479 19.6798 1.00664 19.593L4.49124 21.3262Z" stroke="#24252C" stroke-linejoin="round"/>
<path d="M4.65625 21.3524V13.2077C4.65625 8.33382 8.61874 4.38281 13.5068 4.38281C18.3948 4.38281 22.3573 8.33382 22.3573 13.2077V21.3524" stroke="#24252C"/>
<path d="M13.3154 0.533203C13.3406 0.575201 13.3652 0.64407 13.3652 0.735352V3.67676C13.3652 3.76752 13.3404 3.83587 13.3154 3.87793C13.2905 3.83585 13.2656 3.7674 13.2656 3.67676V0.735352C13.2656 0.644195 13.2903 0.575218 13.3154 0.533203Z" fill="black" stroke="#24252C"/>
<path d="M12.4385 3.99805C12.434 4.0089 12.4264 4.02518 12.4092 4.04102C12.3904 4.05827 12.3723 4.06408 12.3604 4.06738L10.9072 2.49512C10.9117 2.48418 10.9202 2.46899 10.9375 2.45312V2.45215C10.956 2.43519 10.9735 2.42814 10.9854 2.4248L12.4385 3.99805Z" fill="black" stroke="#24252C"/>
<path d="M17.5605 11.5312C18.1004 11.5312 18.5361 11.9672 18.5361 12.502C18.5361 13.0367 18.1004 13.4727 17.5605 13.4727C17.0209 13.4725 16.5859 13.0366 16.5859 12.502C16.5859 11.9673 17.0209 11.5314 17.5605 11.5312Z" fill="white" stroke="#24252C"/>
<path d="M9.44727 11.5312C9.98709 11.5312 10.4229 11.9672 10.4229 12.502C10.4228 13.0367 9.98709 13.4727 9.44727 13.4727C8.90761 13.4725 8.47266 13.0366 8.47266 12.502C8.47266 11.9673 8.9076 11.5314 9.44727 11.5312Z" fill="white" stroke="#24252C"/>
<path d="M13.6094 13.7344C13.8718 13.7344 14.0061 13.9176 14.0137 14.0107L14.1045 15.1133C14.1078 15.1535 14.0948 15.1918 14.0557 15.2285C14.0137 15.2678 13.9347 15.3076 13.8193 15.3076C13.5573 15.3074 13.4228 15.1254 13.415 15.0322L13.3252 13.9287C13.322 13.8887 13.3341 13.8511 13.373 13.8145C13.415 13.7751 13.4937 13.7344 13.6094 13.7344Z" fill="black" stroke="#24252C"/>
</svg>
