<svg width="40" height="40" viewBox="0 0 40 40" fill="none" xmlns="http://www.w3.org/2000/svg">
<circle cx="20" cy="20" r="19.5" fill="#EDE9FC" stroke="#E0E5F2"/>
<path d="M32.6534 22.8178C32.844 22.8178 33 22.6647 33 22.475V19.8371C33 18.9239 32.249 18.1822 31.3248 18.1822H29.1355C28.4261 18.1822 27.8496 17.6107 27.8496 16.9089C27.8496 16.2072 28.4261 15.6368 29.1355 15.6368C29.3261 15.6368 29.4821 15.4837 29.4821 15.2951V12.6572C29.4821 11.7441 28.7311 11 27.8069 11H9.67522C8.75212 11 8 11.7429 8 12.6572V15.2951C8 15.4837 8.15481 15.6368 8.3466 15.6368C9.05596 15.6368 9.63364 16.2072 9.63364 16.9089C9.63364 17.6107 9.05599 18.1822 8.3466 18.1822C8.15598 18.1822 8 18.3353 8 18.5239V21.1618C8 22.075 8.75097 22.8167 9.67522 22.8167H11.8657C12.575 22.8167 13.1516 23.3882 13.1516 24.0899C13.1516 24.7917 12.5751 25.362 11.8657 25.362C11.6751 25.362 11.5191 25.5152 11.5191 25.7049V28.3428C11.5191 29.2559 12.27 30 13.192 30H31.3236C32.2467 30 32.9988 29.2571 32.9988 28.3428V25.7049C32.9988 25.5163 32.844 25.362 32.6522 25.362C31.9429 25.362 31.3663 24.7917 31.3663 24.0899C31.3663 23.3882 31.9428 22.8167 32.6522 22.8167L32.6534 22.8178ZM9.67543 22.1332C9.13359 22.1332 8.69226 21.6978 8.69226 21.1618V18.8359C9.61882 18.6736 10.3247 17.8713 10.3247 16.9078C10.3247 15.9455 9.61882 15.1443 8.69226 14.982V12.6562C8.69226 12.1201 9.13359 11.6835 9.67543 11.6835H13.5156V12.2847C13.5156 12.4733 13.6704 12.6265 13.8622 12.6265C14.0528 12.6265 14.2088 12.4733 14.2088 12.2847V11.6835H27.8079C28.3497 11.6835 28.7911 12.1201 28.7911 12.6562V14.982C27.8645 15.1443 27.1598 15.9466 27.1598 16.9078C27.1598 17.869 27.8656 18.6725 28.7911 18.8359V21.1618C28.7911 21.6966 28.3497 22.1332 27.8079 22.1332H14.2064V21.5321C14.2064 21.3435 14.0516 21.1892 13.8598 21.1892C13.6692 21.1892 13.5132 21.3423 13.5132 21.5321V22.1332H9.67306H9.67543ZM32.3071 26.0168V28.3426C32.3071 28.8786 31.8657 29.3152 31.3239 29.3152H17.7248V28.7129C17.7248 28.5243 17.57 28.37 17.3782 28.37C17.1876 28.37 17.0316 28.5232 17.0316 28.7129V29.3152H13.1914C12.6508 29.3152 12.2094 28.8786 12.2094 28.3426V26.0168C13.136 25.8545 13.8407 25.0521 13.8407 24.091C13.8407 23.6052 13.6593 23.1606 13.3624 22.8177H27.8038C28.7269 22.8177 29.4791 22.0748 29.4791 21.1628V18.8666H31.3218C31.8636 18.8666 32.305 19.3021 32.305 19.8381V22.164C31.3784 22.3263 30.6737 23.1286 30.6737 24.0921C30.6737 25.0544 31.3796 25.8556 32.305 26.0179L32.3071 26.0168ZM20.6822 21.3251C23.143 21.3251 25.1452 19.3433 25.1452 16.9088C25.1452 14.4732 23.1431 12.4936 20.6822 12.4936C18.2214 12.4936 16.218 14.4743 16.218 16.9088C16.218 19.3432 18.2213 21.3251 20.6822 21.3251ZM17.5651 19.0061L18.6003 17.9821C18.8972 17.6883 19.0463 17.3134 19.0324 16.8974C19.0139 16.4254 19.1976 15.9637 19.5361 15.6299C19.7914 15.3774 20.1195 15.2139 20.4673 15.1556L19.7984 15.8185C19.7105 15.9054 19.677 16.0311 19.7094 16.1488L20.0259 17.3169C20.0583 17.4346 20.1507 17.5272 20.2709 17.5592L21.4516 17.8723C21.5706 17.9043 21.6988 17.8701 21.7855 17.7832L22.4544 17.1203C22.3955 17.4643 22.2303 17.7889 21.975 18.0426C21.6376 18.3764 21.1708 18.5581 20.6926 18.5409C20.2732 18.5272 19.8942 18.6747 19.5973 18.9684L18.5622 19.9924C18.1705 19.7284 17.832 19.3936 17.5651 19.0061ZM20.6822 13.1772C22.7617 13.1772 24.4531 14.8504 24.4531 16.9077C24.4531 18.9649 22.7617 20.6405 20.6822 20.6405C20.153 20.6405 19.6493 20.5319 19.193 20.3365L20.086 19.453C20.2489 19.2919 20.4384 19.2187 20.6683 19.2256C21.3361 19.2484 21.9923 18.9947 22.4637 18.5273C23.0621 17.9352 23.3047 17.062 23.0968 16.2494C23.0656 16.1305 22.9731 16.0368 22.853 16.0037C22.7328 15.9717 22.6046 16.0048 22.5168 16.0917L21.4366 17.1603L20.6417 16.9489L20.428 16.1625L21.5082 15.0928C21.596 15.0059 21.6295 14.879 21.5972 14.7602C21.5637 14.6413 21.4689 14.5499 21.3476 14.519C20.5262 14.3144 19.6435 14.5545 19.0462 15.1465C18.5714 15.6139 18.3149 16.262 18.3392 16.9226C18.3473 17.15 18.2722 17.3386 18.1093 17.4986L17.2162 18.3821C17.0187 17.9295 16.9089 17.4312 16.9089 16.9089C16.9089 14.8516 18.6015 13.1784 20.6822 13.1784L20.6822 13.1772ZM13.5147 14.8321V13.8892C13.5147 13.7006 13.6695 13.5463 13.8613 13.5463C14.0519 13.5463 14.2079 13.6995 14.2079 13.8892V14.8321C14.2079 15.0207 14.0531 15.175 13.8613 15.175C13.6707 15.175 13.5147 15.0218 13.5147 14.8321ZM13.5147 19.9272V18.982C13.5147 18.7935 13.6695 18.6392 13.8613 18.6392C14.0519 18.6392 14.2079 18.7923 14.2079 18.982V19.9272C14.2079 20.1158 14.0531 20.269 13.8613 20.269C13.6707 20.269 13.5147 20.1158 13.5147 19.9272ZM13.5147 17.3797V16.4368C13.5147 16.2482 13.6695 16.095 13.8613 16.095C14.0519 16.095 14.2079 16.2482 14.2079 16.4368V17.3797C14.2079 17.5683 14.0531 17.7226 13.8613 17.7226C13.6707 17.7226 13.5147 17.5694 13.5147 17.3797ZM17.7246 23.6165V24.5594C17.7246 24.748 17.5697 24.9023 17.378 24.9023C17.1873 24.9023 17.0314 24.7491 17.0314 24.5594V23.6165C17.0314 23.4279 17.1862 23.2736 17.378 23.2736C17.5686 23.2736 17.7246 23.4268 17.7246 23.6165ZM17.7246 26.1641V27.107C17.7246 27.2956 17.5697 27.4499 17.378 27.4499C17.1873 27.4499 17.0314 27.2967 17.0314 27.107V26.1641C17.0314 25.9755 17.1862 25.8212 17.378 25.8212C17.5686 25.8212 17.7246 25.9743 17.7246 26.1641Z" fill="#6524EB"/>
</svg>
