<svg width="50" height="50" viewBox="0 0 50 50" fill="none" xmlns="http://www.w3.org/2000/svg">
<g clip-path="url(#clip0_2288_291)">
<rect width="50" height="50" fill="white"/>
<circle cx="25" cy="25" r="24.5" fill="#EBE2FF" stroke="#E6EAF4"/>
<path d="M27.3887 21.8425C28.1908 21.8425 28.9481 22.2372 29.4209 22.8914L29.4258 22.8972L29.4297 22.9031L32.4102 27.2976H33.1455C34.0543 27.2976 34.7909 28.0376 34.791 28.946V33.8142C34.791 34.7225 34.0545 35.4626 33.1455 35.4626H31.5137C31.1084 36.7254 29.931 37.6451 28.5342 37.6453C27.1372 37.6453 25.9589 36.7256 25.5537 35.4626H19.7373C19.3319 36.7254 18.1545 37.6451 16.7578 37.6453C15.3609 37.6453 14.1826 36.7256 13.7773 35.4626H12.1465C11.2372 35.4626 10.5 34.7224 10.5 33.8142V28.946L10.5088 28.7781C10.5931 27.9482 11.2941 27.2976 12.1465 27.2976H12.8652L15.6455 22.9685L15.6533 22.9568C16.1303 22.2599 16.9024 21.8427 17.7314 21.8425H27.3887ZM16.7578 33.281C16.0872 33.281 15.5391 33.8287 15.5391 34.5037C15.5391 35.1786 16.0873 35.7263 16.7578 35.7263C17.4284 35.7261 17.9765 35.1785 17.9766 34.5037C17.9766 33.8288 17.4283 33.2812 16.7578 33.281ZM28.5342 33.281C27.8636 33.281 27.3145 33.8287 27.3145 34.5037C27.3145 35.1786 27.8636 35.7263 28.5342 35.7263C29.2047 35.7261 29.7529 35.1785 29.7529 34.5037C29.7529 33.8288 29.2046 33.2812 28.5342 33.281ZM12.417 33.5437H13.7773C14.1829 32.2811 15.361 31.3621 16.7578 31.3621C18.1545 31.3622 19.3318 32.2815 19.7373 33.5437H25.5537C25.9592 32.2811 27.1374 31.3621 28.5342 31.3621C29.9308 31.3623 31.1082 32.2815 31.5137 33.5437H32.875V29.2166H12.417V33.5437ZM23.6045 27.2976H30.0938L27.8613 24.0056L27.8164 23.9519C27.7062 23.8332 27.5477 23.7615 27.3887 23.7615H23.6045V27.2976ZM17.7314 23.7615C17.5469 23.7616 17.3614 23.856 17.2422 24.03L15.1445 27.2976H21.6875V23.7615H17.7314Z" fill="#6524EB" stroke="#EBE2FF"/>
<path d="M33.0615 12.3547C35.5538 12.3548 37.8952 13.3625 39.6504 15.1838C40.2272 15.7823 39.8033 16.8097 38.9609 16.8098C38.7105 16.8098 38.4583 16.7109 38.2705 16.5159V16.5168C36.874 15.0675 35.0249 14.2737 33.0605 14.2737C31.0967 14.2738 29.2479 15.067 27.8516 16.5159C27.4834 16.898 26.8766 16.9073 26.4961 16.5403H26.4951C26.1146 16.1722 26.1046 15.5649 26.4717 15.1838L26.8076 14.8518C28.5206 13.2402 30.7248 12.3547 33.0615 12.3547Z" fill="#6524EB" stroke="#EBE2FF"/>
<path d="M33.0625 14.7598C34.9362 14.7598 36.6962 15.5173 38.0137 16.8848C38.5903 17.4835 38.1654 18.5098 37.3232 18.5098C37.1042 18.5097 36.8843 18.4346 36.707 18.2852L36.6338 18.2168C35.675 17.2218 34.4076 16.6787 33.0625 16.6787C31.7175 16.6788 30.451 17.2221 29.4922 18.2168C29.1473 18.5747 28.5916 18.6059 28.21 18.3047L28.1357 18.2402C27.7555 17.8722 27.7448 17.2647 28.1123 16.8838H28.1133C29.4305 15.5172 31.1893 14.7599 33.0625 14.7598Z" fill="#6524EB" stroke="#EBE2FF"/>
<path d="M33.0605 17.1646C34.3151 17.1646 35.4932 17.6719 36.373 18.5854L36.4697 18.7026C36.8948 19.3084 36.4734 20.2103 35.6836 20.2104C35.4331 20.2104 35.181 20.1125 34.9932 19.9175C34.4719 19.3765 33.7866 19.0835 33.0605 19.0835C32.3349 19.0836 31.6501 19.3767 31.1289 19.9175C30.7607 20.2992 30.154 20.3081 29.7734 19.9409H29.7725C29.392 19.5728 29.3819 18.9655 29.749 18.5845L29.918 18.4185C30.7768 17.6105 31.8849 17.1646 33.0605 17.1646Z" fill="#6524EB" stroke="#EBE2FF"/>
<path d="M33.0586 19.0676C34.094 19.0676 34.9335 19.9107 34.9336 20.9456C34.9336 21.9805 34.094 22.8235 33.0586 22.8235C32.0232 22.8234 31.1836 21.9805 31.1836 20.9456C31.1837 19.9107 32.0233 19.0677 33.0586 19.0676ZM33.0586 20.8459C32.9824 20.846 32.9473 20.905 32.9473 20.9456L32.9541 20.9778C32.9675 21.0115 33.0013 21.0451 33.0586 21.0452C33.1161 21.0452 33.1507 21.0116 33.1641 20.9778L33.1699 20.9456L33.1641 20.9133C33.1507 20.8795 33.1161 20.8459 33.0586 20.8459Z" fill="#6524EB" stroke="#EBE2FF"/>
</g>
<defs>
<clipPath id="clip0_2288_291">
<rect width="50" height="50" fill="white"/>
</clipPath>
</defs>
</svg>
