<svg width="50" height="50" viewBox="0 0 50 50" fill="none" xmlns="http://www.w3.org/2000/svg">
<circle cx="25" cy="25" r="25" fill="#EBE2FF"/>
<path d="M31.4923 26.8141L31.3931 26.736H28.15V24.7866C29.9857 23.9111 31.3263 22.1612 31.6376 20.0732C31.6701 19.954 31.6949 19.8289 31.7197 19.7045C31.8467 19.7661 31.9866 19.8043 32.1372 19.8043H32.5306C33.058 19.8043 33.4856 19.3786 33.4856 18.8548V16.0169C33.4856 15.5836 33.1903 15.2213 32.791 15.1079C32.4863 11.6946 29.3431 9 25.5171 9C21.6906 9 18.548 11.694 18.2438 15.1073C17.844 15.2207 17.5487 15.583 17.5487 16.0163V18.8542C17.5487 19.378 17.9769 19.8037 18.5037 19.8037H18.8976C19.047 19.8037 19.187 19.7667 19.3134 19.705C19.513 21.9546 20.9057 23.8594 22.8488 24.786V26.7354H19.6058L19.5065 26.8135C19.2496 27.0144 17 28.8135 17 30.1576V42H25.226H25.774H34V30.1588C33.9994 28.8147 31.7492 27.0149 31.4923 26.8141ZM32.7574 18.8548C32.7574 18.9787 32.6558 19.0797 32.5306 19.0797H32.1372C32.012 19.0797 31.9104 18.9787 31.9104 18.8548V16.0169C31.9104 15.893 32.012 15.792 32.1372 15.792H32.5306C32.6558 15.792 32.7574 15.893 32.7574 16.0169V18.8548ZM25.5177 9.72459C28.9285 9.72459 31.7392 12.0769 32.061 15.0756C31.8886 15.0891 31.7285 15.1455 31.5939 15.2389C31.0275 12.3775 28.5115 10.2137 25.4994 10.2137C22.495 10.2137 19.9826 12.3669 19.4085 15.2177C19.2809 15.1367 19.1333 15.088 18.9744 15.0751C19.2963 12.0769 22.107 9.72459 25.5177 9.72459ZM19.1238 18.8548C19.1238 18.9787 19.0222 19.0797 18.8976 19.0797H18.5037C18.3791 19.0797 18.2775 18.9787 18.2775 18.8548V16.0169C18.2775 15.893 18.3791 15.792 18.5037 15.792H18.8976C19.0222 15.792 19.1238 15.893 19.1238 16.0169V18.8548ZM20.0162 19.1466V16.4567C20.0162 13.4151 22.4761 10.9407 25.4994 10.9407C28.5233 10.9407 30.9826 13.4151 30.9826 16.4567V19.1466C30.9826 19.4179 30.9566 19.6827 30.9194 19.944C30.5473 21.2423 29.5397 22.3961 27.1921 22.5611V22.2029H25.6642V22.9269H26.6021V23.3074C27.9073 23.3074 28.9905 23.0332 29.8291 22.52C28.8251 23.8218 27.26 24.6644 25.4994 24.6644C22.4761 24.6644 20.0162 22.1894 20.0162 19.1466ZM25.4994 25.3914C26.1697 25.3914 26.8141 25.281 27.4195 25.0831V26.9245L25.4994 28.8329L23.5799 26.9245V25.0831C24.1847 25.2816 24.8291 25.3914 25.4994 25.3914ZM17.7306 41.2736V38.3665H20.6553V41.2736H17.7306ZM25.7735 41.2736H25.2254H21.3864V35.4593H20.6553V37.6395H17.7306V30.1588C17.7306 29.4371 18.9974 28.16 19.8603 27.4636H23.088L25.4799 29.8417L25.4994 29.8223L25.5183 29.8411L27.9109 27.463H31.1385C32.0014 28.1594 33.2676 29.4365 33.2676 30.1582V37.6389H30.3436V35.4593H29.6124V41.2736H25.7735ZM30.3436 41.2736V38.3665H33.2676V41.2736H30.3436Z" fill="#6524EB"/>
</svg>
