<svg width="21" height="20" viewBox="0 0 21 20" fill="none" xmlns="http://www.w3.org/2000/svg">
<path d="M8.61714 12.066C9.12885 12.2092 9.67153 12.2809 10.2342 12.2809C10.7969 12.2809 11.3396 12.2092 11.8513 12.066C13.7242 11.5543 15.2388 10.1829 15.9449 8.40215C16.2213 7.7063 16.3747 6.93875 16.3747 6.14046C16.3747 2.75291 13.6218 0 10.2342 0C6.84666 0 4.09375 2.75291 4.09375 6.14046C4.09375 6.93875 4.24716 7.7063 4.5235 8.40215C5.22959 10.1829 6.74422 11.5543 8.61714 12.066Z" fill="#72E2B7"/>
<path d="M12.2809 13.8603C12.2809 15.6717 11.4929 17.3092 10.2341 18.4247C9.14928 19.4072 7.71649 20.0008 6.14046 20.0008C2.75297 20.0008 0 17.2478 0 13.8603C0 11.5781 1.25877 9.58246 3.11114 8.52832C4.0015 10.7593 5.90509 12.448 8.20776 13.0723C8.85252 13.2565 9.52794 13.3486 10.2341 13.3486C10.93 13.3486 11.585 13.2565 12.2195 13.0927C12.2604 13.3384 12.2809 13.6045 12.2809 13.8603Z" fill="#F3DA32"/>
<path d="M16.9306 8.52832C16.2347 10.2784 14.9145 11.6907 13.2565 12.5196L13.3077 12.8369C13.3589 13.1644 13.3896 13.5123 13.3896 13.8603C13.3896 15.9276 12.5606 17.8925 11.0869 19.315C11.9261 19.7552 12.8881 20.0008 13.9013 20.0008C17.2888 20.0008 20.0417 17.2478 20.0417 13.8603C20.0417 11.5781 18.783 9.58246 16.9306 8.52832Z" fill="#FF6767"/>
</svg>
