<svg width="50" height="50" viewBox="0 0 50 50" fill="none" xmlns="http://www.w3.org/2000/svg">
<g clip-path="url(#clip0_1292_338)">
<rect width="50" height="50" fill="white"/>
<circle cx="25" cy="25" r="24.5" fill="#EBE2FF" stroke="#E6EAF4"/>
<path fill-rule="evenodd" clip-rule="evenodd" d="M10 15.3644C10 14.6106 10.5992 14 11.3388 14H34.7271C35.4652 14 36.0659 14.6106 36.0659 15.3644V20.2373H38.6612C39.4008 20.2373 40 20.8479 40 21.6017V35.6356C40 36.3894 39.4008 37 38.6612 37H17.8969C17.1573 37 16.5581 36.3894 16.5581 35.6356V32.5444H11.3388C10.5992 32.5444 10.0001 31.9337 10.0001 31.1799V27.1627C10.0001 26.3313 10.6978 25.7481 11.4195 25.7222C12.0202 25.7009 12.7822 25.5852 13.3769 25.2258C13.9282 24.8908 14.372 24.3304 14.372 23.2721C14.372 22.2153 13.9282 21.6534 13.3769 21.3199C12.7822 20.959 12.0202 20.8432 11.4195 20.822C10.6978 20.7961 10.0001 20.2128 10.0001 19.3814L10 15.3644ZM36.0659 31.1798V21.4068H38.6612C38.7673 21.4068 38.8525 21.4936 38.8525 21.6017V35.6356C38.8525 35.7437 38.7673 35.8305 38.6612 35.8305H17.8969C17.7908 35.8305 17.7057 35.7437 17.7057 35.6356V32.5444H34.7272C35.4653 32.5444 36.0659 31.9336 36.0659 31.1798ZM11.3388 15.1695C11.2327 15.1695 11.1475 15.2563 11.1475 15.3644V19.3816C11.1475 19.438 11.1699 19.4989 11.2282 19.5552C11.288 19.6131 11.3716 19.6511 11.4583 19.6542C12.1322 19.677 13.1228 19.8049 13.9625 20.3151C14.8456 20.8496 15.5194 21.783 15.5194 23.2723C15.5194 24.7616 14.8456 25.695 13.9625 26.231C13.1228 26.7396 12.1322 26.8675 11.4583 26.8919C11.3716 26.8949 11.288 26.9315 11.2282 26.9894C11.1699 27.0457 11.1475 27.1066 11.1475 27.163V31.1802C11.1475 31.2883 11.2327 31.3751 11.3388 31.3751H18.3061V30.2193H19.4536V31.3751H34.7271C34.8317 31.3751 34.9183 31.2883 34.9183 31.1802V15.3647C34.9183 15.2566 34.8317 15.1698 34.7271 15.1698H19.4536V16.5495H18.3061V15.1698L11.3388 15.1695ZM18.3061 17.6881V20.7261H19.4536V17.6881H18.3061ZM18.3061 21.8652V24.9031H19.4536V21.8652H18.3061ZM18.3061 26.0422V29.0802H19.4536V26.0422H18.3061Z" fill="#6524EB" stroke="#EBE2FF" stroke-width="0.2"/>
</g>
<defs>
<clipPath id="clip0_1292_338">
<rect width="50" height="50" fill="white"/>
</clipPath>
</defs>
</svg>
