<svg width="50" height="50" viewBox="0 0 50 50" fill="none" xmlns="http://www.w3.org/2000/svg">
<g clip-path="url(#clip0_1292_344)">
<rect width="50" height="50" fill="white"/>
<circle cx="25" cy="25" r="24.5" fill="#EBE2FF" stroke="#E6EAF4"/>
<path fill-rule="evenodd" clip-rule="evenodd" d="M19.2385 10.727C16.2726 10.727 13.8596 13.14 13.8596 16.1058C13.8596 19.2016 16.3929 23.1306 19.2385 23.1306C22.0855 23.1306 24.6173 19.2016 24.6173 16.1058C24.6173 13.14 22.2043 10.727 19.2385 10.727ZM19.2385 23.859C17.656 23.859 16.1095 22.9151 14.8825 21.2028C13.7865 19.6729 13.1328 17.7684 13.1328 16.1073C13.1328 12.7407 15.872 10 19.2401 10C22.6068 10 25.3475 12.7392 25.3475 16.1073C25.3475 17.7685 24.6937 19.6729 23.5978 21.2028C22.3705 22.9165 20.8227 23.859 19.2418 23.859H19.2385Z" fill="#6524EB"/>
<path fill-rule="evenodd" clip-rule="evenodd" d="M13.4963 16.4707C13.3153 16.4707 13.1577 16.3352 13.1356 16.1514C13.1108 15.9524 13.2531 15.7714 13.4521 15.7465C18.256 15.1591 20.6704 11.8699 20.6941 11.8366C20.777 11.7219 20.918 11.6653 21.0575 11.6915C21.1971 11.7178 21.3077 11.8228 21.3422 11.9596C21.374 12.0826 22.1521 14.9697 24.7448 14.3989C24.9411 14.3561 25.1346 14.4805 25.1774 14.6767C25.2203 14.873 25.0959 15.0665 24.901 15.1093C23.5369 15.4092 22.3622 14.9808 21.5026 13.8696C21.2068 13.4868 20.9995 13.0874 20.8613 12.7681C20.5407 13.1205 20.0349 13.6181 19.3438 14.1391C18.1718 15.0222 16.2135 16.1417 13.5408 16.4692C13.5256 16.4706 13.5104 16.472 13.4965 16.472L13.4963 16.4707Z" fill="#6524EB"/>
<path fill-rule="evenodd" clip-rule="evenodd" d="M16.926 26.293C16.7256 26.293 16.5625 26.1299 16.5625 25.9295V22.7357C16.5625 22.5353 16.7256 22.3722 16.926 22.3722C17.1264 22.3722 17.2894 22.5353 17.2894 22.7357V25.9295C17.2894 26.1299 17.1263 26.293 16.926 26.293ZM21.553 26.293C21.3526 26.293 21.1895 26.1299 21.1895 25.9295V22.7357C21.1895 22.5353 21.3526 22.3722 21.553 22.3722C21.7534 22.3722 21.9164 22.5353 21.9164 22.7357V25.9295C21.9164 26.1299 21.7534 26.293 21.553 26.293Z" fill="#6524EB"/>
<path fill-rule="evenodd" clip-rule="evenodd" d="M9.72717 38.7821H28.744V32.5382C28.744 29.0955 25.9426 26.2943 22.5001 26.2943H15.9714C12.5287 26.2943 9.72752 29.0957 9.72752 32.5382L9.72717 38.7821ZM29.1074 39.509H9.36346C9.16306 39.509 9 39.346 9 39.1456V32.538C9 28.6932 12.1275 25.567 15.971 25.567H22.4997C26.343 25.567 29.4706 28.6946 29.4706 32.538V39.1456C29.4706 39.346 29.3077 39.509 29.1074 39.509Z" fill="#6524EB"/>
<path fill-rule="evenodd" clip-rule="evenodd" d="M13.2033 39.5092C13.0029 39.5092 12.8398 39.3461 12.8398 39.1457V32.5381C12.8398 32.3377 13.0029 32.1747 13.2033 32.1747C13.4037 32.1747 13.5668 32.3378 13.5668 32.5381V39.1457C13.5668 39.3461 13.4037 39.5092 13.2033 39.5092Z" fill="#6524EB"/>
<path fill-rule="evenodd" clip-rule="evenodd" d="M25.2658 39.5092C25.0654 39.5092 24.9023 39.3461 24.9023 39.1457V32.5381C24.9023 32.3377 25.0654 32.1747 25.2658 32.1747C25.4662 32.1747 25.6293 32.3378 25.6293 32.5381V39.1457C25.6293 39.3461 25.4662 39.5092 25.2658 39.5092Z" fill="#6524EB"/>
<path fill-rule="evenodd" clip-rule="evenodd" d="M31.3947 39.5091C31.1943 39.5091 31.0312 39.346 31.0312 39.1456V24.3773C31.0312 24.1769 31.1943 24.0138 31.3947 24.0138C31.5951 24.0138 31.7582 24.1769 31.7582 24.3773V39.1456C31.7582 39.346 31.5951 39.5091 31.3947 39.5091Z" fill="#6524EB"/>
<path fill-rule="evenodd" clip-rule="evenodd" d="M31.3955 35.1323C31.2697 35.1323 31.1481 35.0673 31.0804 34.9498C30.9795 34.7757 31.0389 34.5532 31.2131 34.4537L39.6672 29.5723L31.2131 24.6909C31.0389 24.59 30.9795 24.3689 31.0804 24.1948C31.1813 24.0206 31.4038 23.9612 31.5765 24.0621L40.5765 29.2587C40.6885 29.3237 40.759 29.4439 40.759 29.5738C40.759 29.7037 40.6899 29.824 40.5765 29.8889L31.5765 35.0842C31.5199 35.1173 31.4563 35.1339 31.3955 35.1339L31.3955 35.1323Z" fill="#6524EB"/>
</g>
<defs>
<clipPath id="clip0_1292_344">
<rect width="50" height="50" fill="white"/>
</clipPath>
</defs>
</svg>
