<svg width="50" height="50" viewBox="0 0 50 50" fill="none" xmlns="http://www.w3.org/2000/svg">
<g clip-path="url(#clip0_1292_332)">
<rect width="50" height="50" fill="white"/>
<circle cx="25" cy="25" r="24.5" fill="#EBE2FF" stroke="#E6EAF4"/>
<path fill-rule="evenodd" clip-rule="evenodd" d="M36.7357 23.368C36.0013 23.1542 35.2487 23.2239 34.54 23.5758L34.0025 23.8427V19.9661C34.0025 19.2426 33.6936 18.592 33.203 18.1339C37.9955 17.0844 40.5698 17.4984 40.9439 18.4024C41.2483 19.1349 40.3152 20.8686 36.7357 23.368ZM38.3469 25.185C38.3469 25.2305 38.3302 25.2593 38.2863 25.2775L24.2111 31.3687C23.4843 31.6826 22.6424 31.4021 22.2426 30.715L20.6224 27.9046H20.639L22.5939 29.5138C23.1179 29.946 23.8235 30.0264 24.4292 29.7246L34.9849 24.4725C35.5527 24.1904 36.1373 24.1722 36.7218 24.4224L38.286 25.0928C38.3299 25.111 38.3469 25.138 38.3469 25.185ZM29.9275 29.9867L30.1335 35.1057C30.1365 35.1208 30.1607 35.1284 30.1637 35.1087L31.5826 29.268L29.9275 29.9867ZM32.9999 36.9923V28.6565L32.7334 28.7718L31.1344 35.3467C31.0223 35.8093 30.618 36.1233 30.1547 36.1233C29.6035 36.1233 29.1583 35.7017 29.1356 35.1481L28.9418 30.4131L24.6094 32.2892C23.557 32.7427 22.3289 32.4455 21.6006 31.5445C20.4104 31.907 19.1899 32.2301 17.9997 32.4894V36.9941C17.9997 37.8222 18.6705 38.4972 19.5003 38.4972H31.4992C32.326 38.4957 32.9999 37.8204 32.9999 36.9923ZM30.6922 40.9992H29.0932C29.0583 40.9992 29.0281 40.9689 29.0281 40.9355V39.4962H30.7558V40.9355C30.7573 40.9689 30.7271 40.9992 30.6922 40.9992ZM21.9732 40.9355C21.9732 40.9689 21.9429 40.9992 21.9081 40.9992H20.309C20.2742 40.9992 20.2439 40.9689 20.2439 40.9355V39.4962H21.9717L21.9732 40.9355ZM10.0592 31.2408C9.60793 30.1488 11.8551 27.5325 17.0004 24.5416V31.673C12.9088 32.4677 10.4375 32.1554 10.0592 31.2408ZM27.6717 26.9928L29.2147 26.2253L24.195 24.7526L24.1814 24.7799L27.6717 26.9928ZM19.5023 18.4628C18.6725 18.4628 18.0017 19.1363 18.0017 19.9659V31.4637C18.9466 31.2514 19.9702 30.986 21.062 30.6614L19.6401 28.1937C19.5371 28.0178 19.5114 27.8131 19.5629 27.6174C19.6507 27.2852 19.8748 27.1806 20.1262 27.035C20.4956 26.8211 20.9514 26.8591 21.2785 27.1305L23.2335 28.7397C23.453 28.9233 23.7317 28.9551 23.9906 28.8262L26.6254 27.5143L23.6514 25.626C23.2168 25.353 23.0578 24.8146 23.2683 24.3489C23.4788 23.8833 23.986 23.6482 24.4797 23.7923L30.5352 25.5698L33.0019 24.3413L33.0004 19.9655C33.0004 19.1374 32.325 18.4625 31.4997 18.4625L19.5023 18.4628ZM23.6498 12.3309H27.3537V17.4619H23.6498V12.3309ZM22.4884 10.0013H28.5136V11.3284H22.4884V10.0013ZM41.8662 18.0183C40.8092 15.4718 34.4435 16.7655 31.6633 17.4677C31.6072 17.4632 31.5557 17.4616 31.4997 17.4616H28.3501V12.3307H28.5515C29.0799 12.3307 29.5145 11.8984 29.5145 11.366L29.516 9.96462C29.516 9.43378 29.0814 9 28.553 9H22.4506C21.9221 9 21.4875 9.43226 21.4875 9.96462V11.3676C21.4875 11.8984 21.9221 12.3322 22.4506 12.3322H22.649V17.4632H19.5023C18.1228 17.4632 17.0008 18.5855 17.0008 19.9672V23.3888C14.4311 24.8418 12.3412 26.3206 10.9453 27.6718C9.31145 29.2507 8.70117 30.5808 9.13576 31.6244C10.0322 33.7827 14.7687 33.1123 17.0008 32.6906V36.9919C17.0008 38.2856 17.9851 39.3549 19.2449 39.4823V40.9353C19.2449 41.5222 19.7219 42 20.311 42H21.91C22.4991 42 22.9761 41.5222 22.9761 40.9353V39.496H28.0306V40.9353C28.0306 41.5222 28.5076 42 29.0967 42H30.6957C31.2847 42 31.7617 41.5222 31.7617 40.9353L31.7587 39.4838C33.014 39.3549 34.0029 38.2872 34.0029 36.9934V28.2224L38.6833 26.1961C39.5722 25.8124 39.5722 24.552 38.6788 24.1698L37.8369 23.8088C39.1861 22.8245 40.2309 21.8887 40.9396 21.0227C41.8966 19.8548 42.2069 18.8434 41.8662 18.0183Z" fill="#6524EB" stroke="#EBE2FF" stroke-width="0.2"/>
</g>
<defs>
<clipPath id="clip0_1292_332">
<rect width="50" height="50" fill="white"/>
</clipPath>
</defs>
</svg>
