<svg width="50" height="50" viewBox="0 0 50 50" fill="none" xmlns="http://www.w3.org/2000/svg">
<g clip-path="url(#clip0_2288_391)">
<rect width="50" height="50" fill="white"/>
<circle cx="25" cy="25" r="24.5" fill="#EBE2FF" stroke="#E6EAF4"/>
<path d="M26.9471 31.6233H20.5114C20.2751 31.6233 20.087 31.4352 20.087 31.199C20.087 30.9627 20.2751 30.7746 20.5114 30.7746H26.5227V16.8488H11.8488V30.779H14.6313C14.8676 30.779 15.0557 30.9671 15.0557 31.2033C15.0557 31.4396 14.8676 31.6277 14.6313 31.6277H11.4244C11.1881 31.6233 11 31.4352 11 31.2033V16.4244C11 16.1881 11.1881 16 11.4244 16H26.9471C27.1834 16 27.3715 16.1881 27.3715 16.4244V31.2033C27.3715 31.4352 27.1834 31.6233 26.9471 31.6233Z" fill="#6524EB"/>
<path d="M30.0322 31.6234H26.9478C26.7116 31.6234 26.5234 31.4353 26.5234 31.199C26.5234 30.9628 26.7116 30.7747 26.9478 30.7747H30.0322C30.2685 30.7747 30.4566 30.9628 30.4566 31.199C30.4566 31.4353 30.2685 31.6234 30.0322 31.6234Z" fill="#6524EB"/>
<path d="M38.5767 31.6232H35.9123C35.6761 31.6232 35.4879 31.4351 35.4879 31.1988C35.4879 30.9626 35.6761 30.7744 35.9123 30.7744H38.1524V26.7975L33.401 19.9987H26.9478C26.7116 19.9987 26.5234 19.8105 26.5234 19.5743C26.5234 19.338 26.7116 19.1499 26.9478 19.1499H33.6242C33.7642 19.1499 33.891 19.2155 33.9698 19.3293L38.9267 26.4256C38.9749 26.4956 39.0011 26.5831 39.0011 26.6706V31.2032C39.0011 31.4351 38.813 31.6232 38.5767 31.6232Z" fill="#6524EB"/>
<path d="M34.6213 25.5726H29.2838C29.0475 25.5726 28.8594 25.3844 28.8594 25.1482V21.95C28.8594 21.7138 29.0475 21.5256 29.2838 21.5256H32.7313C32.8582 21.5256 32.9807 21.5825 33.0638 21.6831L34.9582 24.0413C35.0195 24.1157 35.0501 24.2119 35.0501 24.3082V25.1482C35.0457 25.3801 34.8576 25.5726 34.6213 25.5726ZM29.7081 24.7238H34.2013V24.4569L32.5301 22.3744H29.7125V24.7238H29.7081Z" fill="#6524EB"/>
<path d="M32.9702 35.1015C31.0933 35.1015 29.5664 33.5746 29.5664 31.6977C29.5664 31.5052 29.5839 31.3127 29.6145 31.129C29.8902 29.484 31.3033 28.2939 32.9702 28.2939C34.6371 28.2939 36.0502 29.4883 36.3259 31.1334C36.3565 31.3171 36.374 31.5096 36.374 31.7021C36.374 33.5746 34.8471 35.1015 32.9702 35.1015ZM32.9702 29.1427C31.7189 29.1427 30.6558 30.0396 30.4502 31.2734C30.4283 31.4134 30.4152 31.5534 30.4152 31.6977C30.4152 33.1065 31.5614 34.2528 32.9702 34.2528C34.379 34.2528 35.5252 33.1065 35.5252 31.6977C35.5252 31.5534 35.5121 31.409 35.4902 31.2734C35.2802 30.0396 34.2215 29.1427 32.9702 29.1427Z" fill="#6524EB"/>
<path d="M17.5718 35.1015C15.6949 35.1015 14.168 33.5746 14.168 31.6977C14.168 31.5052 14.1855 31.3127 14.2161 31.129C14.4917 29.484 15.9049 28.2939 17.5718 28.2939C19.2387 28.2939 20.6518 29.4883 20.9274 31.1334C20.9581 31.3171 20.9756 31.5096 20.9756 31.7021C20.9756 33.5746 19.4487 35.1015 17.5718 35.1015ZM17.5718 29.1427C16.3205 29.1427 15.2574 30.0396 15.0517 31.2734C15.0299 31.4134 15.0167 31.5534 15.0167 31.6977C15.0167 33.1065 16.163 34.2528 17.5718 34.2528C18.9805 34.2528 20.1268 33.1065 20.1268 31.6977C20.1268 31.5534 20.1137 31.409 20.0918 31.2734C19.8862 30.0396 18.823 29.1427 17.5718 29.1427Z" fill="#6524EB"/>
<path d="M32.9707 33.5614C31.995 33.5614 31.2031 32.7695 31.2031 31.7939C31.2031 30.8183 31.995 30.0264 32.9707 30.0264C33.9463 30.0264 34.7382 30.8183 34.7382 31.7939C34.7382 32.7652 33.9463 33.5614 32.9707 33.5614ZM32.9707 30.8708C32.4631 30.8708 32.0519 31.282 32.0519 31.7895C32.0519 32.297 32.4631 32.7083 32.9707 32.7083C33.4782 32.7083 33.8894 32.297 33.8894 31.7895C33.8894 31.282 33.4782 30.8708 32.9707 30.8708Z" fill="#6524EB"/>
<path d="M17.5722 33.5614C16.5966 33.5614 15.8047 32.7695 15.8047 31.7939C15.8047 30.8183 16.5966 30.0264 17.5722 30.0264C18.5479 30.0264 19.3397 30.8183 19.3397 31.7939C19.3397 32.7652 18.5479 33.5614 17.5722 33.5614ZM17.5722 30.8708C17.0647 30.8708 16.6534 31.282 16.6534 31.7895C16.6534 32.297 17.0647 32.7083 17.5722 32.7083C18.0797 32.7083 18.491 32.297 18.491 31.7895C18.491 31.282 18.0797 30.8708 17.5722 30.8708Z" fill="#6524EB"/>
</g>
<defs>
<clipPath id="clip0_2288_391">
<rect width="50" height="50" fill="white"/>
</clipPath>
</defs>
</svg>
