<svg width="43" height="43" viewBox="0 0 43 43" fill="none" xmlns="http://www.w3.org/2000/svg">
<g filter="url(#filter0_d_1057_406)">
<circle cx="21.5" cy="21.5" r="17.5" fill="white"/>
</g>
<path d="M29.7702 25.8435L23.9498 14.2073C23.7688 13.8451 23.4907 13.5402 23.1464 13.327C22.8019 13.1138 22.4051 13.0006 22 13C21.5949 13.0006 21.1981 13.1138 20.8536 13.327C20.5093 13.5402 20.2311 13.8451 20.0501 14.2073L14.2297 25.8435C13.8922 26.5194 13.9285 27.3217 14.3255 27.9645C14.7225 28.6072 15.4239 28.9989 16.1796 29H27.8204C28.5761 28.9989 29.2775 28.6072 29.6744 27.9645C30.0715 27.3217 30.1077 26.5194 29.7702 25.8435ZM21.2726 18.8181C21.2726 18.5583 21.4113 18.3182 21.6363 18.1883C21.8614 18.0584 22.1389 18.0584 22.364 18.1883C22.5891 18.3182 22.7276 18.5583 22.7276 18.8181V21.7271C22.7276 21.987 22.589 22.2271 22.364 22.357C22.1389 22.4869 21.8614 22.4869 21.6363 22.357C21.4113 22.2271 21.2726 21.987 21.2726 21.7271V18.8181ZM22.0001 26.0907C21.7108 26.0907 21.4332 25.9758 21.2284 25.7712C21.0238 25.5667 20.9088 25.2892 20.9088 24.9998C20.9088 24.7105 21.0238 24.433 21.2284 24.2285C21.4332 24.0238 21.7108 23.9089 22.0001 23.9089C22.2895 23.9089 22.5671 24.0238 22.7719 24.2285C22.9765 24.433 23.0915 24.7105 23.0915 24.9998C23.0915 25.2892 22.9765 25.5667 22.7719 25.7712C22.5671 25.9758 22.2895 26.0907 22.0001 26.0907Z" fill="#FFB747"/>
<defs>
<filter id="filter0_d_1057_406" x="0" y="0" width="43" height="43" filterUnits="userSpaceOnUse" color-interpolation-filters="sRGB">
<feFlood flood-opacity="0" result="BackgroundImageFix"/>
<feColorMatrix in="SourceAlpha" type="matrix" values="0 0 0 0 0 0 0 0 0 0 0 0 0 0 0 0 0 0 127 0" result="hardAlpha"/>
<feOffset/>
<feGaussianBlur stdDeviation="2"/>
<feComposite in2="hardAlpha" operator="out"/>
<feColorMatrix type="matrix" values="0 0 0 0 1 0 0 0 0 0.717647 0 0 0 0 0.278431 0 0 0 0.3 0"/>
<feBlend mode="normal" in2="BackgroundImageFix" result="effect1_dropShadow_1057_406"/>
<feBlend mode="normal" in="SourceGraphic" in2="effect1_dropShadow_1057_406" result="shape"/>
</filter>
</defs>
</svg>
