<svg width="50" height="50" viewBox="0 0 50 50" fill="none" xmlns="http://www.w3.org/2000/svg">
<g clip-path="url(#clip0_694_436)">
<rect width="50" height="50" fill="white"/>
<circle cx="25" cy="25" r="24.5" fill="#EBE2FF" stroke="#E0E5F2"/>
<path d="M37.5171 12.9636H12.4815C12.2157 12.9636 12 13.1793 12 13.4451V36.5549C12 36.8212 12.2157 37.0364 12.4815 37.0364H37.5171C37.7834 37.0364 37.9986 36.8212 37.9986 36.5549V13.4451C37.9986 13.1793 37.7834 12.9636 37.5171 12.9636ZM37.0357 13.9265V16.8153H12.9629V13.9265H37.0357ZM12.9629 36.0735V17.7782H37.0357V36.0735H12.9629Z" fill="#6524EB"/>
<path d="M14.4072 15.8523H15.3701C15.6359 15.8523 15.8516 15.6366 15.8516 15.3709C15.8516 15.1051 15.6359 14.8894 15.3701 14.8894H14.4072C14.1415 14.8894 13.9258 15.1051 13.9258 15.3709C13.9258 15.6366 14.1415 15.8523 14.4072 15.8523Z" fill="#6524EB"/>
<path d="M17.2979 15.8523H18.2608C18.5265 15.8523 18.7422 15.6366 18.7422 15.3709C18.7422 15.1051 18.5265 14.8894 18.2608 14.8894H17.2979C17.0321 14.8894 16.8164 15.1051 16.8164 15.3709C16.8164 15.6366 17.0321 15.8523 17.2979 15.8523Z" fill="#6524EB"/>
<path d="M20.1846 15.8523H21.1475C21.4133 15.8523 21.6289 15.6366 21.6289 15.3709C21.6289 15.1051 21.4133 14.8894 21.1475 14.8894H20.1846C19.9188 14.8894 19.7031 15.1051 19.7031 15.3709C19.7031 15.6366 19.9188 15.8523 20.1846 15.8523Z" fill="#6524EB"/>
<path d="M30.2471 20.1267L23.4383 26.9359C23.1658 27.2084 23.0156 27.5715 23.0156 27.9571C23.0156 28.3432 23.1658 28.7058 23.4383 28.9783C23.7113 29.2508 24.0739 29.4015 24.46 29.4015C24.8456 29.4015 25.2082 29.2513 25.4812 28.9783L32.2899 22.1695C32.5624 21.8965 32.7131 21.534 32.7131 21.1479C32.7131 20.7617 32.5629 20.3992 32.2899 20.1267C31.7449 19.5817 30.7931 19.5812 30.2471 20.1267ZM31.6091 21.4887L24.8004 28.2975C24.6184 28.4795 24.3011 28.479 24.1191 28.2975C24.0281 28.207 23.9785 28.0861 23.9785 27.9571C23.9785 27.8286 24.0286 27.7072 24.1191 27.6167L30.9279 20.808C31.0189 20.717 31.1402 20.6669 31.2687 20.6669C31.3978 20.6669 31.5186 20.717 31.6091 20.808C31.7001 20.8985 31.7502 21.0193 31.7502 21.1484C31.7502 21.2774 31.6996 21.3978 31.6091 21.4887Z" fill="#6524EB"/>
<path d="M21.4385 28.5713C20.7953 28.5713 20.1911 28.8221 19.7361 29.2766C19.2137 29.799 19.2354 30.6131 19.2547 31.3324C19.2696 31.8827 19.2845 32.4513 19.0549 32.6815C18.9017 32.8341 18.4949 33.2409 18.6803 33.6887C18.7583 33.8764 18.9542 34.1003 19.4463 34.1003C20.324 34.1003 22.4953 33.3252 23.1395 32.681C23.594 32.2265 23.8444 31.6223 23.8444 30.979C23.8444 30.3358 23.594 29.7316 23.1395 29.2771C22.685 28.8226 22.0813 28.5713 21.4385 28.5713ZM22.4597 31.9997C22.1256 32.3339 20.8165 32.8688 19.9634 33.0628C20.2513 32.5573 20.2335 31.8991 20.2176 31.3064C20.2026 30.7557 20.1877 30.1871 20.4174 29.9574C20.6904 29.6849 21.0529 29.5342 21.439 29.5342C21.8247 29.5342 22.1872 29.6844 22.4602 29.9574C22.7327 30.2299 22.8829 30.5924 22.8829 30.9786C22.8829 31.3647 22.7322 31.7272 22.4597 31.9997Z" fill="#6524EB"/>
</g>
<defs>
<clipPath id="clip0_694_436">
<rect width="50" height="50" fill="white"/>
</clipPath>
</defs>
</svg>
