<svg width="50" height="50" viewBox="0 0 50 50" fill="none" xmlns="http://www.w3.org/2000/svg">
<g clip-path="url(#clip0_400_184)">
<rect width="50" height="50" fill="white"/>
<circle cx="25" cy="25" r="24.5" fill="#EBE2FF" stroke="#E0E5F2"/>
<path d="M37.5171 12.9609H12.4815C12.2157 12.9609 12 13.1766 12 13.4424V36.5523C12 36.8185 12.2157 37.0337 12.4815 37.0337H37.5171C37.7834 37.0337 37.9986 36.8185 37.9986 36.5523V13.4424C37.9986 13.1766 37.7834 12.9609 37.5171 12.9609ZM37.0357 13.9238V16.8126H12.9629V13.9238H37.0357ZM12.9629 36.0708V17.7755H37.0357V36.0708H12.9629Z" fill="#6524EB"/>
<path d="M14.4111 15.8457H15.3741C15.6398 15.8457 15.8555 15.63 15.8555 15.3643C15.8555 15.0985 15.6398 14.8828 15.3741 14.8828H14.4111C14.1454 14.8828 13.9297 15.0985 13.9297 15.3643C13.9297 15.63 14.1454 15.8457 14.4111 15.8457Z" fill="#6524EB"/>
<path d="M17.3018 15.8457H18.2647C18.5304 15.8457 18.7461 15.63 18.7461 15.3643C18.7461 15.0985 18.5304 14.8828 18.2647 14.8828H17.3018C17.036 14.8828 16.8203 15.0985 16.8203 15.3643C16.8203 15.63 17.036 15.8457 17.3018 15.8457Z" fill="#6524EB"/>
<path d="M20.1846 15.8457H21.1475C21.4133 15.8457 21.6289 15.63 21.6289 15.3643C21.6289 15.0985 21.4133 14.8828 21.1475 14.8828H20.1846C19.9188 14.8828 19.7031 15.0985 19.7031 15.3643C19.7031 15.63 19.9188 15.8457 20.1846 15.8457Z" fill="#6524EB"/>
<path d="M30.2471 20.1277L23.4383 26.9369C23.1658 27.2094 23.0156 27.5724 23.0156 27.9581C23.0156 28.3442 23.1658 28.7067 23.4383 28.9792C23.7113 29.2517 24.0739 29.4024 24.46 29.4024C24.8456 29.4024 25.2082 29.2522 25.4812 28.9792L32.2899 22.1705C32.5624 21.8975 32.7131 21.535 32.7131 21.1489C32.7131 20.7627 32.5629 20.4002 32.2899 20.1277C31.7449 19.5827 30.7931 19.5822 30.2471 20.1277ZM31.6091 21.4897L24.8004 28.2985C24.6184 28.4805 24.3011 28.48 24.1191 28.2985C24.0281 28.208 23.9785 28.0871 23.9785 27.9581C23.9785 27.8295 24.0286 27.7082 24.1191 27.6177L30.9279 20.8089C31.0189 20.718 31.1402 20.6679 31.2687 20.6679C31.3978 20.6679 31.5186 20.718 31.6091 20.8089C31.7001 20.8995 31.7502 21.0203 31.7502 21.1493C31.7502 21.2784 31.6996 21.3987 31.6091 21.4897Z" fill="#6524EB"/>
<path d="M21.4385 28.5703C20.7953 28.5703 20.1911 28.8212 19.7361 29.2756C19.2137 29.798 19.2354 30.6122 19.2547 31.3315C19.2696 31.8818 19.2845 32.4504 19.0549 32.6805C18.9017 32.8331 18.4949 33.2399 18.6803 33.6877C18.7583 33.8755 18.9542 34.0993 19.4463 34.0993C20.324 34.0993 22.4953 33.3242 23.1395 32.68C23.594 32.2255 23.8444 31.6213 23.8444 30.9781C23.8444 30.3348 23.594 29.7306 23.1395 29.2761C22.685 28.8216 22.0813 28.5703 21.4385 28.5703ZM22.4597 31.9988C22.1256 32.3329 20.8165 32.8678 19.9634 33.0618C20.2513 32.5563 20.2335 31.8981 20.2176 31.3055C20.2026 30.7547 20.1877 30.1861 20.4174 29.9564C20.6904 29.6839 21.0529 29.5332 21.439 29.5332C21.8247 29.5332 22.1872 29.6834 22.4602 29.9564C22.7327 30.2289 22.8829 30.5915 22.8829 30.9776C22.8829 31.3637 22.7322 31.7263 22.4597 31.9988Z" fill="#6524EB"/>
</g>
<defs>
<clipPath id="clip0_400_184">
<rect width="50" height="50" fill="white"/>
</clipPath>
</defs>
</svg>
